<svg width="99" height="99" viewBox="0 0 99 99" fill="none" xmlns="http://www.w3.org/2000/svg">
<rect y="8.60864" width="94.6956" height="81.7826" rx="14" fill="#F5F0E6"/>
<path d="M17.8813 73.0713C17.8783 72.9796 17.57 63.8785 16.0896 62.439C14.6498 61.0393 12.9972 62.3869 12.9277 62.4448L12.7793 62.2669C12.798 62.2511 14.663 60.7288 16.2512 62.2729C17.798 63.7771 18.1007 72.6855 18.1127 73.064L17.8813 73.0713Z" fill="#E0E0E0"/>
<path d="M18.0095 74.8598C17.9988 74.751 16.9977 63.9339 20.9481 59.4001L21.1228 59.5522C17.2379 64.0108 18.2297 74.7295 18.24 74.8372L18.0095 74.8598Z" fill="#E0E0E0"/>
<path d="M17.8636 73.7155L17.6324 73.7001C17.6405 73.5774 18.4055 61.4024 15.5078 58.7373L15.6646 58.5667C18.6435 61.3067 17.8969 73.21 17.8636 73.7155Z" fill="#E0E0E0"/>
<path d="M18.2395 73.7088L18.0078 73.7069C18.0106 73.3716 18.1034 65.4832 20.3441 64.1992C20.8422 63.9134 21.33 63.8659 21.7939 64.0578C23.1488 64.6182 23.8203 67.0296 23.8482 67.1318L23.6247 67.193C23.6181 67.1689 22.9552 64.7886 21.7051 64.2718C21.3111 64.1091 20.8921 64.1521 20.4593 64.4001C18.3331 65.6186 18.2402 73.628 18.2395 73.7088Z" fill="#E0E0E0"/>
<path d="M17.3676 73.7143L17.1363 73.7012C17.1399 73.6389 17.4744 67.4675 15.8089 65.293C15.4053 64.7663 14.9672 64.5152 14.5044 64.5475C13.4131 64.6238 12.498 66.2208 12.4889 66.2368L12.2871 66.1228C12.3268 66.0527 13.2723 64.4016 14.4879 64.3165C15.0317 64.2778 15.5387 64.5595 15.9928 65.1523C17.7106 67.3949 17.3824 73.4575 17.3676 73.7143Z" fill="#E0E0E0"/>
<path d="M17.7326 74.5539C17.6872 73.9552 16.6438 59.8637 18.4797 57.3806L18.6659 57.5182C16.8808 59.9327 17.9526 74.3905 17.9636 74.5362L17.7326 74.5539Z" fill="#E0E0E0"/>
<path d="M22.2938 65.486C22.2938 65.486 21.1924 65.8921 21.5198 66.8506C21.8473 67.8092 25.33 69.3869 25.33 69.3869C25.33 69.3869 26.7886 68.0499 25.4491 65.8756C24.1096 63.7014 22.3235 64.8 22.2938 65.486Z" fill="#EBEBEB"/>
<path d="M17.5062 63.6613C17.5062 63.6613 18.679 63.6122 18.7457 64.623C18.8123 65.6338 16.2048 68.4302 16.2048 68.4302C16.2048 68.4302 14.3441 67.7575 14.7438 65.2351C15.1434 62.7128 17.2147 63.0396 17.5062 63.6613Z" fill="#EBEBEB"/>
<path d="M16.5125 58.8228C16.5125 58.8228 17.2944 58.7388 17.2315 58.2626C17.1685 57.7863 14.1918 56.5604 12.4355 58.5427C12.4355 58.5427 13.5601 60.4744 15.1857 60.4996C16.8113 60.5249 16.5125 58.8228 16.5125 58.8228Z" fill="#EBEBEB"/>
<path d="M17.9697 57.6662C17.9697 57.6662 17.2617 58.0085 17.0632 57.571C16.8647 57.1335 18.7427 54.5188 21.2816 55.2722C21.2816 55.2722 21.3489 57.5064 19.9826 58.3876C18.6163 59.2688 17.9697 57.6662 17.9697 57.6662Z" fill="#EBEBEB"/>
<path d="M14.2684 65.1007C14.2684 65.1007 14.8081 64.665 14.2256 64.4523C13.6433 64.2396 10.7856 64.3 10.7559 67.1308C10.7559 67.1308 14.0841 67.6839 14.496 66.6056C14.908 65.5274 14.2684 65.1007 14.2684 65.1007Z" fill="#EBEBEB"/>
<path d="M21.0554 58.7518C21.0554 58.7518 20.5158 58.3161 21.0982 58.1034C21.6805 57.8908 24.5382 57.9512 24.5679 60.7819C24.5679 60.7819 21.2397 61.335 20.8277 60.2567C20.4158 59.1785 21.0554 58.7518 21.0554 58.7518Z" fill="#EBEBEB"/>
<path d="M19.2967 61.0322C19.2967 61.0322 19.2492 60.5025 19.6769 60.7101C20.1045 60.9177 21.5942 62.5249 20.05 64.05C20.05 64.05 17.9713 62.5105 18.346 61.7087C18.7207 60.907 19.2967 61.0322 19.2967 61.0322Z" fill="#EBEBEB"/>
<path d="M13.7853 61.787C13.7853 61.787 14.1079 61.3643 13.6354 61.3119C13.163 61.2595 11.0457 61.8246 11.5388 63.9383C11.5388 63.9383 14.1182 63.7444 14.2288 62.8664C14.3393 61.9883 13.7853 61.787 13.7853 61.787Z" fill="#EBEBEB"/>
<path d="M20.409 77.7919H15.2061L13.8223 71.4087H21.6615L20.409 77.7919Z" fill="#F0F0F0"/>
<path d="M22.1124 71.3162H13.3496V73.1518H22.1124V71.3162Z" fill="#E6E6E6"/>
<path d="M87.8977 65.3792H52.1099C51.4699 65.3792 50.9492 64.8585 50.9492 64.2185V12.0903C50.9492 11.4503 51.4699 10.9297 52.1099 10.9297H87.8977C88.5377 10.9297 89.0584 11.4503 89.0584 12.0903V64.2185C89.0584 64.8585 88.5377 65.3792 87.8977 65.3792ZM52.1099 10.9792C51.4972 10.9792 50.9987 11.4777 50.9987 12.0903V64.2185C50.9987 64.8312 51.4972 65.3297 52.1099 65.3297H87.8977C88.5104 65.3297 89.0089 64.8312 89.0089 64.2185V12.0903C89.0089 11.4777 88.5104 10.9792 87.8977 10.9792H52.1099Z" fill="#E0E0E0"/>
<path d="M46.6282 65.3792H10.8403C10.2003 65.3792 9.67969 64.8585 9.67969 64.2185V12.0903C9.67969 11.4503 10.2003 10.9297 10.8403 10.9297H46.6282C47.2682 10.9297 47.7889 11.4503 47.7889 12.0903V64.2185C47.7889 64.8585 47.2682 65.3792 46.6282 65.3792ZM10.8403 10.9792C10.2277 10.9792 9.72919 11.4777 9.72919 12.0903V64.2185C9.72919 64.8312 10.2277 65.3297 10.8403 65.3297H46.6282C47.2409 65.3297 47.7394 64.8312 47.7394 64.2185V12.0903C47.7394 11.4777 47.2409 10.9792 46.6282 10.9792H10.8403Z" fill="#E0E0E0"/>
<path d="M99 77.4709H0V77.5204H99V77.4709Z" fill="#E0E0E0"/>
<path d="M13.4103 80.2954H10.2305V80.3449H13.4103V80.2954Z" fill="#E0E0E0"/>
<path d="M44.3294 79.7588H33.7305V79.8083H44.3294V79.7588Z" fill="#E0E0E0"/>
<path d="M20.7869 82.1348H13.6094V82.1843H20.7869V82.1348Z" fill="#E0E0E0"/>
<path d="M83.4657 79.7329H74.9141V79.7824H83.4657V79.7329Z" fill="#E0E0E0"/>
<path d="M86.4838 79.7329H85.2305V79.7824H86.4838V79.7329Z" fill="#E0E0E0"/>
<path d="M73.2796 80.9666H62.6094V81.0161H73.2796V80.9666Z" fill="#E0E0E0"/>
<path d="M14.7905 39.9586C14.7204 39.6206 14.5865 39.3065 14.4034 39.0274L14.7368 38.6247L14.024 37.9119L13.6213 38.2453C13.3422 38.0622 13.028 37.9283 12.6902 37.8582L12.6413 37.3391H11.6332L11.5843 37.8582C11.2464 37.9283 10.9322 38.0622 10.6532 38.2453L10.2505 37.9119L9.53766 38.6247L9.87103 39.0275C9.68792 39.3065 9.55403 39.6206 9.48394 39.9586L8.96484 40.0075V41.0155L9.48394 41.0644C9.55403 41.4023 9.68792 41.7165 9.87103 41.9955L9.53766 42.3982L10.2505 43.1111L10.6532 42.7776C10.9322 42.9608 11.2464 43.0947 11.5843 43.1647L11.6332 43.6838H12.6413L12.6902 43.1648C13.028 43.0948 13.3422 42.9608 13.6213 42.7776L14.024 43.1111L14.7368 42.3982L14.4034 41.9956C14.5865 41.7165 14.7204 41.4023 14.7905 41.0644L15.3095 41.0155V40.0075L14.7905 39.9586ZM13.5019 40.5115C13.5019 41.2652 12.8909 41.8761 12.1372 41.8761C11.3835 41.8761 10.7726 41.2652 10.7726 40.5115C10.7726 39.7578 11.3835 39.1468 12.1372 39.1468C12.8909 39.1468 13.5019 39.7578 13.5019 40.5115Z" fill="#EBEBEB"/>
<path d="M67.771 37.8887C67.7009 37.5508 67.567 37.2366 67.3839 36.9576L67.7173 36.5549L67.0045 35.8421L66.6017 36.1754C66.3227 35.9924 66.0085 35.8584 65.6706 35.7884L65.6217 35.2693H64.6137L64.5648 35.7884C64.2269 35.8585 63.9127 35.9924 63.6337 36.1754L63.2309 35.8421L62.5181 36.5549L62.8515 36.9576C62.6684 37.2366 62.5345 37.5508 62.4644 37.8887L61.9453 37.9377V38.9457L62.4644 38.9946C62.5345 39.3325 62.6684 39.6466 62.8515 39.9257L62.5181 40.3284L63.2309 41.0412L63.6337 40.7078C63.9127 40.891 64.2269 41.0248 64.5648 41.0949L64.6137 41.614H65.6217L65.6706 41.095C66.0085 41.0249 66.3227 40.891 66.6017 40.7078L67.0045 41.0412L67.7173 40.3284L67.3839 39.9257C67.567 39.6466 67.7009 39.3325 67.771 38.9946L68.29 38.9457V37.9377L67.771 37.8887ZM66.4824 38.4417C66.4824 39.1953 65.8714 39.8063 65.1177 39.8063C64.364 39.8063 63.753 39.1953 63.753 38.4417C63.753 37.688 64.364 37.077 65.1177 37.077C65.8714 37.077 66.4824 37.688 66.4824 38.4417Z" fill="#EBEBEB"/>
<path d="M69.7709 59.8177C69.7009 59.4798 69.567 59.1656 69.3839 58.8866L69.7173 58.4839L69.0045 57.771L68.6017 58.1044C68.3227 57.9213 68.0085 57.7874 67.6706 57.7173L67.6217 57.1982H66.6137L66.5648 57.7173C66.2269 57.7874 65.9127 57.9213 65.6337 58.1044L65.2309 57.771L64.5181 58.4839L64.8515 58.8866C64.6684 59.1656 64.5345 59.4798 64.4644 59.8177L63.9453 59.8666V60.8746L64.4644 60.9236C64.5345 61.2615 64.6684 61.5756 64.8515 61.8546L64.5181 62.2574L65.2309 62.9702L65.6337 62.6367C65.9127 62.8199 66.2269 62.9538 66.5648 63.0239L66.6137 63.543H67.6217L67.6706 63.0239C68.0085 62.9539 68.3227 62.8199 68.6017 62.6367L69.0045 62.9702L69.7173 62.2574L69.3839 61.8547C69.567 61.5756 69.7009 61.2615 69.7709 60.9236L70.29 60.8746V59.8666L69.7709 59.8177ZM68.4824 60.3706C68.4824 61.1243 67.8714 61.7353 67.1177 61.7353C66.364 61.7353 65.753 61.1243 65.753 60.3706C65.753 59.6169 66.364 59.0059 67.1177 59.0059C67.8714 59.0059 68.4824 59.6169 68.4824 60.3706Z" fill="#EBEBEB"/>
<path d="M46.194 19.5004C46.1283 19.1832 46.0026 18.8884 45.8307 18.6265L46.1436 18.2486L45.4747 17.5795L45.0967 17.8924C44.8348 17.7206 44.5399 17.5949 44.2228 17.5292L44.1769 17.042H43.2309L43.1849 17.5292C42.8678 17.5949 42.573 17.7206 42.3111 17.8924L41.9332 17.5795L41.2642 18.2486L41.5771 18.6265C41.4052 18.8884 41.2795 19.1832 41.2137 19.5004L40.7266 19.5463V20.4923L41.2137 20.5383C41.2795 20.8554 41.4052 21.1502 41.5771 21.4121L41.2642 21.7901L41.9332 22.4591L42.3111 22.1461C42.573 22.318 42.8678 22.4437 43.1849 22.5094L43.2309 22.9966H44.1769L44.2228 22.5095C44.5399 22.4437 44.8348 22.318 45.0967 22.1461L45.4747 22.4591L46.1436 21.7901L45.8307 21.4121C46.0026 21.1502 46.1283 20.8554 46.194 20.5383L46.6812 20.4923V19.5463L46.194 19.5004ZM44.9847 20.0193C44.9847 20.7266 44.4113 21.3001 43.7039 21.3001C42.9966 21.3001 42.4231 20.7266 42.4231 20.0193C42.4231 19.312 42.9966 18.7386 43.7039 18.7386C44.4113 18.7386 44.9847 19.312 44.9847 20.0193Z" fill="#EBEBEB"/>
<path d="M91.3282 44.4354C91.8732 44.1184 92.2406 43.5295 92.2406 42.8536C92.2406 41.8427 91.4211 41.0232 90.4103 41.0232C89.3994 41.0232 88.5799 41.8427 88.5799 42.8536C88.5799 43.5302 88.948 44.1195 89.4938 44.4363C87.2478 44.9763 87.1094 47.461 87.1094 47.461L93.7112 47.4228C93.7112 47.4228 93.5728 44.9696 91.3282 44.4354Z" fill="#EBEBEB"/>
<path d="M70.2969 23.4148C70.2969 23.4148 77.2929 16.2798 84.2889 23.4859C84.2889 23.4859 77.7325 32.1144 70.2969 23.4148Z" fill="#F5F5F5"/>
<path d="M77.2928 26.3173C78.6928 26.3173 79.8278 25.1823 79.8278 23.7823C79.8278 22.3823 78.6928 21.2473 77.2928 21.2473C75.8928 21.2473 74.7578 22.3823 74.7578 23.7823C74.7578 25.1823 75.8928 26.3173 77.2928 26.3173Z" fill="#EBEBEB"/>
<path d="M77.292 24.795C77.8514 24.795 78.3048 24.3416 78.3048 23.7823C78.3048 23.223 77.8514 22.7695 77.292 22.7695C76.7327 22.7695 76.2793 23.223 76.2793 23.7823C76.2793 24.3416 76.7327 24.795 77.292 24.795Z" fill="#E0E0E0"/>
<path d="M38.4944 68.8306C38.2398 68.8306 38.0176 68.7446 37.8278 68.5727C37.6379 68.4008 37.543 68.1604 37.543 67.8513C37.543 67.577 37.6348 67.3463 37.8184 67.1592C38.002 66.9721 38.2273 66.8784 38.4944 66.8784C38.7572 66.8784 38.9784 66.9721 39.1578 67.1592C39.3373 67.3463 39.427 67.577 39.427 67.8513C39.427 68.1559 39.3331 68.3954 39.1453 68.5694C38.9575 68.7435 38.7406 68.8306 38.4944 68.8306Z" fill="#E6E6E6"/>
<path d="M35.5625 61.927C35.5625 61.5242 35.6865 61.1162 35.9344 60.7029C36.1822 60.2896 36.5439 59.9473 37.0194 59.676C37.4949 59.4048 38.0496 59.269 38.6836 59.269C39.2728 59.269 39.793 59.3825 40.2441 59.6092C40.6952 59.836 41.0436 60.1444 41.2895 60.5344C41.5354 60.9245 41.6583 61.3483 41.6583 61.8061C41.6583 62.1665 41.5882 62.4824 41.448 62.7536C41.3078 63.0249 41.1412 63.2591 40.9481 63.4562C40.7551 63.6533 40.4086 63.985 39.9088 64.4513C39.7706 64.5827 39.6599 64.6984 39.5766 64.7979C39.4933 64.8975 39.4313 64.9887 39.3907 65.0713C39.35 65.154 39.3185 65.2366 39.2962 65.3193C39.2738 65.402 39.2403 65.5472 39.1956 65.7549C39.1184 66.1958 38.8766 66.4162 38.4702 66.4162C38.2589 66.4162 38.0811 66.3441 37.9368 66.2C37.7926 66.0559 37.7204 65.8418 37.7204 65.5577C37.7204 65.2017 37.7733 64.8933 37.8789 64.6326C37.9846 64.3719 38.1248 64.1429 38.2995 63.9458C38.4743 63.7487 38.71 63.5145 39.0066 63.2432C39.2667 63.0058 39.4547 62.8267 39.5705 62.7059C39.6863 62.5851 39.7838 62.4506 39.8631 62.3021C39.9423 62.1537 39.982 61.9928 39.982 61.8189C39.982 61.4797 39.8611 61.1936 39.6193 60.9604C39.3774 60.7274 39.0656 60.6107 38.6836 60.6107C38.2365 60.6107 37.9074 60.7283 37.696 60.9636C37.4847 61.1989 37.3059 61.5454 37.1596 62.0033C37.0214 62.4824 36.7593 62.7218 36.3733 62.7218C36.1457 62.7218 35.9536 62.6381 35.7972 62.4706C35.6407 62.3032 35.5625 62.1219 35.5625 61.927Z" fill="#E6E6E6"/>
<path d="M37.7423 52.2785H34.3863C33.6293 52.2785 33.0156 51.6649 33.0156 50.9078C33.0156 50.1508 33.6293 49.5371 34.3863 49.5371H37.7423C38.4993 49.5371 39.113 50.1508 39.113 50.9078C39.113 51.6649 38.4993 52.2785 37.7423 52.2785Z" fill="#EBEBEB"/>
<path d="M37.6861 52.3343C38.4738 52.3343 39.1124 51.6957 39.1124 50.908C39.1124 50.1203 38.4738 49.4817 37.6861 49.4817C36.8983 49.4817 36.2598 50.1203 36.2598 50.908C36.2598 51.6957 36.8983 52.3343 37.6861 52.3343Z" fill="#E0E0E0"/>
<path d="M13.5763 19.0429C13.3991 19.0429 13.2444 18.9831 13.1123 18.8634C12.9802 18.7437 12.9141 18.5764 12.9141 18.3612C12.9141 18.1703 12.978 18.0098 13.1058 17.8795C13.2336 17.7493 13.3904 17.6841 13.5763 17.6841C13.7593 17.6841 13.9132 17.7493 14.0381 17.8795C14.163 18.0098 14.2254 18.1703 14.2254 18.3612C14.2254 18.5733 14.1601 18.74 14.0294 18.8611C13.8987 18.9822 13.7476 19.0429 13.5763 19.0429Z" fill="#E6E6E6"/>
<path d="M11.5352 14.2377C11.5352 13.9574 11.6214 13.6734 11.794 13.3857C11.9665 13.0981 12.2183 12.8598 12.5492 12.671C12.8802 12.4822 13.2663 12.3877 13.7076 12.3877C14.1177 12.3877 14.4798 12.4667 14.7938 12.6245C15.1077 12.7823 15.3503 12.997 15.5214 13.2685C15.6926 13.54 15.7781 13.835 15.7781 14.1536C15.7781 14.4044 15.7293 14.6243 15.6318 14.8131C15.5342 15.0019 15.4182 15.165 15.2838 15.3022C15.1495 15.4394 14.9083 15.6703 14.5604 15.9948C14.4642 16.0863 14.3871 16.1668 14.3292 16.236C14.2712 16.3054 14.228 16.3688 14.1997 16.4264C14.1715 16.4839 14.1495 16.5414 14.134 16.599C14.1184 16.6565 14.0951 16.7576 14.064 16.9022C14.0102 17.2091 13.8419 17.3624 13.5591 17.3624C13.412 17.3624 13.2882 17.3123 13.1878 17.212C13.0874 17.1117 13.0372 16.9626 13.0372 16.765C13.0372 16.5171 13.0739 16.3024 13.1475 16.121C13.221 15.9395 13.3186 15.7802 13.4403 15.643C13.5619 15.5058 13.7259 15.3427 13.9324 15.1539C14.1135 14.9887 14.2443 14.864 14.3249 14.7799C14.4055 14.6958 14.4734 14.6022 14.5286 14.4989C14.5837 14.3956 14.6113 14.2835 14.6113 14.1625C14.6113 13.9265 14.5272 13.7273 14.3589 13.565C14.1906 13.4028 13.9734 13.3216 13.7076 13.3216C13.3964 13.3216 13.1673 13.4034 13.0202 13.5672C12.8731 13.731 12.7486 13.9722 12.6468 14.2909C12.5506 14.6243 12.3682 14.791 12.0995 14.791C11.9411 14.791 11.8074 14.7328 11.6985 14.6161C11.5896 14.4996 11.5352 14.3735 11.5352 14.2377Z" fill="#E6E6E6"/>
<path d="M49.1059 91.9854C64.8829 91.9854 77.6726 90.9965 77.6726 89.7766C77.6726 88.5568 64.8829 87.5679 49.1059 87.5679C33.3288 87.5679 20.5391 88.5568 20.5391 89.7766C20.5391 90.9965 33.3288 91.9854 49.1059 91.9854Z" fill="#F5F5F5"/>
<path d="M83.5832 40.752H61.8519C59.9047 40.752 58.3262 42.3305 58.3262 44.2777V55.9144C58.3262 57.8617 59.9047 59.4402 61.8519 59.4402H83.5832C85.5304 59.4402 87.109 57.8617 87.109 55.9144V44.2777C87.109 42.3305 85.5304 40.752 83.5832 40.752Z" fill="#263238"/>
<path d="M65.2598 50.8692V45.5374H68.5283V50.7724C68.5283 52.2543 69.096 52.8083 70.01 52.8083C70.9242 52.8083 71.4919 52.2543 71.4919 50.7724V45.5374H74.705V50.8692C74.705 53.7778 72.9601 55.4534 69.9824 55.4534C67.0048 55.4534 65.2598 53.7778 65.2598 50.8692Z" fill="white"/>
<path d="M76.1992 45.5374H79.4676V55.2318H76.1992V45.5374Z" fill="white"/>
<path d="M73.3269 61.6326H79.1134C79.9869 61.6326 80.6961 62.3418 80.6961 63.2153V69.0018C80.6961 69.8754 79.9869 70.5845 79.1134 70.5845H73.3269C72.4533 70.5845 71.7441 69.8754 71.7441 69.0018V63.2153C71.7441 62.3418 72.4533 61.6326 73.3269 61.6326Z" fill="#DECEB1"/>
<path opacity="0.8" d="M78.6455 66.1086L76.8091 67.1688L74.9727 68.2291V66.1086V63.988L76.8091 65.0483L78.6455 66.1086Z" fill="white"/>
<path d="M93.0421 55.106H83.8005C83.4264 55.106 83.123 55.4093 83.123 55.7834V63.6688C83.123 64.043 83.4264 64.3463 83.8005 64.3463H93.0421C93.4162 64.3463 93.7195 64.043 93.7195 63.6688V55.7834C93.7195 55.4093 93.4162 55.106 93.0421 55.106Z" fill="#DECEB1"/>
<path opacity="0.8" d="M93.0421 55.106H83.8005C83.4264 55.106 83.123 55.4093 83.123 55.7834V63.6688C83.123 64.043 83.4264 64.3463 83.8005 64.3463H93.0421C93.4162 64.3463 93.7195 64.043 93.7195 63.6688V55.7834C93.7195 55.4093 93.4162 55.106 93.0421 55.106Z" fill="white"/>
<path d="M83.1236 62.8597L86.2956 59.7439L89.0057 61.1563L91.5509 58.394L93.72 60.2409V63.9976C93.72 64.1902 93.541 64.3463 93.3201 64.3463H83.801C82.924 64.3463 83.0828 63.0948 83.1236 62.8597Z" fill="#DECEB1"/>
<path d="M89.6983 57.7284C89.6983 58.3609 89.1975 58.8736 88.5796 58.8736C87.9618 58.8736 87.4609 58.3609 87.4609 57.7284C87.4609 57.0959 87.9618 56.5833 88.5796 56.5833C89.1975 56.5833 89.6983 57.0959 89.6983 57.7284Z" fill="#DECEB1"/>
<path d="M90.4835 28.3784H80.5912C79.7761 28.3784 79.1152 29.0392 79.1152 29.8544V35.871C79.1152 36.6861 79.7761 37.3469 80.5912 37.3469H90.4835C91.2987 37.3469 91.9595 36.6861 91.9595 35.871V29.8544C91.9595 29.0392 91.2987 28.3784 90.4835 28.3784Z" fill="#DECEB1"/>
<path opacity="0.4" d="M90.4835 28.3784H80.5912C79.7761 28.3784 79.1152 29.0392 79.1152 29.8544V35.871C79.1152 36.6861 79.7761 37.3469 80.5912 37.3469H90.4835C91.2987 37.3469 91.9595 36.6861 91.9595 35.871V29.8544C91.9595 29.0392 91.2987 28.3784 90.4835 28.3784Z" fill="white"/>
<path d="M84.1403 32.0898L82.1377 32.8625L84.1403 33.6353V34.1034L81.6133 33.105V32.62L84.1403 31.6216V32.0898Z" fill="white"/>
<path d="M86.2209 30.0874H86.7116L84.8501 35.4008H84.3594L86.2209 30.0874Z" fill="white"/>
<path d="M89.4079 32.62V33.105L86.8809 34.1034V33.6353L88.8889 32.8625L86.8809 32.0898V31.6216L89.4079 32.62Z" fill="white"/>
<path d="M76.3169 37.2493V38.4373H75.1289" stroke="#DECEB1" stroke-width="0.75" stroke-miterlimit="10"/>
<path d="M73.8203 38.4373H71.8574" stroke="#DECEB1" stroke-width="0.75" stroke-miterlimit="10"/>
<path d="M71.2036 38.4373H70.0156V37.2493" stroke="#DECEB1" stroke-width="0.75" stroke-miterlimit="10"/>
<path d="M70.0156 35.9407V33.9778" stroke="#DECEB1" stroke-width="0.75" stroke-miterlimit="10"/>
<path d="M70.0156 33.3235V32.1355H71.2036" stroke="#DECEB1" stroke-width="0.75" stroke-miterlimit="10"/>
<path d="M72.5117 32.1355H74.4746" stroke="#DECEB1" stroke-width="0.75" stroke-miterlimit="10"/>
<path d="M75.1289 32.1355H76.3169V33.3235" stroke="#DECEB1" stroke-width="0.75" stroke-miterlimit="10"/>
<path d="M76.3164 34.6321V36.595" stroke="#DECEB1" stroke-width="0.75" stroke-miterlimit="10"/>
<path d="M71.4316 36.9593C71.5558 36.951 71.6556 36.8949 71.731 36.7908C71.7797 36.7255 71.8491 36.5813 71.9398 36.3583L73.0841 33.5388H73.2274L74.3769 36.2451C74.5059 36.5486 74.6023 36.7443 74.6661 36.8323C74.7298 36.9204 74.8203 36.9627 74.9376 36.9593V37.0901H73.2703V36.9593C73.4379 36.9527 73.5482 36.9385 73.6009 36.9166C73.6537 36.8949 73.6802 36.8395 73.6802 36.7506C73.6802 36.7104 73.6667 36.6492 73.64 36.567C73.6232 36.5184 73.6004 36.4597 73.5719 36.391L73.4408 36.0791H72.2845C72.2089 36.2837 72.1602 36.417 72.1384 36.4789C72.0931 36.6115 72.0705 36.7079 72.0705 36.7682C72.0705 36.842 72.12 36.8956 72.219 36.9292C72.2776 36.9476 72.3656 36.9577 72.4829 36.9593V37.0901H71.4316V36.9593ZM73.3652 35.8754L72.8699 34.6832H72.8265L72.3617 35.8754H73.3652Z" fill="#DECEB1"/>
<path d="M70.2829 31.687H69.4551V32.5148H70.2829V31.687Z" fill="#DECEB1"/>
<path d="M76.6832 31.687H75.8555V32.5148H76.6832V31.687Z" fill="#DECEB1"/>
<path d="M70.2829 38.0232H69.4551V38.851H70.2829V38.0232Z" fill="#DECEB1"/>
<path d="M76.6832 38.0232H75.8555V38.851H76.6832V38.0232Z" fill="#DECEB1"/>
<path d="M15.5436 20.1883C15.4378 19.6777 15.2354 19.2029 14.9586 18.7813L15.4625 18.1727L14.3854 17.0955L13.7767 17.5993C13.3551 17.3227 12.8803 17.1202 12.3697 17.0144L12.2958 16.23H10.7725L10.6986 17.0144C10.188 17.1203 9.71318 17.3227 9.29158 17.5993L8.68299 17.0955L7.60582 18.1727L8.10962 18.7813C7.83289 19.2029 7.63056 19.6777 7.52465 20.1883L6.74023 20.2623V21.7855L7.52465 21.8595C7.63056 22.3701 7.83289 22.8448 8.10962 23.2665L7.60582 23.875L8.68299 24.9522L9.29158 24.4483C9.71318 24.7251 10.188 24.9274 10.6986 25.0333L10.7725 25.8177H12.2958L12.3697 25.0334C12.8803 24.9276 13.3551 24.7251 13.7767 24.4483L14.3854 24.9522L15.4625 23.875L14.9586 23.2665C15.2354 22.8448 15.4378 22.3701 15.5436 21.8595L16.328 21.7855V20.2623L15.5436 20.1883ZM13.5964 21.0239C13.5964 22.1628 12.6731 23.0861 11.5341 23.0861C10.3952 23.0861 9.47194 22.1628 9.47194 21.0239C9.47194 19.885 10.3952 18.9617 11.5341 18.9617C12.6731 18.9617 13.5964 19.885 13.5964 21.0239Z" fill="#DECEB1"/>
<path opacity="0.6" d="M15.5436 20.1883C15.4378 19.6777 15.2354 19.2029 14.9586 18.7813L15.4625 18.1727L14.3854 17.0955L13.7767 17.5993C13.3551 17.3227 12.8803 17.1202 12.3697 17.0144L12.2958 16.23H10.7725L10.6986 17.0144C10.188 17.1203 9.71318 17.3227 9.29158 17.5993L8.68299 17.0955L7.60582 18.1727L8.10962 18.7813C7.83289 19.2029 7.63056 19.6777 7.52465 20.1883L6.74023 20.2623V21.7855L7.52465 21.8595C7.63056 22.3701 7.83289 22.8448 8.10962 23.2665L7.60582 23.875L8.68299 24.9522L9.29158 24.4483C9.71318 24.7251 10.188 24.9274 10.6986 25.0333L10.7725 25.8177H12.2958L12.3697 25.0334C12.8803 24.9276 13.3551 24.7251 13.7767 24.4483L14.3854 24.9522L15.4625 23.875L14.9586 23.2665C15.2354 22.8448 15.4378 22.3701 15.5436 21.8595L16.328 21.7855V20.2623L15.5436 20.1883ZM13.5964 21.0239C13.5964 22.1628 12.6731 23.0861 11.5341 23.0861C10.3952 23.0861 9.47194 22.1628 9.47194 21.0239C9.47194 19.885 10.3952 18.9617 11.5341 18.9617C12.6731 18.9617 13.5964 19.885 13.5964 21.0239Z" fill="#DECEB1"/>
<path d="M20.6195 47.7213C20.5476 47.3745 20.4102 47.052 20.2222 46.7657L20.5644 46.3524L19.8328 45.6208L19.4195 45.9629C19.1331 45.7751 18.8107 45.6376 18.4639 45.5657L18.4137 45.033H17.3791L17.3289 45.5657C16.9822 45.6376 16.6597 45.7751 16.3734 45.9629L15.9601 45.6208L15.2285 46.3524L15.5706 46.7657C15.3827 47.052 15.2453 47.3745 15.1733 47.7213L14.6406 47.7715V48.806L15.1733 48.8563C15.2453 49.203 15.3827 49.5254 15.5706 49.8118L15.2285 50.2251L15.9601 50.9567L16.3734 50.6145C16.6597 50.8025 16.9822 50.9399 17.3289 51.0118L17.3791 51.5445H18.4137L18.4639 51.0119C18.8107 50.94 19.1331 50.8025 19.4195 50.6145L19.8328 50.9567L20.5644 50.2251L20.2222 49.8119C20.4102 49.5254 20.5476 49.203 20.6195 48.8563L21.1522 48.806V47.7715L20.6195 47.7213ZM19.297 48.2888C19.297 49.0623 18.6699 49.6893 17.8964 49.6893C17.1229 49.6893 16.4959 49.0623 16.4959 48.2888C16.4959 47.5153 17.1229 46.8882 17.8964 46.8882C18.6699 46.8882 19.297 47.5153 19.297 48.2888Z" fill="#DECEB1"/>
<path opacity="0.6" d="M20.6195 47.7213C20.5476 47.3745 20.4102 47.052 20.2222 46.7657L20.5644 46.3524L19.8328 45.6208L19.4195 45.9629C19.1331 45.7751 18.8107 45.6376 18.4639 45.5657L18.4137 45.033H17.3791L17.3289 45.5657C16.9822 45.6376 16.6597 45.7751 16.3734 45.9629L15.9601 45.6208L15.2285 46.3524L15.5706 46.7657C15.3827 47.052 15.2453 47.3745 15.1733 47.7213L14.6406 47.7715V48.806L15.1733 48.8563C15.2453 49.203 15.3827 49.5254 15.5706 49.8118L15.2285 50.2251L15.9601 50.9567L16.3734 50.6145C16.6597 50.8025 16.9822 50.9399 17.3289 51.0118L17.3791 51.5445H18.4137L18.4639 51.0119C18.8107 50.94 19.1331 50.8025 19.4195 50.6145L19.8328 50.9567L20.5644 50.2251L20.2222 49.8119C20.4102 49.5254 20.5476 49.203 20.6195 48.8563L21.1522 48.806V47.7715L20.6195 47.7213ZM19.297 48.2888C19.297 49.0623 18.6699 49.6893 17.8964 49.6893C17.1229 49.6893 16.4959 49.0623 16.4959 48.2888C16.4959 47.5153 17.1229 46.8882 17.8964 46.8882C18.6699 46.8882 19.297 47.5153 19.297 48.2888Z" fill="#DECEB1"/>
<path d="M27.5155 57.0727C27.1708 55.5988 27.9199 54.1634 29.1888 53.8666C30.4576 53.5698 31.7657 54.5241 32.1104 55.9981C32.4552 57.472 31.706 58.9075 30.4372 59.2042C29.1683 59.501 27.8603 58.5467 27.5155 57.0727Z" fill="#DECEB1"/>
<path d="M18.0625 16.6792L19.1008 11.4602L22.6541 15.6053L32.0579 55.8118L27.4664 56.8858L18.0625 16.6792Z" fill="#DECEB1"/>
<path d="M20.0405 12.5535C19.7083 12.9617 19.3044 13.0596 18.8255 12.8411L18.0625 16.6793C18.0625 16.6793 18.7004 17.6209 19.213 16.4834C19.213 16.4834 20.0161 17.3003 20.5223 16.1772C20.5223 16.1772 21.2614 16.8044 21.6644 15.9101C21.6644 15.9101 22.2964 16.3991 22.6541 15.6054L20.0405 12.5535Z" fill="#B97964"/>
<path opacity="0.3" d="M20.5391 16.1787L30.2011 56.3042L31.27 56.0542C31.4285 55.9646 21.6812 15.9116 21.6812 15.9116C21.2782 16.806 20.5391 16.1787 20.5391 16.1787Z" fill="white"/>
<path opacity="0.3" d="M19.2188 16.4963C18.9362 17.1235 18.6157 17.1183 18.3848 16.9877L27.9793 56.8327L29.0482 56.5827C29.199 56.4974 20.3699 20.1832 19.5244 16.7073C19.3431 16.6223 19.2188 16.4963 19.2188 16.4963Z" fill="white"/>
<path d="M27.4648 57.4155L32.3281 56.2781L32.1446 55.4933L27.2813 56.6308L27.4648 57.4155Z" fill="#263238"/>
<path d="M39.8231 14.603H26.207V28.219H39.8231V14.603Z" stroke="#263238" stroke-width="0.5" stroke-miterlimit="10"/>
<path d="M39.1328 15.2461H26.8613V27.5175H39.1328V15.2461Z" stroke="#263238" stroke-width="0.5" stroke-miterlimit="10"/>
<path d="M26.8613 27.4668L39.1328 15.1953" stroke="#263238" stroke-width="0.5" stroke-miterlimit="10"/>
<path d="M39.1328 27.4668L26.8613 15.1953" stroke="#263238" stroke-width="0.5" stroke-miterlimit="10"/>
<path d="M38.7141 25.1135H16.9828C15.0356 25.1135 13.457 26.6921 13.457 28.6393V40.276C13.457 42.2232 15.0356 43.8018 16.9828 43.8018H38.7141C40.6613 43.8018 42.2398 42.2232 42.2398 40.276V28.6393C42.2398 26.6921 40.6613 25.1135 38.7141 25.1135Z" fill="#DECEB1"/>
<path d="M17.7578 35.2307V29.8987H21.0263V35.1338C21.0263 36.6156 21.5941 37.1696 22.5081 37.1696C23.4222 37.1696 23.99 36.6156 23.99 35.1338V29.8987H27.203V35.2307C27.203 38.1391 25.4581 39.8148 22.4804 39.8148C19.5028 39.8148 17.7578 38.1391 17.7578 35.2307Z" fill="white"/>
<path d="M34.6937 39.5932L33.0179 37.0034L31.3837 39.5932H27.6582L31.1621 34.7044L27.7828 29.8987H31.4529L33.101 32.3362L34.7075 29.8987H38.2253L34.8599 34.5798L38.433 39.5932H34.6937Z" fill="white"/>
<path d="M37.9414 45.7275H33.9703C33.2133 45.7275 32.5996 46.3412 32.5996 47.0983V47.0983C32.5996 47.8553 33.2133 48.469 33.9703 48.469H37.9414C38.6984 48.469 39.3121 47.8553 39.3121 47.0983V47.0983C39.3121 46.3412 38.6984 45.7275 37.9414 45.7275Z" fill="#DECEB1"/>
<path d="M35.4522 47.0982C35.4522 47.8859 34.8136 48.5245 34.0259 48.5245C33.2382 48.5245 32.5996 47.8859 32.5996 47.0982C32.5996 46.3105 33.2382 45.6719 34.0259 45.6719C34.8136 45.6719 35.4522 46.3104 35.4522 47.0982Z" fill="#263238"/>
<path d="M57.1461 29.3319C56.5295 28.9929 56.0016 28.4448 55.8769 27.7786C55.7786 27.2534 55.9057 26.6285 55.5059 26.2539C55.2288 25.9942 54.7894 25.9608 54.4814 25.7345C53.9333 25.3319 54.1961 23.7364 54.1374 23.0805C54.0566 22.177 53.4083 22.1215 52.6821 21.5329L49.1114 19.9036C47.5998 20.0675 46.2316 22.2789 46.1381 23.8221C46.0859 24.6827 46.2727 25.5767 45.9726 26.3902C45.7807 26.9102 45.4043 27.35 45.1632 27.8512C44.7715 28.6656 44.7572 29.6075 44.9462 30.4847C45.1351 31.3619 45.5151 32.1898 45.8925 33.0103C46.036 33.3224 46.1946 33.6519 46.4944 33.8387C46.73 33.9855 47.0207 34.023 47.301 34.0505C49.8482 34.3006 52.4507 34.029 54.88 33.2596C55.8381 32.9562 56.8678 32.482 57.2048 31.5776C56.6096 31.0442 56.1337 30.3912 55.8177 29.6741C56.2516 29.8248 56.6116 30.1162 56.9909 30.3667C57.3701 30.6173 57.8057 30.838 58.2669 30.8129C58.7281 30.7878 59.1937 30.4272 59.1597 29.9896C58.4668 29.8323 57.7627 29.6709 57.1461 29.3319Z" fill="#263238"/>
<path d="M49.8536 18.2381C49.6326 18.0532 49.3462 17.9613 49.0601 17.9264C48.7237 17.8854 48.3707 17.9206 48.0701 18.0771C47.7694 18.2336 47.5284 18.522 47.477 18.857C47.4221 19.2146 47.5935 19.5886 47.8792 19.8104C48.1649 20.0322 48.5498 20.1077 48.9065 20.048L49.357 19.9151C49.5461 19.8131 49.7338 19.7032 49.8882 19.5538C50.0427 19.4045 50.1628 19.2108 50.1876 18.9974C50.2209 18.7112 50.0746 18.423 49.8536 18.2381Z" fill="#263238"/>
<path d="M48.4157 25.2117L50.4473 27.2621L51.0174 27.6043C50.8899 27.9067 50.7807 28.218 50.734 28.5195C50.645 29.0514 50.8366 29.2359 51.3139 29.6485C51.5167 29.8237 51.1473 34.7661 51.0067 35.3078L47.6465 29.6586C48.7167 28.9154 48.648 26.4689 48.4157 25.2117Z" fill="#EEC1BB"/>
<path opacity="0.2" d="M50.7177 28.6363C50.1589 28.3046 49.5458 27.7293 49.6193 27.072C49.652 26.7951 49.7117 26.5329 49.778 26.3647L50.913 27.8674C50.8198 28.1096 50.7858 28.2697 50.7177 28.6363Z" fill="black"/>
<path d="M48.0206 22.9C48.2118 24.9875 48.2487 25.8728 49.326 26.9674C50.9463 28.6138 53.4391 28.06 53.8683 25.9908C54.2546 24.1284 53.8769 21.0276 51.8276 20.1503C49.8085 19.2859 47.8294 20.8125 48.0206 22.9Z" fill="#EEC1BB"/>
<path d="M50.7253 23.5796C50.7356 23.8005 50.8552 23.9818 50.9925 23.9846C51.1297 23.9875 51.2327 23.8107 51.2224 23.5899C51.2122 23.369 51.0925 23.1876 50.9553 23.1848C50.818 23.182 50.7151 23.3587 50.7253 23.5796Z" fill="#263238"/>
<path d="M52.7839 23.5733C52.7943 23.7873 52.9137 23.9632 53.0506 23.966C53.1874 23.9688 53.2899 23.7977 53.2796 23.5836C53.2692 23.3696 53.1498 23.1938 53.013 23.191C52.8761 23.188 52.7736 23.3593 52.7839 23.5733Z" fill="#263238"/>
<path d="M50.2901 22.8101C50.3167 22.8131 50.3436 22.8053 50.3643 22.7863C50.6859 22.4885 51.048 22.5931 51.0522 22.5943C51.1058 22.6099 51.1601 22.5796 51.1724 22.5248C51.1846 22.4701 51.1505 22.4126 51.0961 22.3962C51.0772 22.3906 50.6228 22.2589 50.2237 22.6286C50.184 22.6654 50.1831 22.7307 50.2219 22.7743C50.2406 22.7952 50.2652 22.8073 50.2901 22.8101Z" fill="#263238"/>
<path d="M53.4771 22.5256C53.4982 22.5186 53.5157 22.5029 53.5249 22.4801C53.5439 22.4327 53.5207 22.3727 53.4731 22.346C52.996 22.0777 52.6423 22.2817 52.6274 22.2906C52.5854 22.3156 52.5753 22.3749 52.6049 22.4231C52.6342 22.4713 52.6921 22.4901 52.7341 22.4654C52.7478 22.4572 53.0247 22.3037 53.4041 22.5171C53.4287 22.5309 53.4549 22.5331 53.4771 22.5256Z" fill="#263238"/>
<path d="M52.2246 23.4714C52.2246 23.4714 52.5512 24.2528 52.9196 24.7399C52.984 24.8251 52.9441 24.9493 52.844 24.9862C52.5862 25.0811 52.2845 24.9952 52.2845 24.9952L52.2246 23.4714Z" fill="#F4897D"/>
<path d="M50.877 23.1938L51.3561 23.0806C51.3561 23.0806 51.0941 23.4378 50.877 23.1938Z" fill="#263238"/>
<path d="M52.9629 23.1957L53.442 23.0825C53.442 23.0825 53.18 23.4398 52.9629 23.1957Z" fill="#263238"/>
<path d="M48.7455 23.621C48.7455 23.621 50.4959 23.4219 49.7668 20.6875C49.7668 20.6875 51.8279 20.1502 53.4717 22.3461C53.7335 22.6958 53.8897 23.2792 54.1241 23.7823C54.1241 23.7823 54.5176 19.8104 50.9931 19.4848C47.4741 19.1596 46.7825 24.1069 48.4993 25.7717C48.4993 25.7717 48.0787 24.6353 48.7455 23.621Z" fill="#263238"/>
<path d="M52.2238 25.5312C52.0646 25.7932 51.8685 26.2979 51.8685 26.2979C51.8245 26.289 51.7805 26.2802 51.7371 26.2688C51.1436 26.1318 50.9198 25.8505 50.8517 25.5802C50.815 25.4322 50.8266 25.286 50.8498 25.17C50.8753 25.0356 50.9212 24.9446 50.9212 24.9446C51.1864 25.2259 51.7286 25.401 52.0223 25.481C52.1449 25.5159 52.2238 25.5312 52.2238 25.5312Z" fill="#263238"/>
<path d="M52.0944 25.4822L51.978 25.7186C51.3867 25.5804 50.9916 25.395 50.8535 25.1531C50.8805 25.0109 50.9291 24.9146 50.9291 24.9146C51.2098 25.2123 51.7835 25.3975 52.0944 25.4822Z" fill="white"/>
<path d="M51.7925 26.3158C51.1643 26.1709 50.9275 25.8732 50.8555 25.5872C51.0673 25.6458 51.3156 25.7426 51.5166 25.9016C51.6707 26.0225 51.75 26.1726 51.7925 26.3158Z" fill="#DC5753"/>
<path d="M47.3899 24.6013C47.6364 25.0294 48.0371 25.2983 48.4044 25.3904C48.957 25.529 49.2423 24.6406 49.0538 24.087C48.8839 23.5886 48.341 23.2587 47.8032 23.3674C47.2734 23.4744 47.1079 24.1118 47.3899 24.6013Z" fill="#EEC1BB"/>
<path opacity="0.2" d="M48.5568 24.49C48.5436 24.2923 48.4493 24.1012 48.3003 23.9705C48.1514 23.8398 47.9497 23.7711 47.752 23.7837" stroke="black" stroke-width="0.75" stroke-linecap="round" stroke-linejoin="round"/>
<path d="M53.8027 29.844C53.8027 29.844 55.1182 29.6996 56.2366 31.1748C57.3551 32.65 59.3498 35.1538 59.3498 35.1538L62.0569 31.1748L65.8563 30.7732C65.8563 30.7732 65.9988 31.2422 65.2389 31.5662C64.479 31.8902 63.0542 32.2614 63.0542 32.2614C63.0542 32.2614 61.2223 37.9218 59.8348 38.3967C58.4474 38.8717 55.2849 35.4105 55.2849 35.4105L53.8027 29.844Z" fill="#EEC1BB"/>
<path d="M58.0114 54.2231C58.0114 54.2231 60.9808 65.253 60.3076 68.806C59.6345 72.3591 46.6167 85.5088 46.6167 85.5088L44.9004 84.4585C44.9004 84.4585 48.9037 76.5071 51.1581 73.8018C53.4125 71.0966 54.3962 70.4109 54.8963 68.3369C55.3963 66.2629 52.2575 56.5699 52.2575 56.5699L58.0114 54.2231Z" fill="#EEC1BB"/>
<path d="M44.166 56.9673C44.166 56.9673 45.7356 68.1156 46.0874 70.1048C46.4393 72.094 46.6639 74.7785 47.156 80.1429C47.6481 85.5072 48.9432 88.9826 48.9432 88.9826L50.9117 89.0482L51.373 55.3535L44.166 56.9673Z" fill="#EEC1BB"/>
<path d="M47.1249 85.328L46.6934 84.6413C46.5958 84.4859 46.4269 84.3915 46.2438 84.3784C45.4542 84.3222 45.4716 83.8961 45.7095 83.1459C45.5694 82.852 45.2088 82.9757 45.1103 83.0064L42.9202 83.6662C42.7362 83.7196 42.6304 83.912 42.6838 84.096C42.6933 84.1287 42.7075 84.1599 42.7261 84.1884C43.25 85.0224 43.4979 85.417 44.15 86.455L46.1443 89.6296C46.688 90.495 47.6728 90.1264 47.5295 89.7193C46.8767 87.8938 46.6354 86.4624 46.7904 85.6739C46.8144 85.5308 46.9347 85.5868 47.1249 85.328Z" fill="#DECEB1"/>
<path opacity="0.2" d="M47.1249 85.328L46.6934 84.6413C46.5958 84.4859 46.4269 84.3915 46.2438 84.3784C45.4542 84.3222 45.4716 83.8961 45.7095 83.1459C45.5694 82.852 45.2088 82.9757 45.1103 83.0064L42.9202 83.6662C42.7362 83.7196 42.6304 83.912 42.6838 84.096C42.6933 84.1287 42.7075 84.1599 42.7261 84.1884C43.25 85.0224 43.4979 85.417 44.15 86.455L46.1443 89.6296C46.688 90.495 47.6728 90.1264 47.5295 89.7193C46.8767 87.8938 46.6354 86.4624 46.7904 85.6739C46.8144 85.5308 46.9347 85.5868 47.1249 85.328Z" fill="black"/>
<path d="M47.9905 86.5807C48.0917 86.5524 48.1734 86.4777 48.2107 86.3794C48.2368 86.3289 48.2318 86.2679 48.1977 86.2224C48.0208 85.966 46.9057 86.0627 46.7796 86.0758C46.7662 86.0757 46.7534 86.0817 46.7448 86.092C46.7289 86.1111 46.7315 86.1395 46.7505 86.1554C46.9643 86.2964 47.1922 86.4147 47.4305 86.5084C47.6047 86.5916 47.8009 86.6169 47.9905 86.5807ZM48.1116 86.2727C48.1266 86.2918 48.1282 86.3182 48.1156 86.339C48.0855 86.4087 48.0269 86.4623 47.9547 86.4859C47.6793 86.5684 47.1826 86.3077 46.9207 86.1528C47.3797 86.1233 48.0135 86.1325 48.1116 86.2727Z" fill="#263238"/>
<path d="M46.7797 86.1771C47.1093 86.1623 47.8804 85.9116 47.939 85.6511C47.9532 85.5971 47.9386 85.5213 47.8157 85.4566C47.3154 85.2059 46.7487 86.0614 46.7341 86.1012C46.7231 86.1154 46.7215 86.1348 46.7302 86.1505C46.7388 86.157 46.7492 86.1607 46.76 86.1614L46.7797 86.1771ZM47.7701 85.5273C47.8634 85.5727 47.8507 85.6075 47.8461 85.6199C47.818 85.7816 47.2401 86.0128 46.8692 86.0632C47.0139 85.8681 47.4055 85.3911 47.7362 85.512L47.7701 85.5273Z" fill="#263238"/>
<path d="M46.8944 86.1378C46.7135 85.9215 46.4343 85.7908 46.1523 85.7905" stroke="black" stroke-width="0.5" stroke-linecap="round" stroke-linejoin="round"/>
<path d="M46.8417 86.7664C46.6608 86.5501 46.3816 86.4195 46.0996 86.4192" stroke="black" stroke-width="0.5" stroke-linecap="round" stroke-linejoin="round"/>
<path d="M46.9042 87.4671C46.7233 87.2508 46.4441 87.1202 46.1621 87.1199" stroke="black" stroke-width="0.5" stroke-linecap="round" stroke-linejoin="round"/>
<path opacity="0.2" d="M44.3976 58.6127L51.3312 58.3272L51.3375 57.8669L44.2734 57.7356C44.2734 57.7356 44.3743 58.4479 44.3976 58.6127Z" fill="black"/>
<path opacity="0.2" d="M52.7679 58.2069L58.5499 56.3487L58.4462 55.9248L52.6348 57.7711L52.7679 58.2069Z" fill="black"/>
<path d="M51.2028 87.7715H50.4354C50.2617 87.7715 50.1011 87.8593 49.9985 87.9994C49.5559 88.6038 49.2234 88.3753 48.742 87.8071C48.436 87.7715 48.3536 88.1227 48.3286 88.217L47.7549 90.3039C47.7051 90.4782 47.8059 90.6599 47.9802 90.7097C48.0112 90.7185 48.0433 90.7228 48.0756 90.7223H54.1558C55.1229 90.7223 55.3233 89.7477 54.9249 89.6576C53.1337 89.2617 51.8653 88.7346 51.3116 88.2135C51.209 88.1223 51.3144 88.0541 51.2028 87.7715Z" fill="#DECEB1"/>
<path d="M52.6418 87.7082C52.67 87.6128 52.6513 87.5097 52.5913 87.4304C52.564 87.3841 52.5126 87.3574 52.4589 87.3618C52.1645 87.3745 51.6807 88.3167 51.6277 88.4242C51.6209 88.4349 51.6193 88.4482 51.6232 88.4602C51.6305 88.4826 51.6545 88.4949 51.6769 88.4876C51.8974 88.3873 52.107 88.2642 52.302 88.1205C52.4563 88.0228 52.5754 87.8783 52.6418 87.7082ZM52.4559 87.4561C52.4788 87.4537 52.5007 87.4657 52.511 87.4863C52.5518 87.5455 52.5652 87.6194 52.5478 87.6892C52.4752 87.9514 52.0164 88.2181 51.7604 88.35C51.9679 87.9674 52.2942 87.4641 52.4559 87.4561Z" fill="#263238"/>
<path d="M51.7099 88.4756C51.864 88.2041 52.0512 87.46 51.872 87.282C51.8359 87.2434 51.7678 87.2169 51.6541 87.2829C51.2014 87.5576 51.6016 88.4423 51.6262 88.474C51.632 88.4899 51.6467 88.5009 51.6637 88.5019C51.6732 88.4982 51.6815 88.4918 51.6875 88.4835L51.7099 88.4756ZM51.6878 87.355C51.7711 87.3031 51.7926 87.3308 51.8003 87.3407C51.9157 87.4446 51.81 88.0241 51.6638 88.3466C51.5802 88.1324 51.3951 87.5786 51.6585 87.3745L51.6878 87.355Z" fill="#263238"/>
<path d="M51.7357 88.3638C51.4714 88.3998 51.2262 88.5578 51.084 88.7835" stroke="#263238" stroke-width="0.5" stroke-linecap="round" stroke-linejoin="round"/>
<path d="M52.2122 88.7227C51.9479 88.7587 51.7027 88.9167 51.5605 89.1425" stroke="#263238" stroke-width="0.5" stroke-linecap="round" stroke-linejoin="round"/>
<path d="M52.806 89.0247C52.5417 89.0607 52.2965 89.2187 52.1543 89.4444" stroke="#263238" stroke-width="0.5" stroke-linecap="round" stroke-linejoin="round"/>
<path d="M58.7281 53.9213L56.1924 47.5083L54.5029 43.8168L54.5369 42.1577L45.9477 42.0713C45.8778 42.2353 45.8079 42.3993 45.7407 42.5661C45.5017 43.1591 45.6295 43.2035 45.4406 43.8097C45.4406 43.8097 44.7126 45.8613 44.3264 48.7869C43.8596 52.3246 43.6406 55.7901 43.7186 57.0808C43.7428 57.4949 43.767 57.7261 43.767 57.7261L51.8098 57.8757L51.874 56.9006L51.987 55.825L52.1907 56.5957L52.4513 57.8295L59.3992 55.6222L58.7281 53.9213Z" fill="#DECEB1"/>
<path opacity="0.5" d="M58.7281 53.9213L56.1924 47.5083L54.5029 43.8168L54.5369 42.1577L45.9477 42.0713C45.8778 42.2353 45.8079 42.3993 45.7407 42.5661C45.5017 43.1591 45.6295 43.2035 45.4406 43.8097C45.4406 43.8097 44.7126 45.8613 44.3264 48.7869C43.8596 52.3246 43.6406 55.7901 43.7186 57.0808C43.7428 57.4949 43.767 57.7261 43.767 57.7261L51.8098 57.8757L51.874 56.9006L51.987 55.825L52.1907 56.5957L52.4513 57.8295L59.3992 55.6222L58.7281 53.9213Z" fill="white"/>
<path opacity="0.2" d="M51.9863 55.8263V51.5997L53.0672 47.9629L52.2835 51.5997L51.9863 55.8263Z" fill="black"/>
<path d="M52.2307 43.6103C52.5016 43.6103 52.7212 43.3907 52.7212 43.1199C52.7212 42.849 52.5016 42.6294 52.2307 42.6294C51.9598 42.6294 51.7402 42.849 51.7402 43.1199C51.7402 43.3907 51.9598 43.6103 52.2307 43.6103Z" fill="#DECEB1"/>
<path opacity="0.2" d="M45.7637 45.5992C45.7637 45.5992 47.3451 45.5691 48.3428 43.9761C47.4831 44.7718 46.6234 45.3128 45.7637 45.5992Z" fill="black"/>
<path d="M54.5377 42.1579L45.9486 42.0713C45.9486 42.0713 46.0683 39.3003 45.2273 35.081C45.079 34.3398 44.9023 33.5501 44.6885 32.7234C44.5003 32.0021 44.7314 31.0569 44.4863 30.2815C44.4863 30.2815 44.4932 30.2094 45.397 29.9614C45.4027 29.9586 45.4055 29.9586 45.4112 29.9557C46.3207 29.7049 47.6762 29.4705 49.5407 29.4021C51.4935 29.3308 52.5908 29.8626 53.5566 29.7746L54.4431 29.8871C54.4431 29.8871 55.4072 32.4034 55.3171 35.0956C55.2466 37.2061 54.6187 38.5945 54.5377 42.1579Z" fill="#DECEB1"/>
<path d="M53.5562 29.7745C53.5192 30.2392 53.3832 31.7939 50.3128 31.7711C46.564 31.7426 46.0879 29.7951 46.0879 29.7951C46.0822 29.7979 46.795 29.5981 46.0879 29.7951C46.9973 29.5442 47.6348 29.3265 49.4992 29.2581C51.452 29.1868 51.9958 29.5423 53.5562 29.7745Z" fill="#EEC1BB"/>
<path d="M44.818 30.1309C44.818 30.1309 44.2449 30.2165 43.3247 31.354C42.5002 32.3733 38.7733 36.5859 38.9017 38.006C39.0164 39.2751 44.1664 43.353 44.1664 43.353L45.1249 42.1742L41.9036 38.0336L45.0698 34.1408L44.818 30.1309Z" fill="#EEC1BB"/>
<path d="M44.8919 42.3424C44.8919 42.3424 45.6605 41.2607 45.9878 41.1896C46.3151 41.1184 47.8096 41.3034 47.838 41.5169C47.8665 41.7304 47.6388 41.7582 47.6388 41.7582L48.0089 42.1859C48.0089 42.1859 48.0089 42.3139 47.838 42.3424C47.838 42.3424 47.8238 42.6555 47.6531 42.6698C47.4822 42.684 46.8133 42.4563 46.8133 42.4563L47.3684 42.8406C47.3684 42.8406 47.4538 42.9829 47.0268 42.9402C46.5998 42.8975 46.4504 42.684 46.4504 42.684C46.4504 42.684 45.4073 43.6103 44.9233 43.6103C44.4394 43.6103 44.166 43.3529 44.166 43.3529L44.8919 42.3424Z" fill="#EEC1BB"/>
<path opacity="0.3" d="M41.9031 38.0336C41.9031 38.0336 41.4709 37.7067 40.8379 37.7898C40.8379 37.7898 41.416 37.3352 42.1145 37.802L41.9031 38.0336Z" fill="black"/>
<path opacity="0.3" d="M45.0694 42.1033L44.5879 42.7656L44.8071 41.7661L45.0694 42.1033Z" fill="black"/>
<path d="M62.4332 27.6958C62.1495 27.6958 61.9019 27.6 61.6904 27.4084C61.4788 27.2168 61.373 26.949 61.373 26.6045C61.373 26.299 61.4753 26.0419 61.6799 25.8333C61.8845 25.6249 62.1356 25.5205 62.4332 25.5205C62.7261 25.5205 62.9725 25.6249 63.1724 25.8333C63.3724 26.0419 63.4723 26.299 63.4723 26.6045C63.4723 26.944 63.3677 27.2109 63.1585 27.4048C62.9493 27.5987 62.7075 27.6958 62.4332 27.6958Z" fill="#DECEB1"/>
<path d="M59.166 20.0034C59.166 19.5547 59.3041 19.1 59.5804 18.6395C59.8566 18.1789 60.2596 17.7975 60.7894 17.4952C61.3192 17.193 61.9373 17.0417 62.6437 17.0417C63.3003 17.0417 63.8799 17.1682 64.3826 17.4208C64.8852 17.6735 65.2735 18.0172 65.5475 18.4517C65.8214 18.8864 65.9584 19.3586 65.9584 19.8688C65.9584 20.2703 65.8803 20.6223 65.7241 20.9245C65.5678 21.2268 65.3822 21.4878 65.1671 21.7074C64.952 21.9271 64.566 22.2967 64.009 22.8163C63.855 22.9627 63.7316 23.0915 63.6388 23.2024C63.546 23.3134 63.4769 23.415 63.4316 23.5071C63.3863 23.5992 63.3513 23.6913 63.3264 23.7834C63.3014 23.8755 63.2641 24.0374 63.2143 24.2687C63.1283 24.7601 62.8588 25.0056 62.406 25.0056C62.1705 25.0056 61.9724 24.9253 61.8117 24.7647C61.6509 24.6042 61.5705 24.3656 61.5705 24.0491C61.5705 23.6523 61.6294 23.3087 61.7471 23.0182C61.8649 22.7277 62.0211 22.4726 62.2158 22.253C62.4105 22.0333 62.6732 21.7724 63.0037 21.4701C63.2935 21.2055 63.503 21.006 63.632 20.8713C63.7611 20.7367 63.8697 20.5869 63.9581 20.4214C64.0463 20.2561 64.0905 20.0767 64.0905 19.8829C64.0905 19.5051 63.9558 19.1862 63.6864 18.9264C63.4169 18.6667 63.0694 18.5367 62.6437 18.5367C62.1456 18.5367 61.7788 18.6678 61.5434 18.93C61.3079 19.1921 61.1086 19.5783 60.9456 20.0884C60.7917 20.6223 60.4996 20.8891 60.0694 20.8891C59.8158 20.8891 59.6019 20.7959 59.4275 20.6092C59.2532 20.4226 59.166 20.2207 59.166 20.0034Z" fill="#DECEB1"/>
</svg>
