<svg width="144" height="27" viewBox="0 0 144 27" fill="none" xmlns="http://www.w3.org/2000/svg">
<path d="M13.9566 20.1017L19.2693 23.4748C19.9544 23.907 20.7977 23.264 20.5974 22.4734L19.0584 16.4229C19.0168 16.2552 19.0234 16.0791 19.0775 15.915C19.1316 15.7509 19.231 15.6054 19.3641 15.4953L24.1287 11.5213C24.7506 11.0048 24.4344 9.96123 23.6227 9.90852L17.4035 9.50796C17.2338 9.49809 17.0707 9.439 16.934 9.33791C16.7974 9.23683 16.6931 9.09812 16.634 8.93875L14.315 3.09902C14.2536 2.93026 14.1418 2.78448 13.9947 2.68147C13.8476 2.57845 13.6724 2.52319 13.4928 2.52319C13.3132 2.52319 13.138 2.57845 12.9909 2.68147C12.8438 2.78448 12.732 2.93026 12.6706 3.09902L10.3516 8.93875C10.2925 9.09812 10.1882 9.23683 10.0515 9.33791C9.91489 9.439 9.75175 9.49809 9.58206 9.50796L3.36286 9.90852C2.5512 9.96123 2.23497 11.0048 2.85689 11.5213L7.62143 15.4953C7.7546 15.6054 7.85395 15.7509 7.90803 15.915C7.96212 16.0791 7.96873 16.2552 7.92712 16.4229L6.50408 22.0307C6.26164 22.9794 7.27358 23.7489 8.08524 23.2324L13.029 20.1017C13.1676 20.0135 13.3285 19.9667 13.4928 19.9667C13.6571 19.9667 13.818 20.0135 13.9566 20.1017Z" fill="#FFC700"/>
<path d="M43.0992 20.1017L48.4118 23.4748C49.097 23.907 49.9403 23.264 49.74 22.4734L48.201 16.4229C48.1594 16.2552 48.166 16.0791 48.2201 15.915C48.2742 15.7509 48.3735 15.6054 48.5067 15.4953L53.2713 11.5213C53.8932 11.0048 53.5769 9.96123 52.7653 9.90852L46.5461 9.50796C46.3764 9.49809 46.2132 9.439 46.0766 9.33791C45.9399 9.23683 45.8357 9.09812 45.7766 8.93875L43.4576 3.09902C43.3962 2.93026 43.2843 2.78448 43.1373 2.68147C42.9902 2.57845 42.8149 2.52319 42.6354 2.52319C42.4558 2.52319 42.2806 2.57845 42.1335 2.68147C41.9864 2.78448 41.8745 2.93026 41.8132 3.09902L39.4941 8.93875C39.435 9.09812 39.3308 9.23683 39.1941 9.33791C39.0575 9.439 38.8943 9.49809 38.7246 9.50796L32.5054 9.90852C31.6938 9.96123 31.3775 11.0048 31.9995 11.5213L36.764 15.4953C36.8972 15.6054 36.9965 15.7509 37.0506 15.915C37.1047 16.0791 37.1113 16.2552 37.0697 16.4229L35.6467 22.0307C35.4042 22.9794 36.4162 23.7489 37.2278 23.2324L42.1716 20.1017C42.3102 20.0135 42.4711 19.9667 42.6354 19.9667C42.7996 19.9667 42.9605 20.0135 43.0992 20.1017Z" fill="#FFC700"/>
<path d="M72.2456 20.1017L77.5583 23.4748C78.2435 23.907 79.0868 23.264 78.8865 22.4734L77.3475 16.4229C77.3059 16.2552 77.3125 16.0791 77.3666 15.915C77.4207 15.7509 77.52 15.6054 77.6532 15.4953L82.4177 11.5213C83.0397 11.0048 82.7234 9.96123 81.9118 9.90852L75.6926 9.50796C75.5229 9.49809 75.3597 9.439 75.2231 9.33791C75.0864 9.23683 74.9822 9.09812 74.9231 8.93875L72.604 3.09902C72.5427 2.93026 72.4308 2.78448 72.2837 2.68147C72.1366 2.57845 71.9614 2.52319 71.7818 2.52319C71.6023 2.52319 71.427 2.57845 71.2799 2.68147C71.1329 2.78448 71.021 2.93026 70.9596 3.09902L68.6406 8.93875C68.5815 9.09812 68.4773 9.23683 68.3406 9.33791C68.204 9.439 68.0408 9.49809 67.8711 9.50796L61.6519 9.90852C60.8403 9.96123 60.524 11.0048 61.146 11.5213L65.9105 15.4953C66.0437 15.6054 66.143 15.7509 66.1971 15.915C66.2512 16.0791 66.2578 16.2552 66.2162 16.4229L64.7931 22.0307C64.5507 22.9794 65.5626 23.7489 66.3743 23.2324L71.318 20.1017C71.4567 20.0135 71.6176 19.9667 71.7818 19.9667C71.9461 19.9667 72.107 20.0135 72.2456 20.1017Z" fill="#FFC700"/>
<path d="M101.388 20.1017L106.701 23.4748C107.386 23.907 108.229 23.264 108.029 22.4734L106.49 16.4229C106.448 16.2552 106.455 16.0791 106.509 15.915C106.563 15.7509 106.663 15.6054 106.796 15.4953L111.56 11.5213C112.182 11.0048 111.866 9.96123 111.054 9.90852L104.835 9.50796C104.665 9.49809 104.502 9.439 104.366 9.33791C104.229 9.23683 104.125 9.09812 104.066 8.93875L101.747 3.09902C101.685 2.93026 101.573 2.78448 101.426 2.68147C101.279 2.57845 101.104 2.52319 100.924 2.52319C100.745 2.52319 100.57 2.57845 100.423 2.68147C100.275 2.78448 100.164 2.93026 100.102 3.09902L97.7832 8.93875C97.7241 9.09812 97.6198 9.23683 97.4832 9.33791C97.3465 9.439 97.1834 9.49809 97.0137 9.50796L90.7945 9.90852C89.9828 9.96123 89.6666 11.0048 90.2885 11.5213L95.0531 15.4953C95.1862 15.6054 95.2856 15.7509 95.3397 15.915C95.3938 16.0791 95.4004 16.2552 95.3588 16.4229L93.9357 22.0307C93.6933 22.9794 94.7052 23.7489 95.5169 23.2324L100.461 20.1017C100.599 20.0135 100.76 19.9667 100.924 19.9667C101.089 19.9667 101.25 20.0135 101.388 20.1017Z" fill="#FFC700"/>
<path d="M130.531 20.1019L135.843 23.4751C136.529 23.9072 137.372 23.2642 137.172 22.4737L135.633 16.4231C135.591 16.2554 135.598 16.0794 135.652 15.9152C135.706 15.7511 135.805 15.6056 135.938 15.4955L140.703 11.5215C141.325 11.005 141.009 9.96147 140.197 9.90877L133.978 9.50821C133.808 9.49833 133.645 9.43924 133.508 9.33816C133.372 9.23707 133.267 9.09837 133.208 8.93899L130.889 3.09927C130.828 2.93051 130.716 2.78473 130.569 2.68171C130.422 2.5787 130.247 2.52344 130.067 2.52344C129.887 2.52344 129.712 2.5787 129.565 2.68171C129.418 2.78473 129.306 2.93051 129.245 3.09927L126.926 8.93899C126.867 9.09837 126.762 9.23707 126.626 9.33816C126.489 9.43924 126.326 9.49833 126.156 9.50821L119.937 9.90877C119.125 9.96147 118.809 11.005 119.431 11.5215L124.196 15.4955C124.329 15.6056 124.428 15.7511 124.482 15.9152C124.536 16.0794 124.543 16.2554 124.501 16.4231L123.078 22.0309C122.836 22.9796 123.848 23.7491 124.659 23.2326L129.603 20.1019C129.742 20.0138 129.903 19.967 130.067 19.967C130.231 19.967 130.392 20.0138 130.531 20.1019Z" fill="#FFC700"/>
</svg>
