<svg width="30" height="30" viewBox="0 0 30 30" fill="none" xmlns="http://www.w3.org/2000/svg">
<path d="M15 4.80469C20.625 4.80469 25.1953 8.96719 25.1953 14.0836C25.1953 19.2 20.625 23.3648 15 23.3648C14.0745 23.3651 13.1526 23.2501 12.2555 23.0227L11.6977 22.882L11.1867 23.1445L9.07734 24.2297V21.6656L8.47734 21.1969C6.14062 19.4367 4.80469 16.8398 4.80469 14.0836C4.80469 8.96719 9.375 4.80469 15 4.80469ZM15 3.28125C8.52891 3.28125 3.28125 8.11875 3.28125 14.0836C3.28125 17.4398 4.94062 20.4375 7.54453 22.4203V26.7188L11.8805 24.4969C12.9 24.7565 13.9479 24.888 15 24.8883C21.4711 24.8883 26.7188 20.0508 26.7188 14.0859C26.7188 8.12109 21.4711 3.28125 15 3.28125Z" fill="#062B31"/>
<path d="M7.7793 17.3578L13.7746 10.9265L16.8191 13.9921L22.2215 11.039L16.2027 17.6085L13.2496 14.3812L7.7793 17.3578Z" fill="#062B31"/>
</svg>
