<svg width="28" height="27" viewBox="0 0 28 27" fill="none" xmlns="http://www.w3.org/2000/svg">
<path d="M14.5308 20.1019L19.8435 23.4751C20.5286 23.9072 21.3719 23.2642 21.1716 22.4737L19.6327 16.4231C19.591 16.2554 19.5977 16.0794 19.6517 15.9152C19.7058 15.7511 19.8052 15.6056 19.9383 15.4955L24.7029 11.5215C25.3248 11.005 25.0086 9.96147 24.1969 9.90877L17.9777 9.50821C17.808 9.49833 17.6449 9.43924 17.5082 9.33816C17.3716 9.23707 17.2673 9.09837 17.2082 8.93899L14.8892 3.09927C14.8278 2.93051 14.716 2.78473 14.5689 2.68171C14.4218 2.5787 14.2466 2.52344 14.067 2.52344C13.8874 2.52344 13.7122 2.5787 13.5651 2.68171C13.418 2.78473 13.3062 2.93051 13.2448 3.09927L10.9258 8.93899C10.8667 9.09837 10.7624 9.23707 10.6258 9.33816C10.4891 9.43924 10.326 9.49833 10.1563 9.50821L3.93708 9.90877C3.12542 9.96147 2.80919 11.005 3.43111 11.5215L8.19565 15.4955C8.32882 15.6056 8.42817 15.7511 8.48225 15.9152C8.53634 16.0794 8.54295 16.2554 8.50134 16.4231L7.0783 22.0309C6.83586 22.9796 7.8478 23.7491 8.65945 23.2326L13.6032 20.1019C13.7418 20.0138 13.9027 19.967 14.067 19.967C14.2313 19.967 14.3922 20.0138 14.5308 20.1019Z" fill="#FFC700"/>
</svg>
