<svg width="25" height="25" viewBox="0 0 25 25" fill="none" xmlns="http://www.w3.org/2000/svg">
<path d="M12.0898 1.08119C10.6437 1.26869 9.51562 2.84057 9.51562 4.73666C9.51562 5.78666 9.87578 6.72494 10.4305 7.39369C7.42344 7.95853 7.19609 13.021 7.19609 16.5757H9.28125L9.83437 23.9929H15.132L15.6211 16.5757H17.6C17.6 13.0117 17.6719 7.8601 14.3875 7.3515C14.9188 6.68588 15.2602 5.76166 15.2602 4.73744C15.2602 2.71478 13.9711 1.08197 12.3875 1.08197C12.2883 1.08197 12.1859 1.06947 12.0898 1.08197V1.08119ZM16.5344 1.05853C18.118 1.05853 19.4102 2.67963 19.4102 4.70306C19.4102 5.72728 19.0586 6.65697 18.5273 7.3226C21.8117 7.83119 21.7445 12.9828 21.7445 16.5468H19.7805L19.268 23.9773H16.193L16.6766 16.5468H18.6695C18.6695 12.9828 18.7367 7.83119 15.4523 7.3226C15.9836 6.65775 16.3352 5.72807 16.3352 4.70306C16.3352 3.40463 15.7961 2.2765 14.9969 1.62807C15.3656 1.32416 15.7625 1.11791 16.2211 1.05853C16.3172 1.04603 16.4352 1.05853 16.5344 1.05853ZM9.79922 1.62807C9.00469 2.28275 8.46094 3.40775 8.46094 4.70306C8.46094 5.75385 8.81719 6.71088 9.37187 7.37963C6.36484 7.94447 6.15469 12.9929 6.15469 16.5468H8.23281L8.77344 23.9773H5.69844L5.15781 16.5468H3.05078C3.05078 12.9929 3.28984 7.94447 6.29609 7.37963C5.74141 6.71088 5.38516 5.75385 5.38516 4.70306C5.38516 2.80697 6.50156 1.24682 7.94766 1.05853C8.04375 1.04603 8.16172 1.05853 8.26094 1.05853C8.82812 1.05853 9.35312 1.26635 9.79922 1.62807Z" fill="black"/>
</svg>
