<svg width="24" height="24" viewBox="0 0 24 24" fill="none" xmlns="http://www.w3.org/2000/svg">
<path d="M16.0008 22.4C12.0312 22.4 8.80078 19.5288 8.80078 16C8.80078 12.4712 12.0312 9.59998 16.0008 9.59998C19.9704 9.59998 23.2008 12.4712 23.2008 16C23.2008 19.5288 19.9704 22.4 16.0008 22.4Z" fill="black"/>
<path d="M16 10.4C19.5344 10.4 22.4 12.9072 22.4 16C22.4 19.0928 19.5344 21.6 16 21.6C12.4656 21.6 9.6 19.0928 9.6 16C9.6 12.9072 12.4656 10.4 16 10.4ZM16 8.79999C11.5888 8.79999 8 12.0296 8 16C8 19.9704 11.5888 23.2 16 23.2C20.4112 23.2 24 19.9704 24 16C24 12.0296 20.4112 8.79999 16 8.79999Z" fill="white"/>
<path d="M2.80039 19.2C3.0213 19.2 3.20039 19.0209 3.20039 18.8C3.20039 18.5791 3.0213 18.4 2.80039 18.4C2.57948 18.4 2.40039 18.5791 2.40039 18.8C2.40039 19.0209 2.57948 19.2 2.80039 19.2Z" fill="black"/>
<path d="M7.99961 16C7.99961 12.0296 11.5884 8.80002 15.9996 8.80002C17.1052 8.80002 18.1596 9.00322 19.1188 9.37042C18.562 5.43922 14.8748 2.40002 10.3996 2.40002C5.53961 2.40002 1.59961 5.98162 1.59961 10.4C1.59961 14.184 4.49321 17.3472 8.37641 18.1792C8.13321 17.4912 7.99961 16.7592 7.99961 16Z" fill="black"/>
<path d="M22.2948 21.8232C20.3564 20.1048 21.0668 18.4 21.0668 18.4L16.4004 19.7336C16.4004 19.7336 18.842 22.2144 22.0116 22.3936L22.2948 21.8232Z" fill="black"/>
<path d="M22.066 22.4C22.2503 22.4 22.3996 22.2506 22.3996 22.0664C22.3996 21.8821 22.2503 21.7328 22.066 21.7328C21.8818 21.7328 21.7324 21.8821 21.7324 22.0664C21.7324 22.2506 21.8818 22.4 22.066 22.4Z" fill="black"/>
<path d="M7.2006 16C7.2006 15.1032 7.375 14.2448 7.6814 13.44L3.2006 11.2C3.2006 11.2 6.463 15.5472 2.6582 18.4272L2.867 19.192C4.6878 19.192 6.1974 18.2856 7.323 17.2616C7.2494 16.8496 7.2006 16.4304 7.2006 16Z" fill="black"/>
</svg>
