<svg width="24" height="24" viewBox="0 0 24 24" fill="none" xmlns="http://www.w3.org/2000/svg">
<path d="M16.0008 22.4001C12.0312 22.4001 8.80078 19.5289 8.80078 16.0001C8.80078 12.4713 12.0312 9.6001 16.0008 9.6001C19.9704 9.6001 23.2008 12.4713 23.2008 16.0001C23.2008 19.5289 19.9704 22.4001 16.0008 22.4001Z" fill="black"/>
<path d="M16 10.4C19.5344 10.4 22.4 12.9072 22.4 16C22.4 19.0928 19.5344 21.6 16 21.6C12.4656 21.6 9.6 19.0928 9.6 16C9.6 12.9072 12.4656 10.4 16 10.4ZM16 8.80005C11.5888 8.80005 8 12.0296 8 16C8 19.9704 11.5888 23.2 16 23.2C20.4112 23.2 24 19.9704 24 16C24 12.0296 20.4112 8.80005 16 8.80005Z" fill="white"/>
<path d="M2.80039 19.1999C3.0213 19.1999 3.20039 19.0208 3.20039 18.7999C3.20039 18.579 3.0213 18.3999 2.80039 18.3999C2.57948 18.3999 2.40039 18.579 2.40039 18.7999C2.40039 19.0208 2.57948 19.1999 2.80039 19.1999Z" fill="black"/>
<path d="M7.99961 15.9999C7.99961 12.0295 11.5884 8.7999 15.9996 8.7999C17.1052 8.7999 18.1596 9.0031 19.1188 9.3703C18.562 5.4391 14.8748 2.3999 10.3996 2.3999C5.53961 2.3999 1.59961 5.9815 1.59961 10.3999C1.59961 14.1839 4.49321 17.3471 8.37641 18.1791C8.13321 17.4911 7.99961 16.7591 7.99961 15.9999Z" fill="black"/>
<path d="M22.2948 21.8231C20.3564 20.1047 21.0668 18.3999 21.0668 18.3999L16.4004 19.7335C16.4004 19.7335 18.842 22.2143 22.0116 22.3935L22.2948 21.8231Z" fill="black"/>
<path d="M22.066 22.4001C22.2503 22.4001 22.3996 22.2508 22.3996 22.0665C22.3996 21.8823 22.2503 21.7329 22.066 21.7329C21.8818 21.7329 21.7324 21.8823 21.7324 22.0665C21.7324 22.2508 21.8818 22.4001 22.066 22.4001Z" fill="black"/>
<path d="M7.2006 16C7.2006 15.1032 7.375 14.2448 7.6814 13.44L3.2006 11.2C3.2006 11.2 6.463 15.5472 2.6582 18.4272L2.867 19.192C4.6878 19.192 6.1974 18.2856 7.323 17.2616C7.2494 16.8496 7.2006 16.4304 7.2006 16Z" fill="black"/>
</svg>
