<svg width="29" height="21" viewBox="0 0 29 21" fill="none" xmlns="http://www.w3.org/2000/svg">
<g clip-path="url(#clip0_245_2030)">
<mask id="mask0_245_2030" style="mask-type:luminance" maskUnits="userSpaceOnUse" x="0" y="0" width="29" height="21">
<path d="M29 0H0V21H29V0Z" fill="white"/>
</mask>
<g mask="url(#mask0_245_2030)">
<path d="M29 2.46533C29 1.10376 27.7318 0 26.1673 0H2.83272C1.26825 0 0 1.10376 0 2.46533V18.5347C0 19.8963 1.26825 21 2.83272 21H26.1673C27.7318 21 29 19.8963 29 18.5347V2.46533ZM2.8479 1.97015H26.1896C26.5019 1.97015 26.7534 2.18698 26.7534 2.45889V2.48029L14.9188 12.7812C14.7743 12.9068 14.6065 12.9255 14.5188 12.9255C14.4312 12.9255 14.2627 12.9068 14.1184 12.7812L2.2809 2.47888V2.45889C2.2809 2.18698 2.5355 1.97015 2.8479 1.97015ZM26.1896 19.0299H2.8479C2.5355 19.0299 2.2809 18.8047 2.2809 18.5328V5.26807L12.5163 14.1758C13.0513 14.6414 13.7627 14.8978 14.5194 14.8978C15.276 14.8977 15.9861 14.6413 16.5212 14.1757L26.7534 5.26946V18.5328C26.7534 18.8047 26.5019 19.0299 26.1896 19.0299Z" fill="#DADADA"/>
</g>
</g>
<defs>
<clipPath id="clip0_245_2030">
<rect width="29" height="21" fill="white"/>
</clipPath>
</defs>
</svg>
