<svg width="24" height="27" viewBox="0 0 24 27" fill="none" xmlns="http://www.w3.org/2000/svg">
<g clip-path="url(#clip0_245_2036)">
<path d="M22.7543 11.2954H20.729V7.50598C20.729 3.72225 16.819 0.643921 12.0037 0.643921C7.18859 0.643921 3.27487 3.72427 3.27487 7.51044C3.27487 8.05562 3.83928 8.49746 4.53323 8.49746C5.22719 8.49746 5.79064 8.05562 5.79064 7.51044C5.79064 4.81271 8.57513 2.61792 12.0047 2.61792C15.4342 2.61794 18.2188 4.81069 18.2188 7.50598V11.2954H1.2682C0.574231 11.2954 0 11.7284 0 12.2735V23.7227C0 25.0833 1.42084 26.1892 3.15294 26.1892H20.8696C22.6016 26.1892 24 25.0833 24 23.7227V12.2735C24 11.7284 23.4482 11.2954 22.7543 11.2954ZM21.4897 23.7227C21.4897 23.9949 21.216 24.2173 20.8696 24.2173H3.15294C2.80651 24.2173 2.5103 23.9949 2.5103 23.7227V13.2673H21.4897V23.7227Z" fill="#DADADA"/>
<path d="M12 21.6993C12.6939 21.6993 13.2552 21.2574 13.2552 20.7123V17.1591C13.2552 16.614 12.6939 16.1721 12 16.1721C11.3061 16.1721 10.7449 16.614 10.7449 17.1591V20.7123C10.7449 21.2574 11.3061 21.6993 12 21.6993Z" fill="#DADADA"/>
</g>
<defs>
<clipPath id="clip0_245_2036">
<rect width="24" height="26.3936" fill="white" transform="translate(0 0.00524902)"/>
</clipPath>
</defs>
</svg>
