<svg width="608" height="624" viewBox="0 0 608 624" fill="none" xmlns="http://www.w3.org/2000/svg">
<path d="M608 477.235H0V477.547H608V477.235Z" fill="#EBEBEB"/>
<path d="M288.192 421.574H53.3946C51.5552 421.571 49.7922 420.819 48.4927 419.483C47.1932 418.147 46.4634 416.336 46.4634 414.448V75.7037C46.4794 73.8267 47.2163 72.0321 48.5141 70.7095C49.8119 69.3869 51.5657 68.6432 53.3946 68.64H288.192C290.034 68.64 291.8 69.3908 293.102 70.7272C294.404 72.0636 295.135 73.8761 295.135 75.7661V414.448C295.135 416.338 294.404 418.151 293.102 419.487C291.8 420.824 290.034 421.574 288.192 421.574ZM53.3946 68.8896C51.6358 68.8929 49.9502 69.6123 48.7077 70.8898C47.4652 72.1673 46.7674 73.8986 46.7674 75.7037V414.448C46.7674 416.253 47.4652 417.985 48.7077 419.262C49.9502 420.54 51.6358 421.259 53.3946 421.262H288.192C289.952 421.259 291.639 420.54 292.883 419.263C294.128 417.986 294.828 416.255 294.831 414.448V75.7037C294.828 73.8975 294.128 72.1662 292.883 70.8891C291.639 69.6119 289.952 68.8929 288.192 68.8896H53.3946Z" fill="#EBEBEB"/>
<path d="M551.225 421.574H316.415C314.575 421.571 312.811 420.819 311.509 419.484C310.208 418.148 309.475 416.337 309.472 414.448V75.7037C309.491 73.8256 310.231 72.0309 311.531 70.7087C312.83 69.3865 314.585 68.6432 316.415 68.64H551.225C553.052 68.6465 554.802 69.3916 556.098 70.7139C557.393 72.0361 558.128 73.8289 558.144 75.7037V414.448C558.144 416.334 557.416 418.143 556.119 419.478C554.822 420.814 553.062 421.568 551.225 421.574ZM316.415 68.8896C314.655 68.8929 312.969 69.6119 311.724 70.8891C310.48 72.1662 309.779 73.8975 309.776 75.7037V414.448C309.779 416.255 310.48 417.986 311.724 419.263C312.969 420.54 314.655 421.259 316.415 421.262H551.225C552.985 421.259 554.672 420.54 555.916 419.263C557.161 417.986 557.861 416.255 557.864 414.448V75.7037C557.861 73.8975 557.161 72.1662 555.916 70.8891C554.672 69.6119 552.985 68.8929 551.225 68.8896H316.415Z" fill="#EBEBEB"/>
<path d="M547.078 489.116H508.689V489.428H547.078V489.116Z" fill="#EBEBEB"/>
<path d="M407.773 485.734H367.147V486.046H407.773V485.734Z" fill="#EBEBEB"/>
<path d="M558.168 500.71H482.253V501.022H558.168V500.71Z" fill="#EBEBEB"/>
<path d="M87.175 498.613H63.7914V498.925H87.175V498.613Z" fill="#EBEBEB"/>
<path d="M134.842 498.613H98.0096V498.925H134.842V498.613Z" fill="#EBEBEB"/>
<path d="M296.874 493.347H230.529V493.659H296.874V493.347Z" fill="#EBEBEB"/>
<path d="M181.585 294.603L529.264 294.603V95.9463L181.585 95.9463V294.603Z" fill="#E0E0E0"/>
<path d="M162.494 294.603L527.513 294.603V95.9463L162.494 95.9463V294.603Z" fill="#F5F5F5"/>
<path d="M521.542 288.488V102.074L168.453 102.074V288.488H521.542Z" fill="white"/>
<path d="M378.577 288.488L311.916 102.074H421.928L488.601 288.488H378.577Z" fill="#F5F5F5"/>
<path d="M272.676 288.488L206.015 102.074H289.007L355.668 288.488H272.676Z" fill="#F5F5F5"/>
<path d="M65.8707 227.61H135.827V131.252H65.8707L65.8707 227.61Z" fill="#E6E6E6"/>
<path d="M60.9946 227.61H134.769V131.252H60.9946L60.9946 227.61Z" fill="#F0F0F0"/>
<path d="M128.604 221.258V137.592H67.1962V221.258H128.604Z" fill="white"/>
<path d="M98.3136 201.552L109.586 189.983C112.3 187.178 113.823 183.385 113.823 179.431C113.823 175.478 112.3 171.685 109.586 168.879L98.3136 157.31C98.202 157.197 98.0512 157.133 97.8941 157.133C97.7369 157.133 97.5862 157.197 97.4746 157.31L86.2022 168.879C83.4882 171.685 81.965 175.478 81.965 179.431C81.965 183.385 83.4882 187.178 86.2022 189.983L97.4746 201.552C97.5862 201.666 97.7369 201.729 97.8941 201.729C98.0512 201.729 98.202 201.666 98.3136 201.552ZM97.888 158.596L108.747 169.728C111.246 172.301 112.649 175.786 112.649 179.419C112.649 183.052 111.246 186.536 108.747 189.109L97.888 200.254L87.0413 189.109C84.5426 186.536 83.1395 183.052 83.1395 179.419C83.1395 175.786 84.5426 172.301 87.0413 169.728L97.888 158.596Z" fill="#F0F0F0"/>
<path d="M490.084 472.693H506.537V333.478H490.084V472.693Z" fill="#F0F0F0"/>
<path d="M273.016 477.235L504.251 477.235V472.693L273.016 472.693V477.235Z" fill="#F0F0F0"/>
<path d="M490.085 333.478H270.742V472.692H490.085V333.478Z" fill="#FAFAFA"/>
<path d="M461.496 414.823H299.343C295.15 414.823 291.129 413.113 288.165 410.071C285.2 407.028 283.535 402.902 283.535 398.599C283.535 394.296 285.2 390.169 288.165 387.127C291.129 384.084 295.15 382.375 299.343 382.375H461.496C465.689 382.375 469.71 384.084 472.674 387.127C475.639 390.169 477.304 394.296 477.304 398.599C477.304 402.902 475.639 407.028 472.674 410.071C469.71 413.113 465.689 414.823 461.496 414.823ZM299.343 383.448C297.369 383.39 295.405 383.739 293.565 384.474C291.725 385.208 290.047 386.315 288.631 387.727C287.216 389.139 286.09 390.828 285.321 392.694C284.553 394.561 284.157 396.566 284.157 398.593C284.157 400.619 284.553 402.624 285.321 404.491C286.09 406.357 287.216 408.046 288.631 409.458C290.047 410.87 291.725 411.977 293.565 412.712C295.405 413.446 297.369 413.795 299.343 413.737H461.496C463.47 413.795 465.435 413.446 467.274 412.712C469.114 411.977 470.792 410.87 472.208 409.458C473.623 408.046 474.749 406.357 475.518 404.491C476.286 402.624 476.682 400.619 476.682 398.593C476.682 396.566 476.286 394.561 475.518 392.694C474.749 390.828 473.623 389.139 472.208 387.727C470.792 386.315 469.114 385.208 467.274 384.474C465.435 383.739 463.47 383.39 461.496 383.448H299.343Z" fill="#F0F0F0"/>
<path d="M461.496 455.22H299.343C295.15 455.22 291.129 453.511 288.165 450.469C285.2 447.426 283.535 443.299 283.535 438.996C283.535 434.694 285.2 430.567 288.165 427.524C291.129 424.482 295.15 422.772 299.343 422.772H461.496C465.689 422.772 469.71 424.482 472.674 427.524C475.639 430.567 477.304 434.694 477.304 438.996C477.304 443.299 475.639 447.426 472.674 450.469C469.71 453.511 465.689 455.22 461.496 455.22ZM299.343 423.833C297.369 423.775 295.405 424.124 293.565 424.859C291.725 425.594 290.047 426.7 288.631 428.112C287.216 429.524 286.09 431.213 285.321 433.08C284.553 434.946 284.157 436.952 284.157 438.978C284.157 441.004 284.553 443.01 285.321 444.876C286.09 446.742 287.216 448.431 288.631 449.844C290.047 451.256 291.725 452.362 293.565 453.097C295.405 453.832 297.369 454.18 299.343 454.122H461.496C463.47 454.18 465.435 453.832 467.274 453.097C469.114 452.362 470.792 451.256 472.208 449.844C473.623 448.431 474.749 446.742 475.518 444.876C476.286 443.01 476.682 441.004 476.682 438.978C476.682 436.952 476.286 434.946 475.518 433.08C474.749 431.213 473.623 429.524 472.208 428.112C470.792 426.7 469.114 425.594 467.274 424.859C465.435 424.124 463.47 423.775 461.496 423.833H299.343Z" fill="#F0F0F0"/>
<path d="M330.363 395.092H430.464C431.337 395.089 432.173 394.731 432.791 394.098C433.408 393.464 433.756 392.606 433.759 391.71C433.759 390.812 433.413 389.95 432.795 389.314C432.177 388.678 431.339 388.318 430.464 388.315H330.363C329.929 388.315 329.498 388.403 329.097 388.574C328.696 388.744 328.331 388.994 328.024 389.309C327.717 389.625 327.473 389.999 327.307 390.411C327.141 390.823 327.055 391.264 327.055 391.71C327.059 392.608 327.408 393.468 328.028 394.102C328.648 394.736 329.488 395.092 330.363 395.092Z" fill="#EBEBEB"/>
<path d="M461.496 374.4H299.343C295.15 374.4 291.129 372.691 288.165 369.648C285.2 366.606 283.535 362.479 283.535 358.176C283.535 353.873 285.2 349.747 288.165 346.704C291.129 343.661 295.15 341.952 299.343 341.952H461.496C465.689 341.952 469.71 343.661 472.674 346.704C475.639 349.747 477.304 353.873 477.304 358.176C477.304 362.479 475.639 366.606 472.674 369.648C469.71 372.691 465.689 374.4 461.496 374.4ZM299.343 343.063C297.369 343.005 295.405 343.353 293.565 344.088C291.725 344.823 290.047 345.929 288.631 347.341C287.216 348.753 286.09 350.443 285.321 352.309C284.553 354.175 284.157 356.181 284.157 358.207C284.157 360.233 284.553 362.239 285.321 364.105C286.09 365.972 287.216 367.661 288.631 369.073C290.047 370.485 291.725 371.591 293.565 372.326C295.405 373.061 297.369 373.41 299.343 373.352H461.496C463.47 373.41 465.435 373.061 467.274 372.326C469.114 371.591 470.792 370.485 472.208 369.073C473.623 367.661 474.749 365.972 475.518 364.105C476.286 362.239 476.682 360.233 476.682 358.207C476.682 356.181 476.286 354.175 475.518 352.309C474.749 350.443 473.623 348.753 472.208 347.341C470.792 345.929 469.114 344.823 467.274 344.088C465.435 343.353 463.47 343.005 461.496 343.063H299.343Z" fill="#F0F0F0"/>
<path d="M330.363 354.707H430.464C431.339 354.703 432.177 354.344 432.795 353.708C433.413 353.072 433.759 352.21 433.759 351.312C433.756 350.416 433.408 349.558 432.791 348.924C432.173 348.291 431.337 347.933 430.464 347.93H330.363C329.496 347.943 328.669 348.305 328.06 348.937C327.45 349.57 327.107 350.422 327.104 351.312C327.104 352.204 327.446 353.06 328.055 353.695C328.665 354.33 329.494 354.693 330.363 354.707Z" fill="#EBEBEB"/>
<path d="M330.363 435.477H430.464C431.337 435.474 432.173 435.116 432.791 434.483C433.408 433.849 433.756 432.991 433.759 432.095C433.756 431.198 433.408 430.338 432.791 429.703C432.174 429.067 431.338 428.707 430.464 428.7H330.363C329.487 428.704 328.647 429.062 328.028 429.698C327.408 430.334 327.059 431.196 327.055 432.095C327.059 432.993 327.408 433.853 328.028 434.487C328.648 435.121 329.488 435.477 330.363 435.477Z" fill="#EBEBEB"/>
<path d="M267.751 333.478H490.097V326.402H267.751V333.478Z" fill="#F0F0F0"/>
<path d="M509.759 326.402H490.084V333.478H509.759V326.402Z" fill="#E6E6E6"/>
<path d="M104.236 419.927H161.923L167.419 321.884C167.458 321.318 167.382 320.75 167.196 320.216C167.01 319.681 166.718 319.192 166.338 318.78C165.959 318.367 165.5 318.039 164.992 317.818C164.483 317.596 163.935 317.485 163.382 317.491H114.304C113.149 317.507 112.042 317.967 111.202 318.781C110.362 319.594 109.85 320.702 109.768 321.884L104.236 419.927Z" fill="#E6E6E6"/>
<path d="M98.4109 419.927H156.098L161.594 321.884C161.633 321.318 161.557 320.75 161.371 320.216C161.185 319.681 160.893 319.192 160.514 318.78C160.134 318.367 159.676 318.039 159.167 317.818C158.658 317.596 158.11 317.485 157.557 317.491H108.443C107.288 317.507 106.181 317.967 105.341 318.781C104.501 319.594 103.989 320.702 103.907 321.884L98.4109 419.927Z" fill="#F5F5F5"/>
<path d="M159.223 419.94H114.778V407.709H154.906C156.039 407.699 157.13 408.151 157.939 408.965C158.749 409.779 159.21 410.889 159.223 412.052V419.877V419.94Z" fill="#E6E6E6"/>
<path d="M127.923 419.94H68.2298V412.052C68.2298 410.887 68.6807 409.77 69.4834 408.946C70.2862 408.122 71.3749 407.659 72.5101 407.659H123.582C124.149 407.651 124.712 407.759 125.239 407.976C125.765 408.193 126.244 408.515 126.648 408.924C127.052 409.332 127.373 409.819 127.592 410.357C127.811 410.894 127.923 411.47 127.923 412.052V419.877V419.94Z" fill="#F5F5F5"/>
<path d="M157.971 477.235H161.923V419.94H157.971V477.235Z" fill="#E6E6E6"/>
<path d="M128.945 477.235H132.897V419.94H128.945V477.235Z" fill="#E6E6E6"/>
<path d="M98.1677 477.235H102.12V419.94H98.1677V477.235Z" fill="#E6E6E6"/>
<path d="M69.1418 477.235H73.0938V419.94H69.1418V477.235Z" fill="#E6E6E6"/>
<path d="M178.071 419.927H235.758L241.254 321.884C241.293 321.318 241.217 320.75 241.031 320.216C240.845 319.681 240.553 319.192 240.174 318.78C239.795 318.367 239.336 318.039 238.827 317.818C238.318 317.596 237.77 317.485 237.217 317.491H188.103C186.948 317.507 185.841 317.967 185.001 318.781C184.161 319.594 183.65 320.702 183.567 321.884L178.071 419.927Z" fill="#E6E6E6"/>
<path d="M172.246 419.927H229.933L235.43 321.884C235.47 321.318 235.396 320.749 235.21 320.214C235.025 319.678 234.733 319.189 234.354 318.776C233.974 318.362 233.514 318.035 233.005 317.814C232.495 317.593 231.946 317.483 231.393 317.491H182.278C181.125 317.507 180.019 317.968 179.181 318.782C178.343 319.595 177.834 320.703 177.755 321.884L172.246 419.927Z" fill="#F5F5F5"/>
<path d="M233.059 419.94H188.614V407.709H228.742C229.877 407.709 230.966 408.172 231.768 408.996C232.571 409.82 233.022 410.937 233.022 412.102V419.927L233.059 419.94Z" fill="#E6E6E6"/>
<path d="M201.759 419.94H142.065V412.052C142.065 410.887 142.516 409.77 143.319 408.946C144.122 408.122 145.21 407.659 146.346 407.659H197.418C198.553 407.659 199.642 408.122 200.444 408.946C201.247 409.77 201.698 410.887 201.698 412.052V419.877L201.759 419.94Z" fill="#F5F5F5"/>
<path d="M231.806 477.235H235.758V419.94H231.806V477.235Z" fill="#E6E6E6"/>
<path d="M202.768 477.235H206.72V419.94H202.768V477.235Z" fill="#E6E6E6"/>
<path d="M172.003 477.235H175.955V419.94H172.003V477.235Z" fill="#E6E6E6"/>
<path d="M142.977 477.235H146.929V419.94H142.977V477.235Z" fill="#E6E6E6"/>
<path d="M304 533.595C434.212 533.595 539.77 527.27 539.77 519.468C539.77 511.665 434.212 505.34 304 505.34C173.788 505.34 68.2298 511.665 68.2298 519.468C68.2298 527.27 173.788 533.595 304 533.595Z" fill="#F5F5F5"/>
<path d="M354.209 178.152C354.047 178.162 353.889 178.106 353.768 177.996C353.647 177.886 353.574 177.731 353.564 177.566C353.554 177.4 353.609 177.237 353.716 177.113C353.824 176.989 353.974 176.914 354.136 176.904L374.723 174.271C374.884 174.251 375.046 174.298 375.174 174.401C375.302 174.504 375.384 174.654 375.404 174.82C375.423 174.985 375.377 175.152 375.277 175.283C375.177 175.414 375.03 175.499 374.868 175.519L354.294 178.152H354.209Z" fill="#C8AE7D"/>
<path d="M374.723 182.295H374.625L354.184 178.714C354.104 178.7 354.028 178.67 353.96 178.626C353.891 178.581 353.832 178.524 353.785 178.456C353.738 178.388 353.704 178.311 353.686 178.23C353.668 178.149 353.666 178.065 353.68 177.984C353.693 177.902 353.722 177.823 353.766 177.753C353.809 177.682 353.865 177.621 353.931 177.573C353.997 177.525 354.072 177.491 354.151 177.473C354.229 177.454 354.311 177.452 354.391 177.466L374.832 181.06C374.993 181.075 375.142 181.155 375.246 181.282C375.35 181.41 375.4 181.575 375.385 181.74C375.371 181.906 375.293 182.058 375.169 182.165C375.044 182.271 374.884 182.323 374.723 182.308V182.295Z" fill="#C8AE7D"/>
<path d="M327.943 148.1C320.854 145.392 310.007 162.764 314.567 181.172C322.337 174.508 333.099 173.048 337.112 175.756C342.924 179.687 338.012 179.5 341.015 187.824C344.019 196.148 369.98 194.551 359.912 175.968C375.148 144.281 332.844 129.305 327.943 148.1Z" fill="#263238"/>
<path d="M278.257 216.59L280.981 218.974C281.488 219.413 281.885 219.972 282.137 220.602C282.389 221.232 282.489 221.915 282.428 222.593L281.881 229.033C281.777 230.299 281.378 231.521 280.717 232.596C280.057 233.671 279.155 234.568 278.087 235.211L276.737 236.022C271.958 232.39 269.441 224.79 269.441 224.79L268.481 222.718C268.273 222.3 268.148 221.843 268.113 221.375C268.078 220.907 268.133 220.436 268.275 219.989C268.417 219.543 268.644 219.13 268.942 218.774C269.241 218.417 269.604 218.125 270.013 217.913L273.989 215.904C274.69 215.586 275.465 215.481 276.222 215.603C276.978 215.725 277.685 216.067 278.257 216.59Z" fill="#B55B52"/>
<path d="M320.355 225.888C319.978 226.874 319.699 227.56 319.37 228.384C319.042 229.208 318.701 229.894 318.373 230.63C317.692 232.116 316.95 233.551 316.209 234.986C314.689 237.844 313.025 240.618 311.223 243.298C310.323 244.645 309.375 245.968 308.414 247.279C307.453 248.589 306.42 249.85 305.338 251.098C303.205 253.628 300.905 256.005 298.455 258.211L298.127 258.523C297.835 258.797 297.518 259.04 297.178 259.247C295.762 260.104 294.189 260.652 292.557 260.857C290.802 261.075 289.021 260.857 287.365 260.221C285.127 259.303 283.164 257.796 281.674 255.853C280.647 254.552 279.766 253.137 279.048 251.634C278.419 250.341 277.863 249.011 277.382 247.653C276.511 245.141 275.816 242.567 275.302 239.953C274.79 237.4 274.444 234.815 274.269 232.215C274.202 231.215 274.471 230.221 275.033 229.4C275.594 228.579 276.412 227.98 277.352 227.704C278.291 227.428 279.295 227.491 280.194 227.883C281.094 228.275 281.835 228.971 282.294 229.857L282.416 230.081C283.45 232.066 284.495 234.225 285.565 236.221C286.636 238.218 287.73 240.19 288.873 241.95C289.399 242.782 289.968 243.586 290.575 244.358C291.039 244.96 291.565 245.509 292.144 245.993C292.545 246.33 292.886 246.243 292.144 245.819C291.604 245.579 291.015 245.48 290.429 245.532C289.972 245.572 289.524 245.69 289.104 245.881L287.815 246.904C289.517 244.908 291.183 242.873 292.679 240.664C294.175 238.455 295.707 236.209 297.093 233.85C298.479 231.492 299.829 229.12 301.082 226.674C301.702 225.426 302.298 224.178 302.906 222.993L303.757 221.158L304.523 219.486L304.717 219.049C305.679 217.045 307.353 215.495 309.394 214.719C311.434 213.942 313.688 213.997 315.69 214.873C317.693 215.748 319.292 217.378 320.16 219.427C321.027 221.476 321.097 223.788 320.355 225.888Z" fill="#B55B52"/>
<path d="M389.947 483.201C391.832 474.465 391.357 472.393 392.89 467.601C393.687 464.878 394.841 462.28 396.319 459.876C397.656 457.317 395.103 455.283 392.573 454.958C390.591 454.696 388.5 454.609 386.068 454.21L380.815 464.256C383.587 467.875 385.8 476.736 384.828 483.45C384.134 488.305 389.193 486.72 389.947 483.201Z" fill="#263238"/>
<path d="M305.277 275.059C305.277 275.059 303.878 349.028 302.407 390.013C298.54 414.274 379.805 464.768 379.805 464.768C381.544 465.616 386.141 456.369 386.068 454.21C386.068 454.21 351.132 401.382 330.302 388.627C353.345 323.17 347.083 275.059 347.083 275.059H305.277Z" fill="#C8AE7D"/>
<path opacity="0.2" d="M347.083 275.059H320.708C320.708 275.059 325.985 347.368 331.859 384.085C353.053 320.961 347.083 275.059 347.083 275.059Z" fill="black"/>
<path opacity="0.2" d="M363.389 422.835C353.382 410.018 341.805 396.627 332.503 390.087C333.828 402.767 335.19 418.068 336.236 433.767C344.979 440.869 354.051 447.495 361.638 452.749C362.896 442.832 363.482 432.836 363.389 422.835Z" fill="black"/>
<path d="M374.698 462.933C375.768 463.719 377.641 465.117 379.003 466.203C379.218 466.376 379.49 466.454 379.762 466.422C380.033 466.389 380.28 466.248 380.45 466.028C383.062 462.345 385.338 458.422 387.247 454.309C387.348 454.106 387.383 453.875 387.345 453.65C387.308 453.426 387.201 453.219 387.041 453.061L383.636 449.592C383.528 449.481 383.397 449.395 383.252 449.342C383.108 449.289 382.954 449.27 382.802 449.285C382.649 449.301 382.502 449.351 382.371 449.432C382.24 449.513 382.128 449.623 382.043 449.754L374.455 461.461C374.376 461.573 374.319 461.701 374.289 461.836C374.258 461.972 374.254 462.112 374.276 462.249C374.299 462.386 374.348 462.517 374.42 462.635C374.493 462.752 374.587 462.854 374.698 462.933Z" fill="#C8AE7D"/>
<path opacity="0.3" d="M374.698 462.933C375.768 463.719 377.641 465.117 379.003 466.203C379.218 466.376 379.49 466.454 379.762 466.422C380.033 466.389 380.28 466.248 380.45 466.028C383.062 462.345 385.338 458.422 387.247 454.309C387.348 454.106 387.383 453.875 387.345 453.65C387.308 453.426 387.201 453.219 387.041 453.061L383.636 449.592C383.528 449.481 383.397 449.395 383.252 449.342C383.108 449.289 382.954 449.27 382.802 449.285C382.649 449.301 382.502 449.351 382.371 449.432C382.24 449.513 382.128 449.623 382.043 449.754L374.455 461.461C374.376 461.573 374.319 461.701 374.289 461.836C374.258 461.972 374.254 462.112 374.276 462.249C374.299 462.386 374.348 462.517 374.42 462.635C374.493 462.752 374.587 462.854 374.698 462.933Z" fill="white"/>
<path d="M335.531 525.495C344.42 525.495 343.788 525.358 348.797 525.183C353.09 525.034 354.063 525.57 357.504 525.495C360.374 525.433 360.52 522.612 359.936 519.368C359.644 517.745 359.133 515.748 358.72 513.128H345.222C344 515.07 342.367 516.706 340.446 517.913C338.524 519.121 336.362 519.87 334.12 520.104C329.293 520.753 331.968 525.495 335.531 525.495Z" fill="#263238"/>
<path d="M317.814 275.059C317.814 275.059 331.773 353.933 336.893 389.688C342.255 427.228 348.883 488.168 345.235 513.115C347.204 514.363 354.525 514.426 358.732 513.115C358.732 513.115 380.073 427.49 362.246 391.348C372.388 303.489 357.382 298.909 353.248 275.059H317.814Z" fill="#C8AE7D"/>
<path d="M344.675 507.936C344.491 509.663 344.182 511.373 343.751 513.053C343.709 513.187 343.696 513.329 343.713 513.468C343.73 513.608 343.777 513.742 343.85 513.861C343.923 513.98 344.02 514.081 344.136 514.157C344.251 514.233 344.381 514.282 344.517 514.301C349.381 515.112 356.677 513.939 358.951 513.527C359.167 513.479 359.366 513.37 359.527 513.214C359.688 513.058 359.804 512.86 359.863 512.641L361.018 507.849C361.063 507.701 361.073 507.545 361.047 507.393C361.021 507.24 360.959 507.097 360.867 506.974C360.775 506.852 360.656 506.754 360.519 506.689C360.382 506.624 360.232 506.594 360.082 506.601L345.782 506.888C345.509 506.91 345.252 507.025 345.051 507.215C344.851 507.405 344.718 507.659 344.675 507.936Z" fill="#C8AE7D"/>
<path opacity="0.3" d="M344.675 507.936C344.491 509.663 344.182 511.373 343.751 513.053C343.709 513.187 343.696 513.329 343.713 513.468C343.73 513.608 343.777 513.742 343.85 513.861C343.923 513.98 344.02 514.081 344.136 514.157C344.251 514.233 344.381 514.282 344.517 514.301C349.381 515.112 356.677 513.939 358.951 513.527C359.167 513.479 359.366 513.37 359.527 513.214C359.688 513.058 359.804 512.86 359.863 512.641L361.018 507.849C361.063 507.701 361.073 507.545 361.047 507.393C361.021 507.24 360.959 507.097 360.867 506.974C360.775 506.852 360.656 506.754 360.519 506.689C360.382 506.624 360.232 506.594 360.082 506.601L345.782 506.888C345.509 506.91 345.252 507.025 345.051 507.215C344.851 507.405 344.718 507.659 344.675 507.936Z" fill="white"/>
<path d="M316.586 205.92C307.733 207.63 305.86 211.349 299.343 225.152C301.313 234.225 311.892 242.199 311.892 242.199C311.892 242.199 331.19 217.714 316.586 205.92Z" fill="#263238"/>
<path d="M302.553 223.167C302.407 228.01 302.869 233.863 303.927 245.382C304.644 255.141 302.273 273.699 305.277 275.059H353.248C354.209 261.082 353.856 251.46 362.477 220.247C362.995 218.612 363.148 216.879 362.926 215.175C362.703 213.472 362.111 211.841 361.192 210.403C360.274 208.966 359.052 207.759 357.619 206.87C356.185 205.982 354.575 205.436 352.907 205.271C350.998 205.071 348.992 204.909 346.913 204.809C339.663 204.272 332.384 204.272 325.134 204.809C322.763 205.022 320.27 205.334 317.96 205.67C313.812 206.298 310.006 208.387 307.195 211.579C304.384 214.772 302.742 218.869 302.553 223.167Z" fill="#263238"/>
<path d="M345.344 179.712C343.447 186.913 341.112 200.092 345.672 204.897C345.672 204.897 339.033 203.873 324.94 212.821C320.854 206.806 323.882 204.897 323.882 204.897C331.846 202.975 332.077 197.022 331.117 191.431L345.344 179.712Z" fill="#B55B52"/>
<path d="M327.943 210.974C332.588 211.661 334.023 218.849 334.023 218.849C334.023 218.849 345.174 210.762 348.7 205.046C347.297 204.236 345.937 203.349 344.627 202.388C344.627 202.388 330.655 208.229 327.943 210.974Z" fill="white"/>
<path d="M323.529 210.213C323.529 210.213 319.881 211.024 317.996 216.291C316.938 205.795 321.79 204.834 321.79 204.834C323.064 204.099 324.56 203.876 325.985 204.21C324.961 204.763 324.155 205.664 323.707 206.759C323.259 207.854 323.196 209.075 323.529 210.213Z" fill="white"/>
<path opacity="0.2" d="M339.592 184.467L331.165 191.393C331.409 192.702 331.539 194.03 331.555 195.362C334.57 194.913 338.924 191.618 339.471 188.348C339.735 187.072 339.776 185.758 339.592 184.467Z" fill="black"/>
<path d="M354.756 170.115C350.634 181.147 349.114 185.902 341.781 190.183C330.752 196.623 318.397 189.796 319.224 177.903C319.966 167.207 326.605 150.971 338.753 149.361C341.35 148.92 344.014 149.201 346.469 150.175C348.925 151.149 351.081 152.779 352.714 154.898C354.347 157.016 355.398 159.545 355.757 162.221C356.116 164.897 355.77 167.622 354.756 170.115Z" fill="#B55B52"/>
<path d="M327.943 149.623C328.819 155.551 346.621 161.391 350.001 160.68C345.745 164.561 348.652 181.721 357.699 176.455C360.07 156.412 348.664 138.603 327.943 149.623Z" fill="#263238"/>
<path opacity="0.2" d="M339.264 169.129C340.737 168.693 342.317 168.868 343.666 169.616C342.182 169.755 340.685 169.59 339.264 169.129Z" fill="black"/>
<path opacity="0.2" d="M339.179 170.215C339.868 170.162 340.56 170.265 341.207 170.515C341.854 170.765 342.44 171.156 342.924 171.663C341.588 171.465 340.31 170.971 339.179 170.215Z" fill="black"/>
<path d="M336.832 168.705C336.528 169.641 335.798 170.277 335.203 170.115C334.607 169.953 334.376 169.067 334.68 168.131C334.984 167.195 335.725 166.546 336.321 166.708C336.917 166.87 337.1 167.756 336.832 168.705Z" fill="#263238"/>
<path d="M325.535 165.872C325.231 166.82 324.502 167.444 323.906 167.294C323.31 167.145 323.079 166.234 323.383 165.298C323.687 164.362 324.429 163.725 325.025 163.887C325.62 164.05 325.888 164.936 325.535 165.872Z" fill="#263238"/>
<path d="M325.268 164L323.298 162.752C323.298 162.752 323.833 164.836 325.268 164Z" fill="#263238"/>
<path d="M328.15 168.255C326.632 170.187 324.884 171.914 322.945 173.397C323.31 173.865 323.773 174.242 324.299 174.501C324.825 174.761 325.402 174.895 325.985 174.895L328.15 168.255Z" fill="#A02724"/>
<path d="M330.083 179.774C329.555 179.722 329.03 179.631 328.515 179.5C328.479 179.492 328.445 179.476 328.416 179.453C328.387 179.43 328.363 179.401 328.346 179.368C328.328 179.335 328.318 179.298 328.316 179.261C328.313 179.223 328.319 179.186 328.332 179.15C328.355 179.076 328.403 179.014 328.469 178.974C328.534 178.935 328.611 178.922 328.685 178.938C329.848 179.257 331.067 179.303 332.25 179.071C333.433 178.84 334.551 178.338 335.519 177.603C335.545 177.575 335.576 177.553 335.61 177.539C335.645 177.524 335.682 177.516 335.719 177.516C335.757 177.516 335.794 177.524 335.828 177.539C335.863 177.553 335.894 177.575 335.92 177.603C335.971 177.659 336 177.732 336 177.809C336 177.885 335.971 177.959 335.92 178.015C334.252 179.319 332.174 179.946 330.083 179.774Z" fill="#263238"/>
<path d="M354.804 179.55C354.177 180.479 353.368 181.264 352.427 181.853C351.487 182.442 350.437 182.822 349.345 182.969C346.633 183.206 346.025 179.949 347.399 177.054C348.615 174.445 351.558 171.188 353.978 172.299C356.397 173.41 356.568 177.104 354.804 179.55Z" fill="#B55B52"/>
<path d="M340.602 163.9C340.531 163.872 340.467 163.831 340.413 163.777C340.358 163.723 340.315 163.659 340.285 163.588C340.055 162.926 339.669 162.333 339.162 161.861C338.655 161.389 338.043 161.052 337.379 160.88C337.308 160.87 337.24 160.845 337.179 160.806C337.119 160.766 337.067 160.714 337.028 160.653C336.988 160.591 336.962 160.521 336.952 160.449C336.941 160.376 336.946 160.302 336.966 160.231C337.003 160.078 337.096 159.946 337.224 159.86C337.353 159.775 337.508 159.742 337.659 159.769C338.503 159.971 339.284 160.387 339.931 160.977C340.579 161.568 341.073 162.315 341.368 163.151C341.414 163.297 341.404 163.455 341.338 163.593C341.272 163.731 341.156 163.836 341.015 163.887C340.883 163.941 340.737 163.945 340.602 163.9Z" fill="#263238"/>
<path d="M323.59 159.632C323.522 159.619 323.457 159.591 323.401 159.55C323.344 159.509 323.297 159.456 323.261 159.395C323.225 159.33 323.201 159.259 323.192 159.185C323.182 159.111 323.187 159.035 323.206 158.963C323.226 158.891 323.259 158.824 323.304 158.765C323.349 158.706 323.405 158.657 323.468 158.621C324.232 158.112 325.099 157.788 326.003 157.676C326.907 157.563 327.825 157.665 328.685 157.972C328.751 158.002 328.81 158.046 328.858 158.102C328.907 158.157 328.943 158.221 328.966 158.292C328.989 158.362 328.998 158.436 328.991 158.51C328.984 158.584 328.963 158.656 328.928 158.721C328.858 158.858 328.74 158.963 328.599 159.016C328.457 159.069 328.302 159.066 328.162 159.008C327.479 158.775 326.753 158.703 326.04 158.798C325.326 158.893 324.642 159.153 324.04 159.557C323.905 159.642 323.743 159.669 323.59 159.632Z" fill="#263238"/>
<path d="M336.516 166.833L334.546 165.585C334.546 165.585 335.081 167.656 336.516 166.833Z" fill="#263238"/>
<path d="M367.086 218.001C367.512 218.962 367.803 219.648 368.132 220.434C368.46 221.221 368.728 221.969 369.02 222.743C369.591 224.266 370.077 225.813 370.564 227.361C371.515 230.468 372.303 233.626 372.923 236.821C373.251 238.418 373.507 240.04 373.762 241.65C374.017 243.26 374.188 244.92 374.309 246.567C374.595 249.887 374.664 253.222 374.516 256.551V257.088C374.503 257.508 374.45 257.926 374.358 258.336C373.975 259.977 373.267 261.519 372.278 262.866C371.214 264.321 369.82 265.486 368.217 266.261C366.023 267.276 363.606 267.676 361.213 267.422C359.588 267.278 357.984 266.943 356.434 266.423C355.089 265.994 353.77 265.486 352.482 264.901C350.117 263.799 347.833 262.522 345.648 261.082C343.501 259.683 341.445 258.14 339.495 256.464C338.746 255.818 338.236 254.928 338.05 253.943C337.865 252.957 338.014 251.936 338.474 251.05C338.934 250.164 339.677 249.467 340.578 249.076C341.478 248.685 342.483 248.623 343.423 248.901L343.666 248.976C345.782 249.588 348.019 250.311 350.159 250.911C352.299 251.51 354.44 252.071 356.47 252.446C357.48 252.633 358.452 252.795 359.34 252.87C360.084 252.948 360.834 252.948 361.578 252.87C362.088 252.87 362.259 252.495 361.456 252.758C360.908 252.975 360.429 253.342 360.07 253.818C359.77 254.188 359.539 254.611 359.389 255.066L359.206 256.726C359 254.08 358.72 251.435 358.258 248.764C357.796 246.093 357.236 243.435 356.556 240.777C355.875 238.119 355.133 235.473 354.282 232.852C353.868 231.604 353.418 230.231 352.968 228.946L352.287 227.036L351.643 225.314L351.473 224.865C350.838 222.789 350.981 220.545 351.873 218.572C352.765 216.599 354.342 215.038 356.296 214.195C358.25 213.353 360.441 213.288 362.438 214.015C364.436 214.742 366.098 216.208 367.098 218.126L367.086 218.001Z" fill="#B55B52"/>
<path d="M353.345 205.383C361.164 206.631 364.289 209.053 370.673 225.164C367.779 231.167 354.209 236.92 354.209 236.92C354.209 236.92 343.581 217.152 353.345 205.383Z" fill="#263238"/>
<path d="M267.52 367.636L265.441 358.55C260.212 335.65 266.486 312.512 272.554 290.148C277.832 270.729 282.805 252.396 279.206 236.683L281.966 236.022C285.724 252.458 280.653 271.141 275.278 290.934C269.308 312.949 263.118 335.712 268.201 357.889L270.28 366.974L267.52 367.636Z" fill="#C8AE7D"/>
<path d="M264.53 235.415C268.352 186.338 232.686 143.373 184.868 139.451C137.05 135.528 95.1868 172.132 91.3646 221.209C87.5424 270.286 123.208 313.25 171.027 317.173C218.845 321.096 260.708 284.491 264.53 235.415Z" fill="#C8AE7D"/>
<path opacity="0.2" d="M264.53 235.415C268.352 186.338 232.686 143.373 184.868 139.451C137.05 135.528 95.1868 172.132 91.3646 221.209C87.5424 270.286 123.208 313.25 171.027 317.173C218.845 321.096 260.708 284.491 264.53 235.415Z" fill="black"/>
<path d="M187.361 300.581C179.714 300.579 172.221 298.366 165.743 294.194C159.265 290.022 154.064 284.061 150.736 276.995C147.408 269.928 146.088 262.042 146.927 254.24C147.767 246.439 150.731 239.038 155.481 232.887C160.231 226.735 166.574 222.082 173.783 219.461C180.992 216.841 188.774 216.358 196.238 218.069C203.702 219.78 210.544 223.615 215.982 229.134C221.419 234.654 225.23 241.635 226.979 249.276C228.374 255.404 228.403 261.777 227.062 267.919C225.722 274.061 223.048 279.812 219.239 284.745C215.43 289.677 210.585 293.664 205.065 296.406C199.546 299.148 193.494 300.575 187.361 300.581ZM187.361 219.948C179.499 219.947 171.831 222.459 165.422 227.135C159.014 231.81 154.182 238.417 151.598 246.038C149.014 253.659 148.806 261.917 151.002 269.666C153.198 277.414 157.69 284.269 163.854 289.278C170.019 294.288 177.549 297.203 185.402 297.621C193.254 298.038 201.038 295.937 207.674 291.608C214.309 287.279 219.467 280.938 222.432 273.464C225.397 265.99 226.021 257.754 224.218 249.9C222.252 241.381 217.545 233.791 210.857 228.356C204.169 222.921 195.892 219.959 187.361 219.948Z" fill="white"/>
<path d="M180.54 151.432L210.477 282.385C211.483 286.775 214.146 290.575 217.881 292.951C221.616 295.326 226.118 296.082 230.396 295.052L317.267 274.136C320.73 273.291 323.839 271.329 326.135 268.536C328.431 265.744 329.793 262.269 330.022 258.623C331.181 240.499 328.361 222.339 321.77 205.483C315.178 188.627 304.984 173.504 291.939 161.231C278.893 148.958 263.33 139.846 246.396 134.569C229.462 129.292 211.59 127.984 194.098 130.741C191.845 131.104 189.69 131.942 187.767 133.2C185.844 134.457 184.194 136.109 182.921 138.051C181.649 139.994 180.78 142.184 180.371 144.487C179.961 146.789 180.018 149.154 180.54 151.432Z" fill="#C8AE7D"/>
<path opacity="0.4" d="M180.54 151.432L210.477 282.385C211.483 286.775 214.146 290.575 217.881 292.951C221.616 295.326 226.118 296.082 230.396 295.052L317.267 274.136C320.73 273.291 323.839 271.329 326.135 268.536C328.431 265.744 329.793 262.269 330.022 258.623C331.181 240.499 328.361 222.339 321.77 205.483C315.178 188.627 304.984 173.504 291.939 161.231C278.893 148.958 263.33 139.846 246.396 134.569C229.462 129.292 211.59 127.984 194.098 130.741C191.845 131.104 189.69 131.942 187.767 133.2C185.844 134.457 184.194 136.109 182.921 138.051C181.649 139.994 180.78 142.184 180.371 144.487C179.961 146.789 180.018 149.154 180.54 151.432Z" fill="white"/>
<path d="M289.542 389.376L207.45 409.082C206.455 409.317 205.412 409.188 204.502 408.716C203.591 408.244 202.87 407.459 202.464 406.499L195.168 389.126C194.919 388.528 194.8 387.881 194.821 387.231C194.841 386.581 195 385.943 195.286 385.363C195.572 384.782 195.979 384.273 196.478 383.871C196.976 383.469 197.554 383.184 198.172 383.036L286.538 361.745C287.157 361.599 287.799 361.593 288.419 361.728C289.04 361.863 289.625 362.135 290.132 362.526C290.64 362.917 291.058 363.418 291.357 363.992C291.656 364.566 291.829 365.201 291.864 365.851L292.874 384.733C292.94 385.786 292.642 386.829 292.032 387.678C291.423 388.527 290.541 389.128 289.542 389.376Z" fill="#C8AE7D"/>
<path d="M283.583 403.104L218.734 418.729C217.721 418.969 216.658 418.829 215.737 418.335C214.816 417.84 214.098 417.024 213.712 416.033L207.839 400.957C207.607 400.362 207.503 399.722 207.534 399.082C207.566 398.441 207.731 397.815 208.02 397.247C208.309 396.678 208.713 396.18 209.207 395.786C209.7 395.393 210.27 395.114 210.879 394.967L280.324 378.144C280.932 377.996 281.563 377.985 282.175 378.111C282.787 378.237 283.366 378.498 283.87 378.875C284.375 379.252 284.794 379.736 285.1 380.295C285.405 380.854 285.589 381.474 285.638 382.113L286.927 398.337C287.028 399.412 286.745 400.489 286.129 401.366C285.514 402.243 284.609 402.861 283.583 403.104Z" fill="#C8AE7D"/>
<path d="M277.163 415.846L230.031 427.203C228.996 427.449 227.909 427.298 226.975 426.778C226.041 426.259 225.324 425.407 224.96 424.382L220.315 411.278C220.104 410.687 220.019 410.057 220.063 409.429C220.108 408.802 220.282 408.191 220.574 407.638C220.866 407.084 221.27 406.601 221.757 406.22C222.245 405.838 222.806 405.567 223.404 405.425L273.661 393.32C274.259 393.175 274.88 393.161 275.484 393.281C276.087 393.401 276.659 393.65 277.161 394.014C277.663 394.377 278.085 394.846 278.397 395.389C278.71 395.932 278.907 396.537 278.975 397.164L280.483 411.016C280.605 412.1 280.335 413.191 279.722 414.082C279.11 414.974 278.198 415.602 277.163 415.846Z" fill="#C8AE7D"/>
<path d="M251.712 243.36C249.408 233.334 243.324 224.656 234.794 219.228C226.263 213.8 215.984 212.066 206.209 214.406L205.565 211.586C216.07 209.066 227.12 210.927 236.289 216.76C245.458 222.593 251.998 231.922 254.472 242.699L251.712 243.36Z" fill="#C8AE7D"/>
<path opacity="0.2" d="M200.762 144.431L158.931 159.12L158.311 162.664L161.886 165.185L161.205 169.054L164.245 172.237L164.221 175.694L205.553 161.167L206.769 157.685L203.108 154.54L203.473 150.422L200.3 148.188L200.762 144.431Z" fill="white"/>
<path d="M242.324 287.327C231.933 287.314 221.939 283.225 214.39 275.896C206.84 268.568 202.306 258.554 201.716 247.907C201.125 237.259 204.523 226.782 211.213 218.622C217.904 210.462 227.381 205.235 237.704 204.012C248.027 202.789 258.415 205.662 266.741 212.044C275.067 218.425 280.701 227.831 282.49 238.337C284.278 248.843 282.086 259.653 276.362 268.554C270.638 277.455 261.815 283.774 251.7 286.216C248.627 286.955 245.481 287.328 242.324 287.327ZM242.47 206.681C236.757 206.68 231.118 208.002 225.973 210.55C220.827 213.098 216.309 216.805 212.755 221.396C209.201 225.987 206.703 231.342 205.447 237.062C204.192 242.782 204.211 248.719 205.504 254.43C206.639 259.397 208.717 264.087 211.618 268.23C214.519 272.374 218.187 275.89 222.413 278.579C226.638 281.267 231.338 283.075 236.244 283.9C241.15 284.724 246.167 284.549 251.007 283.383C255.847 282.218 260.416 280.086 264.453 277.108C268.49 274.131 271.917 270.366 274.536 266.03C277.156 261.693 278.918 256.87 279.721 251.834C280.524 246.799 280.353 241.651 279.218 236.683C277.258 228.175 272.563 220.591 265.889 215.157C259.216 209.723 250.953 206.755 242.434 206.731L242.47 206.681Z" fill="#C8AE7D"/>
<path d="M228.839 260.445L255.469 353.022L153.119 384.047L122.901 279.003L187.544 259.409L228.839 260.445Z" fill="#C8AE7D"/>
<path opacity="0.8" d="M228.839 260.445L255.469 353.022L153.119 384.047L122.901 279.003L187.544 259.409L228.839 260.445Z" fill="white"/>
<path d="M228.839 260.445L205.93 276.332L187.544 259.409L228.839 260.445Z" fill="#C8AE7D"/>
<path d="M155.648 281.586C156.154 283.388 156.864 285.122 157.764 286.753C158.703 288.386 159.812 289.909 161.071 291.296C163.613 294.141 166.714 296.712 169.741 299.47C172.839 302.2 175.775 305.117 178.533 308.206C179.919 309.766 181.233 311.389 182.509 313.048C183.786 314.708 184.941 316.268 186.23 317.853C191.228 324.181 196.712 330.171 201.637 336.885C204.141 340.256 206.37 343.834 208.301 347.581C210.231 351.368 211.717 355.377 212.727 359.524C212.867 360.02 212.81 360.554 212.567 361.007C212.324 361.46 211.916 361.795 211.432 361.939C210.948 362.083 210.429 362.024 209.987 361.774C209.546 361.525 209.219 361.106 209.079 360.61C206.528 353.078 202.7 346.069 197.77 339.905C192.906 333.553 187.592 327.425 182.595 320.836C181.379 319.226 180.102 317.504 178.947 315.931C177.791 314.359 176.515 312.811 175.189 311.326C172.554 308.346 169.753 305.524 166.799 302.877C163.844 300.157 160.719 297.548 157.8 294.328C156.334 292.689 155.042 290.894 153.946 288.975C152.869 287.004 152.024 284.91 151.428 282.735C151.314 282.173 151.411 281.587 151.699 281.096C151.988 280.604 152.447 280.243 152.985 280.085C153.523 279.927 154.098 279.984 154.597 280.244C155.096 280.504 155.48 280.948 155.672 281.487L155.648 281.586Z" fill="#C8AE7D"/>
<path d="M253.56 441.368C249.929 441.365 246.373 440.312 243.298 438.33C240.223 436.348 237.755 433.516 236.176 430.161C234.597 426.805 233.971 423.061 234.37 419.357C234.77 415.653 236.178 412.139 238.433 409.219C240.689 406.298 243.7 404.089 247.123 402.845C250.545 401.6 254.24 401.371 257.784 402.182C261.328 402.994 264.577 404.814 267.159 407.434C269.741 410.053 271.552 413.367 272.384 416.994C273.043 419.908 273.052 422.936 272.412 425.854C271.772 428.772 270.499 431.503 268.687 433.846C266.876 436.189 264.572 438.082 261.949 439.384C259.326 440.686 256.45 441.364 253.536 441.368H253.56ZM253.633 404.589C252.352 404.591 251.075 404.741 249.827 405.038C246.65 405.803 243.765 407.518 241.537 409.966C239.309 412.414 237.839 415.485 237.311 418.791C236.784 422.096 237.224 425.488 238.575 428.537C239.926 431.586 242.128 434.156 244.902 435.92C247.676 437.685 250.898 438.566 254.16 438.452C257.421 438.337 260.577 437.233 263.227 435.278C265.877 433.323 267.903 430.605 269.048 427.468C270.193 424.331 270.406 420.917 269.66 417.656C268.81 413.945 266.765 410.638 263.857 408.267C260.949 405.896 257.347 404.6 253.633 404.589Z" fill="#C8AE7D"/>
<path d="M331.348 242.624L334.911 242.274C335.572 242.21 336.239 242.307 336.856 242.559C337.473 242.811 338.024 243.209 338.461 243.722L342.584 248.589C343.399 249.55 343.979 250.697 344.273 251.935C344.567 253.173 344.567 254.465 344.274 255.703L343.909 257.25C338.036 258.249 330.971 254.892 330.971 254.892L328.855 254.168C328.417 254.031 328.01 253.807 327.657 253.508C327.304 253.209 327.012 252.841 326.799 252.425C326.585 252.01 326.454 251.555 326.412 251.087C326.371 250.62 326.42 250.148 326.557 249.7L327.907 245.369C328.163 244.621 328.624 243.964 329.234 243.477C329.844 242.99 330.578 242.694 331.348 242.624Z" fill="#B55B52"/>
<path d="M424.721 131.481C425.889 124.099 421.004 117.144 413.812 115.946C406.619 114.748 399.842 119.76 398.675 127.142C397.507 134.524 402.392 141.479 409.584 142.678C416.777 143.876 423.554 138.863 424.721 131.481Z" fill="white"/>
<path d="M411.689 144.306C408.803 144.306 405.982 143.428 403.582 141.782C401.182 140.137 399.312 137.798 398.208 135.061C397.103 132.325 396.814 129.314 397.377 126.409C397.94 123.504 399.33 120.835 401.371 118.741C403.412 116.646 406.012 115.22 408.842 114.642C411.673 114.064 414.607 114.361 417.273 115.494C419.939 116.628 422.218 118.547 423.822 121.01C425.425 123.473 426.281 126.368 426.281 129.33C426.281 133.302 424.744 137.111 422.007 139.92C419.271 142.728 415.559 144.306 411.689 144.306ZM411.689 117.212C409.358 117.212 407.08 117.921 405.143 119.25C403.205 120.579 401.695 122.468 400.803 124.677C399.911 126.887 399.678 129.319 400.132 131.665C400.587 134.01 401.709 136.165 403.357 137.856C405.005 139.548 407.105 140.699 409.39 141.166C411.676 141.633 414.045 141.393 416.198 140.478C418.351 139.563 420.191 138.013 421.486 136.024C422.781 134.035 423.472 131.697 423.472 129.305C423.469 126.099 422.226 123.025 420.017 120.758C417.808 118.491 414.813 117.215 411.689 117.212Z" fill="#C8AE7D"/>
<path d="M380.328 152.306C384.418 152.306 387.734 148.903 387.734 144.706C387.734 140.508 384.418 137.105 380.328 137.105C376.238 137.105 372.923 140.508 372.923 144.706C372.923 148.903 376.238 152.306 380.328 152.306Z" fill="white"/>
<path d="M380.328 153.766C378.578 153.774 376.865 153.247 375.407 152.253C373.95 151.259 372.812 149.843 372.14 148.184C371.469 146.526 371.292 144.7 371.634 142.938C371.975 141.176 372.819 139.559 374.058 138.29C375.298 137.022 376.876 136.16 378.594 135.815C380.311 135.469 382.09 135.655 383.704 136.349C385.318 137.044 386.695 138.215 387.659 139.714C388.624 141.213 389.132 142.972 389.12 144.768C389.104 147.154 388.172 149.437 386.526 151.121C384.88 152.806 382.653 153.756 380.328 153.766ZM380.328 138.553C379.145 138.553 377.989 138.912 377.004 139.586C376.02 140.259 375.251 141.216 374.796 142.337C374.34 143.458 374.218 144.691 374.445 145.883C374.671 147.075 375.236 148.171 376.068 149.034C376.901 149.897 377.963 150.488 379.122 150.732C380.281 150.977 381.484 150.864 382.581 150.408C383.677 149.952 384.617 149.173 385.283 148.169C385.949 147.166 386.311 145.982 386.323 144.768C386.334 143.953 386.188 143.143 385.892 142.387C385.595 141.63 385.156 140.942 384.598 140.361C384.04 139.78 383.375 139.319 382.642 139.005C381.909 138.69 381.123 138.528 380.328 138.528V138.553Z" fill="#C8AE7D"/>
<path d="M522.126 142.397C520.47 135.153 516.645 128.624 511.189 123.725C505.733 118.827 498.919 115.805 491.704 115.083C484.489 114.362 477.235 115.978 470.96 119.703C464.685 123.429 459.704 129.078 456.717 135.857C453.908 135.301 451.006 135.507 448.299 136.455C445.591 137.403 443.171 139.06 441.28 141.263C439.388 143.465 438.089 146.137 437.512 149.013C436.936 151.889 437.101 154.869 437.991 157.66C432.961 162.52 429.862 169.119 429.29 176.184C428.718 183.25 430.715 190.283 434.895 195.928C439.075 201.573 445.143 205.43 451.93 206.757C458.716 208.083 465.741 206.785 471.65 203.112C477.39 207.487 484.544 209.44 491.643 208.569C498.742 207.699 505.246 204.071 509.82 198.432C511.598 198.799 513.406 198.983 515.219 198.981C522.097 199.073 528.767 196.561 533.954 191.924C539.141 187.287 542.481 180.851 543.335 173.846C544.19 166.841 542.5 159.759 538.587 153.952C534.674 148.146 528.814 144.023 522.126 142.372V142.397Z" fill="white"/>
<path d="M488.333 210.213C482.338 210.23 476.483 208.352 471.565 204.834C465.38 208.324 458.179 209.416 451.275 207.909C444.371 206.402 438.225 202.398 433.959 196.627C429.693 190.857 427.591 183.704 428.036 176.475C428.482 169.245 431.445 162.421 436.386 157.248C435.971 155.678 435.758 154.058 435.754 152.431C435.76 147.579 437.637 142.927 440.975 139.492C444.314 136.057 448.841 134.117 453.568 134.098C454.328 134.099 455.088 134.149 455.842 134.247C459.086 127.445 464.282 121.825 470.731 118.144C477.18 114.463 484.573 112.897 491.915 113.657C499.257 114.417 506.196 117.466 511.8 122.394C517.403 127.323 521.401 133.894 523.257 141.224C530.073 143.232 535.952 147.699 539.814 153.803C543.677 159.906 545.262 167.236 544.278 174.443C543.294 181.65 539.807 188.251 534.459 193.03C529.111 197.809 522.262 200.445 515.171 200.454C513.541 200.453 511.914 200.315 510.307 200.042C507.554 203.237 504.172 205.796 500.384 207.549C496.596 209.302 492.489 210.211 488.333 210.213ZM471.65 201.664C471.951 201.66 472.246 201.756 472.489 201.939C477.938 206.09 484.727 207.946 491.466 207.127C498.205 206.308 504.384 202.876 508.738 197.533C508.897 197.332 509.107 197.179 509.345 197.091C509.583 197.003 509.84 196.983 510.088 197.034C511.777 197.382 513.496 197.557 515.219 197.558C521.705 197.567 527.971 195.143 532.837 190.741C537.703 186.34 540.834 180.265 541.641 173.66C542.448 167.055 540.875 160.375 537.218 154.877C533.561 149.379 528.073 145.442 521.786 143.807C521.535 143.74 521.307 143.606 521.125 143.417C520.943 143.228 520.814 142.992 520.752 142.734C519.158 135.788 515.485 129.529 510.249 124.835C505.013 120.14 498.476 117.246 491.556 116.558C484.636 115.869 477.679 117.422 471.662 120.997C465.646 124.573 460.87 129.992 458.006 136.494C457.874 136.79 457.648 137.031 457.366 137.181C457.084 137.33 456.762 137.378 456.45 137.317C455.516 137.131 454.568 137.035 453.617 137.03C449.63 137.037 445.809 138.666 442.992 141.56C440.174 144.454 438.59 148.377 438.587 152.468C438.592 154.091 438.842 155.704 439.329 157.248C439.41 157.508 439.419 157.786 439.355 158.05C439.29 158.315 439.155 158.556 438.964 158.746C436.373 161.283 434.313 164.336 432.91 167.717C431.507 171.099 430.791 174.739 430.804 178.414C430.81 183.227 432.054 187.953 434.412 192.113C436.769 196.273 440.156 199.72 444.23 202.105C448.303 204.489 452.919 205.726 457.608 205.69C462.297 205.655 466.894 204.347 470.932 201.901C471.146 201.756 471.394 201.674 471.65 201.664Z" fill="#C8AE7D"/>
<path d="M508.057 154.003C508.067 159.088 506.375 164.022 503.266 167.981C501.523 170.188 500.116 172.654 499.095 175.294C498.682 176.374 497.963 177.302 497.031 177.958C496.099 178.614 494.997 178.969 493.866 178.976H478.666C477.537 178.971 476.435 178.619 475.503 177.965C474.571 177.311 473.851 176.385 473.437 175.307C472.384 172.615 470.959 170.094 469.206 167.819C465.896 163.523 464.254 158.121 464.597 152.655C464.973 146.885 467.516 141.489 471.69 137.604C475.865 133.719 481.346 131.648 486.978 131.828C492.611 132.008 497.956 134.423 501.887 138.567C505.819 142.71 508.031 148.257 508.057 154.041V154.003Z" fill="white"/>
<path d="M493.866 180.423H478.666C477.253 180.425 475.873 179.988 474.705 179.171C473.538 178.354 472.638 177.194 472.124 175.843C471.125 173.267 469.765 170.854 468.087 168.68C465.393 165.162 463.719 160.936 463.259 156.487C462.8 152.037 463.572 147.545 465.488 143.526C467.403 139.506 470.385 136.123 474.089 133.765C477.794 131.406 482.072 130.167 486.431 130.191C490.791 130.215 495.056 131.501 498.735 133.9C502.415 136.299 505.361 139.715 507.235 143.755C509.108 147.796 509.834 152.296 509.327 156.74C508.821 161.184 507.104 165.392 504.372 168.879C502.715 170.977 501.379 173.321 500.408 175.831C499.896 177.184 498.997 178.346 497.83 179.166C496.662 179.986 495.281 180.424 493.866 180.423ZM486.327 133.124C485.828 133.124 485.33 133.124 484.831 133.124C481.152 133.399 477.616 134.695 474.6 136.874C471.584 139.054 469.202 142.034 467.711 145.497C466.219 148.959 465.673 152.772 466.131 156.529C466.589 160.285 468.035 163.842 470.312 166.82C472.15 169.219 473.644 171.875 474.751 174.708C475.058 175.518 475.596 176.214 476.295 176.706C476.993 177.198 477.819 177.462 478.666 177.466H493.866C494.715 177.461 495.542 177.195 496.241 176.7C496.939 176.206 497.476 175.507 497.782 174.695C498.86 171.921 500.34 169.329 502.172 167.007C505.085 163.311 506.666 158.695 506.646 153.941C506.644 151.076 506.068 148.242 504.955 145.615C503.843 142.987 502.216 140.622 500.177 138.665C496.417 135.075 491.463 133.093 486.327 133.124Z" fill="#C8AE7D"/>
<path d="M492.893 182.607H479.724C478.777 182.607 478.01 183.395 478.01 184.367V185.341C478.01 186.312 478.777 187.1 479.724 187.1H492.893C493.84 187.1 494.608 186.312 494.608 185.341V184.367C494.608 183.395 493.84 182.607 492.893 182.607Z" fill="#C8AE7D"/>
<path d="M490.474 188.648H482.156C481.209 188.648 480.442 189.436 480.442 190.407V191.381C480.442 192.353 481.209 193.14 482.156 193.14H490.474C491.421 193.14 492.188 192.353 492.188 191.381V190.407C492.188 189.436 491.421 188.648 490.474 188.648Z" fill="#C8AE7D"/>
</svg>
