<svg width="133" height="113" viewBox="0 0 133 113" fill="none" xmlns="http://www.w3.org/2000/svg">
<path d="M90.121 64.7979H82.704V24.5637C82.704 20.0096 80.8949 15.642 77.6747 12.4218C74.4544 9.20157 70.0869 7.39247 65.5328 7.39247C60.9787 7.39247 56.6112 9.20157 53.3909 12.4218C50.1707 15.642 48.3616 20.0096 48.3616 24.5637V64.7979H40.9814V24.5637C40.9814 18.049 43.5694 11.8011 48.176 7.19453C52.7825 2.58795 59.0304 0 65.5451 0C72.0598 0 78.3076 2.58795 82.9142 7.19453C87.5208 11.8011 90.1088 18.049 90.1088 24.5637L90.121 64.7979Z" fill="#DECEB1"/>
<g opacity="0.4">
<path d="M90.121 64.7979H82.704V24.5637C82.704 20.0096 80.8949 15.642 77.6747 12.4218C74.4544 9.20157 70.0869 7.39247 65.5328 7.39247C60.9787 7.39247 56.6112 9.20157 53.3909 12.4218C50.1707 15.642 48.3616 20.0096 48.3616 24.5637V64.7979H40.9814V24.5637C40.9814 18.049 43.5694 11.8011 48.176 7.19453C52.7825 2.58795 59.0304 0 65.5451 0C72.0598 0 78.3076 2.58795 82.9142 7.19453C87.5208 11.8011 90.1088 18.049 90.1088 24.5637L90.121 64.7979Z" fill="black"/>
</g>
<path d="M95.0903 46.9009H36.0244C34.051 46.9009 32.4512 48.5007 32.4512 50.4741V85.8067C32.4512 87.7801 34.051 89.3799 36.0244 89.3799H95.0903C97.0638 89.3799 98.6636 87.7801 98.6636 85.8067V50.4741C98.6636 48.5007 97.0638 46.9009 95.0903 46.9009Z" fill="#DECEB1"/>
<g opacity="0.5">
<path d="M71.0926 62.6084C71.098 61.5776 70.8155 60.5658 70.2769 59.6869C69.7382 58.808 68.9648 58.097 68.0439 57.634C67.1229 57.171 66.091 56.9743 65.0643 57.0662C64.0376 57.1581 63.0569 57.5348 62.2328 58.154C61.4087 58.7732 60.7738 59.6102 60.3998 60.5707C60.0257 61.5312 59.9273 62.5771 60.1156 63.5906C60.304 64.604 60.7715 65.5448 61.4657 66.3068C62.1599 67.0688 63.053 67.6219 64.0446 67.9036V76.1817H67.0643V67.9036C68.219 67.577 69.2363 66.8839 69.9629 65.9288C70.6895 64.9737 71.0859 63.8084 71.0926 62.6084Z" fill="black"/>
</g>
<path d="M35.963 85.3516C35.8154 85.3516 35.6924 78.2666 35.6924 69.5334C35.6924 60.8002 35.8154 53.7091 35.963 53.7091C36.1106 53.7091 36.2397 60.7941 36.2397 69.5334C36.2397 78.2728 36.1352 85.3516 35.963 85.3516Z" fill="#FAFAFA"/>
<path d="M61.2218 69.6996C61.2218 69.7303 60.9635 69.6135 60.6068 69.3306C60.0592 68.9232 59.5779 68.4336 59.1799 67.8791C58.4894 66.9685 58.0089 65.9164 57.7727 64.7983C57.5366 63.6801 57.5507 62.5235 57.814 61.4115C58.0773 60.2994 58.5833 59.2593 59.2958 58.3658C60.0083 57.4723 60.9096 56.7474 61.9352 56.2431C62.5403 55.9273 63.1891 55.7034 63.8602 55.5789C64.1028 55.5141 64.3565 55.5015 64.6043 55.542C63.7589 55.825 62.9365 56.1725 62.1443 56.5813C61.2051 57.0979 60.3846 57.8056 59.7357 58.6589C59.0869 59.5121 58.6241 60.4919 58.3772 61.535C58.1303 62.578 58.1049 63.6613 58.3025 64.7148C58.5 65.7684 58.9163 66.7688 59.5243 67.6516C60.0365 68.377 60.604 69.0617 61.2218 69.6996Z" fill="#FAFAFA"/>
<path d="M109.765 105.081L110.208 104.466L110.46 104.134C110.546 104.011 110.62 103.857 110.712 103.704C110.933 103.346 111.12 102.97 111.272 102.578C111.364 102.357 111.468 102.123 111.554 101.871C111.641 101.619 111.702 101.348 111.776 101.059C111.864 100.764 111.928 100.461 111.966 100.155C112.032 99.8261 112.077 99.4933 112.102 99.1587C112.237 97.5571 112.165 95.9447 111.887 94.3616C111.327 90.7638 109.808 86.5387 107.471 81.9384C104.767 76.7516 101.596 71.8215 97.9995 67.2088C93.6643 61.5929 88.9374 56.2905 83.8542 51.3414C78.0507 45.6379 71.8547 40.3481 65.3115 35.511C61.849 32.971 58.1958 30.5047 54.3458 28.18C50.4305 25.7884 46.3627 23.6559 42.1686 21.7961C37.8539 19.8193 33.3083 18.3916 28.6383 17.5464C26.2521 17.1243 23.8159 17.0642 21.4118 17.3681C20.2085 17.5449 19.0351 17.8864 17.9247 18.3828C16.8217 18.9066 15.8266 19.6325 14.9911 20.5231C14.205 21.454 13.5963 22.5213 13.1953 23.6719C12.8317 24.8345 12.6249 26.0403 12.5802 27.2575C12.5526 29.6801 12.8885 32.0932 13.5766 34.4162C14.9505 38.9774 16.8928 43.3475 19.3577 47.4238C21.6836 51.379 24.266 55.1777 27.0884 58.7954C29.8314 62.3563 32.7035 65.702 35.6248 68.8509C41.1702 74.8004 47.1303 80.3494 53.4602 85.4562C58.9567 89.9354 64.7625 94.0211 70.8344 97.6827C75.826 100.73 81.0833 103.32 86.5418 105.42C91.3758 107.209 95.767 108.243 99.3833 108.384C100.99 108.482 102.602 108.372 104.18 108.058C104.509 107.993 104.833 107.909 105.152 107.806C105.452 107.733 105.746 107.636 106.032 107.517L106.813 107.203C107.053 107.086 107.268 106.957 107.483 106.846C107.853 106.648 108.205 106.418 108.535 106.158C108.676 106.047 108.818 105.955 108.934 105.856L109.23 105.573L109.771 105.063C109.771 105.063 109.599 105.247 109.254 105.592L108.959 105.887C108.842 105.985 108.707 106.078 108.559 106.188C108.233 106.459 107.881 106.695 107.508 106.896C107.299 107.006 107.077 107.142 106.843 107.258L106.056 107.584C105.771 107.706 105.477 107.804 105.177 107.88C104.856 107.985 104.53 108.071 104.199 108.138C102.616 108.466 100.997 108.586 99.3833 108.495C95.7301 108.372 91.3389 107.351 86.468 105.567C80.9925 103.48 75.7185 100.899 70.7114 97.8549C64.6243 94.2002 58.804 90.1186 53.2942 85.6407C46.948 80.5348 40.9715 74.9858 35.4096 69.0354C32.4821 65.8865 29.61 62.5347 26.8547 58.9676C24.0248 55.3392 21.4342 51.5304 19.0994 47.5652C16.6294 43.4769 14.6831 39.0945 13.306 34.5208C12.6027 32.1713 12.2625 29.7282 12.2973 27.2759C12.3333 26.0236 12.5402 24.7821 12.9124 23.5858C13.295 22.3835 13.9272 21.2754 14.7676 20.3343C15.6081 19.3932 16.6378 18.6401 17.7894 18.1245C18.9261 17.6187 20.126 17.2691 21.3565 17.0851C23.7893 16.7768 26.2548 16.839 28.669 17.2696C33.3687 18.1164 37.9433 19.5503 42.2854 21.5378C46.488 23.4059 50.564 25.5466 54.4873 27.9463C58.3434 30.2772 61.9966 32.7495 65.4653 35.3265C72.0166 40.1671 78.2171 45.4653 84.0203 51.1815C89.0941 56.1458 93.8107 61.4625 98.1348 67.0919C101.728 71.7159 104.894 76.6562 107.594 81.8522C109.912 86.471 111.425 90.7208 111.966 94.3309C112.239 95.925 112.306 97.5477 112.163 99.1587C112.131 99.4952 112.082 99.8298 112.016 100.161C111.977 100.467 111.913 100.77 111.825 101.065C111.739 101.354 111.665 101.625 111.591 101.883C111.518 102.142 111.395 102.363 111.302 102.591C111.144 102.982 110.95 103.359 110.724 103.716C110.632 103.87 110.552 104.017 110.466 104.146C110.38 104.276 110.288 104.374 110.208 104.466C109.906 104.891 109.765 105.081 109.765 105.081Z" fill="#DECEB1"/>
<path d="M127.268 62.7744C127.268 62.7744 127.268 62.5222 127.206 62.0364C127.206 61.9134 127.206 61.7781 127.169 61.6243C127.133 61.4706 127.108 61.3107 127.071 61.1323C127.001 60.713 126.892 60.3012 126.745 59.9023C126.659 59.6809 126.585 59.4349 126.481 59.1889L126.112 58.4324C125.977 58.1556 125.822 57.8884 125.65 57.6329C125.466 57.3684 125.312 57.0671 125.091 56.8026C124.121 55.5177 122.99 54.3624 121.727 53.3647C118.922 51.0522 114.961 48.9058 110.164 47.0301C104.694 44.961 99.0479 43.3924 93.2945 42.3436C86.3275 41.0277 79.2762 40.2056 72.1934 39.8836C64.0645 39.4874 55.9178 39.6662 47.8142 40.4187C43.5091 40.8246 39.1733 41.415 34.7513 42.2637C30.2389 43.1041 25.7852 44.234 21.4178 45.6463C16.886 47.0506 12.5474 49.0154 8.50252 51.495C6.43008 52.7644 4.56354 54.3427 2.96739 56.1753C2.18513 57.1065 1.53528 58.1413 1.03625 59.2504C0.535691 60.3665 0.276914 61.5758 0.276914 62.799C0.276914 64.0222 0.535691 65.2316 1.03625 66.3476C1.538 67.4552 2.18764 68.4897 2.96739 69.4227C4.56293 71.256 6.42957 72.8343 8.50252 74.103C12.5481 76.5828 16.8865 78.5495 21.4178 79.9579C25.7805 81.3471 30.2281 82.4543 34.7329 83.2728C39.1548 84.1031 43.5214 84.6873 47.7958 85.1179C55.8994 85.8703 64.0461 86.0491 72.1749 85.6529C79.2578 85.3312 86.3091 84.5092 93.276 83.1929C99.0314 82.144 104.68 80.5755 110.152 78.5065C114.949 76.6307 118.904 74.4843 121.708 72.1718C122.972 71.1742 124.102 70.0188 125.072 68.7339C125.294 68.4694 125.447 68.1681 125.632 67.9036C125.804 67.6481 125.958 67.381 126.093 67.1041C126.222 66.8397 126.345 66.5875 126.468 66.3476C126.591 66.1078 126.641 65.8618 126.727 65.6342C126.874 65.2353 126.983 64.8235 127.053 64.4042C127.089 64.2258 127.133 64.0598 127.151 63.9122C127.169 63.7646 127.151 63.6231 127.188 63.5001C127.225 63.0143 127.249 62.7621 127.249 62.7621C127.249 62.7621 127.249 63.0143 127.212 63.5063C127.212 63.6293 127.212 63.7646 127.212 63.9183C127.212 64.0721 127.151 64.232 127.12 64.4103C127.052 64.8294 126.945 65.2412 126.8 65.6404C126.72 65.8679 126.647 66.1139 126.548 66.3599L126.179 67.1226C126.049 67.4039 125.895 67.6734 125.718 67.9282C125.549 68.2208 125.364 68.5041 125.165 68.7769C124.197 70.0708 123.068 71.2364 121.807 72.2456C118.996 74.5827 115.041 76.7475 110.232 78.6418C104.756 80.7314 99.1012 82.3185 93.3375 83.3835C86.3629 84.7038 79.3032 85.5259 72.2118 85.8436C64.0714 86.2506 55.9124 86.0821 47.7958 85.3393C43.4907 84.9334 39.1364 84.3491 34.7083 83.525C30.1817 82.7004 25.7135 81.5828 21.3317 80.1793C16.7674 78.7703 12.3975 76.7951 8.32416 74.2998C6.23773 73.0125 4.35896 71.4158 2.75213 69.5642C1.95619 68.6076 1.29221 67.5485 0.777941 66.4153C0.265035 65.2624 0 64.0147 0 62.7529C0 61.4911 0.265035 60.2433 0.777941 59.0905C1.29075 57.9565 1.95486 56.8972 2.75213 55.9416C4.36128 54.0917 6.24214 52.497 8.33032 51.2121C12.4014 48.7168 16.7693 46.7415 21.3317 45.3326C25.7214 43.9339 30.198 42.8245 34.7329 42.0115C39.161 41.1813 43.5399 40.597 47.8204 40.1665C55.935 39.4237 64.0919 39.2552 72.2303 39.6622C79.3234 39.9833 86.3849 40.8054 93.3621 42.1222C99.126 43.1833 104.781 44.7684 110.257 46.8578C115.06 48.7521 119.021 50.9169 121.825 53.254C123.09 54.2618 124.22 55.4275 125.189 56.7227C125.389 56.9955 125.573 57.2788 125.743 57.5714C125.919 57.8262 126.074 58.0957 126.204 58.3771L126.573 59.1397C126.671 59.3918 126.745 59.6317 126.825 59.8592C126.97 60.2584 127.077 60.6702 127.145 61.0893C127.176 61.2676 127.219 61.4337 127.237 61.5813C127.256 61.7289 127.237 61.8703 127.237 61.9995C127.262 62.5222 127.268 62.7744 127.268 62.7744Z" fill="#DECEB1"/>
<path d="M104.045 10.1108L103.43 9.71108L103.085 9.48351C102.95 9.40971 102.796 9.34206 102.636 9.26211C102.264 9.06578 101.875 8.90318 101.474 8.77625C101.246 8.7086 101.007 8.61634 100.754 8.54869L99.9241 8.37649C99.6244 8.31194 99.32 8.27081 99.0139 8.25349C98.6879 8.25349 98.3558 8.17353 98.0053 8.18584C96.3976 8.16292 94.7936 8.34689 93.2328 8.7332C89.6841 9.53887 85.5697 11.347 81.1416 13.9916C76.1557 17.0461 71.4563 20.5455 67.1008 24.4468C61.7994 29.151 56.8362 34.223 52.2483 39.6254C46.953 45.8055 42.1028 52.3534 37.7339 59.2197C35.4338 62.8483 33.2259 66.6552 31.1717 70.659C29.0577 74.7298 27.2088 78.9329 25.6366 83.2421C23.9683 87.69 22.8589 92.3278 22.334 97.0492C22.0775 99.4584 22.1853 101.892 22.6538 104.269C22.9105 105.457 23.3241 106.605 23.8838 107.683C24.4597 108.768 25.258 109.719 26.2266 110.475C27.1952 111.231 28.3124 111.773 29.505 112.068C30.6887 112.351 31.9051 112.473 33.1213 112.431C35.5407 112.296 37.9256 111.795 40.194 110.942C44.6408 109.265 48.8583 107.033 52.7464 104.3C56.534 101.708 60.1478 98.8712 63.5645 95.8069C66.9225 92.8241 70.0652 89.7305 73.0111 86.5817C78.5752 80.6368 83.713 74.307 88.3865 67.6392C92.479 61.8491 96.1557 55.7759 99.3891 49.4656C102.086 44.2753 104.307 38.8512 106.025 33.26C107.483 28.3398 108.208 23.881 108.098 20.2463C108.085 18.6378 107.863 17.0377 107.44 15.4861C107.352 15.161 107.247 14.8408 107.126 14.5266C107.032 14.233 106.914 13.9471 106.775 13.6718L106.406 12.9153C106.277 12.6877 106.13 12.4786 106.007 12.3003C105.785 11.9423 105.53 11.6066 105.244 11.2978C105.127 11.1564 105.023 11.0272 104.918 10.9165C104.813 10.8058 104.703 10.7258 104.617 10.6397L104.069 10.1354C104.069 10.1354 104.266 10.2953 104.635 10.6213L104.943 10.8919C105.053 10.9965 105.158 11.1318 105.281 11.2671C105.567 11.5772 105.824 11.9127 106.05 12.2695C106.179 12.4725 106.326 12.6816 106.462 12.8845C106.597 13.0875 106.708 13.3766 106.843 13.6472C106.984 13.9226 107.103 14.2084 107.2 14.502C107.298 14.8095 107.446 15.117 107.526 15.4615C107.955 17.019 108.184 18.6247 108.208 20.2401C108.338 23.8933 107.624 28.346 106.179 33.303C104.474 38.911 102.261 44.3518 99.5674 49.5578C96.3356 55.888 92.6566 61.9797 88.5587 67.7868C83.8893 74.4712 78.7513 80.8156 73.1833 86.7723C70.2374 89.9089 67.0947 93.0086 63.7244 95.9975C60.3018 99.072 56.6819 101.919 52.8879 104.522C48.9757 107.263 44.7361 109.505 40.2678 111.195C37.9778 112.045 35.5728 112.547 33.1336 112.683C31.8927 112.725 30.6517 112.601 29.4435 112.314C28.2301 111.981 27.0879 111.428 26.0733 110.684C25.0993 109.889 24.2818 108.919 23.6624 107.824C23.0811 106.723 22.6508 105.548 22.3832 104.331C21.907 101.926 21.7971 99.4626 22.0572 97.0246C22.5787 92.2834 23.6923 87.6263 25.3722 83.1622C26.9395 78.8411 28.7886 74.6274 30.9073 70.5482C32.9676 66.5384 35.2124 62.7191 37.4941 59.0905C41.8801 52.2236 46.7468 45.6758 52.0576 39.4962C56.663 34.0899 61.6426 29.0138 66.9594 24.3054C71.3325 20.4015 76.0505 16.9021 81.0555 13.8501C85.5021 11.2117 89.6349 9.40972 93.202 8.6225C94.7739 8.24132 96.3882 8.06357 98.0053 8.09359C98.3428 8.1009 98.6795 8.1276 99.0139 8.17354C99.3245 8.19027 99.6331 8.23347 99.9364 8.30269L100.761 8.48105C101.019 8.55485 101.259 8.64095 101.486 8.7209C101.89 8.84624 102.279 9.01319 102.649 9.21906C102.809 9.29902 102.962 9.36666 103.098 9.44662L103.436 9.68032C103.842 9.97553 104.045 10.1108 104.045 10.1108Z" fill="#DECEB1"/>
<path d="M132.643 15.8551C132.643 16.3222 132.505 16.7788 132.245 17.1671C131.986 17.5555 131.617 17.8582 131.185 18.0369C130.754 18.2157 130.279 18.2625 129.821 18.1713C129.363 18.0802 128.942 17.8553 128.612 17.525C128.281 17.1947 128.056 16.7739 127.965 16.3158C127.874 15.8577 127.921 15.3828 128.1 14.9513C128.278 14.5198 128.581 14.1509 128.97 13.8914C129.358 13.6319 129.814 13.4934 130.282 13.4934C130.592 13.4934 130.899 13.5545 131.185 13.6732C131.472 13.7919 131.732 13.9658 131.952 14.1851C132.171 14.4044 132.345 14.6648 132.463 14.9513C132.582 15.2378 132.643 15.5449 132.643 15.8551Z" fill="#DECEB1"/>
<path d="M129.119 34.8036C129.119 34.9253 129.083 35.0442 129.016 35.1453C128.948 35.2464 128.852 35.3253 128.74 35.3718C128.627 35.4184 128.503 35.4305 128.384 35.4068C128.265 35.3831 128.155 35.3245 128.069 35.2385C127.983 35.1525 127.925 35.0429 127.901 34.9236C127.877 34.8043 127.889 34.6806 127.936 34.5683C127.983 34.4559 128.061 34.3598 128.162 34.2922C128.264 34.2247 128.383 34.1886 128.504 34.1886C128.667 34.1886 128.824 34.2534 128.939 34.3687C129.054 34.4841 129.119 34.6405 129.119 34.8036Z" fill="#DECEB1"/>
<circle cx="95.5" cy="84.5" r="11" fill="white" stroke="#C8AE7D"/>
<path d="M95.1661 87.056V86.592C95.1661 86.048 95.2674 85.5413 95.4701 85.072C95.6834 84.592 96.0567 84.0533 96.5901 83.456C97.0061 82.9973 97.2994 82.5973 97.4701 82.256C97.6407 81.904 97.7261 81.5467 97.7261 81.184C97.7261 80.7253 97.5607 80.368 97.2301 80.112C96.8994 79.8453 96.4407 79.712 95.8541 79.712C95.4381 79.712 95.0381 79.7707 94.6541 79.888C94.2701 79.9947 93.9021 80.144 93.5501 80.336V79.136C93.9021 78.9547 94.2861 78.816 94.7021 78.72C95.1287 78.624 95.5554 78.576 95.9821 78.576C96.5901 78.576 97.1234 78.6773 97.5821 78.88C98.0407 79.072 98.3981 79.3547 98.6541 79.728C98.9207 80.0907 99.0541 80.5387 99.0541 81.072C99.0541 81.4133 99.0007 81.744 98.8941 82.064C98.7874 82.3733 98.6221 82.688 98.3981 83.008C98.1741 83.3173 97.8861 83.6587 97.5341 84.032C97.0114 84.5653 96.6434 85.0347 96.4301 85.44C96.2167 85.8347 96.0887 86.24 96.0461 86.656L95.9981 87.056H95.1661ZM94.7501 90V88.368H96.3981V90H94.7501Z" fill="black"/>
</svg>
