<svg width="45" height="45" viewBox="0 0 45 45" fill="none" xmlns="http://www.w3.org/2000/svg">
<g clip-path="url(#clip0_2188_2636)">
<path d="M20.625 22.5C23.2138 22.5 25.3125 20.4013 25.3125 17.8125C25.3125 15.2237 23.2138 13.125 20.625 13.125C18.0362 13.125 15.9375 15.2237 15.9375 17.8125C15.9375 20.4013 18.0362 22.5 20.625 22.5Z" fill="black" stroke="black" stroke-linecap="round" stroke-linejoin="round"/>
<path d="M16.875 26.25H24.375C25.3696 26.25 26.3234 26.6451 27.0267 27.3484C27.7299 28.0516 28.125 29.0054 28.125 30V31.875H13.125V30C13.125 29.0054 13.5201 28.0516 14.2233 27.3484C14.9266 26.6451 15.8804 26.25 16.875 26.25Z" fill="black" stroke="black" stroke-linecap="round" stroke-linejoin="round"/>
<path d="M29.2314 19.8562L34.5189 25.1437" stroke="black" stroke-linecap="round" stroke-linejoin="round"/>
<path d="M34.5189 19.8562L29.2314 25.1437" stroke="black" stroke-linecap="round" stroke-linejoin="round"/>
</g>
<defs>
<clipPath id="clip0_2188_2636">
<rect width="45" height="45" fill="white"/>
</clipPath>
</defs>
</svg>
