<svg width="21" height="16" viewBox="0 0 21 16" fill="none" xmlns="http://www.w3.org/2000/svg">
<path d="M20.0205 12.5714C20.0205 14.465 18.0998 16 15.7304 16C13.361 16 11.4403 14.465 11.4403 12.5714C11.4403 12.4291 11.4716 12.2937 11.4928 12.1561L7.26164 10.4654C6.48879 11.0607 5.44755 11.4286 4.29011 11.4286C1.92072 11.4286 0 9.89357 0 8C0 6.10643 1.92072 4.57143 4.29011 4.57143C5.44576 4.57143 6.49013 4.94071 7.26191 5.53464L11.493 3.84393C11.4716 3.70714 11.4403 3.53929 11.4403 3.42857C11.4403 1.535 13.361 0 15.7304 0C18.0998 0 20.0205 1.535 20.0205 3.42857C20.0205 5.32214 18.0998 6.85714 15.7304 6.85714C14.5748 6.85714 13.5304 6.48786 12.7586 5.89393L8.52749 7.58464C8.54894 7.72143 8.58022 7.85714 8.58022 8C8.58022 8.14286 8.54894 8.27857 8.52659 8.41429L12.7577 10.105C13.5317 9.51071 14.573 9.14286 15.7304 9.14286C18.0989 9.14286 20.0205 10.6464 20.0205 12.5714Z" fill="black"/>
</svg>
