<svg width="29" height="29" viewBox="0 0 29 29" fill="none" xmlns="http://www.w3.org/2000/svg">
<path fill-rule="evenodd" clip-rule="evenodd" d="M14.5 9.06348C10.4953 9.06348 7.25 12.3088 7.25 16.3135C7.25 20.3173 10.4953 23.5635 14.5 23.5635C18.5038 23.5635 21.75 20.3173 21.75 16.3135C21.75 12.3097 18.5038 9.06348 14.5 9.06348ZM18.628 19.8524C16.6741 22.1325 13.2421 22.3962 10.962 20.4414C8.68097 18.4876 8.41816 15.0547 10.3729 12.7755C12.3259 10.4944 15.7588 10.2316 18.0389 12.1864C20.3181 14.1394 20.5818 17.5732 18.628 19.8524Z" fill="#333333"/>
<path fill-rule="evenodd" clip-rule="evenodd" d="M14.5 12.6885C12.4981 12.6885 10.8759 14.3116 10.875 16.3126V16.3144C10.875 16.5636 11.078 16.7675 11.3281 16.7675C11.5782 16.7675 11.7812 16.5636 11.7812 16.3144V16.3126C11.7822 14.8118 12.9983 13.5947 14.5 13.5947C14.7501 13.5947 14.9531 13.3917 14.9531 13.1416C14.9531 12.8915 14.7501 12.6885 14.5 12.6885Z" fill="#333333"/>
<path fill-rule="evenodd" clip-rule="evenodd" d="M26.7271 8.19431L22.7994 7.53909L21.5552 4.42703C21.1392 3.38938 20.1478 2.71875 19.0312 2.71875H9.96875C8.85225 2.71875 7.86081 3.38938 7.44394 4.42794L6.20056 7.53909L2.27378 8.19431C0.956094 8.41272 0 9.54009 0 10.875V24.4688C0 25.9677 1.21981 27.1875 2.71875 27.1875H26.2812C27.7802 27.1875 29 25.9677 29 24.4688V10.875C29 9.54009 28.0439 8.41272 26.7271 8.19431ZM27.1875 24.4688C27.1875 24.9699 26.7824 25.375 26.2812 25.375H2.71875C2.21759 25.375 1.8125 24.9699 1.8125 24.4688V10.875C1.8125 10.4318 2.13331 10.0539 2.57012 9.98144L7.50375 9.15947L9.12684 5.10128C9.2655 4.75781 9.59809 4.53125 9.96875 4.53125H19.0312C19.401 4.53125 19.7336 4.75691 19.8722 5.10128L21.4953 9.15947L26.4299 9.98144C26.8667 10.0539 27.1875 10.4318 27.1875 10.875V24.4688Z" fill="#333333"/>
</svg>
