<svg width="26" height="20" viewBox="0 0 26 20" fill="none" xmlns="http://www.w3.org/2000/svg">
<g clip-path="url(#clip0_1778_3147)">
<path d="M24.5602 5.7325V5.73169C23.3788 4.78837 21.3184 4.78752 20.137 5.7325L18.1777 7.29834V5C18.1777 4.81083 18.0974 4.62748 17.9493 4.47917L13.7784 0.3125C13.5803 0.11499 13.281 0 12.964 0H1.49391C0.918315 0 0.451172 0.373332 0.451172 0.833333V19.1667C0.451172 19.6267 0.918315 20 1.49391 20H17.1349C17.7105 20 18.1777 19.6267 18.1777 19.1667V14.3683L24.5602 9.26831C25.1504 8.79582 25.4768 8.16748 25.4768 7.49996C25.4768 6.83252 25.1515 6.20418 24.5602 5.7325ZM7.75032 16.6667H4.62211C4.04652 16.6667 3.57938 16.2933 3.57938 15.8333C3.57938 15.3733 4.04652 15 4.62211 15H7.75032C8.32591 15 8.79305 15.3733 8.79305 15.8333C8.79305 16.2933 8.32591 16.6667 7.75032 16.6667ZM7.75032 13.3333H4.62211C4.04652 13.3333 3.57938 12.96 3.57938 12.5C3.57938 12.04 4.04652 11.6667 4.62211 11.6667H7.75032C8.32591 11.6667 8.79305 12.04 8.79305 12.5C8.79305 12.96 8.32591 13.3333 7.75032 13.3333ZM7.75032 10H4.62211C4.04652 10 3.57938 9.62667 3.57938 9.16667C3.57938 8.70666 4.04652 8.33333 4.62211 8.33333H7.75032C8.32591 8.33333 8.79305 8.70666 8.79305 9.16667C8.79305 9.62667 8.32591 10 7.75032 10ZM11.9213 10.8333C11.646 10.8333 11.3801 10.7458 11.1841 10.5892L10.1413 9.75582C9.7336 9.42997 9.7336 8.90332 10.1413 8.57747C10.5491 8.25163 11.208 8.25163 11.6158 8.57747L11.7597 8.69165L13.1392 7.03748C13.4583 6.65499 14.1058 6.54997 14.5855 6.80664C15.0641 7.06165 15.1934 7.57914 14.8743 7.96248L12.7888 10.4625C12.6157 10.67 12.3342 10.805 12.0245 10.8291C11.989 10.8325 11.9557 10.8333 11.9213 10.8333ZM23.0858 8.08915L16.3977 13.4342L13.7544 15.5467L12.0746 15.7109L12.28 14.3684L21.6115 6.91089C22.0046 6.59591 22.6928 6.59591 23.0859 6.91089C23.283 7.0684 23.3914 7.27755 23.3914 7.50004C23.3913 7.72249 23.2829 7.93168 23.0858 8.08915Z" fill="black"/>
</g>
<defs>
<clipPath id="clip0_1778_3147">
<rect width="25.0256" height="20" fill="white" transform="translate(0.451172)"/>
</clipPath>
</defs>
</svg>
