<svg width="81" height="81" viewBox="0 0 81 81" fill="none" xmlns="http://www.w3.org/2000/svg">
<path d="M67.3457 69.3733H67.8997L69.105 67.6917V66.582C69.105 66.582 69.9604 66.5302 69.8599 67.9752C69.7595 69.4203 69.868 69.0525 69.868 69.0525C69.868 69.0525 71.6824 69.0525 71.8331 69.2145C71.9433 69.3279 71.9951 71.131 72.0113 72.1078C72.0232 72.3438 71.9559 72.5769 71.8199 72.7701C71.684 72.9632 71.4873 73.1054 71.2612 73.1738C71.1979 73.1911 71.1325 73.1998 71.0668 73.1997C70.6132 73.1997 68.3015 72.832 68.3015 72.832H67.3457V69.3733Z" fill="#E0E0E0"/>
<path d="M65.7637 69.0703L66.1039 72.8514H67.0516V69.1465L65.7637 69.0703Z" fill="#E0E0E0"/>
<path d="M39.0752 12.5129L41.4566 15.9149C41.5177 15.9998 41.5984 16.0686 41.6919 16.1155C41.7854 16.1624 41.8888 16.186 41.9934 16.1843C42.098 16.1825 42.2006 16.1555 42.2925 16.1055C42.3843 16.0554 42.4627 15.9839 42.5209 15.897L44.8262 12.3557L39.0752 12.5129Z" fill="#E0E0E0"/>
<path d="M45.1151 6.81213H38.4294C37.3951 6.81213 36.5566 7.65058 36.5566 8.68485V12.5259C36.5566 13.5601 37.3951 14.3986 38.4294 14.3986H45.1151C46.1494 14.3986 46.9878 13.5601 46.9878 12.5259V8.68485C46.9878 7.65058 46.1494 6.81213 45.1151 6.81213Z" fill="#E0E0E0"/>
<path d="M43.8156 9.9079C43.4802 9.29716 42.9262 9.20158 42.5536 9.3409C42.2908 9.45578 42.074 9.65541 41.938 9.9079C41.8019 9.65541 41.5852 9.45578 41.3224 9.3409C40.9498 9.20158 40.3957 9.29716 40.062 9.9079C39.3654 11.178 41.938 12.8433 41.938 12.8433C41.938 12.8433 44.5122 11.178 43.8156 9.9079Z" fill="white"/>
<path d="M12.9271 65.5955H18.4205C19.007 65.5955 19.5695 65.8284 19.9842 66.2431C20.3989 66.6578 20.6318 67.2203 20.6318 67.8068V70.5964C20.6318 71.1829 20.3989 71.7453 19.9842 72.16C19.5695 72.5747 19.007 72.8077 18.4205 72.8077H16.9852L15.9743 74.2527C15.9171 74.3347 15.8406 74.4014 15.7516 74.4469C15.6626 74.4924 15.5638 74.5154 15.4638 74.5138C15.3638 74.5122 15.2658 74.4861 15.1782 74.4377C15.0907 74.3894 15.0164 74.3203 14.9618 74.2365L14.032 72.8077H12.9271C12.3406 72.8077 11.7782 72.5747 11.3635 72.16C10.9488 71.7453 10.7158 71.1829 10.7158 70.5964V67.8068C10.7158 67.2203 10.9488 66.6578 11.3635 66.2431C11.7782 65.8284 12.3406 65.5955 12.9271 65.5955Z" fill="#E0E0E0"/>
<path d="M15.4787 67.8116V70.6564L13.4424 69.234L15.4787 67.8116Z" fill="white"/>
<path d="M18.2037 70.8799C18.2037 70.8799 18.0693 68.8598 16.4525 68.829H15.4189V69.6973L16.4379 69.7119C16.4379 69.7119 17.4958 69.6876 18.2037 70.8799Z" fill="white"/>
<path d="M16.2394 35.8125C16.4248 35.0299 15.9407 34.2451 15.158 34.0596C14.3754 33.8742 13.5906 34.3583 13.4051 35.141C13.2197 35.9236 13.7038 36.7084 14.4865 36.8939C15.2691 37.0793 16.054 36.5952 16.2394 35.8125Z" fill="#E0E0E0"/>
<path d="M14.8229 36.7611C14.1626 36.7611 13.5292 37.0234 13.0623 37.4904C12.5953 37.9573 12.333 38.5907 12.333 39.251H17.3129C17.3129 38.5907 17.0506 37.9573 16.5836 37.4904C16.1166 37.0234 15.4833 36.7611 14.8229 36.7611Z" fill="#E0E0E0"/>
<path d="M55.6061 8.11943C55.6061 8.31969 55.5467 8.51545 55.4354 8.68195C55.3242 8.84845 55.166 8.97823 54.981 9.05486C54.796 9.1315 54.5924 9.15155 54.396 9.11248C54.1996 9.07341 54.0192 8.97698 53.8776 8.83538C53.736 8.69378 53.6396 8.51337 53.6005 8.31696C53.5614 8.12056 53.5815 7.91698 53.6581 7.73197C53.7348 7.54696 53.8645 7.38883 54.031 7.27757C54.1975 7.16632 54.3933 7.10693 54.5936 7.10693C54.7266 7.10672 54.8583 7.13277 54.9813 7.18357C55.1042 7.23438 55.2159 7.30895 55.31 7.40301C55.404 7.49708 55.4786 7.60878 55.5294 7.73172C55.5802 7.85465 55.6063 7.98641 55.6061 8.11943Z" fill="#E0E0E0"/>
<path d="M58.4146 10.4896C58.4146 10.6898 58.3553 10.8856 58.244 11.0521C58.1328 11.2186 57.9746 11.3483 57.7896 11.425C57.6046 11.5016 57.401 11.5217 57.2046 11.4826C57.0082 11.4435 56.8278 11.3471 56.6862 11.2055C56.5446 11.0639 56.4482 10.8835 56.4091 10.6871C56.37 10.4907 56.3901 10.2871 56.4667 10.1021C56.5434 9.91707 56.6731 9.75894 56.8396 9.64769C57.0061 9.53643 57.2019 9.47705 57.4021 9.47705C57.6707 9.47705 57.9282 9.58372 58.1181 9.77361C58.308 9.96349 58.4146 10.221 58.4146 10.4896Z" fill="#E0E0E0"/>
<path d="M55.6227 12.9065C55.6227 13.1068 55.5633 13.3026 55.452 13.4691C55.3408 13.6356 55.1826 13.7653 54.9976 13.842C54.8126 13.9186 54.609 13.9387 54.4126 13.8996C54.2162 13.8605 54.0358 13.7641 53.8942 13.6225C53.7526 13.4809 53.6562 13.3005 53.6171 13.1041C53.578 12.9077 53.5981 12.7041 53.6747 12.5191C53.7514 12.3341 53.8811 12.1759 54.0476 12.0647C54.2141 11.9534 54.4099 11.894 54.6102 11.894C54.8787 11.894 55.1362 12.0007 55.3261 12.1906C55.516 12.3805 55.6227 12.638 55.6227 12.9065Z" fill="#E0E0E0"/>
<path d="M54.6635 12.9681L54.5566 12.845L57.2782 10.4911L54.542 8.1826L54.6457 8.05786L57.5277 10.4895L54.6635 12.9681Z" fill="#E0E0E0"/>
<path d="M73.078 31.8735C72.6406 31.0732 71.9148 30.9501 71.4288 31.1316C71.0834 31.2812 70.7981 31.5425 70.6188 31.8735C70.4395 31.5425 70.1543 31.2812 69.8088 31.1316C69.3228 30.9501 68.5971 31.0732 68.1597 31.8735C67.2557 33.534 70.6318 35.7129 70.6318 35.7129C70.6318 35.7129 73.99 33.534 73.078 31.8735Z" fill="#E0E0E0"/>
<path d="M69.0961 39.6495C68.7834 39.0792 68.2683 38.9918 67.92 39.1214C67.6752 39.2285 67.4734 39.4144 67.3465 39.6495C67.2196 39.4144 67.0177 39.2285 66.773 39.1214C66.4263 38.9918 65.9095 39.0792 65.5985 39.6495C64.9505 40.8369 67.3465 42.384 67.3465 42.384C67.3465 42.384 69.7457 40.8369 69.0961 39.6495Z" fill="#E0E0E0"/>
<path d="M71.7258 12.0447H60.9236C60.2876 12.0447 59.6776 12.2972 59.2277 12.7468C58.7778 13.1964 58.5248 13.8062 58.5244 14.4423V20.9903C58.5244 21.3053 58.5865 21.6172 58.7071 21.9082C58.8277 22.1992 59.0044 22.4636 59.2272 22.6862C59.45 22.9089 59.7145 23.0855 60.0056 23.2059C60.2967 23.3263 60.6086 23.3881 60.9236 23.3879H64.2625L66.1336 26.0658C66.1929 26.15 66.272 26.2184 66.3639 26.2651C66.4558 26.3118 66.5577 26.3352 66.6607 26.3335C66.7638 26.3317 66.8648 26.3048 66.955 26.255C67.0453 26.2052 67.122 26.1342 67.1785 26.048L68.9086 23.3879H71.7258C72.0407 23.3881 72.3526 23.3263 72.6436 23.2058C72.9346 23.0854 73.1989 22.9088 73.4216 22.6862C73.6443 22.4635 73.8209 22.1991 73.9413 21.9081C74.0617 21.6171 74.1236 21.3052 74.1234 20.9903V14.4423C74.1234 14.1274 74.0614 13.8156 73.9409 13.5248C73.8204 13.2339 73.6438 12.9696 73.4212 12.7469C73.1985 12.5243 72.9342 12.3477 72.6433 12.2272C72.3524 12.1067 72.0406 12.0447 71.7258 12.0447Z" fill="white"/>
<path d="M71.7258 12.0447H71.8068C71.8865 12.0452 71.966 12.0506 72.045 12.0609C72.3539 12.0964 72.6522 12.1951 72.9214 12.3509C73.2772 12.5525 73.5759 12.8413 73.7893 13.1902C74.0027 13.5391 74.1238 13.9365 74.1413 14.3451C74.151 14.6804 74.1413 15.0336 74.1413 15.4062C74.1413 16.8998 74.1413 18.7013 74.151 20.7522C74.1609 21.0145 74.1402 21.2771 74.0894 21.5346C74.03 21.8 73.9253 22.0532 73.78 22.2831C73.4768 22.7656 73.0152 23.1276 72.4743 23.3069C72.1949 23.3935 71.9033 23.4346 71.6108 23.4284H68.9087L68.9411 23.4106L67.9512 24.9334L67.4409 25.7191C67.3518 25.8519 67.2789 25.9832 67.1769 26.1176C67.0708 26.2535 66.9165 26.3434 66.746 26.3687C66.5746 26.392 66.4008 26.3491 66.26 26.2488C66.1908 26.1981 66.131 26.1356 66.0834 26.0642L65.9441 25.8633L65.3803 25.0533L64.2285 23.409L64.2641 23.4268H61.0743C60.8472 23.433 60.6201 23.414 60.3972 23.3701C60.1758 23.3193 59.9618 23.2404 59.7605 23.1352C59.368 22.9217 59.0412 22.605 58.8157 22.2192C58.5901 21.8335 58.4743 21.3934 58.4807 20.9466C58.4807 19.2278 58.4807 17.5705 58.4807 15.991C58.4807 15.5957 58.4807 15.2069 58.4807 14.8214C58.4807 14.6286 58.4807 14.4391 58.4904 14.2463C58.4984 14.1506 58.5114 14.0554 58.5293 13.9612C58.552 13.8672 58.5731 13.7749 58.6022 13.6841C58.7217 13.3285 58.9193 13.0041 59.1806 12.7348C59.4395 12.4725 59.7547 12.2725 60.1023 12.15C60.1853 12.119 60.2703 12.0936 60.3567 12.0739C60.4418 12.0519 60.5285 12.0362 60.6159 12.0269C60.7875 12.0081 60.9601 12.0005 61.1327 12.0042H63.9903L69.6474 12.0188H71.1848H71.5849H71.721C71.721 12.0188 71.6756 12.0188 71.5849 12.0188H71.1848H69.6474L63.9903 12.0739H62.116H61.1197C60.9504 12.0701 60.781 12.0776 60.6126 12.0965C60.5273 12.1058 60.4429 12.1215 60.3599 12.1435C60.2763 12.1629 60.194 12.1878 60.1137 12.218C59.7819 12.3385 59.4814 12.5316 59.234 12.7834C58.9805 13.0445 58.7894 13.3597 58.6751 13.7052C58.646 13.7927 58.6265 13.8834 58.6038 13.9741C58.5812 14.0648 58.5698 14.1572 58.5666 14.2495C58.5536 14.4358 58.5585 14.6286 58.5585 14.8198V15.9894C58.5585 17.5689 58.5585 19.2294 58.5585 20.945C58.5527 21.3767 58.6649 21.8018 58.883 22.1743C59.1011 22.5469 59.4169 22.8528 59.7962 23.0591C59.99 23.1613 60.1964 23.2375 60.4101 23.2859C60.6271 23.3296 60.8483 23.3481 61.0695 23.341H64.2755L64.2884 23.3588L65.4386 25.0031L66.0024 25.8131L66.1417 26.0123C66.1855 26.0757 66.2404 26.1305 66.3037 26.1743C66.4269 26.2646 66.5805 26.3033 66.7317 26.2821C66.883 26.261 67.0201 26.1816 67.1137 26.0609C67.2012 25.9378 67.287 25.7985 67.3729 25.6689C67.5468 25.4054 67.7174 25.1435 67.8848 24.8832L68.8779 23.3604L68.8892 23.3426H71.6189C71.9036 23.3507 72.1877 23.3118 72.4597 23.2276C72.9855 23.0556 73.4343 22.7048 73.7282 22.2361C73.8706 22.0137 73.9732 21.7681 74.0311 21.5104C74.0823 21.2578 74.1029 21 74.0927 20.7425C74.0927 18.6932 74.0927 16.8917 74.1024 15.3965C74.1024 15.0239 74.1024 14.6691 74.1024 14.337C74.0891 14.0286 74.0153 13.7259 73.8853 13.446C73.6805 12.9954 73.3409 12.6196 72.9133 12.3703C72.6475 12.2131 72.3527 12.1112 72.0466 12.0706C71.9682 12.0589 71.8893 12.0514 71.8101 12.0479L71.7258 12.0447Z" fill="#263238"/>
<path d="M66.6328 15.5293V20.0037L69.8356 17.7665L66.6328 15.5293Z" fill="#C8AE7D"/>
<path d="M62.3457 20.3569C62.3457 20.3569 62.5579 17.1785 65.0997 17.1299H66.7197V18.4972L65.1175 18.5198C65.1175 18.5198 63.4473 18.481 62.3457 20.3569Z" fill="#C8AE7D"/>
<path d="M57.1228 62.9921H75.5243C76.5497 62.9921 77.3809 62.1609 77.3809 61.1355V46.8925C77.3809 45.8672 76.5497 45.036 75.5243 45.036H57.1228C56.0974 45.036 55.2662 45.8672 55.2662 46.8925V61.1355C55.2662 62.1609 56.0974 62.9921 57.1228 62.9921Z" fill="white"/>
<path d="M65.4354 62.4429C65.2086 62.9921 60.8232 67.115 60.8232 67.115V62.4429H65.4354Z" fill="#455A64"/>
<path d="M63.7374 58.6828C63.7374 58.1158 63.7374 57.6428 63.7374 57.5845C63.7374 57.5845 61.821 57.403 61.6833 55.506C61.6168 54.5891 61.633 52.6872 61.6687 50.97C61.6871 50.0795 62.0402 49.2286 62.6577 48.5868C63.2753 47.9449 64.1119 47.5592 65.001 47.5065L65.1841 47.4951C67.1686 47.4951 68.2783 49.1751 68.2264 51.1579L68.1568 58.5986L64.9492 61.176L64.7159 61.155L63.7374 58.6828Z" fill="#FFBF9D"/>
<path d="M63.7344 57.5845C64.6118 57.5295 65.4551 57.2243 66.1644 56.7048C66.1644 56.7048 65.6444 58.1288 63.7344 58.0721V57.5845Z" fill="#FF9A6C"/>
<path d="M64.8974 51.7882C64.9346 51.827 65.155 51.6537 65.4725 51.6489C65.79 51.644 66.0265 51.8027 66.0605 51.7622C66.0946 51.7217 66.0379 51.6748 65.9358 51.6002C65.798 51.5049 65.6335 51.4555 65.466 51.4593C65.2997 51.4623 65.1388 51.5192 65.0075 51.6213C64.9103 51.6991 64.8796 51.7703 64.8974 51.7882Z" fill="#263238"/>
<path d="M65.1328 52.65C65.1358 52.7169 65.165 52.7799 65.2141 52.8254C65.2632 52.8709 65.3283 52.8952 65.3953 52.893C65.4281 52.8939 65.4607 52.8881 65.4912 52.8761C65.5218 52.8641 65.5496 52.8461 65.573 52.8231C65.5964 52.8002 65.615 52.7727 65.6276 52.7424C65.6402 52.7121 65.6466 52.6796 65.6464 52.6468C65.643 52.5799 65.6137 52.5169 65.5647 52.4713C65.5157 52.4256 65.4509 52.4008 65.3839 52.4022C65.351 52.4015 65.3184 52.4074 65.2878 52.4196C65.2573 52.4318 65.2295 52.45 65.2061 52.4731C65.1827 52.4962 65.1641 52.5238 65.1515 52.5541C65.139 52.5845 65.1326 52.6171 65.1328 52.65Z" fill="#263238"/>
<path d="M64.0727 53.9865C63.9137 53.9473 63.7505 53.9282 63.5867 53.9298C63.5122 53.9298 63.4409 53.9168 63.4247 53.8666C63.414 53.7895 63.427 53.7109 63.462 53.6414C63.5203 53.4583 63.5819 53.2639 63.6483 53.0614C63.9059 52.2352 64.0873 51.5565 64.0533 51.5467C64.0193 51.537 63.7844 52.1947 63.5268 53.0258C63.4652 53.2283 63.4053 53.4227 63.3502 53.609C63.3086 53.7017 63.3012 53.8061 63.3291 53.9038C63.3413 53.9295 63.3591 53.952 63.3813 53.9697C63.4035 53.9874 63.4294 53.9998 63.4571 54.0059C63.4992 54.0143 63.5422 54.0176 63.5851 54.0156C63.7482 54.0282 63.9123 54.0184 64.0727 53.9865Z" fill="#263238"/>
<path d="M65.0546 50.7675C65.0854 50.8388 65.3398 50.7886 65.6443 50.8097C65.9489 50.8307 66.1984 50.8988 66.234 50.8307C66.2502 50.7999 66.2032 50.7335 66.1012 50.6687C65.9658 50.5909 65.8141 50.5459 65.6582 50.5375C65.5023 50.529 65.3466 50.5573 65.2037 50.6201C65.0951 50.6736 65.0417 50.7351 65.0546 50.7675Z" fill="#263238"/>
<path d="M62.0758 50.949C62.1082 51.0073 62.3577 50.949 62.6574 50.9409C62.9571 50.9328 63.2065 50.9766 63.2389 50.9166C63.2535 50.8891 63.2049 50.8372 63.1012 50.7903C62.9608 50.732 62.8093 50.7049 62.6574 50.7109C62.5037 50.7132 62.3523 50.7486 62.2135 50.8146C62.1098 50.868 62.0612 50.9215 62.0758 50.949Z" fill="#263238"/>
<path d="M68.1533 52.5722C68.1841 52.556 69.4347 52.1072 69.472 53.4081C69.5093 54.709 68.1938 54.4773 68.1906 54.44C68.1873 54.4028 68.1533 52.5722 68.1533 52.5722Z" fill="#FFBF9D"/>
<path d="M68.5745 53.9363C68.5745 53.9363 68.5972 53.9525 68.6361 53.9687C68.6906 53.9908 68.7516 53.9908 68.8062 53.9687C68.9422 53.9136 69.0508 53.6933 69.0508 53.4584C69.0513 53.3464 69.027 53.2358 68.9795 53.1344C68.9659 53.0939 68.9427 53.0574 68.912 53.0277C68.8813 52.9981 68.8439 52.9764 68.8029 52.9643C68.7767 52.958 68.7491 52.9612 68.7251 52.9733C68.701 52.9855 68.6821 53.0058 68.6717 53.0307C68.6555 53.068 68.6717 53.0923 68.6571 53.0955C68.6425 53.0987 68.628 53.0744 68.6377 53.021C68.6442 52.9883 68.6613 52.9588 68.6863 52.9367C68.7035 52.9225 68.7235 52.912 68.7449 52.9059C68.7664 52.8998 68.7889 52.8981 68.811 52.9011C68.8646 52.9105 68.9149 52.9332 68.9574 52.9672C68.9999 53.0012 69.0331 53.0453 69.054 53.0955C69.1116 53.2072 69.1416 53.3311 69.1415 53.4568C69.1415 53.7192 69.0135 53.9671 68.8272 54.027C68.7926 54.0384 68.7558 54.0418 68.7196 54.0371C68.6834 54.0323 68.6488 54.0194 68.6182 53.9995C68.5777 53.9671 68.5696 53.946 68.5745 53.9363Z" fill="#FF9A6C"/>
<path d="M64.4762 55.093C64.4616 55.0606 64.7176 54.9877 64.9006 54.7496C64.9769 54.6459 65.039 54.5326 65.0853 54.4126C65.1242 54.3186 65.1533 54.2603 65.1679 54.2652C65.1825 54.27 65.176 54.3332 65.155 54.4272C65.1253 54.5646 65.0661 54.6939 64.9816 54.8063C64.8945 54.9182 64.7786 55.0044 64.6463 55.0557C64.5458 55.1027 64.4762 55.1043 64.4762 55.093Z" fill="#263238"/>
<path d="M69.9096 50.4889C69.6439 50.0256 69.5856 49.478 69.4463 48.9645C69.307 48.4509 69.0267 47.9163 68.5277 47.7316H68.5164C68.0677 47.5437 67.512 47.534 67.1378 47.8434C67.0552 47.1662 66.4703 46.6219 65.8126 46.4405C65.1549 46.2591 64.0954 46.3498 63.4588 46.6025C62.9728 46.792 62.4868 47.1906 61.9068 47.7754C61.6611 48.0219 61.4357 48.2879 61.2329 48.5708L60.6367 50.3334L61.1227 51.2681C61.1519 51.3329 61.181 51.3961 61.2167 51.4593L61.6346 53.4227C61.6703 52.8897 61.6557 51.0316 61.6897 50.4986C62.0914 50.4916 62.4875 50.4037 62.8544 50.24C63.2213 50.0763 63.5514 49.8403 63.8249 49.546C64.1197 49.222 64.3546 48.8251 64.7467 48.6372C65.2537 48.3942 65.8499 48.5838 66.378 48.7733L66.3553 48.7539C66.6303 48.885 66.8774 49.0682 67.0827 49.2933C66.9498 50.3467 67.0454 51.4164 67.363 52.4296C67.4116 52.5819 67.5428 52.8962 67.687 52.9545C67.9786 53.0712 68.0612 52.7747 68.2378 52.6192C68.3945 52.5145 68.584 52.4707 68.7707 52.496C68.9229 52.0554 69.0479 51.6058 69.145 51.1498C69.321 51.207 69.508 51.222 69.6909 51.1936L69.5289 50.7902C69.5977 50.8421 69.6766 50.879 69.7606 50.8987C69.8027 50.9074 69.8465 50.9031 69.8862 50.8863C69.9258 50.8695 69.9594 50.8411 69.9825 50.8048C70.0311 50.7059 69.9647 50.5845 69.9096 50.4889Z" fill="#263238"/>
<path d="M66.5381 48.0573C66.6054 48.1109 66.6683 48.17 66.726 48.2338C66.8734 48.4171 66.9711 48.6352 67.0095 48.8673C67.0403 49.0274 67.0544 49.1902 67.0516 49.3533C67.0516 49.5282 67.0338 49.7145 67.0176 49.9122C66.9975 50.1189 66.99 50.3266 66.9949 50.5342C67.001 50.6429 67.014 50.7512 67.0338 50.8582C67.0486 50.9755 67.0932 51.0871 67.1634 51.1822C67.1962 51.2194 67.238 51.2476 67.2848 51.2641C67.3316 51.2805 67.3818 51.2847 67.4307 51.2762C67.524 51.2595 67.6093 51.2129 67.6737 51.1434C67.7787 51.0011 67.8436 50.8332 67.8616 50.6574H67.8227C67.8779 50.801 67.9538 50.9358 68.0479 51.0575C68.1387 51.1709 68.27 51.2447 68.414 51.2632C68.481 51.2713 68.5488 51.2606 68.6101 51.2325C68.6666 51.2034 68.7134 51.1583 68.7445 51.1029C68.7725 51.0535 68.787 50.9976 68.7866 50.9409C68.7857 50.8858 68.765 50.8329 68.7283 50.7918L68.7073 50.8096C68.8189 50.94 68.9562 51.0459 69.1106 51.1207C69.1517 51.14 69.1939 51.1568 69.237 51.1709C69.2514 51.1772 69.2667 51.181 69.2824 51.1822L69.2402 51.1644C69.2111 51.1514 69.1706 51.1353 69.1171 51.1077C68.9681 51.0289 68.836 50.9216 68.7283 50.7918L68.7089 50.8096C68.7392 50.85 68.7562 50.8988 68.7576 50.9493C68.7591 50.9998 68.7449 51.0494 68.717 51.0915C68.6892 51.1414 68.6468 51.1815 68.5955 51.2065C68.5397 51.2318 68.4779 51.2408 68.4173 51.2325C68.2838 51.2131 68.1627 51.1436 68.0787 51.038C67.9878 50.9183 67.9142 50.7863 67.86 50.646L67.8341 50.5845L67.8211 50.6493C67.8018 50.8155 67.7399 50.974 67.6413 51.1093C67.5837 51.1712 67.5075 51.2127 67.4242 51.2276C67.3828 51.2355 67.34 51.2323 67.3002 51.2184C67.2603 51.2044 67.2249 51.1802 67.1974 51.1482C67.1321 51.0605 67.0907 50.9571 67.0775 50.8485C67.0566 50.7416 67.0436 50.6333 67.0387 50.5245C67.0335 50.3186 67.04 50.1125 67.0581 49.9073C67.0727 49.7097 67.0889 49.5217 67.0889 49.3452C67.0892 49.1819 67.0729 49.0191 67.0403 48.8592C66.9988 48.6233 66.8947 48.4028 66.739 48.2209C66.6814 48.1557 66.6136 48.1004 66.5381 48.0573Z" fill="#455A64"/>
<path d="M60.6484 49.8279C60.6484 49.8279 60.6484 49.8279 60.663 49.8409L60.71 49.8765C60.7352 49.8956 60.7617 49.9129 60.7894 49.9283C60.8262 49.9516 60.8647 49.9721 60.9044 49.9899C61.1568 50.1103 61.4351 50.166 61.7144 50.1519C62.1292 50.1297 62.5286 49.9879 62.8646 49.7437C63.2698 49.4415 63.6094 49.0601 63.8625 48.6226C64.0035 48.3958 64.1185 48.1609 64.2448 47.9455C64.3614 47.7354 64.507 47.5429 64.6774 47.3736C64.8311 47.2213 65.0204 47.1099 65.2282 47.0496C65.3222 47.0249 65.4195 47.015 65.5165 47.0204C65.6061 47.0267 65.6944 47.0452 65.779 47.0755C65.9255 47.1275 66.0592 47.2104 66.171 47.3185C66.2565 47.3994 66.3277 47.4942 66.3816 47.5988C66.4232 47.6903 66.4553 47.7858 66.4772 47.8839C66.4776 47.8774 66.4776 47.8709 66.4772 47.8645C66.4772 47.8483 66.4772 47.8288 66.4772 47.8061C66.4615 47.7321 66.4382 47.6599 66.4075 47.5907C66.3545 47.4831 66.2838 47.3851 66.1986 47.3007C66.0205 47.1181 65.7822 47.0064 65.5279 46.9864C65.4271 46.9794 65.3258 46.9893 65.2282 47.0156C65.014 47.0741 64.8179 47.1855 64.6579 47.3396C64.4839 47.5101 64.3355 47.7049 64.2173 47.9179C64.0893 48.1366 63.9743 48.3699 63.8334 48.5951C63.5834 49.0277 63.249 49.4056 62.85 49.7064C62.519 49.9487 62.1254 50.0909 61.716 50.1163C61.4413 50.1339 61.1663 50.0856 60.9141 49.9753C60.7343 49.8959 60.6517 49.8214 60.6484 49.8279Z" fill="#455A64"/>
<path d="M61.9988 51.8692C62.0361 51.9081 62.258 51.7347 62.5755 51.7315C62.8931 51.7282 63.128 51.8854 63.162 51.8449C63.196 51.8044 63.1409 51.7558 63.0372 51.6829C62.8994 51.5875 62.735 51.5382 62.5674 51.542C62.4012 51.5456 62.2405 51.6023 62.109 51.704C62.0134 51.7801 61.981 51.853 61.9988 51.8692Z" fill="#263238"/>
<path d="M62.4854 52.6937C62.4887 52.7606 62.518 52.8236 62.567 52.8692C62.616 52.9149 62.6808 52.9397 62.7478 52.9383C62.7807 52.939 62.8134 52.933 62.8439 52.9209C62.8744 52.9087 62.9022 52.8905 62.9256 52.8674C62.9491 52.8443 62.9676 52.8167 62.9802 52.7863C62.9928 52.756 62.9991 52.7234 62.9989 52.6905C62.9955 52.6237 62.9662 52.5609 62.9172 52.5155C62.8681 52.4701 62.8033 52.4457 62.7365 52.4475C62.7037 52.4466 62.671 52.4523 62.6405 52.4644C62.6099 52.4764 62.5821 52.4944 62.5587 52.5174C62.5353 52.5403 62.5167 52.5678 62.5041 52.5981C62.4915 52.6284 62.4851 52.6609 62.4854 52.6937Z" fill="#263238"/>
<path d="M61.398 48.3522C61.236 48.566 60.9881 48.7604 60.7225 48.7313C60.626 48.7109 60.5312 48.6833 60.439 48.6486C60.3466 48.7053 60.3677 49.0229 60.439 49.1103C60.4992 49.1846 60.5659 49.2535 60.6382 49.3161C60.3256 49.4781 60.0421 49.4019 59.71 49.2804C59.7434 49.5644 59.8507 49.8345 60.0213 50.064C60.1919 50.2934 60.4197 50.474 60.682 50.5878C60.7622 50.6308 60.8514 50.6541 60.9424 50.6558C61.0334 50.6575 61.1235 50.6375 61.2052 50.5975C61.3307 50.4951 61.4134 50.3495 61.4369 50.1893C61.5856 49.6199 61.664 49.0345 61.6702 48.4461L61.398 48.3522Z" fill="#263238"/>
<path d="M59.3958 60.8246L59.4299 60.7808C60.9494 59.1722 63.7472 58.6343 63.7472 58.6343C63.7472 58.6343 63.9189 59.6874 65.487 59.8056C67.0552 59.9239 68.2022 58.3201 68.2022 58.3201L70.3082 58.6181C70.3082 58.6181 71.3612 58.7429 72.0156 59.1284C73.4931 59.9968 74.2836 62.9921 74.2836 62.9921L58.1484 63.0586L59.3958 60.8246Z" fill="#455A64"/>
<path d="M57.9201 45.036L57.8067 45.0441L57.6674 45.0538C57.6123 45.0538 57.5492 45.0716 57.4763 45.083C57.0493 45.1557 56.6473 45.3339 56.3066 45.6014C56.0583 45.7951 55.8465 46.0315 55.6813 46.2996C55.4821 46.6211 55.355 46.9821 55.3087 47.3575C55.2871 47.5684 55.2795 47.7806 55.286 47.9925C55.286 48.2112 55.286 48.4396 55.286 48.6729C55.286 49.1427 55.286 49.6449 55.286 50.1665C55.286 52.2725 55.286 54.8127 55.2941 57.7141C55.2941 58.4399 55.2941 59.1872 55.2941 59.9562C55.2941 60.1474 55.2941 60.3418 55.3055 60.5329C55.3199 60.7261 55.3546 60.9173 55.4091 61.1032C55.5262 61.4815 55.7279 61.8283 55.9988 62.1173C56.2727 62.4167 56.6143 62.6462 56.9951 62.7863L57.1393 62.8382L57.2883 62.8771C57.3886 62.902 57.4903 62.9204 57.5929 62.9321C57.8012 62.952 58.0106 62.9596 58.2198 62.9548H60.854V62.9921C60.854 64.2962 60.854 65.6878 60.854 67.115L60.7875 67.0858C61.4701 66.4378 62.1629 65.7736 62.866 65.0932C63.5658 64.4063 64.2819 63.7097 64.9639 62.9645L64.9769 62.9516H74.4263C74.5997 62.9516 74.7714 62.9516 74.9399 62.9419C75.4445 62.8993 75.9259 62.7107 76.3252 62.3992C76.7245 62.0876 77.0244 61.6666 77.1884 61.1874C77.2924 60.8742 77.3412 60.5453 77.3326 60.2154V59.211C77.3326 56.5623 77.3326 54.0059 77.3326 51.5711C77.3326 50.355 77.3326 49.167 77.3326 48.0071C77.344 47.7231 77.3266 47.4387 77.2808 47.1582C77.2227 46.886 77.1232 46.6243 76.9859 46.3822C76.8502 46.1437 76.6768 45.9287 76.4724 45.7456C76.274 45.5631 76.0476 45.4137 75.8017 45.3033C75.5605 45.1926 75.3037 45.1199 75.0403 45.0878C74.779 45.0657 74.5167 45.0581 74.2546 45.0652H72.7172H69.8271L61.1067 45.0522L58.735 45.0441H61.1067L69.8271 45.0311H72.7172H74.2546C74.5199 45.0243 74.7855 45.0318 75.05 45.0538C75.3201 45.0864 75.5835 45.1608 75.8309 45.2741C76.0838 45.3872 76.3169 45.5403 76.521 45.7277C76.7306 45.9141 76.9089 46.1328 77.0491 46.3757C77.1898 46.6246 77.292 46.8933 77.352 47.1728C77.4003 47.4579 77.4188 47.7473 77.4071 48.0362C77.4071 49.1897 77.4071 50.3777 77.4071 51.6002C77.4071 54.0302 77.4071 56.5915 77.4071 59.2402V60.2381C77.4163 60.5789 77.3665 60.9187 77.2597 61.2425C77.086 61.7279 76.7766 62.1533 76.3682 62.4681C75.9599 62.7828 75.4697 62.9737 74.9561 63.018C74.7795 63.031 74.6061 63.031 74.4344 63.0293H65.0044L65.0352 63.0164C64.3483 63.7632 63.6323 64.4598 62.9292 65.1467C62.2261 65.8336 61.5295 66.4961 60.8475 67.1393L60.7794 67.2025V67.1101C60.7794 65.6829 60.7794 64.2913 60.7794 62.9872L60.8183 63.0261H58.2263C58.0138 63.0323 57.8012 63.0247 57.5897 63.0034C57.4846 62.9921 57.3806 62.9726 57.2786 62.9451L57.1247 62.9062L56.9757 62.8528C56.5847 62.7076 56.2338 62.4716 55.9518 62.1643C55.6754 61.866 55.4695 61.5094 55.3492 61.121C55.2932 60.9304 55.2579 60.7343 55.2439 60.5362C55.2293 60.3385 55.2342 60.1457 55.2342 59.9546C55.2342 59.1856 55.2342 58.4383 55.2342 57.7125C55.2342 54.8111 55.2342 52.2677 55.2423 50.1649C55.2423 49.6384 55.2423 49.1411 55.2423 48.6713C55.2423 48.438 55.2423 48.2096 55.2423 47.9909C55.2363 47.7773 55.2445 47.5635 55.2666 47.351C55.3115 47.0033 55.4247 46.6679 55.5995 46.3641C55.7744 46.0602 56.0075 45.7939 56.2856 45.5803C56.6304 45.3128 57.0371 45.1368 57.4682 45.0684C57.5411 45.0587 57.6042 45.0457 57.6609 45.0425H57.8003L57.9201 45.036Z" fill="#263238"/>
<path d="M7.81513 27.817L30.1015 27.817C31.3549 27.817 32.3711 26.8009 32.3711 25.5474V8.30736C32.3711 7.05388 31.3549 6.03774 30.1015 6.03774L7.81513 6.03774C6.56166 6.03774 5.54551 7.05388 5.54551 8.30736L5.54551 25.5474C5.54551 26.8009 6.56166 27.817 7.81513 27.817Z" fill="white"/>
<path d="M17.8797 27.1511C17.6043 27.8169 12.2842 32.8211 12.2842 32.8211V27.1511H17.8797Z" fill="#455A64"/>
<path d="M24.3869 15.5958C24.3998 14.4618 24.5796 13.3278 24.5359 12.1938C24.4922 11.0598 24.1925 9.87556 23.4019 9.06232C22.6113 8.24908 21.2343 7.92832 20.3077 8.59414L20.1182 9.56614C20.4832 13.9477 20.8482 18.3287 21.2133 22.7092C21.2603 23.2843 21.3121 23.8772 21.5745 24.3908C21.837 24.9043 22.3619 25.3304 22.9386 25.2947C23.6919 25.2494 24.1876 24.4847 24.4209 23.7671C25.2714 21.154 24.3528 18.3352 24.3869 15.5958Z" fill="#263238"/>
<path d="M21.6547 9.70543C21.5033 9.41683 21.3088 9.15298 21.078 8.92297C20.961 8.80907 20.8198 8.72297 20.665 8.67109C20.5102 8.61921 20.3457 8.60286 20.1837 8.62327C20.1074 8.63274 20.0348 8.66151 19.9727 8.70686C19.9106 8.75222 19.8611 8.81266 19.8289 8.88247C19.7787 9.02827 19.8856 9.22105 20.0395 9.20647L20.0719 9.23401C20.4121 9.53533 20.7572 9.83017 21.1104 10.1169C21.1939 10.195 21.2918 10.2561 21.3987 10.2967C21.4536 10.3174 21.5132 10.322 21.5706 10.31C21.628 10.2979 21.6808 10.2697 21.7227 10.2287C21.8426 10.0894 21.7503 9.86905 21.6547 9.70543Z" fill="#C8AE7D"/>
<path d="M22.2955 10.8216C21.1615 9.43646 19.6435 8.64104 17.8551 8.61026C16.8474 8.59406 16.4295 8.80304 15.7037 8.99906C14.9754 9.17567 14.3325 9.60293 13.8877 10.206C13.3741 10.9366 12.9416 11.7547 12.8444 12.6441C12.7472 13.5334 12.6435 14.4682 12.7132 15.39C12.7828 16.3117 13.0372 17.227 13.5685 17.9706L15.8981 18.374C17.1844 18.4177 18.4901 18.4599 19.7407 18.1666C20.9914 17.8734 22.2129 17.1946 22.8835 16.1011C23.8134 14.5686 23.4279 12.205 22.2955 10.8216Z" fill="#263238"/>
<path d="M15.8887 22.5018C15.9049 21.6918 15.9325 20.6599 15.9325 20.6647C15.9325 20.6696 14.0338 20.4557 13.5025 18.0209C13.2416 16.8107 13.193 14.8052 13.206 13.1609C13.2173 11.6834 14.4761 9.66978 16.3018 9.6633L17.1118 9.56934L20.2157 10.8038C20.4322 10.815 20.6365 10.9069 20.7886 11.0613C20.9406 11.2157 21.0293 11.4215 21.0371 11.6381L21.1537 22.3414L19.1644 25.664L15.6004 22.91L15.8887 22.5018Z" fill="#B56760"/>
<path d="M17.1585 17.4522C17.1414 17.3258 17.0779 17.2103 16.9803 17.1282C16.8914 17.0515 16.7796 17.0064 16.6624 16.9999C16.5452 16.9935 16.4291 17.0261 16.3323 17.0925C16.2322 17.1695 16.1545 17.2718 16.1072 17.3888C16.0599 17.5059 16.0448 17.6335 16.0634 17.7584C16.117 17.8331 16.1859 17.8956 16.2655 17.9417C16.3451 17.9878 16.4336 18.0164 16.5251 18.0257H16.611C16.7568 18.0224 16.8961 17.9646 17.0014 17.8637C17.0564 17.811 17.099 17.7467 17.1261 17.6756C17.1533 17.6044 17.1644 17.5281 17.1585 17.4522Z" fill="#8A4A43"/>
<path d="M14.1924 15.066C14.1958 15.1487 14.2317 15.2266 14.2925 15.2828C14.3532 15.339 14.4337 15.3688 14.5164 15.3657C14.5562 15.3664 14.5958 15.3591 14.6328 15.3443C14.6698 15.3296 14.7035 15.3076 14.732 15.2798C14.7605 15.2519 14.7832 15.2186 14.7987 15.182C14.8142 15.1453 14.8224 15.1059 14.8226 15.066C14.8168 14.9841 14.7802 14.9074 14.72 14.8514C14.6599 14.7955 14.5807 14.7645 14.4986 14.7647C14.4586 14.764 14.4189 14.7714 14.3818 14.7862C14.3446 14.8011 14.3108 14.8232 14.2823 14.8512C14.2539 14.8792 14.2312 14.9127 14.2158 14.9496C14.2003 14.9864 14.1924 15.026 14.1924 15.066Z" fill="#263238"/>
<path d="M13.77 13.9838C13.8121 14.0227 14.0405 13.8332 14.3791 13.8218C14.7177 13.8105 14.9769 13.9595 15.0109 13.9174C15.0449 13.8753 14.9834 13.8251 14.8716 13.7554C14.7192 13.6615 14.5415 13.6173 14.3629 13.629C14.1854 13.6374 14.0151 13.7021 13.8769 13.8137C13.7797 13.8899 13.7489 13.966 13.77 13.9838Z" fill="#263238"/>
<path d="M15.9474 16.6422C15.7654 16.5952 15.5781 16.5718 15.3902 16.5725C15.3027 16.5725 15.2201 16.5547 15.2022 16.498C15.1893 16.4086 15.2046 16.3175 15.246 16.2372L15.4647 15.5649C15.7692 14.6075 15.9847 13.8218 15.9507 13.8104C15.9167 13.7991 15.6267 14.5637 15.3302 15.5228L15.118 16.1999C15.0691 16.3072 15.0599 16.4283 15.0921 16.5417C15.106 16.5717 15.1267 16.598 15.1526 16.6185C15.1785 16.639 15.2088 16.6533 15.2411 16.66C15.2895 16.6709 15.339 16.6753 15.3885 16.673C15.5754 16.6863 15.7632 16.676 15.9474 16.6422Z" fill="#263238"/>
<path d="M15.9329 20.6647C17.0898 20.618 18.2113 20.2519 19.1729 19.6068C19.1729 19.6068 18.3904 21.3564 15.9199 21.2625L15.9329 20.6647Z" fill="#8A4A43"/>
<path d="M16.9561 16.8204C16.901 16.8204 16.9205 17.1881 16.6208 17.4684C16.3211 17.7487 15.9258 17.7276 15.9258 17.7794C15.9258 17.8037 16.0165 17.8459 16.1834 17.8426C16.3987 17.8326 16.6038 17.7478 16.7633 17.6029C16.9154 17.4627 17.0082 17.2697 17.0225 17.0634C17.0274 16.9063 16.982 16.8172 16.9561 16.8204Z" fill="#263238"/>
<path d="M13.8845 12.798C13.9461 12.8774 14.2085 12.8078 14.5066 12.8159C14.8047 12.824 15.0671 12.8904 15.1287 12.8159C15.1562 12.777 15.1189 12.6992 15.0104 12.6215C14.86 12.528 14.687 12.4775 14.51 12.4752C14.333 12.4729 14.1587 12.519 14.006 12.6085C13.8958 12.6814 13.857 12.7592 13.8845 12.798Z" fill="#263238"/>
<path d="M18.048 14.9785C18.0507 15.0608 18.0209 15.1409 17.9652 15.2014C17.9095 15.262 17.8322 15.2983 17.7499 15.3025C17.7104 15.3056 17.6705 15.3009 17.6328 15.2885C17.595 15.2762 17.5601 15.2565 17.53 15.2306C17.4999 15.2047 17.4752 15.1731 17.4573 15.1376C17.4395 15.1022 17.4288 15.0635 17.4259 15.0239C17.4233 14.9416 17.453 14.8616 17.5088 14.801C17.5645 14.7404 17.6418 14.7041 17.724 14.6999C17.7636 14.6968 17.8034 14.7016 17.8412 14.7139C17.8789 14.7263 17.9139 14.7459 17.944 14.7718C17.9741 14.7977 17.9988 14.8293 18.0166 14.8648C18.0345 14.9003 18.0452 14.9389 18.048 14.9785Z" fill="#263238"/>
<path d="M18.3541 13.8526C18.3152 13.8947 18.0738 13.7214 17.7352 13.7295C17.3966 13.7376 17.1504 13.9093 17.1115 13.8688C17.0726 13.8283 17.1326 13.7764 17.2395 13.6954C17.3846 13.5915 17.5583 13.5349 17.7368 13.5334C17.9133 13.5306 18.0861 13.5833 18.2309 13.6841C18.3362 13.7602 18.3735 13.8348 18.3541 13.8526Z" fill="#263238"/>
<path d="M18.1442 12.7672C18.0794 12.845 17.8202 12.7672 17.4962 12.7672C17.1722 12.7672 16.9162 12.8288 16.8482 12.7494C16.8206 12.7105 16.8611 12.6328 16.9761 12.5583C17.1342 12.4674 17.3136 12.4205 17.4959 12.4222C17.6781 12.4239 17.8566 12.4742 18.0129 12.568C18.1442 12.6506 18.1798 12.7284 18.1442 12.7672Z" fill="#263238"/>
<path d="M20.6244 15.7658C20.6147 15.5828 20.801 15.1389 20.9808 15.1016C21.4668 14.9996 22.3302 14.9915 22.4048 16.2146C22.5084 17.888 20.8074 17.6466 20.801 17.5997C20.7945 17.5527 20.6568 16.396 20.6244 15.7658Z" fill="#B56760"/>
<path d="M21.2217 16.9597C21.2217 16.9597 21.2525 16.9776 21.3027 16.997C21.3729 17.025 21.4512 17.025 21.5214 16.997C21.6931 16.9209 21.8243 16.6309 21.8146 16.3296C21.8118 16.1828 21.7752 16.0387 21.7077 15.9084C21.6888 15.8569 21.6577 15.8109 21.6171 15.7742C21.5764 15.7375 21.5275 15.7113 21.4744 15.6978C21.4411 15.6923 21.407 15.6983 21.3775 15.7148C21.3481 15.7313 21.3252 15.7573 21.3124 15.7885C21.293 15.8371 21.3124 15.8695 21.2962 15.8727C21.28 15.876 21.2589 15.8468 21.2687 15.7771C21.2748 15.7353 21.2955 15.6969 21.327 15.6686C21.372 15.6304 21.4301 15.6112 21.489 15.6151C21.5591 15.6244 21.6257 15.6514 21.6824 15.6937C21.7391 15.7359 21.784 15.792 21.813 15.8565C21.8938 15.9967 21.9383 16.1548 21.9426 16.3166C21.9523 16.6552 21.8 16.9808 21.5619 17.065C21.5179 17.0813 21.4708 17.0873 21.4242 17.0825C21.3776 17.0778 21.3327 17.0624 21.293 17.0375C21.2298 17.0002 21.2217 16.963 21.2217 16.9597Z" fill="#8A4A43"/>
<path d="M21.0486 15.1065L20.6242 15.552C18.792 13.7894 15.1988 9.39598 15.3997 9.65194C16.2363 9.33867 17.1381 9.24063 18.0225 9.36682C19.3881 9.6001 21.9769 10.2821 21.938 11.8924C21.8991 13.5027 21.0486 15.1065 21.0486 15.1065Z" fill="#263238"/>
<path d="M23.4801 14.742C23.4753 14.7087 23.4666 14.676 23.4542 14.6448C23.4243 14.5536 23.3863 14.4652 23.3408 14.3807C23.1679 14.0703 22.929 13.8015 22.6409 13.5934C22.214 13.2887 21.7378 13.0596 21.2332 12.9162C20.6726 12.7348 20.0425 12.5922 19.4236 12.3266C18.8387 12.0825 18.2837 11.7722 17.7696 11.4015C17.3506 11.0975 16.9602 10.7559 16.6032 10.3809C16.3627 10.1269 16.1372 9.85914 15.9277 9.57904L15.7657 9.349C15.7472 9.3215 15.7266 9.29549 15.7041 9.27124C15.7153 9.30258 15.7311 9.33207 15.7511 9.35872C15.7867 9.4138 15.8369 9.49642 15.9131 9.59848C16.1129 9.88779 16.3327 10.1628 16.5708 10.4214C16.9247 10.8058 17.3147 11.1552 17.7356 11.4647C18.2519 11.8435 18.8115 12.1595 19.4026 12.4059C19.9985 12.6325 20.6057 12.8283 21.2218 12.9924C21.7201 13.1292 22.1921 13.3482 22.6183 13.6404C22.9031 13.8408 23.1436 14.0978 23.3246 14.3953C23.4347 14.6059 23.472 14.742 23.4801 14.742Z" fill="#455A64"/>
<path d="M22.9928 14.9995C22.998 14.8748 22.9759 14.7504 22.928 14.635C22.8028 14.3147 22.5837 14.0397 22.2994 13.8461C21.9511 13.5853 21.4522 13.4249 20.903 13.2985C20.306 13.1801 19.724 12.9954 19.168 12.7478C18.6145 12.4955 18.0948 12.1749 17.6209 11.7936C17.2337 11.4815 16.8783 11.1321 16.5598 10.7503C16.3463 10.4927 16.1488 10.2222 15.9685 9.94029L15.8275 9.70377C15.8125 9.67513 15.794 9.64847 15.7725 9.62439C15.7816 9.65512 15.7946 9.68453 15.8113 9.71187L15.9409 9.95487C16.1106 10.2468 16.3017 10.5256 16.5128 10.7892C16.8284 11.1794 17.1828 11.5366 17.5707 11.8551C18.0481 12.2438 18.5728 12.5704 19.1323 12.8271C19.6938 13.0765 20.2819 13.2607 20.8852 13.3763C21.4327 13.4962 21.922 13.6485 22.2654 13.8963C22.5438 14.0804 22.7631 14.3408 22.8972 14.6464C22.9397 14.761 22.9717 14.8792 22.9928 14.9995Z" fill="#455A64"/>
<path d="M20.9932 17.9399C20.9932 17.9285 21.1357 17.9091 21.3836 17.8443C21.7313 17.7429 22.0514 17.564 22.3199 17.321C22.712 16.9535 23.0103 16.4974 23.1899 15.991C23.4178 15.3721 23.5404 14.7194 23.5528 14.06C23.5599 13.7195 23.5327 13.3792 23.4718 13.0442C23.4082 12.7341 23.3149 12.4308 23.1931 12.1386C22.9819 11.6429 22.689 11.1862 22.3264 10.7876C21.9838 10.4288 21.6079 10.1034 21.2038 9.81555C21.2366 9.82676 21.2677 9.84257 21.2961 9.86253C21.3544 9.89979 21.4435 9.94839 21.5488 10.0245C21.8528 10.2332 22.1331 10.4743 22.3847 10.7438C22.7618 11.1426 23.067 11.6035 23.2871 12.1062C23.4146 12.4046 23.5117 12.7151 23.5771 13.0329C23.6421 13.3745 23.6709 13.722 23.6629 14.0697C23.6512 14.7417 23.5229 15.4066 23.2838 16.0347C23.0946 16.5541 22.7809 17.0191 22.3702 17.3891C22.0915 17.6331 21.7581 17.8065 21.3982 17.8945C21.3007 17.9178 21.2016 17.9335 21.1017 17.9415C21.0656 17.9461 21.0291 17.9455 20.9932 17.9399Z" fill="#455A64"/>
<path d="M10.5527 25.1878L10.5948 25.1343C12.4384 23.1903 15.8323 22.531 15.8323 22.531C15.8323 22.531 16.0396 23.8076 17.9383 23.9501C19.8369 24.0927 21.2382 22.1552 21.2382 22.1552L23.7768 22.5116C23.7768 22.5116 25.0533 22.6622 25.8487 23.1288C27.6405 24.1834 28.5914 27.8171 28.5914 27.8171L9.01855 27.8964L10.5527 25.1878Z" fill="#455A64"/>
<path d="M8.76239 6.03772L8.62631 6.04744L8.46431 6.05716C8.39789 6.05716 8.32013 6.07984 8.23265 6.0928C7.71143 6.17996 7.22026 6.39603 6.80381 6.72136C6.13341 7.24364 5.69714 8.01017 5.59043 8.85328C5.56604 9.10901 5.55738 9.36599 5.56451 9.62278C5.56451 9.89008 5.56451 10.1655 5.56451 10.4506C5.56451 11.0192 5.56451 11.6235 5.56451 12.2601C5.56451 14.8116 5.56451 17.8977 5.57423 21.4164C5.57423 22.2966 5.57423 23.2032 5.57423 24.1364C5.57423 24.368 5.57423 24.6045 5.58719 24.8362C5.60511 25.0711 5.64746 25.3035 5.71355 25.5296C5.85594 25.9898 6.10075 26.4119 6.42959 26.764C6.59561 26.9426 6.78088 27.1024 6.98201 27.2403C7.18827 27.3769 7.40949 27.4894 7.64135 27.5756L7.81631 27.6404L7.99775 27.6858C8.11921 27.7171 8.2426 27.7404 8.36711 27.7554C8.49185 27.7749 8.61821 27.7716 8.74457 27.7797H12.3215V27.8186C12.3215 29.3981 12.3215 31.0862 12.3215 32.8179L12.2551 32.7888C13.0824 32.0079 13.9232 31.2023 14.7775 30.3717C15.6263 29.5391 16.4947 28.6934 17.3225 27.7895L17.3354 27.7765H28.7937C29.0043 27.7765 29.2133 27.7765 29.4174 27.7619C30.0315 27.7109 30.6175 27.4819 31.1034 27.1029C31.5894 26.724 31.9544 26.2116 32.1536 25.6284C32.2798 25.2456 32.3385 24.8438 32.3269 24.4409V23.2308C32.3269 20.0167 32.3269 16.9128 32.3269 13.9628C32.3269 12.4875 32.3269 11.0489 32.3269 9.64708C32.3405 9.30233 32.3188 8.95709 32.2621 8.61676C32.1943 8.28669 32.0769 7.9688 31.9138 7.67392C31.5818 7.09711 31.0784 6.63793 30.4736 6.3601C30.1806 6.22591 29.8686 6.13792 29.5486 6.09928C29.2313 6.07228 28.9128 6.06308 28.5944 6.07174H26.7298H23.2241L12.6358 6.05392L23.2144 6.04096H26.7201H28.5847C28.9057 6.03247 29.227 6.04166 29.547 6.0685C29.8743 6.10701 30.1936 6.19666 30.4931 6.33418C31.1109 6.61814 31.6254 7.0868 31.9657 7.67554C32.1375 7.97885 32.2621 8.30663 32.335 8.64754C32.3914 8.99281 32.4131 9.34285 32.3998 9.69244C32.3998 11.0964 32.3998 12.535 32.3998 14.0081C32.3998 16.9614 32.3998 20.0621 32.3998 23.2761V24.4863C32.4118 24.8986 32.3515 25.3098 32.2216 25.7013C32.0174 26.2998 31.643 26.8259 31.1444 27.2149C30.6457 27.6039 30.0444 27.8391 29.4142 27.8915C29.2019 27.9061 28.993 27.9061 28.784 27.9045H17.3549L17.3857 27.8915C16.5546 28.7971 15.6863 29.6427 14.8358 30.4835C13.9853 31.3243 13.1396 32.0663 12.3118 32.8471L12.2438 32.9119V32.8179C12.2438 31.0862 12.2438 29.3981 12.2438 27.8186L12.2827 27.8559H8.74781C8.61821 27.8462 8.48861 27.8559 8.36225 27.83C8.23501 27.8145 8.10892 27.7907 7.98479 27.7587L7.79849 27.7117L7.61381 27.6437C7.37742 27.555 7.15187 27.4398 6.94151 27.3002C6.73561 27.159 6.54551 26.9961 6.37451 26.8142C6.04027 26.4533 5.79117 26.0221 5.64551 25.5522C5.57854 25.3212 5.53511 25.084 5.51591 24.8443C5.50781 24.6029 5.50781 24.3696 5.50781 24.138C5.50781 23.2049 5.50781 22.2982 5.50781 21.418C5.50781 17.8994 5.50781 14.8133 5.51753 12.2618C5.51753 11.6251 5.51753 11.0208 5.51753 10.4522C5.51753 10.1671 5.51753 9.8917 5.51753 9.6244C5.51157 9.36593 5.52131 9.10733 5.54669 8.85004C5.65775 7.99932 6.10169 7.22738 6.78113 6.70354C7.19939 6.37937 7.69237 6.16547 8.21483 6.08146C8.30231 6.07012 8.37683 6.05554 8.44811 6.05068L8.61011 6.04258L8.76239 6.03772Z" fill="#263238"/>
<path d="M20.4805 43.34H4.86697C3.84612 43.34 3.01855 44.1675 3.01855 45.1884V57.1699C3.01855 58.1908 3.84612 59.0183 4.86697 59.0183H20.4805C21.5014 59.0183 22.329 58.1908 22.329 57.1699V45.1884C22.329 44.1675 21.5014 43.34 20.4805 43.34Z" fill="white"/>
<path d="M13.4463 58.5387C13.6439 59.0247 17.4752 62.6179 17.4752 62.6179V58.5387H13.4463Z" fill="#C8AE7D"/>
<path d="M16.14 46.818C16.0453 46.5116 15.8905 46.2272 15.6847 45.9813C15.4788 45.7354 15.2261 45.533 14.9412 45.3859C14.2979 45.0864 13.5706 45.02 12.8838 45.198C12.2033 45.378 11.5565 45.6675 10.9689 46.055C10.6229 46.2464 10.3158 46.5007 10.0633 46.805C9.63079 47.3801 9.21607 48.3181 9.19339 49.0374C9.17395 49.619 9.43801 51.0656 9.69883 51.5857C9.83735 51.8005 10.0363 51.9696 10.2707 52.0717C10.5502 52.587 10.9194 53.0484 11.361 53.4341C11.4841 53.041 11.6077 52.6473 11.7319 52.2531L16.14 46.818Z" fill="#263238"/>
<path d="M15.785 46.115L14.6348 45.9432C15.3022 47.4142 15.5695 50.8162 15.9729 52.3811C16.3763 51.7574 17.3029 49.8653 17.23 49.1249C17.1571 48.3846 17.1409 45.9497 15.785 46.115Z" fill="#263238"/>
<path d="M10.4316 48.7491C10.4398 48.3306 10.5821 47.9258 10.8376 47.5943C11.093 47.2627 11.4482 47.0219 11.8507 46.9071L14.467 46.1603C15.601 45.9983 16.4013 47.3834 16.5098 48.5239C16.6281 49.7908 16.7172 51.1305 16.5957 52.0879C16.3527 54.0027 14.8995 54.2911 14.8995 54.2911C14.8995 54.2911 14.9255 55.1967 14.94 55.7491L14.514 58.2423L11.065 55.2971L10.417 48.7718C10.4235 48.7394 10.43 48.7928 10.4316 48.7491Z" fill="#FFBF9D"/>
<path d="M15.9324 50.1098C15.9355 50.1733 15.9135 50.2355 15.871 50.2828C15.8285 50.3301 15.7691 50.3588 15.7056 50.3626C15.6746 50.3661 15.6432 50.3634 15.6132 50.3546C15.5832 50.3458 15.5553 50.3311 15.5311 50.3113C15.507 50.2915 15.487 50.2671 15.4725 50.2394C15.4579 50.2118 15.4491 50.1815 15.4464 50.1503C15.4442 50.0869 15.4665 50.025 15.5087 49.9776C15.551 49.9302 15.6099 49.901 15.6732 49.896C15.7044 49.8927 15.7359 49.8956 15.7658 49.9045C15.7958 49.9135 15.8237 49.9284 15.8479 49.9484C15.872 49.9683 15.8919 49.9928 15.9065 50.0206C15.921 50.0483 15.9298 50.0786 15.9324 50.1098Z" fill="#263238"/>
<path d="M16.2437 49.2788C16.2146 49.3112 16.025 49.18 15.7577 49.1897C15.4904 49.1994 15.3057 49.3355 15.2717 49.3031C15.2377 49.2707 15.2863 49.2318 15.3689 49.167C15.4805 49.0851 15.6145 49.0393 15.7529 49.0358C15.8894 49.0317 16.0238 49.0708 16.1368 49.1476C16.2291 49.2075 16.2583 49.2642 16.2437 49.2788Z" fill="#263238"/>
<path d="M13.5643 50.1098C13.5674 50.1733 13.5453 50.2355 13.5028 50.2828C13.4604 50.3301 13.4009 50.3588 13.3375 50.3626C13.3064 50.3661 13.275 50.3634 13.245 50.3546C13.215 50.3458 13.1871 50.3311 13.163 50.3113C13.1388 50.2915 13.1188 50.2671 13.1043 50.2394C13.0897 50.2118 13.0809 50.1815 13.0783 50.1503C13.076 50.0866 13.0986 50.0245 13.1412 49.9771C13.1838 49.9296 13.2431 49.9006 13.3067 49.896C13.3377 49.8927 13.3691 49.8956 13.399 49.9046C13.4289 49.9136 13.4567 49.9285 13.4807 49.9484C13.5047 49.9684 13.5245 49.9929 13.5389 50.0207C13.5532 50.0484 13.5619 50.0787 13.5643 50.1098Z" fill="#263238"/>
<path d="M13.7473 49.3501C13.7165 49.3825 13.5286 49.2513 13.2613 49.261C12.994 49.2707 12.8109 49.4068 12.7753 49.3744C12.7397 49.342 12.7899 49.3031 12.8725 49.2383C12.9841 49.1564 13.1181 49.1106 13.2564 49.1071C13.393 49.103 13.5274 49.1421 13.6404 49.2189C13.7311 49.2788 13.77 49.3355 13.7473 49.3501Z" fill="#263238"/>
<path d="M14.6274 51.3913C14.7654 51.3447 14.9084 51.3148 15.0535 51.3022C15.1199 51.2924 15.1831 51.2779 15.1928 51.2309C15.1962 51.1615 15.1787 51.0926 15.1426 51.0332C15.0745 50.8712 15.0032 50.7092 14.9271 50.5278C14.629 49.8085 14.4119 49.2156 14.4411 49.2043C14.4703 49.1929 14.7343 49.7664 15.0324 50.4857L15.2398 50.9944C15.2839 51.0743 15.2988 51.1671 15.2819 51.2568C15.2729 51.2808 15.2586 51.3024 15.2401 51.3201C15.2216 51.3377 15.1993 51.351 15.175 51.3589C15.1381 51.3699 15.1 51.3764 15.0616 51.3783C14.918 51.4012 14.7721 51.4055 14.6274 51.3913Z" fill="#263238"/>
<path d="M12.3525 53.6787C12.3525 53.6787 13.0103 54.9747 14.9105 54.7317L14.904 54.2846C14.0138 54.3233 13.1303 54.1135 12.3525 53.6787Z" fill="#FF9A6C"/>
<path d="M13.6374 48.4024C13.6131 48.4737 13.3506 48.4494 13.0428 48.4947C12.735 48.5401 12.4888 48.634 12.4451 48.5709C12.4256 48.5401 12.4677 48.472 12.5666 48.3991C12.6982 48.3104 12.8482 48.2528 13.0054 48.2306C13.1626 48.2084 13.3227 48.2223 13.4738 48.2712C13.5888 48.3133 13.6471 48.3684 13.6374 48.4024Z" fill="#263238"/>
<path d="M16.1353 48.4769C16.0915 48.5385 15.9085 48.4769 15.6898 48.485C15.4711 48.4931 15.2896 48.5385 15.2443 48.4769C15.2248 48.4461 15.2524 48.3862 15.3318 48.3279C15.4377 48.2561 15.5627 48.2178 15.6906 48.2178C15.8185 48.2178 15.9435 48.2561 16.0494 48.3279C16.1272 48.3862 16.1547 48.4477 16.1353 48.4769Z" fill="#263238"/>
<path d="M15.9414 46.7986C15.8702 46.6606 15.762 46.5451 15.629 46.465C15.496 46.3849 15.3433 46.3434 15.1881 46.345C14.8765 46.3532 14.5738 46.451 14.3165 46.6269C13.2003 47.3154 12.6625 48.9159 11.5625 49.6271C11.292 49.8005 10.9275 49.6579 10.699 49.8863C10.4706 50.1147 10.3297 50.4711 10.4674 50.7627C10.3012 50.5672 10.1638 50.349 10.0591 50.1147C10.008 49.9971 9.98252 49.87 9.98448 49.7417C9.98644 49.6135 10.0158 49.4872 10.0705 49.3712C10.1628 49.1995 10.3297 49.0666 10.3718 48.8852C10.4139 48.7037 10.3378 48.5466 10.341 48.3765C10.3562 48.204 10.4117 48.0376 10.503 47.8905C10.9021 47.0863 11.5125 46.4059 12.2688 45.9222C12.768 45.6127 13.342 45.4447 13.9293 45.4362C14.5184 45.4332 15.089 45.6413 15.538 46.0226C15.7956 46.2494 16.0661 46.4843 15.9446 46.8051" fill="#263238"/>
<path d="M10.7322 50.1212C10.7095 50.0677 9.70507 49.7372 9.72289 50.7935C9.73909 51.8206 10.7694 51.5889 10.7694 51.5597C10.7694 51.5306 10.7322 50.1212 10.7322 50.1212Z" fill="#FFBF9D"/>
<path d="M10.4461 51.1774C10.4461 51.1774 10.4283 51.1904 10.3991 51.2034C10.3559 51.2204 10.3079 51.2204 10.2647 51.2034C10.198 51.162 10.1433 51.1039 10.106 51.0348C10.0688 50.9658 10.0503 50.8881 10.0525 50.8097C10.0492 50.7216 10.0647 50.6338 10.0978 50.5521C10.1073 50.52 10.1243 50.4906 10.1474 50.4664C10.1705 50.4422 10.199 50.4238 10.2307 50.4128C10.2509 50.4069 10.2726 50.4084 10.2919 50.417C10.3112 50.4256 10.3268 50.4407 10.336 50.4598C10.3505 50.4889 10.3441 50.5084 10.3505 50.51C10.357 50.5116 10.3716 50.4938 10.3635 50.4501C10.3567 50.425 10.3419 50.4028 10.3214 50.3869C10.2928 50.3663 10.2574 50.3576 10.2226 50.3626C10.1806 50.3718 10.1417 50.3915 10.1094 50.4198C10.0771 50.4481 10.0525 50.4842 10.0379 50.5246C9.99586 50.6141 9.97639 50.7125 9.98118 50.8113C9.97791 50.903 10.0019 50.9936 10.05 51.0718C10.0981 51.1499 10.1683 51.212 10.2517 51.2503C10.2793 51.2573 10.3081 51.2581 10.3361 51.2528C10.3641 51.2475 10.3906 51.2361 10.4137 51.2196C10.4445 51.2017 10.451 51.1791 10.4461 51.1774Z" fill="#FF9A6C"/>
<path d="M10.3086 49.6061C10.3298 49.597 10.3499 49.5856 10.3685 49.5721C10.4074 49.5462 10.4657 49.5122 10.5305 49.4587C10.7282 49.3049 10.909 49.1305 11.07 48.9387C11.3029 48.6516 11.5193 48.3514 11.718 48.0396C11.9576 47.6581 12.2285 47.2972 12.528 46.9607C12.6893 46.7921 12.8686 46.6416 13.0626 46.5119C13.2447 46.3939 13.4405 46.2987 13.6458 46.2284C13.9934 46.1059 14.3613 46.0509 14.7296 46.0664C14.9779 46.0747 15.2241 46.1155 15.4618 46.1879C15.5461 46.2122 15.6092 46.2381 15.653 46.2527L15.721 46.2754L15.6562 46.2446C15.5945 46.2167 15.5312 46.1924 15.4667 46.1717C15.2289 46.0905 14.9806 46.0441 14.7296 46.034C14.3564 46.0166 13.9834 46.0716 13.6312 46.196C13.4224 46.2672 13.2232 46.3641 13.0383 46.4844C12.8404 46.6147 12.6578 46.7669 12.494 46.938C12.1931 47.2763 11.9221 47.64 11.684 48.025C11.4834 48.3366 11.2671 48.6378 11.036 48.9273C10.8838 49.1139 10.7146 49.2858 10.5305 49.4409C10.4625 49.496 10.4042 49.5332 10.3685 49.5624L10.3086 49.6061Z" fill="white"/>
<path d="M10.5755 49.896C10.5427 50.1716 10.583 50.4509 10.6922 50.706C10.8299 50.9523 11.1604 51.1127 11.4001 50.9652C11.5961 50.847 11.648 50.5894 11.6755 50.3626C11.7549 49.7065 11.7792 49.0439 11.8634 48.3878L10.5755 49.896Z" fill="#263238"/>
<path d="M15.6751 46.3175C15.6751 46.3175 15.5843 46.303 15.4191 46.303C15.1868 46.3057 14.9572 46.3541 14.7436 46.4455C14.5961 46.508 14.4555 46.5857 14.324 46.6772C14.1737 46.7842 14.0304 46.9005 13.8947 47.0255C13.5798 47.3078 13.3003 47.6271 13.062 47.9764C12.9373 48.1627 12.8271 48.3539 12.7056 48.5321C12.5937 48.7053 12.4615 48.8647 12.3119 49.0067C12.0519 49.24 11.766 49.4428 11.4598 49.611C11.2022 49.7584 10.9852 49.8621 10.8361 49.935L10.6628 50.0144C10.6428 50.025 10.6216 50.0331 10.5996 50.0387C10.6176 50.025 10.6372 50.0136 10.6579 50.0047L10.8199 49.9139C10.9657 49.8362 11.1796 49.7276 11.4339 49.5786C11.7333 49.4065 12.0131 49.2022 12.2682 48.9695C12.4152 48.8298 12.5452 48.6732 12.6554 48.5029C12.7736 48.3263 12.8838 48.1352 13.0102 47.9456C13.2525 47.5902 13.5376 47.266 13.859 46.9801C13.9979 46.856 14.1439 46.7402 14.2964 46.6334C14.4311 46.541 14.5756 46.4638 14.7274 46.4034C14.9466 46.3132 15.1821 46.2696 15.4191 46.2754C15.4833 46.2777 15.5472 46.2847 15.6103 46.2965C15.6326 46.3009 15.6544 46.308 15.6751 46.3175Z" fill="#455A64"/>
<path d="M10.5298 49.2561C10.5027 49.2806 10.4728 49.3018 10.4407 49.3193L10.1848 49.4813L10.0989 49.5331C10.0651 49.5548 10.0269 49.5686 9.98712 49.5736C9.9631 49.5779 9.93834 49.5733 9.91746 49.5607C9.90616 49.553 9.89669 49.5429 9.88969 49.5311C9.8827 49.5194 9.87835 49.5063 9.87696 49.4926C9.87831 49.4453 9.89414 49.3995 9.92232 49.3614L10.2107 48.8754L10.2528 48.9127C10.1549 48.9877 10.0455 49.0462 9.9288 49.086C9.8108 49.125 9.6869 49.1431 9.56268 49.1395C9.53089 49.1398 9.49923 49.1354 9.46872 49.1265C9.45091 49.1221 9.43435 49.1137 9.42031 49.1019C9.40627 49.0901 9.39512 49.0753 9.38772 49.0585C9.38154 49.0414 9.37949 49.0231 9.38175 49.0051C9.384 48.9871 9.39049 48.9698 9.40068 48.9548C9.41795 48.9313 9.4369 48.9091 9.45738 48.8884C9.58864 48.7542 9.70093 48.6027 9.7911 48.438C9.8728 48.2815 9.94265 48.119 10.0001 47.952C9.99727 47.999 9.988 48.0453 9.97254 48.0897C9.9364 48.214 9.8881 48.3345 9.82836 48.4494C9.7397 48.6227 9.62678 48.7825 9.49302 48.924C9.45576 48.9613 9.4185 49.005 9.4347 49.0358C9.4509 49.0666 9.5076 49.0828 9.56106 49.0812C9.67878 49.0845 9.79615 49.067 9.90774 49.0293C10.0189 48.9934 10.123 48.9386 10.2155 48.8673L10.3354 48.775L10.2577 48.9046L9.96282 49.3906C9.93987 49.4201 9.92582 49.4555 9.92232 49.4926C9.92232 49.5218 9.94986 49.538 9.98226 49.5348C10.0478 49.5187 10.1099 49.4907 10.1653 49.4521L10.4294 49.308C10.4602 49.2859 10.494 49.2684 10.5298 49.2561Z" fill="white"/>
<path d="M13.6421 51.9048C13.6589 51.8261 13.7028 51.7559 13.7662 51.7064C13.8296 51.6569 13.9084 51.6314 13.9888 51.6343C14.0476 51.64 14.1041 51.6602 14.1533 51.6929C14.2024 51.7257 14.2428 51.7701 14.2707 51.8222C14.2974 51.8749 14.3133 51.9325 14.3175 51.9914C14.3217 52.0504 14.314 52.1096 14.295 52.1656V52.1899C14.2423 52.2506 14.1721 52.2934 14.0941 52.3126C14.0161 52.3317 13.934 52.3262 13.8592 52.2968C13.7845 52.265 13.7226 52.2091 13.6833 52.1381C13.644 52.0671 13.6295 51.985 13.6421 51.9048Z" fill="#FF9A6C"/>
<path d="M14.4808 52.1899C14.4808 52.1511 14.2151 52.1705 14.0078 51.9583C13.8004 51.7461 13.8085 51.4609 13.7713 51.4609C13.734 51.4609 13.7259 51.529 13.7308 51.6489C13.7417 51.8042 13.8064 51.9509 13.9138 52.0636C14.0173 52.1723 14.1591 52.2362 14.3091 52.2418C14.4176 52.2434 14.4841 52.2078 14.4808 52.1899Z" fill="#263238"/>
<path d="M18.7239 57.1261L18.6947 57.0872C17.3663 55.6827 14.9233 55.2129 14.9233 55.2129C14.9233 55.2129 14.7743 56.1314 13.4054 56.2351C12.0365 56.3388 11.0289 54.9391 11.0289 54.9391L9.20313 55.195C9.20313 55.195 8.28297 55.3036 7.70949 55.6405C6.41349 56.3987 5.73633 59.015 5.73633 59.015L19.8303 59.0717L18.7239 57.1261Z" fill="#C8AE7D"/>
<path d="M20.0136 43.3399C20.0136 43.3399 20.046 43.3399 20.1108 43.3399C20.2085 43.3406 20.306 43.3493 20.4024 43.3658C20.7787 43.4267 21.1339 43.5804 21.4359 43.813C21.9254 44.1909 22.2456 44.747 22.3269 45.3601C22.3455 45.5457 22.3525 45.7324 22.348 45.919C22.348 46.1101 22.348 46.3094 22.348 46.5135C22.348 46.9234 22.348 47.3591 22.348 47.8176C22.348 49.6531 22.348 51.8757 22.3577 54.4078C22.3577 55.0406 22.3577 55.6935 22.3577 56.3663C22.3577 56.5283 22.3577 56.7017 22.3577 56.875C22.3449 57.0485 22.3134 57.2202 22.2637 57.3869C22.1597 57.727 21.9797 58.0389 21.7372 58.299C21.4909 58.5684 21.1838 58.7751 20.8414 58.9016L20.7118 58.9486L20.5773 58.9826C20.4878 59.0055 20.3969 59.0228 20.3052 59.0345C20.1204 59.0514 19.9349 59.0579 19.7495 59.0539H17.4815L17.5188 59.015C17.5188 60.149 17.5188 61.3689 17.5188 62.6147V62.707L17.4507 62.6438C16.8546 62.0844 16.2487 61.5071 15.6331 60.9121C15.0207 60.3127 14.3954 59.7035 13.796 59.0507L13.8268 59.0653H5.59231C5.44165 59.0653 5.29099 59.0653 5.13709 59.0555C4.68113 59.0175 4.24615 58.8473 3.88536 58.5659C3.52457 58.2846 3.2536 57.9041 3.10561 57.4712C3.01225 57.1881 2.96841 56.8911 2.97601 56.5931V55.7216C2.97601 53.4066 2.97601 51.1759 2.97601 49.0488C2.97601 47.9861 2.97601 46.9509 2.97601 45.9433C2.96707 45.6906 2.98335 45.4377 3.02461 45.1883C3.07712 44.9434 3.16672 44.708 3.29029 44.4901C3.53657 44.0637 3.90898 43.7241 4.35625 43.5181C4.57295 43.4196 4.80354 43.3551 5.03989 43.327C5.27043 43.3068 5.50195 43.3003 5.73325 43.3075H9.60505L17.2191 43.3205L19.2894 43.3286L17.2191 43.3367L9.60505 43.3496H7.08109H5.73811C5.50948 43.3445 5.28074 43.3515 5.05285 43.3707C4.70183 43.4154 4.36602 43.5412 4.07194 43.738C3.77785 43.9348 3.53355 44.1973 3.35833 44.5047C3.23743 44.7212 3.15056 44.9551 3.10075 45.1981C3.0602 45.4426 3.045 45.6907 3.05539 45.9384C3.05539 46.9439 3.05539 47.9791 3.05539 49.0439C3.05539 51.171 3.05539 53.4017 3.05539 55.7167V56.5883C3.04631 56.8769 3.08854 57.1649 3.18013 57.4388C3.37059 57.996 3.77028 58.4572 4.29469 58.7251C4.55883 58.8613 4.84734 58.9439 5.14357 58.9681C5.28937 58.9778 5.44003 58.9794 5.59231 58.9778H13.8446L13.8576 58.9924C14.4537 59.6404 15.079 60.2511 15.6898 60.8505C16.3005 61.4499 16.9096 62.0282 17.5058 62.5904L17.4378 62.6195C17.4378 61.3738 17.4378 60.1571 17.4378 59.0199V58.981H19.7446C19.9268 58.9865 20.1091 58.9806 20.2906 58.9632C20.3797 58.953 20.468 58.9362 20.5546 58.913L20.6859 58.8806L20.8106 58.8352C21.1431 58.7132 21.4414 58.5132 21.6805 58.252C21.9156 58.0001 22.0906 57.6983 22.1925 57.3691C22.2407 57.207 22.2716 57.0403 22.2848 56.8718C22.2961 56.7098 22.2929 56.5348 22.2929 56.368C22.2929 55.6962 22.2929 55.0433 22.2929 54.4094C22.2929 51.8773 22.2929 49.6547 22.3026 47.8192C22.3026 47.3608 22.3026 46.925 22.3026 46.5151V45.9206C22.3083 45.7357 22.3023 45.5507 22.2848 45.3665C22.223 44.8768 22.0059 44.4196 21.6654 44.0622C21.3249 43.7048 20.8788 43.4658 20.3926 43.3804C20.2976 43.3615 20.2011 43.3506 20.1043 43.348L20.0136 43.3399Z" fill="#263238"/>
<path d="M50.0583 75.5066L29.8472 75.492C27.4172 75.492 25.4473 73.6128 25.4473 71.2962L25.457 23.004C25.457 20.6858 27.4301 18.8066 29.8634 18.8082L50.0761 18.8196C52.5061 18.8196 54.476 20.6988 54.476 23.0154L54.4663 71.3059C54.4647 73.6306 52.4883 75.5082 50.0583 75.5066Z" fill="#263238"/>
<path d="M50.0578 20.5335H46.1341C46.0095 20.5333 45.886 20.5576 45.7707 20.6051C45.6555 20.6526 45.5507 20.7224 45.4624 20.8104C45.3741 20.8984 45.304 21.0029 45.2561 21.118C45.2082 21.2331 45.1834 21.3565 45.1832 21.4812V22.1583C45.183 22.2831 45.1582 22.4067 45.1102 22.5219C45.0622 22.6371 44.9919 22.7417 44.9034 22.8297C44.815 22.9177 44.71 22.9875 44.5946 23.0349C44.4791 23.0823 44.3555 23.1065 44.2306 23.106H36.5924C36.4677 23.1063 36.3442 23.0819 36.2289 23.0344C36.1137 22.9869 36.0089 22.9171 35.9206 22.8291C35.8323 22.7411 35.7622 22.6366 35.7143 22.5215C35.6664 22.4064 35.6416 22.283 35.6414 22.1583V21.4796C35.6412 21.3548 35.6164 21.2312 35.5684 21.116C35.5204 21.0008 35.4501 20.8962 35.3616 20.8082C35.2732 20.7202 35.1682 20.6505 35.0528 20.603C34.9373 20.5556 34.8137 20.5314 34.6888 20.5319H29.8807C28.1781 20.5319 26.8027 21.8473 26.8027 23.4705L26.793 70.6125C26.793 72.2325 28.1716 73.5512 29.871 73.5512L50.0432 73.5626C51.7474 73.5626 53.1212 72.2487 53.1293 70.6255L53.139 23.4835C53.1358 21.8505 51.7555 20.5351 50.0578 20.5335Z" fill="white"/>
<path d="M39.2898 32.2834C39.575 32.263 39.8424 32.1371 40.0398 31.9303C40.2372 31.7234 40.3505 31.4505 40.3575 31.1646C40.3646 30.8788 40.265 30.6006 40.0781 30.3842C39.8911 30.1679 39.6303 30.0289 39.3465 29.9944C39.4846 29.7847 39.5531 29.5368 39.5424 29.286C39.5317 29.0351 39.4423 28.794 39.2869 28.5968C39.1315 28.3996 38.9179 28.2564 38.6765 28.1874C38.4351 28.1184 38.1781 28.1271 37.942 28.2124C37.8853 27.9714 37.7672 27.7493 37.5992 27.5676C37.4312 27.3859 37.2189 27.2509 36.9831 27.1757C36.7473 27.1004 36.4961 27.0876 36.2539 27.1384C36.0116 27.1892 35.7867 27.3019 35.601 27.4655C35.2842 27.2966 34.9203 27.2377 34.5663 27.2981C34.2124 27.3586 33.8886 27.5348 33.6457 27.7993C33.3984 27.7986 33.1575 27.8779 32.9591 28.0254C32.7606 28.173 32.6152 28.3808 32.5447 28.6178C32.4741 28.8548 32.4822 29.1083 32.5676 29.3404C32.6531 29.5724 32.8113 29.7706 33.0188 29.9053" fill="#263238"/>
<path d="M39.4843 32.4098C39.1583 31.2259 38.3982 30.2084 37.3555 29.5599C36.3128 28.9114 35.064 28.6795 33.858 28.9106L33.6102 28.9576C30.9631 29.625 30.0462 32.2446 30.7881 34.8738L32.6414 44.4156L38.096 48.6276L39.507 45.1138L38.9513 41.9386C38.9513 41.9386 41.4494 41.0476 40.9909 38.4686C40.7754 37.2196 40.1112 34.6908 39.4843 32.4098Z" fill="#C17560"/>
<path d="M38.979 41.9272C37.7825 42.1559 36.5455 42.0361 35.415 41.5822C35.415 41.5822 36.5312 43.3399 39.0552 42.619L38.979 41.9272Z" fill="#7C4236"/>
<path d="M39.2537 34.8787C39.2731 34.9743 39.2542 35.0738 39.2013 35.1558C39.1483 35.2379 39.0654 35.2959 38.9702 35.3177C38.9241 35.3303 38.876 35.3336 38.8286 35.3274C38.7813 35.3211 38.7356 35.3054 38.6944 35.2813C38.6532 35.2571 38.6173 35.225 38.5887 35.1867C38.5601 35.1484 38.5394 35.1048 38.5279 35.0585C38.5086 34.9628 38.5274 34.8633 38.5804 34.7813C38.6333 34.6993 38.7162 34.6412 38.8114 34.6194C38.8575 34.6068 38.9056 34.6035 38.953 34.6098C39.0004 34.616 39.046 34.6317 39.0872 34.6558C39.1284 34.68 39.1644 34.7121 39.193 34.7504C39.2216 34.7887 39.2422 34.8323 39.2537 34.8787Z" fill="#263238"/>
<path d="M39.1694 33.7754C39.1338 33.8305 38.8163 33.6782 38.421 33.7543C38.0257 33.8305 37.773 34.0783 37.7211 34.0443C37.6952 34.0265 37.7211 33.9309 37.8345 33.8143C37.9833 33.6633 38.1751 33.562 38.3837 33.5243C38.5891 33.4836 38.8022 33.5103 38.9912 33.6004C39.1305 33.6701 39.1889 33.7495 39.1694 33.7754Z" fill="#263238"/>
<path d="M35.6677 35.64C35.6866 35.7357 35.6673 35.8349 35.6141 35.9166C35.5608 35.9983 35.4778 36.056 35.3826 36.0774C35.3366 36.09 35.2886 36.0933 35.2414 36.087C35.1941 36.0808 35.1486 36.0651 35.1075 36.0409C35.0664 36.0168 35.0306 35.9846 35.0022 35.9463C34.9737 35.9081 34.9533 35.8645 34.942 35.8182C34.9227 35.7227 34.9415 35.6234 34.9945 35.5417C35.0475 35.4599 35.1304 35.4022 35.2255 35.3808C35.2715 35.3682 35.3197 35.3649 35.367 35.3711C35.4144 35.3774 35.46 35.393 35.5012 35.4172C35.5424 35.4413 35.5784 35.4735 35.607 35.5118C35.6356 35.55 35.6562 35.5936 35.6677 35.64Z" fill="#263238"/>
<path d="M35.2967 34.5886C35.261 34.6453 34.9435 34.4914 34.5482 34.5676C34.153 34.6437 33.9002 34.8916 33.8484 34.8575C33.8241 34.8397 33.8484 34.7441 33.9618 34.6291C34.11 34.4809 34.2999 34.3814 34.5061 34.344C34.7116 34.3044 34.9243 34.3311 35.1136 34.4201C35.2578 34.4833 35.3161 34.5627 35.2967 34.5886Z" fill="#263238"/>
<path d="M37.2903 37.2487C37.2903 37.226 37.522 37.1369 37.9108 37.0089C38.0096 36.9797 38.1019 36.9425 38.1052 36.8696C38.0936 36.7636 38.0501 36.6636 37.9804 36.5828L37.5365 35.8717C36.9128 34.8559 36.4414 34.0119 36.4819 33.9876C36.5224 33.9633 37.0619 34.7668 37.6856 35.7826L38.1181 36.5002C38.2047 36.6104 38.25 36.7473 38.2461 36.8874C38.2381 36.9258 38.2216 36.9619 38.1978 36.993C38.1739 37.0242 38.1434 37.0495 38.1084 37.0672C38.0568 37.092 38.0024 37.1105 37.9464 37.1223C37.5446 37.2211 37.2968 37.2697 37.2903 37.2487Z" fill="#263238"/>
<path d="M35.1535 33.2197C35.1211 33.3298 34.7614 33.2861 34.3435 33.3509C33.9255 33.4157 33.5853 33.5534 33.5335 33.4562C33.5076 33.4092 33.5643 33.3055 33.6955 33.197C33.8707 33.0626 34.0778 32.9761 34.2965 32.9459C34.5117 32.9125 34.7319 32.9365 34.9348 33.0156C35.0952 33.0836 35.1745 33.1678 35.1535 33.2197Z" fill="#263238"/>
<path d="M38.9515 32.366C38.8851 32.4713 38.5417 32.4405 38.1415 32.5102C37.7414 32.5798 37.4287 32.7094 37.3315 32.6301C37.2894 32.5896 37.3234 32.4907 37.453 32.3773C37.6332 32.2333 37.8485 32.1399 38.0767 32.1068C38.3025 32.0645 38.5355 32.0846 38.7507 32.1651C38.9175 32.238 38.9807 32.3142 38.9515 32.366Z" fill="#263238"/>
<path d="M31.6854 37.299C31.6643 37.205 31.6244 37.1164 31.568 37.0383C31.5116 36.9603 31.44 36.8945 31.3574 36.845C31.2749 36.7955 31.1831 36.7632 31.0877 36.7502C30.9924 36.7372 30.8953 36.7436 30.8025 36.7692C30.3311 36.9069 29.8483 37.2812 30.0703 38.2661C30.4607 40.0141 32.1358 39.2608 32.1277 39.2106C32.1196 39.1603 31.8555 38.0296 31.6854 37.299Z" fill="#C17560"/>
<path d="M31.5993 38.637C31.5912 38.637 31.5734 38.6662 31.528 38.7002C31.4627 38.748 31.3813 38.7684 31.3012 38.7569C31.1003 38.7294 30.88 38.4718 30.8006 38.1591C30.7623 38.0102 30.7584 37.8545 30.7893 37.7039C30.7932 37.6456 30.8113 37.5891 30.8421 37.5394C30.8729 37.4897 30.9154 37.4483 30.9659 37.4188C30.9987 37.4024 31.0361 37.3976 31.072 37.4053C31.108 37.4129 31.1402 37.4325 31.1635 37.4609C31.1975 37.5047 31.1943 37.5419 31.2056 37.5435C31.217 37.5452 31.2364 37.5063 31.2056 37.4366C31.1859 37.3955 31.1527 37.3624 31.1117 37.3426C31.0834 37.3309 31.0531 37.3248 31.0226 37.3248C30.992 37.3248 30.9617 37.3309 30.9335 37.3426C30.8648 37.3728 30.8051 37.42 30.76 37.4799C30.7149 37.5398 30.6859 37.6102 30.6759 37.6845C30.6354 37.8522 30.6354 38.0271 30.6759 38.1948C30.7666 38.5447 31.0209 38.8428 31.2899 38.8509C31.3399 38.8541 31.3901 38.846 31.4367 38.8272C31.4832 38.8084 31.5249 38.7794 31.5588 38.7423C31.6058 38.6808 31.6058 38.6403 31.5993 38.637Z" fill="#7C4236"/>
<path d="M37.325 29.0288C37.3006 28.988 37.2718 28.95 37.2391 28.9154C37.114 28.7884 36.961 28.6923 36.7923 28.6347C36.6236 28.577 36.4438 28.5595 36.2671 28.5833C36.0492 28.5187 35.8266 28.471 35.6013 28.4408C35.4302 28.238 35.2102 28.0823 34.962 27.9883C34.7139 27.8944 34.4459 27.8653 34.1834 27.9039C33.9209 27.9425 33.6726 28.0475 33.462 28.2089C33.2515 28.3704 33.0856 28.5829 32.9801 28.8263C32.9089 28.8506 32.8392 28.8766 32.7695 28.9041C32.5501 28.7988 32.3094 28.7453 32.066 28.7477C31.8226 28.7501 31.583 28.8083 31.3656 28.9179C31.1483 29.0274 30.9589 29.1854 30.8122 29.3796C30.6655 29.5738 30.5653 29.7991 30.5194 30.0381C30.2925 30.0207 30.0655 30.0707 29.867 30.1819C29.6685 30.293 29.5072 30.4603 29.4033 30.6627C29.2995 30.8652 29.2578 31.0938 29.2834 31.3199C29.309 31.5459 29.4009 31.7594 29.5474 31.9335C29.2655 32.1749 29.0614 32.541 29.1164 32.9055C29.1715 33.27 29.5538 33.526 29.8762 33.4223C29.975 34.2776 30.2537 35.2529 30.4643 36.1196C30.6133 36.7303 31.4671 36.9474 31.5983 37.3556C32.2787 39.4373 32.7517 38.1251 32.1782 33.6556C32.2155 33.6118 32.2544 33.5665 32.2916 33.5179C32.346 33.4132 32.3931 33.305 32.4326 33.1939C32.5071 33.0626 32.6918 33.0643 32.8424 33.0513C33.1032 33.022 33.3459 32.904 33.53 32.717C33.714 32.53 33.8282 32.2854 33.8533 32.0242C34.0153 32.1862 34.3247 32.1279 34.5013 31.9627C34.6562 31.7809 34.7844 31.578 34.882 31.36C35.0035 31.1527 35.1898 30.9534 35.428 30.9421C35.5605 30.9611 35.6947 30.9649 35.8281 30.9534C36.0549 30.8902 36.1165 30.597 36.1067 30.3621C36.0778 30.1635 36.1036 29.9607 36.1813 29.7757C36.308 29.6796 36.4513 29.6076 36.6041 29.5634C36.6932 29.5634 36.7855 29.5634 36.873 29.5537C36.9149 29.5514 36.9566 29.546 36.9977 29.5375C37.0556 29.5454 37.1129 29.5568 37.1695 29.5715C38.0183 29.8 39.0033 31.2823 39.0033 31.2823C38.8802 30.2455 38.1544 29.5003 37.325 29.0288Z" fill="#263238"/>
<path d="M29.3447 32.0615C29.3447 32.0615 29.3447 32.0518 29.3561 32.0323C29.3674 32.0129 29.3771 31.987 29.3982 31.9529C29.462 31.8563 29.542 31.7713 29.6347 31.7018C29.7822 31.5922 29.9539 31.5194 30.1353 31.4896C30.3754 31.4478 30.6226 31.4901 30.8351 31.6095L30.7898 31.6338C30.8055 31.4339 30.8637 31.2396 30.9603 31.0639C31.0569 30.8883 31.1899 30.7352 31.3503 30.6148C31.5273 30.4745 31.7289 30.3684 31.9448 30.3022C32.173 30.2361 32.4106 30.2082 32.6479 30.2195C33.0926 30.2465 33.5283 30.3564 33.9326 30.5435L33.884 30.5695C33.9634 30.1731 34.1904 29.8216 34.519 29.5861C34.7319 29.4366 34.9791 29.3433 35.2377 29.315C35.4963 29.2866 35.7579 29.3242 35.9981 29.4241C36.0482 29.4447 36.0969 29.4685 36.1439 29.4954C36.1746 29.5148 36.1908 29.5262 36.1892 29.5278C36.1876 29.5294 36.1212 29.4938 35.99 29.4452C35.8016 29.3769 35.6022 29.3445 35.4019 29.3496C35.0965 29.3558 34.8003 29.4553 34.553 29.6347C34.241 29.8642 34.0265 30.2024 33.952 30.5824L33.9439 30.6262L33.9034 30.6083C33.5071 30.4245 33.0805 30.3147 32.6447 30.2843C32.4156 30.2742 32.1864 30.301 31.9659 30.3637C31.758 30.4257 31.5639 30.5269 31.394 30.6618C31.2396 30.7761 31.111 30.9218 31.017 31.0893C30.9229 31.2569 30.8653 31.4424 30.8481 31.6338V31.6824L30.806 31.6581C30.606 31.5415 30.372 31.4975 30.1434 31.5334C29.9684 31.5582 29.8018 31.6243 29.6574 31.7261C29.532 31.8162 29.4258 31.9301 29.3447 32.0615Z" fill="#455A64"/>
<path d="M36.1838 29.6542C36.1799 29.6795 36.174 29.7044 36.166 29.7287C36.1513 29.7997 36.1421 29.8717 36.1384 29.9442C36.1384 30.0397 36.1384 30.1564 36.1271 30.2941C36.1311 30.4537 36.1007 30.6122 36.038 30.759C36.0148 30.8022 35.9832 30.8404 35.9451 30.8712C35.907 30.9021 35.8631 30.9251 35.8161 30.9388C35.7168 30.9627 35.6152 30.9752 35.5131 30.9761C35.4098 30.9763 35.3083 31.0031 35.2183 31.0539C35.1291 31.1206 35.0547 31.2049 34.9996 31.3017C34.938 31.4005 34.8829 31.5091 34.823 31.6257C34.7694 31.7436 34.6984 31.8528 34.6124 31.9497C34.5107 32.0463 34.3866 32.1159 34.2511 32.1522C34.1813 32.1732 34.1085 32.1819 34.0357 32.1781C33.9558 32.1769 33.8796 32.1443 33.8235 32.0874L33.885 32.0647C33.8802 32.287 33.8002 32.5011 33.6582 32.6722C33.5077 32.848 33.3115 32.9787 33.0912 33.0497C32.9998 33.0788 32.906 33.0999 32.811 33.1129C32.7231 33.11 32.6357 33.1266 32.555 33.1615C32.4814 33.2026 32.4242 33.2678 32.393 33.3462C32.3524 33.4276 32.3053 33.5056 32.2521 33.5794C32.0627 33.8768 31.7683 34.0919 31.4275 34.1821C31.1158 34.2268 30.7985 34.1566 30.5349 33.9844C30.3082 33.8417 30.1298 33.6339 30.0229 33.3883L30.057 33.4012C29.9614 33.4409 29.8583 33.459 29.755 33.4542C29.6517 33.4495 29.5507 33.422 29.4592 33.3737C29.3219 33.3002 29.2147 33.181 29.1562 33.0367C29.1192 32.9481 29.1021 32.8524 29.106 32.7565C29.1062 32.732 29.1089 32.7075 29.1141 32.6836C29.1141 32.6674 29.1141 32.6593 29.1141 32.6593C29.1042 32.785 29.1254 32.9113 29.1757 33.027C29.2349 33.1617 29.3392 33.2717 29.4705 33.3381C29.5568 33.3813 29.6515 33.4052 29.748 33.4083C29.8445 33.4114 29.9405 33.3935 30.0294 33.3559L30.0537 33.3462L30.0634 33.3688C30.1696 33.6024 30.3427 33.7991 30.5608 33.9342C30.8121 34.0948 31.113 34.1592 31.408 34.1157C31.7299 34.0286 32.0077 33.8247 32.1873 33.5438C32.2388 33.4732 32.2844 33.3985 32.3233 33.3202C32.3615 33.2288 32.4286 33.1525 32.5145 33.1032C32.5587 33.0791 32.6071 33.0637 32.6571 33.0578L32.7948 33.0465C32.885 33.0342 32.974 33.0136 33.0604 32.9849C33.2681 32.9193 33.4532 32.797 33.595 32.6317C33.7278 32.4734 33.8027 32.2746 33.8073 32.068V31.9837L33.8656 32.0453C33.9159 32.0831 33.9752 32.1073 34.0376 32.1155C34.1 32.1238 34.1635 32.1158 34.222 32.0923C34.3464 32.0594 34.4605 31.9959 34.5541 31.9076C34.6408 31.8137 34.7119 31.7065 34.7647 31.5901C34.8262 31.4799 34.8829 31.3714 34.9477 31.2661C35.008 31.1625 35.0891 31.0726 35.1859 31.002C35.2848 30.9466 35.3965 30.9181 35.5099 30.9194C35.608 30.9191 35.7057 30.9083 35.8015 30.887C35.8426 30.8757 35.881 30.8565 35.9147 30.8304C35.9483 30.8042 35.9764 30.7717 35.9975 30.7347C36.0605 30.5947 36.0926 30.4427 36.0915 30.2892C36.0996 30.1531 36.1044 30.0349 36.1141 29.9393C36.1209 29.8658 36.1344 29.7932 36.1546 29.7222C36.1616 29.6984 36.1714 29.6756 36.1838 29.6542Z" fill="#455A64"/>
<path d="M36.189 38.1737C36.1161 38.6597 36.3251 39.1246 36.7819 39.2915C36.8709 39.319 36.9643 39.3288 37.057 39.3202C37.1497 39.3115 37.2398 39.2847 37.3221 39.2412C37.4044 39.1977 37.4773 39.1384 37.5367 39.0667C37.5961 38.995 37.6407 38.9123 37.6681 38.8233C37.7203 38.6246 37.7242 38.4163 37.6794 38.2158C37.2598 38.1915 36.6118 38.198 36.189 38.1737Z" fill="#7C4236"/>
<path d="M37.5836 39.0194C37.5836 39.0194 37.5836 39.0323 37.5658 39.0534C37.5456 39.0843 37.5217 39.1126 37.4945 39.1376C37.3949 39.2325 37.269 39.2952 37.1332 39.3174C36.9287 39.3487 36.7196 39.3063 36.5435 39.1976C36.4384 39.1276 36.3488 39.0367 36.2805 38.9305C36.2122 38.8242 36.1666 38.705 36.1466 38.5803C36.137 38.5149 36.1337 38.4487 36.1369 38.3827C36.1372 38.3135 36.1551 38.2455 36.1888 38.1851C36.2098 38.1525 36.2412 38.128 36.2779 38.1154C36.3103 38.105 36.3443 38.1007 36.3783 38.1024H36.55C36.772 38.1138 36.9712 38.1348 37.1381 38.1527C37.4702 38.1883 37.6775 38.198 37.6775 38.211C37.4967 38.2322 37.314 38.2322 37.1332 38.211C36.9712 38.2013 36.7671 38.1851 36.5468 38.1786H36.3848C36.3281 38.1786 36.2876 38.1867 36.2633 38.2256C36.2394 38.2762 36.2273 38.3316 36.2276 38.3876C36.2202 38.5325 36.2497 38.6769 36.3135 38.8073C36.3773 38.9377 36.4732 39.0497 36.5921 39.1328C36.752 39.2343 36.9417 39.2783 37.13 39.2575C37.2581 39.2432 37.3795 39.1926 37.4799 39.1117C37.5479 39.0566 37.5836 39.0129 37.5836 39.0194Z" fill="#263238"/>
<path d="M47.3682 33.4288C47.3682 33.4288 49.4207 33.1728 52.5052 30.7185C55.5897 28.2642 57.2615 24.7764 57.6049 24.8282C57.9484 24.88 59.5279 24.3179 61.8169 30.8449C64.106 37.3719 62.8327 38.7181 62.2624 38.6517C61.6922 38.5852 57.9079 37.137 55.4584 37.1856C53.009 37.2342 49.7674 38.2029 49.7674 38.2029L47.3682 33.4288Z" fill="#C8AE7D"/>
<path d="M43.6764 38.3017L44.7731 38.0684L44.1786 36.625L43.252 37.0883L43.6764 38.3017Z" fill="#455A64"/>
<path d="M43.8045 36.5861L44.2095 37.8043L44.4622 38.4167C44.6269 38.8236 44.9419 39.1515 45.3418 39.3324C45.7417 39.5134 46.196 39.5335 46.6103 39.3887L51.0605 38.1364L49.1489 32.5021L44.7263 34.3667C44.3114 34.5408 43.982 34.8715 43.8094 35.287C43.6369 35.7025 43.6351 36.1693 43.8045 36.5861Z" fill="#263238"/>
<path d="M45.4004 38.4589L46.8908 41.1011L47.5712 40.8824L52.2255 44.3557L53.3805 41.8414C53.3805 41.8414 50.6719 40.8062 50.1405 39.878C49.6092 38.9497 50.1697 38.7116 50.1697 38.7116L48.8591 37.3411L45.4004 38.4589Z" fill="#263238"/>
<path d="M61.5723 30.942C62.7825 34.4753 63.1356 37.5549 62.3597 37.8206C61.5837 38.0862 59.9718 35.4392 58.76 31.9059C57.5483 28.3727 57.1967 25.2931 57.9727 25.0258C58.7487 24.7585 60.3606 27.404 61.5723 30.942Z" fill="#263238"/>
<path d="M58.5225 29.889C58.5225 29.889 60.3725 28.9705 61.1064 31.4216C61.8402 33.8726 59.9643 34.0881 59.9643 34.0881C59.2889 32.763 58.8036 31.3495 58.5225 29.889Z" fill="#FAFAFA"/>
<path d="M56.9295 26.9001C56.9237 27.0534 56.9323 27.2069 56.9554 27.3586C56.983 27.6518 57.0218 28.0779 57.085 28.6028C57.1358 28.863 57.1898 29.146 57.247 29.4516C57.2778 29.6039 57.3086 29.7627 57.3394 29.9247C57.3556 30.0057 57.3718 30.0883 57.388 30.1725C57.4074 30.2552 57.4333 30.3345 57.456 30.422L57.7557 31.4766L57.8335 31.752C57.8594 31.846 57.8999 31.9351 57.9323 32.0274C58.0003 32.2121 58.07 32.3984 58.1413 32.588L58.3519 33.1485C58.3875 33.2392 58.4167 33.3332 58.4588 33.4206L58.5803 33.6815L59.0485 34.6745C59.0873 34.7523 59.1214 34.8365 59.1619 34.9062L59.2882 35.1249L59.5296 35.5445L59.9638 36.2913C60.2602 36.7287 60.5097 37.0737 60.6814 37.3135C60.764 37.4429 60.8583 37.5644 60.9633 37.6764C60.897 37.5382 60.8189 37.406 60.73 37.2811L60.0529 36.233L59.6381 35.478L59.4065 35.0617C59.366 34.9888 59.3255 34.9159 59.2834 34.843C59.2412 34.7701 59.2121 34.6891 59.1748 34.6097C59.029 34.2938 58.8751 33.9617 58.718 33.6199L58.5965 33.3607C58.556 33.2732 58.5268 33.1809 58.4912 33.0902L58.2838 32.5345C58.2142 32.3466 58.1445 32.1603 58.0748 31.9772C58.0424 31.8865 58.0019 31.7974 57.9776 31.7051C57.9533 31.6127 57.9242 31.5204 57.8966 31.4297L57.5921 30.3831C57.5694 30.3005 57.5419 30.2211 57.5224 30.1369C57.503 30.0527 57.4868 29.9749 57.4706 29.8923C57.4366 29.7303 57.4025 29.5683 57.3718 29.4225C57.307 29.1212 57.2454 28.8393 57.1903 28.5817C57.1174 28.0665 57.0559 27.647 57.0137 27.3489C56.9973 27.1974 56.9691 27.0473 56.9295 26.9001Z" fill="#263238"/>
<path d="M51.0604 38.1283C50.9964 38.1577 50.9289 38.1789 50.8596 38.1915L50.3088 38.3373C49.8422 38.4572 49.1991 38.6273 48.4895 38.8233C47.7799 39.0193 47.14 39.1975 46.6719 39.3093C46.437 39.3676 46.2474 39.4113 46.1146 39.4389C46.0466 39.4562 45.9772 39.4675 45.9072 39.4729C45.9717 39.4438 46.039 39.4216 46.1081 39.4065L46.6557 39.2445L48.4684 38.7309C49.1764 38.5349 49.8244 38.3729 50.2942 38.2676C50.5291 38.2142 50.7202 38.1737 50.8531 38.1494C50.9214 38.1359 50.9908 38.1288 51.0604 38.1283Z" fill="#455A64"/>
<path d="M48.4377 37.2081C48.3 37.2856 48.1545 37.348 48.0035 37.3944C47.7297 37.4965 47.3555 37.6261 46.923 37.7541C46.4904 37.8821 46.1049 37.9809 45.8214 38.0457C45.6696 38.0891 45.5138 38.1167 45.3564 38.1283C45.5026 38.0694 45.6532 38.0223 45.8068 37.9874C46.0871 37.908 46.4726 37.7994 46.8987 37.6731C47.3247 37.5467 47.7087 37.4252 47.9841 37.3377C48.1316 37.2825 48.2833 37.2392 48.4377 37.2081Z" fill="#455A64"/>
<path d="M47.738 35.9219C47.2901 36.1018 46.8319 36.2549 46.3658 36.3803C45.9076 36.5338 45.4408 36.6603 44.9678 36.7594C45.4162 36.5792 45.875 36.4255 46.3415 36.2993C46.7994 36.1468 47.2656 36.0207 47.738 35.9219Z" fill="#455A64"/>
<path d="M47.0475 34.6826C46.6701 34.8935 46.2794 35.0797 45.8778 35.2399C45.488 35.4276 45.0865 35.5899 44.6758 35.7259C45.0521 35.5134 45.4423 35.3267 45.8438 35.167C46.2337 34.9787 46.6358 34.8168 47.0475 34.6826Z" fill="#455A64"/>
<path d="M42.0406 48.6243L39.3384 44.064L32.3514 43.7756V44.4107C32.3514 44.4107 30.4333 46.3417 29.8145 48.971C29.3463 50.962 31.3162 58.5598 31.8702 61.1939C32.5506 64.4339 33.4902 68.5292 33.4902 68.5292C33.3493 69.255 32.4178 69.8431 32.4826 70.8118L48.0119 70.6417L47.2133 67.4941L42.0406 48.6243Z" fill="#C8AE7D"/>
<path d="M47.429 68.7009C47.429 68.7252 44.3381 68.7431 40.5262 68.7431C36.7143 68.7431 33.625 68.7252 33.625 68.7009C33.625 68.6766 36.7143 68.6588 40.5262 68.6588C44.3381 68.6588 47.429 68.6783 47.429 68.7009Z" fill="white"/>
<path d="M46.3544 64.8001C46.3544 64.8244 43.2926 64.8438 39.5164 64.8438C35.7402 64.8438 32.6768 64.8244 32.6768 64.8001C32.6768 64.7758 35.7386 64.7579 39.5164 64.7579C43.2942 64.7579 46.3544 64.7822 46.3544 64.8001Z" fill="white"/>
<path d="M45.3017 60.5702C45.3017 60.5929 42.3047 60.6123 38.6079 60.6123C34.9111 60.6123 31.9141 60.588 31.9141 60.5702C31.9141 60.5524 34.9094 60.5281 38.6063 60.5281C42.3031 60.5281 45.3017 60.5459 45.3017 60.5702Z" fill="white"/>
<path d="M44.5642 56.308C44.5642 56.3307 41.4765 56.3501 37.6695 56.3501C33.8625 56.3501 30.7764 56.3307 30.7764 56.308C30.7764 56.2853 33.8625 56.2659 37.6695 56.2659C41.4765 56.2659 44.5642 56.2837 44.5642 56.308Z" fill="white"/>
<path d="M42.9303 51.0203C42.9303 51.043 40.0143 51.0624 36.4065 51.0624C32.7988 51.0624 29.8828 51.043 29.8828 51.0203C29.8828 50.9976 32.7988 50.9766 36.4065 50.9766C40.0143 50.9766 42.9303 50.996 42.9303 51.0203Z" fill="white"/>
<path d="M40.709 46.1701C40.709 46.1927 38.5528 46.2122 35.8911 46.2122C33.2295 46.2122 31.0732 46.1927 31.0732 46.1701C31.0732 46.1474 33.2295 46.1279 35.8911 46.1279C38.5528 46.1279 40.709 46.1539 40.709 46.1701Z" fill="white"/>
<path opacity="0.3" d="M31.8018 51.4366C32.4817 52.5782 33.3398 53.6036 34.3435 54.4741C35.9036 55.7701 40.6502 58.0932 40.6502 58.0932L41.0471 57.2735L44.5884 58.1013L43.9404 55.9208L31.8018 51.4366Z" fill="black"/>
<path d="M48.4619 45.6841L47.2258 52.3973L36.6375 47.364L34.9316 53.3353C39.0934 55.37 47.5174 58.7575 48.6012 58.6603C50.1434 58.5209 51.2094 57.5992 51.6889 55.3409C51.987 53.9428 51.8509 44.5679 51.8509 44.5679L48.4619 45.6841Z" fill="#C17560"/>
<path d="M37.3293 46.4617C37.3293 46.4617 33.37 44.0155 31.6431 47.0983C30.4086 50.1051 31.7743 52.5059 34.8232 53.9963C36.2925 54.7156 38.2948 55.6033 40.3166 56.4474L43.2633 49.9074L37.3293 46.4617Z" fill="#C8AE7D"/>
<path d="M37.3299 46.4616C37.3299 46.4616 37.3688 46.4794 37.44 46.5199L37.7543 46.6965L38.9499 47.3801L43.2818 49.8782L43.3077 49.8943L43.2947 49.9219L40.356 56.4635L40.3398 56.5007L40.3026 56.4845C39.2658 56.0536 38.1966 55.5935 37.1079 55.1075C36.6273 54.8915 36.1527 54.6755 35.684 54.4595C35.2174 54.2408 34.7573 54.0221 34.3151 53.7807C34.0991 53.6565 33.8858 53.5264 33.6752 53.3903C33.4743 53.2445 33.2669 53.1117 33.0839 52.9497C32.7098 52.6492 32.3731 52.3049 32.0811 51.9242L31.8802 51.6358C31.8152 51.5403 31.7562 51.4407 31.7036 51.3378C31.5931 51.1385 31.4968 50.9317 31.4153 50.7189C31.378 50.6136 31.3505 50.5035 31.3181 50.3949L31.2711 50.2329C31.2581 50.1778 31.2516 50.1244 31.2403 50.0709C31.2225 49.964 31.203 49.8555 31.1852 49.7469C31.1674 49.6384 31.1723 49.5331 31.1658 49.4229C31.1541 49.2129 31.1579 49.0022 31.1771 48.7927C31.1933 48.587 31.2371 48.3861 31.2662 48.1885C31.2954 47.9908 31.365 47.8029 31.4185 47.6166C31.472 47.4303 31.5497 47.2554 31.6129 47.0804C31.843 46.662 32.1628 46.2997 32.5493 46.0193C32.9029 45.7799 33.3051 45.6217 33.727 45.556C34.405 45.4737 35.0928 45.5406 35.7423 45.752C36.1539 45.8798 36.5539 46.0423 36.9378 46.238C37.0691 46.3061 37.1663 46.3611 37.2327 46.4C37.2991 46.4389 37.3283 46.4616 37.3283 46.4616L37.2278 46.4081C37.1614 46.3725 37.0658 46.3206 36.9281 46.2558C36.5426 46.0677 36.1422 45.9116 35.7309 45.7893C35.0867 45.5846 34.4055 45.5232 33.7351 45.6095C33.3217 45.6752 32.9282 45.8324 32.5833 46.0695C32.2055 46.3463 31.8935 46.7031 31.6696 47.1144C31.608 47.2894 31.5432 47.466 31.4784 47.6474C31.4136 47.8288 31.3796 48.02 31.331 48.2112C31.2824 48.4023 31.2614 48.6048 31.2452 48.809C31.2273 49.0153 31.2241 49.2226 31.2354 49.4294C31.2354 49.5331 31.2468 49.64 31.2565 49.7534C31.2662 49.8668 31.2921 49.964 31.3116 50.0693C31.3213 50.1228 31.3278 50.1762 31.3408 50.2313L31.3877 50.3933C31.4201 50.4986 31.4461 50.6055 31.4849 50.7092C31.5648 50.9182 31.6595 51.1212 31.7684 51.3167C31.8209 51.4175 31.8788 51.5154 31.9418 51.6099L32.141 51.8918C32.4298 52.2673 32.7626 52.6067 33.1325 52.9027C33.3199 53.0577 33.5151 53.2032 33.7173 53.3385C33.9225 53.4735 34.1342 53.602 34.3523 53.724C34.7897 53.9622 35.2498 54.1825 35.7164 54.3996C36.1829 54.6166 36.6592 54.8353 37.1403 55.0476C38.2257 55.5336 39.2949 55.9936 40.3301 56.4262L40.2767 56.4472C41.3766 54.0173 42.3827 51.7784 43.2299 49.9122L43.2445 49.9543L38.9272 47.4303L37.7462 46.7127L37.4384 46.528C37.3655 46.494 37.3299 46.4616 37.3299 46.4616Z" fill="#263238"/>
<path d="M48.303 46.8343L48.5411 44.333C48.5411 44.333 47.5853 42.4084 47.6048 42.2157C47.6242 42.0229 47.6793 40.9618 47.6793 40.9618L50.0688 38.8104C50.0688 38.8104 50.8432 38.8104 50.8626 39.5767C50.8626 39.5767 51.6062 39.4147 51.6175 40.3122C51.6175 40.3122 52.4275 40.3413 52.4437 40.9942C52.4437 40.9942 52.9297 40.9294 52.9135 41.6114C52.9006 42.0974 52.6867 43.9782 52.6867 43.9782L51.6872 45.7165L51.6046 47.4547L48.303 46.8343Z" fill="#C17560"/>
<path d="M48.5515 54.85C48.524 54.8597 48.3474 54.2522 47.9861 53.5718C47.6249 52.8914 47.2053 52.4152 47.2263 52.3973C47.3333 52.4852 47.4286 52.5865 47.5098 52.6987C47.7188 52.9586 47.9032 53.2374 48.0607 53.5313C48.2166 53.8257 48.3467 54.133 48.4495 54.4499C48.4989 54.5789 48.5331 54.7131 48.5515 54.85Z" fill="#7C4236"/>
<path d="M34.9323 45.6306C34.9041 45.7098 34.8688 45.7862 34.827 45.859C34.7541 46.0032 34.6455 46.209 34.503 46.4617C34.2292 46.9687 33.8388 47.6621 33.403 48.4235L32.2803 50.3675L31.9401 50.9572C31.9007 51.0312 31.8558 51.1021 31.8057 51.1694C31.8339 51.0903 31.8691 51.0138 31.911 50.941C31.9839 50.7984 32.0924 50.5911 32.235 50.3383C32.5087 49.8313 32.8975 49.1379 33.3349 48.3765C33.7723 47.6151 34.1628 46.9396 34.456 46.4325C34.5953 46.1944 34.7103 45.9951 34.7978 45.8428C34.8364 45.7684 34.8814 45.6974 34.9323 45.6306Z" fill="white"/>
<path d="M38.1605 47.0448C38.155 47.0701 38.1463 47.0946 38.1346 47.1177L38.0455 47.3202C37.9661 47.4968 37.8494 47.7479 37.6988 48.0573C37.4007 48.6761 36.9746 49.5234 36.4757 50.4452C35.9767 51.367 35.5037 52.1883 35.1473 52.7764C34.9691 53.0696 34.8233 53.3061 34.7196 53.4681L34.5997 53.6544C34.586 53.6763 34.5703 53.6969 34.5527 53.716C34.5527 53.716 34.5608 53.69 34.5851 53.6447L34.6921 53.4519L35.0954 52.7456C35.4373 52.151 35.9054 51.3248 36.4012 50.4047C36.8969 49.4845 37.3343 48.6421 37.6453 48.0298L38.0163 47.3072L38.1184 47.1112C38.1293 47.0873 38.1435 47.0649 38.1605 47.0448Z" fill="white"/>
<path d="M41.7732 49.0665C41.7466 49.1584 41.7136 49.2482 41.6744 49.3354C41.6079 49.4974 41.5043 49.7502 41.3714 50.0499C41.1041 50.6476 40.7088 51.4641 40.2212 52.3389C39.7336 53.2137 39.2492 53.9784 38.8782 54.5211C38.6936 54.7916 38.5397 55.0071 38.4295 55.1545C38.3769 55.2337 38.3178 55.3085 38.2529 55.378C38.2966 55.2937 38.3469 55.2129 38.4036 55.1367L38.828 54.4887C39.1844 53.9395 39.6607 53.1716 40.1483 52.3C40.6359 51.4285 41.0361 50.6169 41.3163 50.032L41.6403 49.329C41.6767 49.2377 41.7211 49.1499 41.7732 49.0665Z" fill="white"/>
<path d="M32.3594 73.8104L32.6963 70.8118L47.5112 70.6482L47.8887 73.8104H32.3594Z" fill="#263238"/>
<path d="M50.7054 73.548C50.7054 73.5707 46.1419 73.5901 40.5124 73.5901C34.8829 73.5901 30.3193 73.5707 30.3193 73.548C30.3193 73.5253 34.8829 73.5059 40.5124 73.5059C46.1419 73.5059 50.7054 73.5221 50.7054 73.548Z" fill="#455A64"/>
<path d="M42.4485 21.2236H36.9389C36.7564 21.2236 36.6084 21.3716 36.6084 21.5541V21.7923C36.6084 21.9748 36.7564 22.1227 36.9389 22.1227H42.4485C42.631 22.1227 42.779 21.9748 42.779 21.7923V21.5541C42.779 21.3716 42.631 21.2236 42.4485 21.2236Z" fill="#455A64"/>
<path d="M44.2757 21.674C44.2757 21.7631 44.2493 21.8501 44.1998 21.9242C44.1503 21.9983 44.08 22.056 43.9977 22.0901C43.9154 22.1242 43.8249 22.1331 43.7375 22.1157C43.6501 22.0983 43.5699 22.0554 43.5069 21.9924C43.4439 21.9295 43.401 21.8492 43.3837 21.7619C43.3663 21.6745 43.3752 21.5839 43.4093 21.5016C43.4434 21.4194 43.5011 21.349 43.5752 21.2995C43.6492 21.25 43.7363 21.2236 43.8254 21.2236C43.8845 21.2236 43.9431 21.2353 43.9977 21.2579C44.0523 21.2805 44.102 21.3137 44.1438 21.3555C44.1856 21.3974 44.2188 21.447 44.2414 21.5016C44.2641 21.5563 44.2757 21.6149 44.2757 21.674Z" fill="#455A64"/>
<path d="M25.6089 28.2026H25.9734V35.7194H25.6089C25.3425 35.7194 25.087 35.6136 24.8987 35.4253C24.7103 35.2369 24.6045 34.9814 24.6045 34.715V29.207C24.6045 29.0751 24.6305 28.9445 24.6809 28.8227C24.7314 28.7008 24.8054 28.5901 24.8987 28.4968C24.9919 28.4036 25.1027 28.3296 25.2245 28.2791C25.3464 28.2286 25.477 28.2026 25.6089 28.2026Z" fill="#263238"/>
<path d="M25.5181 39.1246H25.8826V46.6414H25.5181C25.2517 46.6414 24.9962 46.5356 24.8079 46.3473C24.6195 46.1589 24.5137 45.9034 24.5137 45.637V40.129C24.5137 39.8627 24.6195 39.6072 24.8079 39.4188C24.9962 39.2305 25.2517 39.1246 25.5181 39.1246Z" fill="#263238"/>
<path d="M25.5441 50.2654C25.5198 50.2654 25.502 44.8092 25.502 38.0797C25.502 31.3502 25.5198 25.8925 25.5441 25.8925C25.5684 25.8925 25.5862 31.3486 25.5862 38.0797C25.5862 44.8108 25.5668 50.2654 25.5441 50.2654Z" fill="#455A64"/>
</svg>
