<svg width="22" height="22" viewBox="0 0 22 22" fill="none" xmlns="http://www.w3.org/2000/svg">
<g clip-path="url(#clip0_1778_3195)">
<path fill-rule="evenodd" clip-rule="evenodd" d="M11 22C17.0751 22 22 17.0751 22 11C22 4.92487 17.0751 0 11 0C4.92487 0 0 4.92487 0 11C0 17.0751 4.92487 22 11 22Z" fill="black"/>
<path fill-rule="evenodd" clip-rule="evenodd" d="M12.9885 7.28271V8.12886H16.3732V7.28271H12.9885ZM4.44238 6.84229L8.34816 6.88554C8.34816 6.88554 10.493 6.77242 10.7886 8.47535C11.0842 10.1783 9.70973 10.5806 9.70973 10.5806C9.70973 10.5806 11.4072 10.9662 11.1709 12.9553C10.9345 14.9443 8.61651 14.9649 8.61651 14.9649H4.44238V6.84229ZM6.21931 10.075L7.83559 10.0851C7.93903 10.0851 8.21098 10.0761 8.43468 10.0233C8.53043 10.0007 8.71677 9.93636 8.84542 9.82037C8.89884 9.7722 8.99725 9.63651 9.05404 9.47569C9.10923 9.31939 9.12358 9.13821 9.12358 9.0687C9.12358 8.94143 9.1004 8.82362 9.05404 8.71527C9.00768 8.60692 8.93814 8.5132 8.84542 8.43408C8.7527 8.35497 8.63479 8.29306 8.49168 8.24834C8.34857 8.20363 8.17825 8.18127 7.98071 8.18127L6.21931 8.17118V10.075ZM6.21931 13.4908L7.98519 13.5019C8.0982 13.5019 8.39533 13.492 8.63973 13.4336C8.74434 13.4086 8.94793 13.3375 9.08849 13.2093C9.14685 13.1561 9.25437 13.0061 9.31641 12.8284C9.37671 12.6556 9.39239 12.4554 9.39239 12.3785C9.39239 12.2379 9.36706 12.1077 9.31641 11.9879C9.26576 11.8682 9.18979 11.7646 9.08849 11.6771C8.98719 11.5897 8.85836 11.5213 8.702 11.4718C8.54565 11.4224 8.35956 11.3977 8.14375 11.3977L6.21931 11.3866V13.4908ZM13.3618 12.4089C13.3643 12.4562 13.3618 13.6228 14.3176 13.8908C15.4273 14.2018 15.9218 13.2801 15.9602 13.1733H17.4137C17.3761 13.3483 16.7853 15.7317 13.5706 14.9549C11.5973 14.4781 11.6988 12.1416 11.6988 11.9415C11.6988 11.7572 11.7067 10.777 12.5019 9.87311C13.297 8.9692 14.4291 8.9692 14.6584 8.9692C14.8877 8.9692 16.0667 8.9692 16.7853 9.76689C17.715 10.799 17.5306 12.4527 17.5306 12.4527L13.3618 12.4089ZM15.9078 11.3866C15.8965 11.2037 15.8599 11.0352 15.7979 10.881C15.7359 10.7268 15.6505 10.5933 15.5415 10.4803C15.4326 10.3674 15.302 10.2787 15.1499 10.2141C14.9978 10.1496 14.8278 10.1173 14.64 10.1173C14.4709 10.1173 14.3141 10.1514 14.1695 10.2195C14.0249 10.2876 13.8981 10.38 13.7891 10.4965C13.6802 10.613 13.5929 10.7475 13.5271 10.8998C13.4614 11.0522 13.4229 11.2145 13.4116 11.3866H15.9078Z" fill="white"/>
</g>
<defs>
<clipPath id="clip0_1778_3195">
<rect width="22" height="22" fill="white"/>
</clipPath>
</defs>
</svg>
