<svg width="22" height="22" viewBox="0 0 22 22" fill="none" xmlns="http://www.w3.org/2000/svg">
<g clip-path="url(#clip0_1778_3191)">
<path d="M11 0C4.92456 0 0 4.92456 0 11C0 17.0754 4.92525 22 11 22C17.0754 22 22 17.0754 22 11C22 4.92456 17.0754 0 11 0ZM12.4211 13.035C12.65 13.2337 12.8281 13.9342 12.8281 14.256V17.105H11.2021H9.57412C9.57412 17.105 9.57894 16.1391 9.57412 15.477C7.34662 15.9562 6.72512 14.256 6.72512 14.256C6.31812 13.442 5.91112 13.035 5.91112 13.035C5.09712 12.5517 5.91112 12.628 5.91112 12.628C6.72512 12.628 7.13212 13.442 7.13212 13.442C7.84644 14.6547 9.11763 14.4595 9.57412 14.256C9.57412 13.849 9.75219 13.2337 9.98112 13.035C8.20325 12.8349 6.72375 11.814 6.72375 9.779C6.72375 7.744 7.13212 7.337 7.53912 6.93C7.45662 6.72925 7.11631 5.98812 7.5515 4.895C7.5515 4.895 8.35106 4.895 9.16506 6.116C9.56863 5.71244 10.7931 5.709 11.2008 5.709C11.6071 5.709 12.8322 5.71244 13.2351 6.116C14.0491 4.895 14.8507 4.895 14.8507 4.895C15.2859 5.98812 14.9456 6.72925 14.8631 6.93C15.2701 7.337 15.6771 7.744 15.6771 9.779C15.6777 11.814 14.1996 12.8349 12.4211 13.035Z" fill="black"/>
</g>
<defs>
<clipPath id="clip0_1778_3191">
<rect width="22" height="22" fill="white"/>
</clipPath>
</defs>
</svg>
