<svg width="22" height="22" viewBox="0 0 22 22" fill="none" xmlns="http://www.w3.org/2000/svg">
<g clip-path="url(#clip0_1778_3186)">
<path fill-rule="evenodd" clip-rule="evenodd" d="M11 22C17.0751 22 22 17.0751 22 11C22 4.92487 17.0751 0 11 0C4.92487 0 0 4.92487 0 11C0 17.0751 4.92487 22 11 22Z" fill="black"/>
<path fill-rule="evenodd" clip-rule="evenodd" d="M8.02348 16.0685V9.35894H5.94972V16.0685H8.02348ZM8.02348 6.9807C8.01113 6.38026 7.61096 5.9231 6.96087 5.9231C6.31062 5.9231 5.88574 6.38026 5.88574 6.9807C5.88574 7.56809 6.29826 8.03848 6.936 8.03848H6.94835C7.61096 8.03848 8.02348 7.56809 8.02348 6.9807ZM11.4067 16.0685V12.2457C11.4067 12.0411 11.4215 11.8365 11.4816 11.6907C11.6461 11.2817 12.0205 10.8584 12.649 10.8584C13.4724 10.8584 13.9889 11.3257 13.9889 12.2457V16.0685H16.0766V12.1434C16.0766 10.0408 14.9542 9.06243 13.4571 9.06243C12.2295 9.06243 11.6907 9.74872 11.3915 10.2158L11.4065 9.31845H9.32235C9.35233 9.96078 9.32235 16.0685 9.32235 16.0685H11.4067Z" fill="white"/>
</g>
<defs>
<clipPath id="clip0_1778_3186">
<rect width="22" height="22" fill="white"/>
</clipPath>
</defs>
</svg>
