<svg width="22" height="22" viewBox="0 0 22 22" fill="none" xmlns="http://www.w3.org/2000/svg">
<path fill-rule="evenodd" clip-rule="evenodd" d="M11 0C17.0711 0 22 4.92895 22 11C22 17.0711 17.0711 22 11 22C4.92895 22 0 17.0711 0 11C0 4.92895 4.92895 0 11 0ZM8.987 16.8025C13.8655 16.8025 16.533 12.76 16.533 9.2565C16.533 9.141 16.533 9.0255 16.5275 8.9155C17.0445 8.5415 17.4955 8.074 17.853 7.5405C17.38 7.7495 16.8685 7.8925 16.3295 7.9585C16.8795 7.6285 17.2975 7.1115 17.4955 6.49C16.984 6.7925 16.4175 7.0125 15.8125 7.1335C15.3285 6.6165 14.641 6.2975 13.8765 6.2975C12.4135 6.2975 11.2255 7.4855 11.2255 8.9485C11.2255 9.1575 11.2475 9.361 11.297 9.5535C9.0915 9.4435 7.139 8.3875 5.83 6.7815C5.6045 7.172 5.4725 7.6285 5.4725 8.1125C5.4725 9.031 5.94 9.845 6.655 10.318C6.2205 10.307 5.8135 10.186 5.456 9.988V10.021C5.456 11.308 6.369 12.375 7.5845 12.6225C7.3645 12.683 7.128 12.716 6.886 12.716C6.7155 12.716 6.5505 12.6995 6.3855 12.6665C6.721 13.7225 7.7 14.487 8.8605 14.509C7.953 15.2185 6.809 15.642 5.566 15.642C5.3515 15.642 5.1425 15.631 4.9335 15.6035C6.094 16.3625 7.491 16.8025 8.987 16.8025Z" fill="black"/>
</svg>
