<svg width="81" height="81" viewBox="0 0 81 81" fill="none" xmlns="http://www.w3.org/2000/svg">
<path d="M67.3457 69.3733H67.8997L69.105 67.6917V66.582C69.105 66.582 69.9604 66.5302 69.8599 67.9752C69.7595 69.4203 69.868 69.0525 69.868 69.0525C69.868 69.0525 71.6824 69.0525 71.8331 69.2145C71.9433 69.3279 71.9951 71.131 72.0113 72.1078C72.0232 72.3438 71.9559 72.5769 71.8199 72.7701C71.684 72.9632 71.4873 73.1054 71.2612 73.1738C71.1979 73.1911 71.1325 73.1998 71.0668 73.1997C70.6132 73.1997 68.3015 72.832 68.3015 72.832H67.3457V69.3733Z" fill="#E0E0E0"/>
<path d="M65.7637 69.0703L66.1039 72.8514H67.0516V69.1465L65.7637 69.0703Z" fill="#E0E0E0"/>
<path d="M39.0752 12.5129L41.4566 15.9149C41.5177 15.9998 41.5984 16.0686 41.6919 16.1155C41.7854 16.1624 41.8888 16.186 41.9934 16.1843C42.098 16.1825 42.2006 16.1555 42.2925 16.1055C42.3843 16.0554 42.4627 15.9839 42.5209 15.897L44.8262 12.3557L39.0752 12.5129Z" fill="#E0E0E0"/>
<path d="M45.1151 6.81201H38.4294C37.3951 6.81201 36.5566 7.65046 36.5566 8.68473V12.5258C36.5566 13.56 37.3951 14.3985 38.4294 14.3985H45.1151C46.1494 14.3985 46.9878 13.56 46.9878 12.5258V8.68473C46.9878 7.65046 46.1494 6.81201 45.1151 6.81201Z" fill="#E0E0E0"/>
<path d="M43.8156 9.90778C43.4802 9.29704 42.9262 9.20146 42.5536 9.34078C42.2908 9.45566 42.074 9.65529 41.938 9.90778C41.8019 9.65529 41.5852 9.45566 41.3224 9.34078C40.9498 9.20146 40.3957 9.29704 40.062 9.90778C39.3654 11.1779 41.938 12.8432 41.938 12.8432C41.938 12.8432 44.5122 11.1779 43.8156 9.90778Z" fill="white"/>
<path d="M12.9271 65.5952H18.4205C19.007 65.5952 19.5695 65.8282 19.9842 66.2429C20.3989 66.6576 20.6318 67.22 20.6318 67.8065V70.5962C20.6318 71.1826 20.3989 71.7451 19.9842 72.1598C19.5695 72.5745 19.007 72.8075 18.4205 72.8075H16.9852L15.9743 74.2525C15.9171 74.3345 15.8406 74.4012 15.7516 74.4467C15.6626 74.4922 15.5638 74.5152 15.4638 74.5136C15.3638 74.512 15.2658 74.4858 15.1782 74.4375C15.0907 74.3892 15.0164 74.3201 14.9618 74.2363L14.032 72.8075H12.9271C12.3406 72.8075 11.7782 72.5745 11.3635 72.1598C10.9488 71.7451 10.7158 71.1826 10.7158 70.5962V67.8065C10.7158 67.22 10.9488 66.6576 11.3635 66.2429C11.7782 65.8282 12.3406 65.5952 12.9271 65.5952Z" fill="#E0E0E0"/>
<path d="M15.4787 67.8115V70.6562L13.4424 69.2339L15.4787 67.8115Z" fill="white"/>
<path d="M18.2037 70.8798C18.2037 70.8798 18.0693 68.8596 16.4525 68.8289H15.4189V69.6972L16.4379 69.7118C16.4379 69.7118 17.4958 69.6875 18.2037 70.8798Z" fill="white"/>
<path d="M16.2394 35.8125C16.4248 35.0299 15.9407 34.2451 15.158 34.0596C14.3754 33.8742 13.5906 34.3583 13.4051 35.141C13.2197 35.9236 13.7038 36.7084 14.4865 36.8939C15.2691 37.0793 16.054 36.5952 16.2394 35.8125Z" fill="#E0E0E0"/>
<path d="M14.8229 36.761C14.1626 36.761 13.5292 37.0233 13.0623 37.4903C12.5953 37.9572 12.333 38.5906 12.333 39.2509H17.3129C17.3129 38.5906 17.0506 37.9572 16.5836 37.4903C16.1166 37.0233 15.4833 36.761 14.8229 36.761Z" fill="#E0E0E0"/>
<path d="M55.6061 8.11943C55.6061 8.31969 55.5467 8.51545 55.4354 8.68195C55.3242 8.84845 55.166 8.97823 54.981 9.05486C54.796 9.1315 54.5924 9.15155 54.396 9.11248C54.1996 9.07341 54.0192 8.97698 53.8776 8.83538C53.736 8.69378 53.6396 8.51337 53.6005 8.31696C53.5614 8.12056 53.5815 7.91698 53.6581 7.73197C53.7348 7.54696 53.8645 7.38883 54.031 7.27757C54.1975 7.16632 54.3933 7.10693 54.5936 7.10693C54.7266 7.10672 54.8583 7.13277 54.9813 7.18357C55.1042 7.23438 55.2159 7.30895 55.31 7.40301C55.404 7.49708 55.4786 7.60878 55.5294 7.73172C55.5802 7.85465 55.6063 7.98641 55.6061 8.11943Z" fill="#E0E0E0"/>
<path d="M58.4146 10.4893C58.4146 10.6896 58.3553 10.8853 58.244 11.0518C58.1328 11.2183 57.9746 11.3481 57.7896 11.4247C57.6046 11.5014 57.401 11.5214 57.2046 11.4824C57.0082 11.4433 56.8278 11.3469 56.6862 11.2053C56.5446 11.0637 56.4482 10.8832 56.4091 10.6868C56.37 10.4904 56.3901 10.2868 56.4667 10.1018C56.5434 9.91683 56.6731 9.7587 56.8396 9.64744C57.0061 9.53619 57.2019 9.47681 57.4021 9.47681C57.6707 9.47681 57.9282 9.58348 58.1181 9.77336C58.308 9.96324 58.4146 10.2208 58.4146 10.4893Z" fill="#E0E0E0"/>
<path d="M55.6227 12.9065C55.6227 13.1068 55.5633 13.3026 55.452 13.4691C55.3408 13.6356 55.1826 13.7653 54.9976 13.842C54.8126 13.9186 54.609 13.9387 54.4126 13.8996C54.2162 13.8605 54.0358 13.7641 53.8942 13.6225C53.7526 13.4809 53.6562 13.3005 53.6171 13.1041C53.578 12.9077 53.5981 12.7041 53.6747 12.5191C53.7514 12.3341 53.8811 12.1759 54.0476 12.0647C54.2141 11.9534 54.4099 11.894 54.6102 11.894C54.8787 11.894 55.1362 12.0007 55.3261 12.1906C55.516 12.3805 55.6227 12.638 55.6227 12.9065Z" fill="#E0E0E0"/>
<path d="M54.6635 12.9681L54.5566 12.845L57.2782 10.4911L54.542 8.1826L54.6457 8.05786L57.5277 10.4895L54.6635 12.9681Z" fill="#E0E0E0"/>
<path d="M73.078 31.8735C72.6406 31.0732 71.9148 30.9501 71.4288 31.1316C71.0834 31.2812 70.7981 31.5425 70.6188 31.8735C70.4395 31.5425 70.1543 31.2812 69.8088 31.1316C69.3228 30.9501 68.5971 31.0732 68.1597 31.8735C67.2557 33.534 70.6318 35.7129 70.6318 35.7129C70.6318 35.7129 73.99 33.534 73.078 31.8735Z" fill="#E0E0E0"/>
<path d="M69.0961 39.6494C68.7834 39.0791 68.2683 38.9916 67.92 39.1212C67.6752 39.2284 67.4734 39.4143 67.3465 39.6494C67.2196 39.4143 67.0177 39.2284 66.773 39.1212C66.4263 38.9916 65.9095 39.0791 65.5985 39.6494C64.9505 40.8368 67.3465 42.3839 67.3465 42.3839C67.3465 42.3839 69.7457 40.8368 69.0961 39.6494Z" fill="#E0E0E0"/>
<path d="M71.7258 12.0449H60.9236C60.2876 12.0449 59.6776 12.2975 59.2277 12.7471C58.7778 13.1967 58.5248 13.8065 58.5244 14.4425V20.9906C58.5244 21.3056 58.5865 21.6175 58.7071 21.9085C58.8277 22.1995 59.0044 22.4638 59.2272 22.6865C59.45 22.9092 59.7145 23.0857 60.0056 23.2061C60.2967 23.3265 60.6086 23.3884 60.9236 23.3882H64.2625L66.1336 26.066C66.1929 26.1503 66.272 26.2187 66.3639 26.2653C66.4558 26.312 66.5577 26.3355 66.6607 26.3337C66.7638 26.332 66.8648 26.305 66.955 26.2553C67.0453 26.2055 67.122 26.1344 67.1785 26.0482L68.9086 23.3882H71.7258C72.0407 23.3884 72.3526 23.3265 72.6436 23.2061C72.9346 23.0857 73.1989 22.9091 73.4216 22.6864C73.6443 22.4637 73.8209 22.1993 73.9413 21.9083C74.0617 21.6174 74.1236 21.3055 74.1234 20.9906V14.4425C74.1234 14.1277 74.0614 13.8159 73.9409 13.525C73.8204 13.2341 73.6438 12.9698 73.4212 12.7472C73.1985 12.5245 72.9342 12.3479 72.6433 12.2274C72.3524 12.1069 72.0406 12.0449 71.7258 12.0449Z" fill="white"/>
<path d="M71.7258 12.0448H71.8068C71.8865 12.0453 71.966 12.0507 72.045 12.061C72.3539 12.0966 72.6522 12.1953 72.9214 12.351C73.2772 12.5526 73.5759 12.8415 73.7893 13.1903C74.0027 13.5392 74.1238 13.9366 74.1413 14.3452C74.151 14.6806 74.1413 15.0337 74.1413 15.4063C74.1413 16.9 74.1413 18.7014 74.151 20.7523C74.1609 21.0146 74.1402 21.2772 74.0894 21.5348C74.03 21.8001 73.9253 22.0533 73.78 22.2832C73.4768 22.7657 73.0152 23.1277 72.4743 23.3071C72.1949 23.3937 71.9033 23.4347 71.6108 23.4286H68.9087L68.9411 23.4107L67.9512 24.9335L67.4409 25.7192C67.3518 25.8521 67.2789 25.9833 67.1769 26.1178C67.0708 26.2536 66.9165 26.3435 66.746 26.3689C66.5746 26.3921 66.4008 26.3492 66.26 26.249C66.1908 26.1982 66.131 26.1357 66.0834 26.0643L65.9441 25.8634L65.3803 25.0534L64.2285 23.4091L64.2641 23.4269H61.0743C60.8472 23.4332 60.6201 23.4141 60.3972 23.3702C60.1758 23.3195 59.9618 23.2405 59.7605 23.1353C59.368 22.9218 59.0412 22.6051 58.8157 22.2193C58.5901 21.8336 58.4743 21.3935 58.4807 20.9467C58.4807 19.2279 58.4807 17.5706 58.4807 15.9911C58.4807 15.5959 58.4807 15.2071 58.4807 14.8215C58.4807 14.6287 58.4807 14.4392 58.4904 14.2464C58.4984 14.1507 58.5114 14.0556 58.5293 13.9613C58.552 13.8673 58.5731 13.775 58.6022 13.6843C58.7217 13.3286 58.9193 13.0042 59.1806 12.7349C59.4395 12.4726 59.7547 12.2726 60.1023 12.1501C60.1853 12.1191 60.2703 12.0937 60.3567 12.074C60.4418 12.0521 60.5285 12.0364 60.6159 12.027C60.7875 12.0082 60.9601 12.0007 61.1327 12.0043H63.9903L69.6474 12.0189H71.1848H71.5849H71.721C71.721 12.0189 71.6756 12.0189 71.5849 12.0189H71.1848H69.6474L63.9903 12.074H62.116H61.1197C60.9504 12.0702 60.781 12.0777 60.6126 12.0967C60.5273 12.1059 60.4429 12.1216 60.3599 12.1436C60.2763 12.163 60.194 12.1879 60.1137 12.2182C59.7819 12.3386 59.4814 12.5318 59.234 12.7835C58.9805 13.0446 58.7894 13.3598 58.6751 13.7053C58.646 13.7928 58.6265 13.8835 58.6038 13.9742C58.5812 14.065 58.5698 14.1573 58.5666 14.2496C58.5536 14.4359 58.5585 14.6287 58.5585 14.8199V15.9895C58.5585 17.569 58.5585 19.2295 58.5585 20.9451C58.5527 21.3768 58.6649 21.8019 58.883 22.1745C59.1011 22.547 59.4169 22.853 59.7962 23.0592C59.99 23.1614 60.1964 23.2377 60.4101 23.286C60.6271 23.3297 60.8483 23.3482 61.0695 23.3411H64.2755L64.2884 23.3589L65.4386 25.0032L66.0024 25.8132L66.1417 26.0125C66.1855 26.0758 66.2404 26.1307 66.3037 26.1745C66.4269 26.2648 66.5805 26.3034 66.7317 26.2823C66.883 26.2611 67.0201 26.1817 67.1137 26.0611C67.2012 25.9379 67.287 25.7986 67.3729 25.669C67.5468 25.4055 67.7174 25.1436 67.8848 24.8833L68.8779 23.3605L68.8892 23.3427H71.6189C71.9036 23.3508 72.1877 23.3119 72.4597 23.2277C72.9855 23.0557 73.4343 22.7049 73.7282 22.2362C73.8706 22.0138 73.9732 21.7682 74.0311 21.5105C74.0823 21.2579 74.1029 21.0001 74.0927 20.7426C74.0927 18.6933 74.0927 16.8919 74.1024 15.3966C74.1024 15.024 74.1024 14.6692 74.1024 14.3371C74.0891 14.0288 74.0153 13.726 73.8853 13.4461C73.6805 12.9955 73.3409 12.6197 72.9133 12.3704C72.6475 12.2133 72.3527 12.1113 72.0466 12.0707C71.9682 12.059 71.8893 12.0515 71.8101 12.0481L71.7258 12.0448Z" fill="#263238"/>
<path d="M66.6328 15.5295V20.004L69.8356 17.7668L66.6328 15.5295Z" fill="#C8AE7D"/>
<path d="M62.3457 20.3569C62.3457 20.3569 62.5579 17.1785 65.0997 17.1299H66.7197V18.4972L65.1175 18.5198C65.1175 18.5198 63.4473 18.481 62.3457 20.3569Z" fill="#C8AE7D"/>
<path d="M57.1228 62.9919H75.5243C76.5497 62.9919 77.3809 62.1608 77.3809 61.1354V46.8924C77.3809 45.8671 76.5497 45.0359 75.5243 45.0359H57.1228C56.0974 45.0359 55.2662 45.8671 55.2662 46.8924V61.1354C55.2662 62.1608 56.0974 62.9919 57.1228 62.9919Z" fill="white"/>
<path d="M65.4354 62.4429C65.2086 62.9921 60.8232 67.115 60.8232 67.115V62.4429H65.4354Z" fill="#455A64"/>
<path d="M63.7374 58.6828C63.7374 58.1158 63.7374 57.6428 63.7374 57.5845C63.7374 57.5845 61.821 57.403 61.6833 55.506C61.6168 54.5891 61.633 52.6872 61.6687 50.97C61.6871 50.0795 62.0402 49.2286 62.6577 48.5868C63.2753 47.9449 64.1119 47.5592 65.001 47.5065L65.1841 47.4951C67.1686 47.4951 68.2783 49.1751 68.2264 51.1579L68.1568 58.5986L64.9492 61.176L64.7159 61.155L63.7374 58.6828Z" fill="#FFBF9D"/>
<path d="M63.7344 57.5845C64.6118 57.5295 65.4551 57.2243 66.1644 56.7048C66.1644 56.7048 65.6444 58.1288 63.7344 58.0721V57.5845Z" fill="#FF9A6C"/>
<path d="M64.8974 51.788C64.9346 51.8269 65.155 51.6536 65.4725 51.6487C65.79 51.6439 66.0265 51.8026 66.0605 51.7621C66.0946 51.7216 66.0379 51.6746 65.9358 51.6001C65.798 51.5047 65.6335 51.4554 65.466 51.4592C65.2997 51.4622 65.1388 51.5191 65.0075 51.6212C64.9103 51.6989 64.8796 51.7702 64.8974 51.788Z" fill="#263238"/>
<path d="M65.1328 52.6498C65.1358 52.7167 65.165 52.7797 65.2141 52.8252C65.2632 52.8707 65.3283 52.895 65.3953 52.8928C65.4281 52.8936 65.4607 52.8879 65.4912 52.8759C65.5218 52.8639 65.5496 52.8459 65.573 52.8229C65.5964 52.7999 65.615 52.7725 65.6276 52.7422C65.6402 52.7119 65.6466 52.6793 65.6464 52.6465C65.643 52.5796 65.6137 52.5167 65.5647 52.471C65.5157 52.4253 65.4509 52.4006 65.3839 52.4019C65.351 52.4013 65.3184 52.4072 65.2878 52.4194C65.2573 52.4316 65.2295 52.4498 65.2061 52.4729C65.1827 52.496 65.1641 52.5235 65.1515 52.5539C65.139 52.5843 65.1326 52.6169 65.1328 52.6498Z" fill="#263238"/>
<path d="M64.0727 53.9865C63.9137 53.9473 63.7505 53.9282 63.5867 53.9298C63.5122 53.9298 63.4409 53.9168 63.4247 53.8666C63.414 53.7895 63.427 53.7109 63.462 53.6414C63.5203 53.4583 63.5819 53.2639 63.6483 53.0614C63.9059 52.2352 64.0873 51.5565 64.0533 51.5467C64.0193 51.537 63.7844 52.1947 63.5268 53.0258C63.4652 53.2283 63.4053 53.4227 63.3502 53.609C63.3086 53.7017 63.3012 53.8061 63.3291 53.9038C63.3413 53.9295 63.3591 53.952 63.3813 53.9697C63.4035 53.9874 63.4294 53.9998 63.4571 54.0059C63.4992 54.0143 63.5422 54.0176 63.5851 54.0156C63.7482 54.0282 63.9123 54.0184 64.0727 53.9865Z" fill="#263238"/>
<path d="M65.0546 50.7674C65.0854 50.8387 65.3398 50.7885 65.6443 50.8095C65.9489 50.8306 66.1984 50.8986 66.234 50.8306C66.2502 50.7998 66.2032 50.7334 66.1012 50.6686C65.9658 50.5907 65.8141 50.5458 65.6582 50.5373C65.5023 50.5289 65.3466 50.5572 65.2037 50.62C65.0951 50.6735 65.0417 50.735 65.0546 50.7674Z" fill="#263238"/>
<path d="M62.0758 50.9489C62.1082 51.0072 62.3577 50.9489 62.6574 50.9408C62.9571 50.9327 63.2065 50.9764 63.2389 50.9165C63.2535 50.889 63.2049 50.8371 63.1012 50.7901C62.9608 50.7319 62.8093 50.7048 62.6574 50.7108C62.5037 50.7131 62.3523 50.7485 62.2135 50.8144C62.1098 50.8679 62.0612 50.9214 62.0758 50.9489Z" fill="#263238"/>
<path d="M68.1533 52.5721C68.1841 52.5559 69.4347 52.1071 69.472 53.408C69.5093 54.7088 68.1938 54.4772 68.1906 54.4399C68.1873 54.4027 68.1533 52.5721 68.1533 52.5721Z" fill="#FFBF9D"/>
<path d="M68.5745 53.9363C68.5745 53.9363 68.5972 53.9525 68.6361 53.9687C68.6906 53.9908 68.7516 53.9908 68.8062 53.9687C68.9422 53.9136 69.0508 53.6933 69.0508 53.4584C69.0513 53.3464 69.027 53.2358 68.9795 53.1344C68.9659 53.0939 68.9427 53.0574 68.912 53.0277C68.8813 52.9981 68.8439 52.9764 68.8029 52.9643C68.7767 52.958 68.7491 52.9612 68.7251 52.9733C68.701 52.9855 68.6821 53.0058 68.6717 53.0307C68.6555 53.068 68.6717 53.0923 68.6571 53.0955C68.6425 53.0987 68.628 53.0744 68.6377 53.021C68.6442 52.9883 68.6613 52.9588 68.6863 52.9367C68.7035 52.9225 68.7235 52.912 68.7449 52.9059C68.7664 52.8998 68.7889 52.8981 68.811 52.9011C68.8646 52.9105 68.9149 52.9332 68.9574 52.9672C68.9999 53.0012 69.0331 53.0453 69.054 53.0955C69.1116 53.2072 69.1416 53.3311 69.1415 53.4568C69.1415 53.7192 69.0135 53.9671 68.8272 54.027C68.7926 54.0384 68.7558 54.0418 68.7196 54.0371C68.6834 54.0323 68.6488 54.0194 68.6182 53.9995C68.5777 53.9671 68.5696 53.946 68.5745 53.9363Z" fill="#FF9A6C"/>
<path d="M64.4762 55.0927C64.4616 55.0603 64.7176 54.9874 64.9006 54.7493C64.9769 54.6457 65.039 54.5324 65.0853 54.4124C65.1242 54.3184 65.1533 54.2601 65.1679 54.2649C65.1825 54.2698 65.176 54.333 65.155 54.4269C65.1253 54.5643 65.0661 54.6937 64.9816 54.806C64.8945 54.918 64.7786 55.0042 64.6463 55.0555C64.5458 55.1025 64.4762 55.1041 64.4762 55.0927Z" fill="#263238"/>
<path d="M69.9096 50.4889C69.6439 50.0256 69.5856 49.478 69.4463 48.9645C69.307 48.4509 69.0267 47.9163 68.5277 47.7316H68.5164C68.0677 47.5437 67.512 47.534 67.1378 47.8434C67.0552 47.1662 66.4703 46.6219 65.8126 46.4405C65.1549 46.2591 64.0954 46.3498 63.4588 46.6025C62.9728 46.792 62.4868 47.1906 61.9068 47.7754C61.6611 48.0219 61.4357 48.2879 61.2329 48.5708L60.6367 50.3334L61.1227 51.2681C61.1519 51.3329 61.181 51.3961 61.2167 51.4593L61.6346 53.4227C61.6703 52.8897 61.6557 51.0316 61.6897 50.4986C62.0914 50.4916 62.4875 50.4037 62.8544 50.24C63.2213 50.0763 63.5514 49.8403 63.8249 49.546C64.1197 49.222 64.3546 48.8251 64.7467 48.6372C65.2537 48.3942 65.8499 48.5838 66.378 48.7733L66.3553 48.7539C66.6303 48.885 66.8774 49.0682 67.0827 49.2933C66.9498 50.3467 67.0454 51.4164 67.363 52.4296C67.4116 52.5819 67.5428 52.8962 67.687 52.9545C67.9786 53.0712 68.0612 52.7747 68.2378 52.6192C68.3945 52.5145 68.584 52.4707 68.7707 52.496C68.9229 52.0554 69.0479 51.6058 69.145 51.1498C69.321 51.207 69.508 51.222 69.6909 51.1936L69.5289 50.7902C69.5977 50.8421 69.6766 50.879 69.7606 50.8987C69.8027 50.9074 69.8465 50.9031 69.8862 50.8863C69.9258 50.8695 69.9594 50.8411 69.9825 50.8048C70.0311 50.7059 69.9647 50.5845 69.9096 50.4889Z" fill="#263238"/>
<path d="M66.5381 48.0571C66.6054 48.1108 66.6683 48.1699 66.726 48.2337C66.8734 48.417 66.9711 48.6351 67.0095 48.8671C67.0403 49.0272 67.0544 49.1901 67.0516 49.3531C67.0516 49.5281 67.0338 49.7144 67.0176 49.912C66.9975 50.1187 66.99 50.3265 66.9949 50.5341C67.001 50.6428 67.014 50.751 67.0338 50.8581C67.0486 50.9754 67.0932 51.087 67.1634 51.1821C67.1962 51.2193 67.238 51.2475 67.2848 51.264C67.3316 51.2804 67.3818 51.2846 67.4307 51.2761C67.524 51.2594 67.6093 51.2128 67.6737 51.1432C67.7787 51.001 67.8436 50.8331 67.8616 50.6572H67.8227C67.8779 50.8009 67.9538 50.9357 68.0479 51.0574C68.1387 51.1708 68.27 51.2446 68.414 51.2631C68.481 51.2712 68.5488 51.2605 68.6101 51.2323C68.6666 51.2033 68.7134 51.1582 68.7445 51.1027C68.7725 51.0534 68.787 50.9975 68.7866 50.9407C68.7857 50.8857 68.765 50.8328 68.7283 50.7917L68.7073 50.8095C68.8189 50.9399 68.9562 51.0458 69.1106 51.1205C69.1517 51.1399 69.1939 51.1567 69.237 51.1708C69.2514 51.177 69.2667 51.1809 69.2824 51.1821L69.2402 51.1643C69.2111 51.1513 69.1706 51.1351 69.1171 51.1076C68.9681 51.0288 68.836 50.9215 68.7283 50.7917L68.7089 50.8095C68.7392 50.8499 68.7562 50.8987 68.7576 50.9492C68.7591 50.9996 68.7449 51.0493 68.717 51.0914C68.6892 51.1413 68.6468 51.1814 68.5955 51.2064C68.5397 51.2317 68.4779 51.2407 68.4173 51.2323C68.2838 51.213 68.1627 51.1435 68.0787 51.0379C67.9878 50.9181 67.9142 50.7862 67.86 50.6459L67.8341 50.5843L67.8211 50.6491C67.8018 50.8154 67.7399 50.9739 67.6413 51.1092C67.5837 51.1711 67.5075 51.2126 67.4242 51.2275C67.3828 51.2354 67.34 51.2322 67.3002 51.2182C67.2603 51.2043 67.2249 51.1801 67.1974 51.1481C67.1321 51.0603 67.0907 50.957 67.0775 50.8484C67.0566 50.7415 67.0436 50.6332 67.0387 50.5244C67.0335 50.3184 67.04 50.1124 67.0581 49.9072C67.0727 49.7095 67.0889 49.5216 67.0889 49.345C67.0892 49.1818 67.0729 49.019 67.0403 48.859C66.9988 48.6231 66.8947 48.4027 66.739 48.2208C66.6814 48.1556 66.6136 48.1003 66.5381 48.0571Z" fill="#455A64"/>
<path d="M60.6484 49.8278C60.6484 49.8278 60.6484 49.8278 60.663 49.8407L60.71 49.8764C60.7352 49.8955 60.7617 49.9128 60.7894 49.9282C60.8262 49.9514 60.8647 49.972 60.9044 49.9898C61.1568 50.1102 61.4351 50.1658 61.7144 50.1518C62.1292 50.1296 62.5286 49.9878 62.8646 49.7435C63.2698 49.4414 63.6094 49.06 63.8625 48.6225C64.0035 48.3957 64.1185 48.1608 64.2448 47.9453C64.3614 47.7353 64.507 47.5428 64.6774 47.3735C64.8311 47.2212 65.0204 47.1098 65.2282 47.0495C65.3222 47.0248 65.4195 47.0149 65.5165 47.0203C65.6061 47.0266 65.6944 47.0451 65.779 47.0754C65.9255 47.1274 66.0592 47.2103 66.171 47.3184C66.2565 47.3993 66.3277 47.4941 66.3816 47.5987C66.4232 47.6902 66.4553 47.7857 66.4772 47.8838C66.4776 47.8773 66.4776 47.8708 66.4772 47.8643C66.4772 47.8481 66.4772 47.8287 66.4772 47.806C66.4615 47.732 66.4382 47.6598 66.4075 47.5906C66.3545 47.483 66.2838 47.385 66.1986 47.3006C66.0205 47.1179 65.7822 47.0062 65.5279 46.9863C65.4271 46.9793 65.3258 46.9892 65.2282 47.0155C65.014 47.074 64.8179 47.1854 64.6579 47.3395C64.4839 47.51 64.3355 47.7048 64.2173 47.9178C64.0893 48.1365 63.9743 48.3698 63.8334 48.595C63.5834 49.0276 63.249 49.4055 62.85 49.7063C62.519 49.9485 62.1254 50.0908 61.716 50.1161C61.4413 50.1338 61.1663 50.0855 60.9141 49.9752C60.7343 49.8958 60.6517 49.8213 60.6484 49.8278Z" fill="#455A64"/>
<path d="M61.9988 51.8689C62.0361 51.9078 62.258 51.7345 62.5755 51.7312C62.8931 51.728 63.128 51.8851 63.162 51.8446C63.196 51.8041 63.1409 51.7555 63.0372 51.6826C62.8994 51.5873 62.735 51.5379 62.5674 51.5417C62.4012 51.5453 62.2405 51.6021 62.109 51.7037C62.0134 51.7798 61.981 51.8527 61.9988 51.8689Z" fill="#263238"/>
<path d="M62.4854 52.6936C62.4887 52.7605 62.518 52.8234 62.567 52.8691C62.616 52.9148 62.6808 52.9396 62.7478 52.9382C62.7807 52.9389 62.8134 52.9329 62.8439 52.9207C62.8744 52.9086 62.9022 52.8904 62.9256 52.8673C62.9491 52.8442 62.9676 52.8166 62.9802 52.7862C62.9928 52.7558 62.9991 52.7232 62.9989 52.6904C62.9955 52.6236 62.9662 52.5608 62.9172 52.5154C62.8681 52.47 62.8033 52.4456 62.7365 52.4474C62.7037 52.4465 62.671 52.4522 62.6405 52.4642C62.6099 52.4762 62.5821 52.4943 62.5587 52.5172C62.5353 52.5402 62.5167 52.5677 62.5041 52.598C62.4915 52.6283 62.4851 52.6608 62.4854 52.6936Z" fill="#263238"/>
<path d="M61.398 48.3521C61.236 48.5659 60.9881 48.7603 60.7225 48.7311C60.626 48.7108 60.5312 48.6832 60.439 48.6485C60.3466 48.7052 60.3677 49.0227 60.439 49.1102C60.4992 49.1845 60.5659 49.2533 60.6382 49.316C60.3256 49.478 60.0421 49.4018 59.71 49.2803C59.7434 49.5642 59.8507 49.8344 60.0213 50.0638C60.1919 50.2933 60.4197 50.4739 60.682 50.5876C60.7622 50.6307 60.8514 50.654 60.9424 50.6557C61.0334 50.6574 61.1235 50.6374 61.2052 50.5974C61.3307 50.495 61.4134 50.3494 61.4369 50.1891C61.5856 49.6198 61.664 49.0344 61.6702 48.446L61.398 48.3521Z" fill="#263238"/>
<path d="M59.3958 60.8243L59.4299 60.7806C60.9494 59.1719 63.7472 58.6341 63.7472 58.6341C63.7472 58.6341 63.9189 59.6871 65.487 59.8054C67.0552 59.9236 68.2022 58.3198 68.2022 58.3198L70.3082 58.6179C70.3082 58.6179 71.3612 58.7426 72.0156 59.1282C73.4931 59.9965 74.2836 62.9919 74.2836 62.9919L58.1484 63.0583L59.3958 60.8243Z" fill="#455A64"/>
<path d="M57.9201 45.0359L57.8067 45.044L57.6674 45.0537C57.6123 45.0537 57.5492 45.0715 57.4763 45.0829C57.0493 45.1556 56.6473 45.3338 56.3066 45.6013C56.0583 45.7949 55.8465 46.0314 55.6813 46.2995C55.4821 46.621 55.355 46.9819 55.3087 47.3573C55.2871 47.5683 55.2795 47.7804 55.286 47.9924C55.286 48.2111 55.286 48.4395 55.286 48.6728C55.286 49.1426 55.286 49.6448 55.286 50.1664C55.286 52.2724 55.286 54.8126 55.2941 57.714C55.2941 58.4398 55.2941 59.1871 55.2941 59.9561C55.2941 60.1472 55.2941 60.3416 55.3055 60.5328C55.3199 60.726 55.3546 60.9171 55.4091 61.103C55.5262 61.4814 55.7279 61.8282 55.9988 62.1172C56.2727 62.4166 56.6143 62.646 56.9951 62.7862L57.1393 62.8381L57.2883 62.8769C57.3886 62.9018 57.4903 62.9202 57.5929 62.932C57.8012 62.9519 58.0106 62.9595 58.2198 62.9547H60.854V62.992C60.854 64.2961 60.854 65.6876 60.854 67.1149L60.7875 67.0857C61.4701 66.4377 62.1629 65.7735 62.866 65.0931C63.5658 64.4062 64.2819 63.7096 64.9639 62.9644L64.9769 62.9515H74.4263C74.5997 62.9515 74.7714 62.9515 74.9399 62.9417C75.4445 62.8992 75.9259 62.7106 76.3252 62.3991C76.7245 62.0875 77.0244 61.6665 77.1884 61.1873C77.2924 60.8741 77.3412 60.5452 77.3326 60.2153V59.2109C77.3326 56.5622 77.3326 54.0058 77.3326 51.571C77.3326 50.3549 77.3326 49.1669 77.3326 48.007C77.344 47.723 77.3266 47.4386 77.2808 47.1581C77.2227 46.8859 77.1232 46.6242 76.9859 46.3821C76.8502 46.1435 76.6768 45.9285 76.4724 45.7454C76.274 45.563 76.0476 45.4136 75.8017 45.3032C75.5605 45.1925 75.3037 45.1198 75.0403 45.0877C74.779 45.0656 74.5167 45.058 74.2546 45.065H72.7172H69.8271L61.1067 45.0521L58.735 45.044H61.1067L69.8271 45.031H72.7172H74.2546C74.5199 45.0241 74.7855 45.0317 75.05 45.0537C75.3201 45.0863 75.5835 45.1606 75.8309 45.274C76.0838 45.387 76.3169 45.5402 76.521 45.7276C76.7306 45.9139 76.9089 46.1327 77.0491 46.3756C77.1898 46.6244 77.292 46.8932 77.352 47.1727C77.4003 47.4578 77.4188 47.7472 77.4071 48.0361C77.4071 49.1896 77.4071 50.3776 77.4071 51.6001C77.4071 54.0301 77.4071 56.5913 77.4071 59.24V60.238C77.4163 60.5788 77.3665 60.9186 77.2597 61.2424C77.086 61.7278 76.7766 62.1532 76.3682 62.4679C75.9599 62.7827 75.4697 62.9736 74.9561 63.0179C74.7795 63.0308 74.6061 63.0308 74.4344 63.0292H65.0044L65.0352 63.0163C64.3483 63.7631 63.6323 64.4597 62.9292 65.1466C62.2261 65.8334 61.5295 66.496 60.8475 67.1392L60.7794 67.2023V67.11C60.7794 65.6828 60.7794 64.2912 60.7794 62.9871L60.8183 63.026H58.2263C58.0138 63.0321 57.8012 63.0246 57.5897 63.0033C57.4846 62.992 57.3806 62.9725 57.2786 62.945L57.1247 62.9061L56.9757 62.8526C56.5847 62.7075 56.2338 62.4715 55.9518 62.1641C55.6754 61.8658 55.4695 61.5093 55.3492 61.1209C55.2932 60.9303 55.2579 60.7342 55.2439 60.536C55.2293 60.3384 55.2342 60.1456 55.2342 59.9545C55.2342 59.1855 55.2342 58.4381 55.2342 57.7124C55.2342 54.811 55.2342 52.2676 55.2423 50.1648C55.2423 49.6383 55.2423 49.141 55.2423 48.6712C55.2423 48.4379 55.2423 48.2095 55.2423 47.9908C55.2363 47.7772 55.2445 47.5634 55.2666 47.3509C55.3115 47.0032 55.4247 46.6678 55.5995 46.3639C55.7744 46.0601 56.0075 45.7937 56.2856 45.5802C56.6304 45.3127 57.0371 45.1366 57.4682 45.0683C57.5411 45.0586 57.6042 45.0456 57.6609 45.0424H57.8003L57.9201 45.0359Z" fill="#263238"/>
<path d="M7.81513 27.8171L30.1015 27.8171C31.3549 27.8171 32.3711 26.801 32.3711 25.5475V8.30748C32.3711 7.054 31.3549 6.03786 30.1015 6.03786L7.81513 6.03786C6.56166 6.03786 5.54551 7.054 5.54551 8.30748L5.54551 25.5475C5.54551 26.801 6.56166 27.8171 7.81513 27.8171Z" fill="white"/>
<path d="M17.8797 27.1514C17.6043 27.8172 12.2842 32.8214 12.2842 32.8214V27.1514H17.8797Z" fill="#455A64"/>
<path d="M24.3869 15.5959C24.3998 14.4619 24.5796 13.3279 24.5359 12.1939C24.4922 11.0599 24.1925 9.87568 23.4019 9.06244C22.6113 8.2492 21.2343 7.92844 20.3077 8.59426L20.1182 9.56626C20.4832 13.9478 20.8482 18.3288 21.2133 22.7093C21.2603 23.2844 21.3121 23.8773 21.5745 24.3909C21.837 24.9044 22.3619 25.3305 22.9386 25.2948C23.6919 25.2495 24.1876 24.4848 24.4209 23.7672C25.2714 21.1541 24.3528 18.3353 24.3869 15.5959Z" fill="#263238"/>
<path d="M21.6547 9.70543C21.5033 9.41683 21.3088 9.15298 21.078 8.92297C20.961 8.80907 20.8198 8.72297 20.665 8.67109C20.5102 8.61921 20.3457 8.60286 20.1837 8.62327C20.1074 8.63274 20.0348 8.66151 19.9727 8.70686C19.9106 8.75222 19.8611 8.81266 19.8289 8.88247C19.7787 9.02827 19.8856 9.22105 20.0395 9.20647L20.0719 9.23401C20.4121 9.53533 20.7572 9.83017 21.1104 10.1169C21.1939 10.195 21.2918 10.2561 21.3987 10.2967C21.4536 10.3174 21.5132 10.322 21.5706 10.31C21.628 10.2979 21.6808 10.2697 21.7227 10.2287C21.8426 10.0894 21.7503 9.86905 21.6547 9.70543Z" fill="#C8AE7D"/>
<path d="M22.2955 10.8218C21.1615 9.4367 19.6435 8.64128 17.8551 8.6105C16.8474 8.5943 16.4295 8.80328 15.7037 8.9993C14.9754 9.17592 14.3325 9.60317 13.8877 10.2062C13.3741 10.9368 12.9416 11.7549 12.8444 12.6443C12.7472 13.5337 12.6435 14.4684 12.7132 15.3902C12.7828 16.312 13.0372 17.2273 13.5685 17.9709L15.8981 18.3742C17.1844 18.418 18.4901 18.4601 19.7407 18.1669C20.9914 17.8737 22.2129 17.1949 22.8835 16.1014C23.8134 14.5689 23.4279 12.2053 22.2955 10.8218Z" fill="#263238"/>
<path d="M15.8887 22.5018C15.9049 21.6918 15.9325 20.6599 15.9325 20.6647C15.9325 20.6696 14.0338 20.4557 13.5025 18.0209C13.2416 16.8107 13.193 14.8052 13.206 13.1609C13.2173 11.6834 14.4761 9.66978 16.3018 9.6633L17.1118 9.56934L20.2157 10.8038C20.4322 10.815 20.6365 10.9069 20.7886 11.0613C20.9406 11.2157 21.0293 11.4215 21.0371 11.6381L21.1537 22.3414L19.1644 25.664L15.6004 22.91L15.8887 22.5018Z" fill="#B56760"/>
<path d="M17.1585 17.4523C17.1414 17.3259 17.0779 17.2104 16.9803 17.1283C16.8914 17.0516 16.7796 17.0065 16.6624 17.0001C16.5452 16.9936 16.4291 17.0262 16.3323 17.0927C16.2322 17.1696 16.1545 17.2719 16.1072 17.389C16.0599 17.506 16.0448 17.6336 16.0634 17.7585C16.117 17.8333 16.1859 17.8958 16.2655 17.9419C16.3451 17.9879 16.4336 18.0166 16.5251 18.0258H16.611C16.7568 18.0225 16.8961 17.9647 17.0014 17.8638C17.0564 17.8111 17.099 17.7468 17.1261 17.6757C17.1533 17.6045 17.1644 17.5282 17.1585 17.4523Z" fill="#8A4A43"/>
<path d="M14.1924 15.066C14.1958 15.1487 14.2317 15.2266 14.2925 15.2828C14.3532 15.339 14.4337 15.3688 14.5164 15.3657C14.5562 15.3664 14.5958 15.3591 14.6328 15.3443C14.6698 15.3296 14.7035 15.3076 14.732 15.2798C14.7605 15.2519 14.7832 15.2186 14.7987 15.182C14.8142 15.1453 14.8224 15.1059 14.8226 15.066C14.8168 14.9841 14.7802 14.9074 14.72 14.8514C14.6599 14.7955 14.5807 14.7645 14.4986 14.7647C14.4586 14.764 14.4189 14.7714 14.3818 14.7862C14.3446 14.8011 14.3108 14.8232 14.2823 14.8512C14.2539 14.8792 14.2312 14.9127 14.2158 14.9496C14.2003 14.9864 14.1924 15.026 14.1924 15.066Z" fill="#263238"/>
<path d="M13.77 13.9838C13.8121 14.0227 14.0405 13.8332 14.3791 13.8218C14.7177 13.8105 14.9769 13.9595 15.0109 13.9174C15.0449 13.8753 14.9834 13.8251 14.8716 13.7554C14.7192 13.6615 14.5415 13.6173 14.3629 13.629C14.1854 13.6374 14.0151 13.7021 13.8769 13.8137C13.7797 13.8899 13.7489 13.966 13.77 13.9838Z" fill="#263238"/>
<path d="M15.9474 16.6424C15.7654 16.5954 15.5781 16.572 15.3902 16.5728C15.3027 16.5728 15.2201 16.555 15.2022 16.4983C15.1893 16.4089 15.2046 16.3177 15.246 16.2374L15.4647 15.5651C15.7692 14.6077 15.9847 13.822 15.9507 13.8107C15.9167 13.7993 15.6267 14.564 15.3302 15.523L15.118 16.2002C15.0691 16.3074 15.0599 16.4286 15.0921 16.542C15.106 16.5719 15.1267 16.5982 15.1526 16.6188C15.1785 16.6393 15.2088 16.6535 15.2411 16.6603C15.2895 16.6712 15.339 16.6755 15.3885 16.6732C15.5754 16.6866 15.7632 16.6762 15.9474 16.6424Z" fill="#263238"/>
<path d="M15.9329 20.6648C17.0898 20.6181 18.2113 20.252 19.1729 19.6069C19.1729 19.6069 18.3904 21.3565 15.9199 21.2626L15.9329 20.6648Z" fill="#8A4A43"/>
<path d="M16.9561 16.8206C16.901 16.8206 16.9205 17.1884 16.6208 17.4686C16.3211 17.7489 15.9258 17.7278 15.9258 17.7797C15.9258 17.804 16.0165 17.8461 16.1834 17.8429C16.3987 17.8328 16.6038 17.748 16.7633 17.6031C16.9154 17.463 17.0082 17.27 17.0225 17.0636C17.0274 16.9065 16.982 16.8174 16.9561 16.8206Z" fill="#263238"/>
<path d="M13.8845 12.798C13.9461 12.8774 14.2085 12.8078 14.5066 12.8159C14.8047 12.824 15.0671 12.8904 15.1287 12.8159C15.1562 12.777 15.1189 12.6992 15.0104 12.6215C14.86 12.528 14.687 12.4775 14.51 12.4752C14.333 12.4729 14.1587 12.519 14.006 12.6085C13.8958 12.6814 13.857 12.7592 13.8845 12.798Z" fill="#263238"/>
<path d="M18.048 14.9785C18.0507 15.0608 18.0209 15.1409 17.9652 15.2014C17.9095 15.262 17.8322 15.2983 17.7499 15.3025C17.7104 15.3056 17.6705 15.3009 17.6328 15.2885C17.595 15.2762 17.5601 15.2565 17.53 15.2306C17.4999 15.2047 17.4752 15.1731 17.4573 15.1376C17.4395 15.1022 17.4288 15.0635 17.4259 15.0239C17.4233 14.9416 17.453 14.8616 17.5088 14.801C17.5645 14.7404 17.6418 14.7041 17.724 14.6999C17.7636 14.6968 17.8034 14.7016 17.8412 14.7139C17.8789 14.7263 17.9139 14.7459 17.944 14.7718C17.9741 14.7977 17.9988 14.8293 18.0166 14.8648C18.0345 14.9003 18.0452 14.9389 18.048 14.9785Z" fill="#263238"/>
<path d="M18.3541 13.8527C18.3152 13.8948 18.0738 13.7215 17.7352 13.7296C17.3966 13.7377 17.1504 13.9094 17.1115 13.8689C17.0726 13.8284 17.1326 13.7766 17.2395 13.6956C17.3846 13.5916 17.5583 13.5351 17.7368 13.5336C17.9133 13.5307 18.0861 13.5834 18.2309 13.6842C18.3362 13.7604 18.3735 13.8349 18.3541 13.8527Z" fill="#263238"/>
<path d="M18.1442 12.7672C18.0794 12.845 17.8202 12.7672 17.4962 12.7672C17.1722 12.7672 16.9162 12.8288 16.8482 12.7494C16.8206 12.7105 16.8611 12.6328 16.9761 12.5583C17.1342 12.4674 17.3136 12.4205 17.4959 12.4222C17.6781 12.4239 17.8566 12.4742 18.0129 12.568C18.1442 12.6506 18.1798 12.7284 18.1442 12.7672Z" fill="#263238"/>
<path d="M20.6244 15.7659C20.6147 15.5829 20.801 15.139 20.9808 15.1017C21.4668 14.9997 22.3302 14.9916 22.4048 16.2147C22.5084 17.8881 20.8074 17.6468 20.801 17.5998C20.7945 17.5528 20.6568 16.3961 20.6244 15.7659Z" fill="#B56760"/>
<path d="M21.2217 16.9599C21.2217 16.9599 21.2525 16.9777 21.3027 16.9971C21.3729 17.0251 21.4512 17.0251 21.5214 16.9971C21.6931 16.921 21.8243 16.631 21.8146 16.3297C21.8118 16.1829 21.7752 16.0388 21.7077 15.9085C21.6888 15.8571 21.6577 15.811 21.6171 15.7743C21.5764 15.7376 21.5275 15.7114 21.4744 15.6979C21.4411 15.6924 21.407 15.6984 21.3775 15.7149C21.3481 15.7314 21.3252 15.7574 21.3124 15.7886C21.293 15.8372 21.3124 15.8696 21.2962 15.8728C21.28 15.8761 21.2589 15.8469 21.2687 15.7773C21.2748 15.7354 21.2955 15.697 21.327 15.6687C21.372 15.6305 21.4301 15.6113 21.489 15.6153C21.5591 15.6245 21.6257 15.6516 21.6824 15.6938C21.7391 15.7361 21.784 15.7921 21.813 15.8566C21.8938 15.9968 21.9383 16.155 21.9426 16.3167C21.9523 16.6553 21.8 16.9809 21.5619 17.0652C21.5179 17.0814 21.4708 17.0874 21.4242 17.0827C21.3776 17.0779 21.3327 17.0625 21.293 17.0376C21.2298 17.0004 21.2217 16.9631 21.2217 16.9599Z" fill="#8A4A43"/>
<path d="M21.0486 15.1066L20.6242 15.5521C18.792 13.7895 15.1988 9.3961 15.3997 9.65206C16.2363 9.33879 17.1381 9.24075 18.0225 9.36694C19.3881 9.60022 21.9769 10.2822 21.938 11.8925C21.8991 13.5028 21.0486 15.1066 21.0486 15.1066Z" fill="#263238"/>
<path d="M23.4801 14.742C23.4753 14.7087 23.4666 14.676 23.4542 14.6448C23.4243 14.5536 23.3863 14.4652 23.3408 14.3807C23.1679 14.0703 22.929 13.8015 22.6409 13.5934C22.214 13.2887 21.7378 13.0596 21.2332 12.9162C20.6726 12.7348 20.0425 12.5922 19.4236 12.3266C18.8387 12.0825 18.2837 11.7722 17.7696 11.4015C17.3506 11.0975 16.9602 10.7559 16.6032 10.3809C16.3627 10.1269 16.1372 9.85914 15.9277 9.57904L15.7657 9.349C15.7472 9.3215 15.7266 9.29549 15.7041 9.27124C15.7153 9.30258 15.7311 9.33207 15.7511 9.35872C15.7867 9.4138 15.8369 9.49642 15.9131 9.59848C16.1129 9.88779 16.3327 10.1628 16.5708 10.4214C16.9247 10.8058 17.3147 11.1552 17.7356 11.4647C18.2519 11.8435 18.8115 12.1595 19.4026 12.4059C19.9985 12.6325 20.6057 12.8283 21.2218 12.9924C21.7201 13.1292 22.1921 13.3482 22.6183 13.6404C22.9031 13.8408 23.1436 14.0978 23.3246 14.3953C23.4347 14.6059 23.472 14.742 23.4801 14.742Z" fill="#455A64"/>
<path d="M22.9928 14.9997C22.998 14.8749 22.9759 14.7505 22.928 14.6352C22.8028 14.3148 22.5837 14.0398 22.2994 13.8462C21.9511 13.5854 21.4522 13.425 20.903 13.2987C20.306 13.1803 19.724 12.9955 19.168 12.7479C18.6145 12.4956 18.0948 12.1751 17.6209 11.7937C17.2337 11.4817 16.8783 11.1322 16.5598 10.7504C16.3463 10.4928 16.1488 10.2223 15.9685 9.94041L15.8275 9.70389C15.8125 9.67525 15.794 9.64859 15.7725 9.62451C15.7816 9.65524 15.7946 9.68465 15.8113 9.71199L15.9409 9.95499C16.1106 10.2469 16.3017 10.5258 16.5128 10.7893C16.8284 11.1795 17.1828 11.5367 17.5707 11.8553C18.0481 12.2439 18.5728 12.5705 19.1323 12.8273C19.6938 13.0766 20.2819 13.2608 20.8852 13.3764C21.4327 13.4963 21.922 13.6486 22.2654 13.8965C22.5438 14.0805 22.7631 14.3409 22.8972 14.6465C22.9397 14.7611 22.9717 14.8793 22.9928 14.9997Z" fill="#455A64"/>
<path d="M20.9932 17.94C20.9932 17.9286 21.1357 17.9092 21.3836 17.8444C21.7313 17.743 22.0514 17.5641 22.3199 17.3211C22.712 16.9536 23.0103 16.4976 23.1899 15.9911C23.4178 15.3722 23.5404 14.7195 23.5528 14.0601C23.5599 13.7196 23.5327 13.3793 23.4718 13.0443C23.4082 12.7342 23.3149 12.431 23.1931 12.1388C22.9819 11.643 22.689 11.1863 22.3264 10.7877C21.9838 10.4289 21.6079 10.1035 21.2038 9.81567C21.2366 9.82688 21.2677 9.8427 21.2961 9.86265C21.3544 9.89991 21.4435 9.94851 21.5488 10.0247C21.8528 10.2333 22.1331 10.4745 22.3847 10.7439C22.7618 11.1427 23.067 11.6036 23.2871 12.1064C23.4146 12.4047 23.5117 12.7152 23.5771 13.033C23.6421 13.3746 23.6709 13.7221 23.6629 14.0698C23.6512 14.7418 23.5229 15.4067 23.2838 16.0349C23.0946 16.5542 22.7809 17.0193 22.3702 17.3892C22.0915 17.6333 21.7581 17.8066 21.3982 17.8946C21.3007 17.9179 21.2016 17.9336 21.1017 17.9416C21.0656 17.9462 21.0291 17.9456 20.9932 17.94Z" fill="#455A64"/>
<path d="M10.5527 25.1879L10.5948 25.1345C12.4384 23.1905 15.8323 22.5311 15.8323 22.5311C15.8323 22.5311 16.0396 23.8077 17.9383 23.9502C19.8369 24.0928 21.2382 22.1553 21.2382 22.1553L23.7768 22.5117C23.7768 22.5117 25.0533 22.6623 25.8487 23.1289C27.6405 24.1835 28.5914 27.8172 28.5914 27.8172L9.01855 27.8966L10.5527 25.1879Z" fill="#455A64"/>
<path d="M8.76239 6.03784L8.62631 6.04756L8.46431 6.05728C8.39789 6.05728 8.32013 6.07996 8.23265 6.09292C7.71143 6.18008 7.22026 6.39615 6.80381 6.72148C6.13341 7.24376 5.69714 8.01029 5.59043 8.8534C5.56604 9.10913 5.55738 9.36611 5.56451 9.6229C5.56451 9.8902 5.56451 10.1656 5.56451 10.4507C5.56451 11.0193 5.56451 11.6236 5.56451 12.2603C5.56451 14.8118 5.56451 17.8979 5.57423 21.4165C5.57423 22.2967 5.57423 23.2034 5.57423 24.1365C5.57423 24.3681 5.57423 24.6047 5.58719 24.8363C5.60511 25.0712 5.64746 25.3036 5.71355 25.5297C5.85594 25.99 6.10075 26.412 6.42959 26.7641C6.59561 26.9428 6.78088 27.1025 6.98201 27.2404C7.18827 27.377 7.40949 27.4895 7.64135 27.5757L7.81631 27.6405L7.99775 27.6859C8.11921 27.7172 8.2426 27.7405 8.36711 27.7556C8.49185 27.775 8.61821 27.7718 8.74457 27.7799H12.3215V27.8187C12.3215 29.3982 12.3215 31.0863 12.3215 32.8181L12.2551 32.7889C13.0824 32.0081 13.9232 31.2024 14.7775 30.3719C15.6263 29.5392 16.4947 28.6935 17.3225 27.7896L17.3354 27.7766H28.7937C29.0043 27.7766 29.2133 27.7766 29.4174 27.762C30.0315 27.711 30.6175 27.482 31.1034 27.1031C31.5894 26.7241 31.9544 26.2117 32.1536 25.6285C32.2798 25.2457 32.3385 24.8439 32.3269 24.441V23.2309C32.3269 20.0168 32.3269 16.9129 32.3269 13.9629C32.3269 12.4876 32.3269 11.049 32.3269 9.6472C32.3405 9.30245 32.3188 8.95721 32.2621 8.61688C32.1943 8.28681 32.0769 7.96892 31.9138 7.67404C31.5818 7.09723 31.0784 6.63805 30.4736 6.36022C30.1806 6.22603 29.8686 6.13805 29.5486 6.0994C29.2313 6.0724 28.9128 6.06321 28.5944 6.07186H26.7298H23.2241L12.6358 6.05404L23.2144 6.04108H26.7201H28.5847C28.9057 6.03259 29.227 6.04179 29.547 6.06862C29.8743 6.10713 30.1936 6.19678 30.4931 6.3343C31.1109 6.61826 31.6254 7.08693 31.9657 7.67566C32.1375 7.97897 32.2621 8.30675 32.335 8.64766C32.3914 8.99293 32.4131 9.34297 32.3998 9.69256C32.3998 11.0966 32.3998 12.5351 32.3998 14.0082C32.3998 16.9615 32.3998 20.0622 32.3998 23.2763V24.4864C32.4118 24.8987 32.3515 25.3099 32.2216 25.7014C32.0174 26.3 31.643 26.826 31.1444 27.215C30.6457 27.604 30.0444 27.8392 29.4142 27.8916C29.2019 27.9062 28.993 27.9062 28.784 27.9046H17.3549L17.3857 27.8916C16.5546 28.7972 15.6863 29.6429 14.8358 30.4836C13.9853 31.3244 13.1396 32.0664 12.3118 32.8472L12.2438 32.912V32.8181C12.2438 31.0863 12.2438 29.3982 12.2438 27.8187L12.2827 27.856H8.74781C8.61821 27.8463 8.48861 27.856 8.36225 27.8301C8.23501 27.8146 8.10892 27.7908 7.98479 27.7588L7.79849 27.7118L7.61381 27.6438C7.37742 27.5552 7.15187 27.4399 6.94151 27.3003C6.73561 27.1592 6.54551 26.9962 6.37451 26.8143C6.04027 26.4534 5.79117 26.0222 5.64551 25.5524C5.57854 25.3214 5.53511 25.0842 5.51591 24.8444C5.50781 24.603 5.50781 24.3698 5.50781 24.1381C5.50781 23.205 5.50781 22.2983 5.50781 21.4181C5.50781 17.8995 5.50781 14.8134 5.51753 12.2619C5.51753 11.6252 5.51753 11.021 5.51753 10.4523C5.51753 10.1672 5.51753 9.89182 5.51753 9.62452C5.51157 9.36605 5.52131 9.10745 5.54669 8.85016C5.65775 7.99944 6.10169 7.22751 6.78113 6.70366C7.19939 6.37949 7.69237 6.16559 8.21483 6.08158C8.30231 6.07024 8.37683 6.05566 8.44811 6.0508L8.61011 6.0427L8.76239 6.03784Z" fill="#263238"/>
<path d="M20.4805 43.3398H4.86697C3.84612 43.3398 3.01855 44.1674 3.01855 45.1883V57.1698C3.01855 58.1906 3.84612 59.0182 4.86697 59.0182H20.4805C21.5014 59.0182 22.329 58.1906 22.329 57.1698V45.1883C22.329 44.1674 21.5014 43.3398 20.4805 43.3398Z" fill="white"/>
<path d="M13.4463 58.5388C13.6439 59.0248 17.4752 62.618 17.4752 62.618V58.5388H13.4463Z" fill="#C8AE7D"/>
<path d="M16.14 46.8181C16.0453 46.5118 15.8905 46.2273 15.6847 45.9815C15.4788 45.7356 15.2261 45.5332 14.9412 45.386C14.2979 45.0865 13.5706 45.0201 12.8838 45.1981C12.2033 45.3782 11.5565 45.6676 10.9689 46.0551C10.6229 46.2465 10.3158 46.5009 10.0633 46.8052C9.63079 47.3803 9.21607 48.3183 9.19339 49.0375C9.17395 49.6191 9.43801 51.0658 9.69883 51.5858C9.83735 51.8006 10.0363 51.9697 10.2707 52.0718C10.5502 52.5871 10.9194 53.0485 11.361 53.4342C11.4841 53.0411 11.6077 52.6474 11.7319 52.2532L16.14 46.8181Z" fill="#263238"/>
<path d="M15.785 46.1151L14.6348 45.9434C15.3022 47.4143 15.5695 50.8163 15.9729 52.3812C16.3763 51.7575 17.3029 49.8654 17.23 49.125C17.1571 48.3847 17.1409 45.9498 15.785 46.1151Z" fill="#263238"/>
<path d="M10.4316 48.7492C10.4398 48.3307 10.5821 47.9259 10.8376 47.5944C11.093 47.2628 11.4482 47.022 11.8507 46.9073L14.467 46.1605C15.601 45.9985 16.4013 47.3836 16.5098 48.524C16.6281 49.7909 16.7172 51.1306 16.5957 52.088C16.3527 54.0029 14.8995 54.2912 14.8995 54.2912C14.8995 54.2912 14.9255 55.1968 14.94 55.7492L14.514 58.2424L11.065 55.2973L10.417 48.7719C10.4235 48.7395 10.43 48.793 10.4316 48.7492Z" fill="#FFBF9D"/>
<path d="M15.9324 50.11C15.9355 50.1735 15.9135 50.2356 15.871 50.2829C15.8285 50.3303 15.7691 50.3589 15.7056 50.3627C15.6746 50.3663 15.6432 50.3636 15.6132 50.3548C15.5832 50.346 15.5553 50.3312 15.5311 50.3114C15.507 50.2916 15.487 50.2672 15.4725 50.2395C15.4579 50.2119 15.4491 50.1816 15.4464 50.1505C15.4442 50.087 15.4665 50.0251 15.5087 49.9777C15.551 49.9303 15.6099 49.9011 15.6732 49.8961C15.7044 49.8928 15.7359 49.8957 15.7658 49.9047C15.7958 49.9137 15.8237 49.9286 15.8479 49.9485C15.872 49.9684 15.8919 49.993 15.9065 50.0207C15.921 50.0484 15.9298 50.0788 15.9324 50.11Z" fill="#263238"/>
<path d="M16.2437 49.2789C16.2146 49.3113 16.025 49.1801 15.7577 49.1898C15.4904 49.1996 15.3057 49.3356 15.2717 49.3032C15.2377 49.2708 15.2863 49.232 15.3689 49.1672C15.4805 49.0852 15.6145 49.0394 15.7529 49.0359C15.8894 49.0318 16.0238 49.0709 16.1368 49.1477C16.2291 49.2077 16.2583 49.2644 16.2437 49.2789Z" fill="#263238"/>
<path d="M13.5643 50.11C13.5674 50.1735 13.5453 50.2356 13.5028 50.2829C13.4604 50.3303 13.4009 50.3589 13.3375 50.3627C13.3064 50.3663 13.275 50.3636 13.245 50.3548C13.215 50.346 13.1871 50.3312 13.163 50.3114C13.1388 50.2916 13.1188 50.2672 13.1043 50.2395C13.0897 50.2119 13.0809 50.1816 13.0783 50.1505C13.076 50.0867 13.0986 50.0246 13.1412 49.9772C13.1838 49.9298 13.2431 49.9007 13.3067 49.8961C13.3377 49.8928 13.3691 49.8957 13.399 49.9047C13.4289 49.9137 13.4567 49.9286 13.4807 49.9486C13.5047 49.9685 13.5245 49.9931 13.5389 50.0208C13.5532 50.0485 13.5619 50.0788 13.5643 50.11Z" fill="#263238"/>
<path d="M13.7473 49.3502C13.7165 49.3826 13.5286 49.2514 13.2613 49.2611C12.994 49.2708 12.8109 49.4069 12.7753 49.3745C12.7397 49.3421 12.7899 49.3033 12.8725 49.2385C12.9841 49.1565 13.1181 49.1107 13.2564 49.1072C13.393 49.1031 13.5274 49.1422 13.6404 49.219C13.7311 49.279 13.77 49.3357 13.7473 49.3502Z" fill="#263238"/>
<path d="M14.6274 51.3913C14.7654 51.3447 14.9084 51.3148 15.0535 51.3022C15.1199 51.2924 15.1831 51.2779 15.1928 51.2309C15.1962 51.1615 15.1787 51.0926 15.1426 51.0332C15.0745 50.8712 15.0032 50.7092 14.9271 50.5278C14.629 49.8085 14.4119 49.2156 14.4411 49.2043C14.4703 49.1929 14.7343 49.7664 15.0324 50.4857L15.2398 50.9944C15.2839 51.0743 15.2988 51.1671 15.2819 51.2568C15.2729 51.2808 15.2586 51.3024 15.2401 51.3201C15.2216 51.3377 15.1993 51.351 15.175 51.3589C15.1381 51.3699 15.1 51.3764 15.0616 51.3783C14.918 51.4012 14.7721 51.4055 14.6274 51.3913Z" fill="#263238"/>
<path d="M12.3525 53.6787C12.3525 53.6787 13.0103 54.9747 14.9105 54.7317L14.904 54.2846C14.0138 54.3233 13.1303 54.1135 12.3525 53.6787Z" fill="#FF9A6C"/>
<path d="M13.6374 48.4025C13.6131 48.4738 13.3506 48.4495 13.0428 48.4948C12.735 48.5402 12.4888 48.6342 12.4451 48.571C12.4256 48.5402 12.4677 48.4722 12.5666 48.3993C12.6982 48.3105 12.8482 48.2529 13.0054 48.2307C13.1626 48.2085 13.3227 48.2224 13.4738 48.2713C13.5888 48.3134 13.6471 48.3685 13.6374 48.4025Z" fill="#263238"/>
<path d="M16.1353 48.4769C16.0915 48.5385 15.9085 48.4769 15.6898 48.485C15.4711 48.4931 15.2896 48.5385 15.2443 48.4769C15.2248 48.4461 15.2524 48.3862 15.3318 48.3279C15.4377 48.2561 15.5627 48.2178 15.6906 48.2178C15.8185 48.2178 15.9435 48.2561 16.0494 48.3279C16.1272 48.3862 16.1547 48.4477 16.1353 48.4769Z" fill="#263238"/>
<path d="M15.9414 46.7987C15.8702 46.6607 15.762 46.5452 15.629 46.4651C15.496 46.385 15.3433 46.3435 15.1881 46.3451C14.8765 46.3533 14.5738 46.4512 14.3165 46.627C13.2003 47.3155 12.6625 48.9161 11.5625 49.6273C11.292 49.8006 10.9275 49.658 10.699 49.8865C10.4706 50.1149 10.3297 50.4713 10.4674 50.7629C10.3012 50.5673 10.1638 50.3492 10.0591 50.1149C10.008 49.9973 9.98252 49.8701 9.98448 49.7419C9.98644 49.6136 10.0158 49.4873 10.0705 49.3713C10.1628 49.1996 10.3297 49.0667 10.3718 48.8853C10.4139 48.7039 10.3378 48.5467 10.341 48.3766C10.3562 48.2042 10.4117 48.0377 10.503 47.8906C10.9021 47.0864 11.5125 46.406 12.2688 45.9223C12.768 45.6128 13.342 45.4448 13.9293 45.4363C14.5184 45.4334 15.089 45.6414 15.538 46.0227C15.7956 46.2495 16.0661 46.4845 15.9446 46.8052" fill="#263238"/>
<path d="M10.7322 50.1213C10.7095 50.0678 9.70507 49.7374 9.72289 50.7936C9.73909 51.8207 10.7694 51.589 10.7694 51.5599C10.7694 51.5307 10.7322 50.1213 10.7322 50.1213Z" fill="#FFBF9D"/>
<path d="M10.4461 51.1776C10.4461 51.1776 10.4283 51.1905 10.3991 51.2035C10.3559 51.2205 10.3079 51.2205 10.2647 51.2035C10.198 51.1621 10.1433 51.104 10.106 51.035C10.0688 50.9659 10.0503 50.8883 10.0525 50.8098C10.0492 50.7217 10.0647 50.6339 10.0978 50.5522C10.1073 50.5201 10.1243 50.4907 10.1474 50.4665C10.1705 50.4423 10.199 50.4239 10.2307 50.4129C10.2509 50.407 10.2726 50.4085 10.2919 50.4171C10.3112 50.4257 10.3268 50.4409 10.336 50.4599C10.3505 50.4891 10.3441 50.5085 10.3505 50.5101C10.357 50.5117 10.3716 50.4939 10.3635 50.4502C10.3567 50.4251 10.3419 50.4029 10.3214 50.387C10.2928 50.3664 10.2574 50.3577 10.2226 50.3627C10.1806 50.3719 10.1417 50.3916 10.1094 50.4199C10.0771 50.4483 10.0525 50.4843 10.0379 50.5247C9.99586 50.6142 9.97639 50.7127 9.98118 50.8114C9.97791 50.9031 10.0019 50.9938 10.05 51.0719C10.0981 51.15 10.1683 51.2121 10.2517 51.2505C10.2793 51.2574 10.3081 51.2582 10.3361 51.2529C10.3641 51.2476 10.3906 51.2363 10.4137 51.2197C10.4445 51.2019 10.451 51.1792 10.4461 51.1776Z" fill="#FF9A6C"/>
<path d="M10.3086 49.606C10.3298 49.5969 10.3499 49.5855 10.3685 49.572C10.4074 49.5461 10.4657 49.512 10.5305 49.4586C10.7282 49.3047 10.909 49.1304 11.07 48.9386C11.3029 48.6514 11.5193 48.3512 11.718 48.0395C11.9576 47.658 12.2285 47.2971 12.528 46.9605C12.6893 46.792 12.8686 46.6415 13.0626 46.5118C13.2447 46.3938 13.4405 46.2986 13.6458 46.2283C13.9934 46.1058 14.3613 46.0508 14.7296 46.0663C14.9779 46.0745 15.2241 46.1154 15.4618 46.1878C15.5461 46.2121 15.6092 46.238 15.653 46.2526L15.721 46.2753L15.6562 46.2445C15.5945 46.2166 15.5312 46.1923 15.4667 46.1716C15.2289 46.0904 14.9806 46.044 14.7296 46.0339C14.3564 46.0165 13.9834 46.0715 13.6312 46.1959C13.4224 46.2671 13.2232 46.364 13.0383 46.4843C12.8404 46.6146 12.6578 46.7667 12.494 46.9379C12.1931 47.2762 11.9221 47.6399 11.684 48.0249C11.4834 48.3365 11.2671 48.6376 11.036 48.9272C10.8838 49.1138 10.7146 49.2857 10.5305 49.4408C10.4625 49.4958 10.4042 49.5331 10.3685 49.5623L10.3086 49.606Z" fill="white"/>
<path d="M10.5755 49.8962C10.5427 50.1717 10.583 50.4511 10.6922 50.7062C10.8299 50.9524 11.1604 51.1128 11.4001 50.9654C11.5961 50.8471 11.648 50.5895 11.6755 50.3627C11.7549 49.7066 11.7792 49.044 11.8634 48.3879L10.5755 49.8962Z" fill="#263238"/>
<path d="M15.6751 46.3175C15.6751 46.3175 15.5843 46.303 15.4191 46.303C15.1868 46.3057 14.9572 46.3541 14.7436 46.4455C14.5961 46.508 14.4555 46.5857 14.324 46.6772C14.1737 46.7842 14.0304 46.9005 13.8947 47.0255C13.5798 47.3078 13.3003 47.6271 13.062 47.9764C12.9373 48.1627 12.8271 48.3539 12.7056 48.5321C12.5937 48.7053 12.4615 48.8647 12.3119 49.0067C12.0519 49.24 11.766 49.4428 11.4598 49.611C11.2022 49.7584 10.9852 49.8621 10.8361 49.935L10.6628 50.0144C10.6428 50.025 10.6216 50.0331 10.5996 50.0387C10.6176 50.025 10.6372 50.0136 10.6579 50.0047L10.8199 49.9139C10.9657 49.8362 11.1796 49.7276 11.4339 49.5786C11.7333 49.4065 12.0131 49.2022 12.2682 48.9695C12.4152 48.8298 12.5452 48.6732 12.6554 48.5029C12.7736 48.3263 12.8838 48.1352 13.0102 47.9456C13.2525 47.5902 13.5376 47.266 13.859 46.9801C13.9979 46.856 14.1439 46.7402 14.2964 46.6334C14.4311 46.541 14.5756 46.4638 14.7274 46.4034C14.9466 46.3132 15.1821 46.2696 15.4191 46.2754C15.4833 46.2777 15.5472 46.2847 15.6103 46.2965C15.6326 46.3009 15.6544 46.308 15.6751 46.3175Z" fill="#455A64"/>
<path d="M10.5298 49.2562C10.5027 49.2807 10.4728 49.3019 10.4407 49.3194L10.1848 49.4814L10.0989 49.5333C10.0651 49.5549 10.0269 49.5687 9.98712 49.5738C9.9631 49.5781 9.93834 49.5734 9.91746 49.5608C9.90616 49.5531 9.89669 49.543 9.88969 49.5313C9.8827 49.5195 9.87835 49.5064 9.87696 49.4928C9.87831 49.4454 9.89414 49.3996 9.92232 49.3616L10.2107 48.8756L10.2528 48.9128C10.1549 48.9878 10.0455 49.0464 9.9288 49.0861C9.8108 49.1251 9.6869 49.1432 9.56268 49.1396C9.53089 49.1399 9.49923 49.1356 9.46872 49.1266C9.45091 49.1223 9.43435 49.1138 9.42031 49.102C9.40627 49.0903 9.39512 49.0754 9.38772 49.0586C9.38154 49.0415 9.37949 49.0232 9.38175 49.0052C9.384 48.9872 9.39049 48.97 9.40068 48.9549C9.41795 48.9315 9.4369 48.9093 9.45738 48.8885C9.58864 48.7543 9.70093 48.6028 9.7911 48.4381C9.8728 48.2816 9.94265 48.1191 10.0001 47.9521C9.99727 47.9991 9.988 48.0454 9.97254 48.0898C9.9364 48.2142 9.8881 48.3346 9.82836 48.4495C9.7397 48.6228 9.62678 48.7827 9.49302 48.9241C9.45576 48.9614 9.4185 49.0051 9.4347 49.0359C9.4509 49.0667 9.5076 49.0829 9.56106 49.0813C9.67878 49.0846 9.79615 49.0671 9.90774 49.0294C10.0189 48.9935 10.123 48.9387 10.2155 48.8674L10.3354 48.7751L10.2577 48.9047L9.96282 49.3907C9.93987 49.4202 9.92582 49.4556 9.92232 49.4928C9.92232 49.5219 9.94986 49.5381 9.98226 49.5349C10.0478 49.5188 10.1099 49.4908 10.1653 49.4523L10.4294 49.3081C10.4602 49.286 10.494 49.2686 10.5298 49.2562Z" fill="white"/>
<path d="M13.6421 51.9048C13.6589 51.8261 13.7028 51.7559 13.7662 51.7064C13.8296 51.6569 13.9084 51.6314 13.9888 51.6343C14.0476 51.64 14.1041 51.6602 14.1533 51.6929C14.2024 51.7257 14.2428 51.7701 14.2707 51.8222C14.2974 51.8749 14.3133 51.9325 14.3175 51.9914C14.3217 52.0504 14.314 52.1096 14.295 52.1656V52.1899C14.2423 52.2506 14.1721 52.2934 14.0941 52.3126C14.0161 52.3317 13.934 52.3262 13.8592 52.2968C13.7845 52.265 13.7226 52.2091 13.6833 52.1381C13.644 52.0671 13.6295 51.985 13.6421 51.9048Z" fill="#FF9A6C"/>
<path d="M14.4808 52.1899C14.4808 52.1511 14.2151 52.1705 14.0078 51.9583C13.8004 51.7461 13.8085 51.4609 13.7713 51.4609C13.734 51.4609 13.7259 51.529 13.7308 51.6489C13.7417 51.8042 13.8064 51.9509 13.9138 52.0636C14.0173 52.1723 14.1591 52.2362 14.3091 52.2418C14.4176 52.2434 14.4841 52.2078 14.4808 52.1899Z" fill="#263238"/>
<path d="M18.7239 57.1262L18.6947 57.0873C17.3663 55.6828 14.9233 55.213 14.9233 55.213C14.9233 55.213 14.7743 56.1315 13.4054 56.2352C12.0365 56.3389 11.0289 54.9392 11.0289 54.9392L9.20313 55.1952C9.20313 55.1952 8.28297 55.3037 7.70949 55.6407C6.41349 56.3988 5.73633 59.0151 5.73633 59.0151L19.8303 59.0718L18.7239 57.1262Z" fill="#C8AE7D"/>
<path d="M20.0136 43.3399C20.0136 43.3399 20.046 43.3399 20.1108 43.3399C20.2085 43.3406 20.306 43.3493 20.4024 43.3658C20.7787 43.4267 21.1339 43.5804 21.4359 43.813C21.9254 44.1909 22.2456 44.747 22.3269 45.3601C22.3455 45.5457 22.3525 45.7324 22.348 45.919C22.348 46.1101 22.348 46.3094 22.348 46.5135C22.348 46.9234 22.348 47.3591 22.348 47.8176C22.348 49.6531 22.348 51.8757 22.3577 54.4078C22.3577 55.0406 22.3577 55.6935 22.3577 56.3663C22.3577 56.5283 22.3577 56.7017 22.3577 56.875C22.3449 57.0485 22.3134 57.2202 22.2637 57.3869C22.1597 57.727 21.9797 58.0389 21.7372 58.299C21.4909 58.5684 21.1838 58.7751 20.8414 58.9016L20.7118 58.9486L20.5773 58.9826C20.4878 59.0055 20.3969 59.0228 20.3052 59.0345C20.1204 59.0514 19.9349 59.0579 19.7495 59.0539H17.4815L17.5188 59.015C17.5188 60.149 17.5188 61.3689 17.5188 62.6147V62.707L17.4507 62.6438C16.8546 62.0844 16.2487 61.5071 15.6331 60.9121C15.0207 60.3127 14.3954 59.7035 13.796 59.0507L13.8268 59.0653H5.59231C5.44165 59.0653 5.29099 59.0653 5.13709 59.0555C4.68113 59.0175 4.24615 58.8473 3.88536 58.5659C3.52457 58.2846 3.2536 57.9041 3.10561 57.4712C3.01225 57.1881 2.96841 56.8911 2.97601 56.5931V55.7216C2.97601 53.4066 2.97601 51.1759 2.97601 49.0488C2.97601 47.9861 2.97601 46.9509 2.97601 45.9433C2.96707 45.6906 2.98335 45.4377 3.02461 45.1883C3.07712 44.9434 3.16672 44.708 3.29029 44.4901C3.53657 44.0637 3.90898 43.7241 4.35625 43.5181C4.57295 43.4196 4.80354 43.3551 5.03989 43.327C5.27043 43.3068 5.50195 43.3003 5.73325 43.3075H9.60505L17.2191 43.3205L19.2894 43.3286L17.2191 43.3367L9.60505 43.3496H7.08109H5.73811C5.50948 43.3445 5.28074 43.3515 5.05285 43.3707C4.70183 43.4154 4.36602 43.5412 4.07194 43.738C3.77785 43.9348 3.53355 44.1973 3.35833 44.5047C3.23743 44.7212 3.15056 44.9551 3.10075 45.1981C3.0602 45.4426 3.045 45.6907 3.05539 45.9384C3.05539 46.9439 3.05539 47.9791 3.05539 49.0439C3.05539 51.171 3.05539 53.4017 3.05539 55.7167V56.5883C3.04631 56.8769 3.08854 57.1649 3.18013 57.4388C3.37059 57.996 3.77028 58.4572 4.29469 58.7251C4.55883 58.8613 4.84734 58.9439 5.14357 58.9681C5.28937 58.9778 5.44003 58.9794 5.59231 58.9778H13.8446L13.8576 58.9924C14.4537 59.6404 15.079 60.2511 15.6898 60.8505C16.3005 61.4499 16.9096 62.0282 17.5058 62.5904L17.4378 62.6195C17.4378 61.3738 17.4378 60.1571 17.4378 59.0199V58.981H19.7446C19.9268 58.9865 20.1091 58.9806 20.2906 58.9632C20.3797 58.953 20.468 58.9362 20.5546 58.913L20.6859 58.8806L20.8106 58.8352C21.1431 58.7132 21.4414 58.5132 21.6805 58.252C21.9156 58.0001 22.0906 57.6983 22.1925 57.3691C22.2407 57.207 22.2716 57.0403 22.2848 56.8718C22.2961 56.7098 22.2929 56.5348 22.2929 56.368C22.2929 55.6962 22.2929 55.0433 22.2929 54.4094C22.2929 51.8773 22.2929 49.6547 22.3026 47.8192C22.3026 47.3608 22.3026 46.925 22.3026 46.5151V45.9206C22.3083 45.7357 22.3023 45.5507 22.2848 45.3665C22.223 44.8768 22.0059 44.4196 21.6654 44.0622C21.3249 43.7048 20.8788 43.4658 20.3926 43.3804C20.2976 43.3615 20.2011 43.3506 20.1043 43.348L20.0136 43.3399Z" fill="#263238"/>
<path d="M50.0583 75.5065L29.8472 75.4919C27.4172 75.4919 25.4473 73.6127 25.4473 71.2961L25.457 23.0039C25.457 20.6857 27.4301 18.8065 29.8634 18.8081L50.0761 18.8194C52.5061 18.8194 54.476 20.6986 54.476 23.0152L54.4663 71.3058C54.4647 73.6305 52.4883 75.5081 50.0583 75.5065Z" fill="#263238"/>
<path d="M50.0578 20.5334H46.1341C46.0095 20.5332 45.886 20.5575 45.7707 20.605C45.6555 20.6525 45.5507 20.7223 45.4624 20.8103C45.3741 20.8983 45.304 21.0028 45.2561 21.1179C45.2082 21.233 45.1834 21.3564 45.1832 21.4811V22.1582C45.183 22.283 45.1582 22.4066 45.1102 22.5218C45.0622 22.637 44.9919 22.7416 44.9034 22.8296C44.815 22.9176 44.71 22.9873 44.5946 23.0347C44.4791 23.0822 44.3555 23.1064 44.2306 23.1059H36.5924C36.4677 23.1061 36.3442 23.0818 36.2289 23.0343C36.1137 22.9868 36.0089 22.917 35.9206 22.829C35.8323 22.741 35.7622 22.6365 35.7143 22.5214C35.6664 22.4063 35.6416 22.2829 35.6414 22.1582V21.4794C35.6412 21.3546 35.6164 21.2311 35.5684 21.1159C35.5204 21.0007 35.4501 20.8961 35.3616 20.8081C35.2732 20.7201 35.1682 20.6503 35.0528 20.6029C34.9373 20.5555 34.8137 20.5313 34.6888 20.5317H29.8807C28.1781 20.5317 26.8027 21.8472 26.8027 23.4704L26.793 70.6124C26.793 72.2324 28.1716 73.5511 29.871 73.5511L50.0432 73.5624C51.7474 73.5624 53.1212 72.2486 53.1293 70.6254L53.139 23.4834C53.1358 21.8504 51.7555 20.535 50.0578 20.5334Z" fill="white"/>
<path d="M39.2898 32.2832C39.575 32.2628 39.8424 32.1369 40.0398 31.93C40.2372 31.7232 40.3505 31.4502 40.3575 31.1644C40.3646 30.8786 40.265 30.6003 40.0781 30.384C39.8911 30.1676 39.6303 30.0286 39.3465 29.9941C39.4846 29.7844 39.5531 29.5366 39.5424 29.2857C39.5317 29.0349 39.4423 28.7938 39.2869 28.5966C39.1315 28.3994 38.9179 28.2561 38.6765 28.1871C38.4351 28.1181 38.1781 28.1269 37.942 28.2121C37.8853 27.9712 37.7672 27.7491 37.5992 27.5674C37.4312 27.3857 37.2189 27.2506 36.9831 27.1754C36.7473 27.1002 36.4961 27.0874 36.2539 27.1382C36.0116 27.189 35.7867 27.3017 35.601 27.4653C35.2842 27.2964 34.9203 27.2375 34.5663 27.2979C34.2124 27.3583 33.8886 27.5346 33.6457 27.799C33.3984 27.7983 33.1575 27.8777 32.9591 28.0252C32.7606 28.1727 32.6152 28.3806 32.5447 28.6176C32.4741 28.8546 32.4822 29.1081 32.5676 29.3401C32.6531 29.5722 32.8113 29.7704 33.0188 29.905" fill="#263238"/>
<path d="M39.4843 32.4097C39.1583 31.2258 38.3982 30.2082 37.3555 29.5597C36.3128 28.9112 35.064 28.6794 33.858 28.9105L33.6102 28.9575C30.9631 29.6249 30.0462 32.2444 30.7881 34.8737L32.6414 44.4155L38.096 48.6275L39.507 45.1137L38.9513 41.9385C38.9513 41.9385 41.4494 41.0475 40.9909 38.4685C40.7754 37.2195 40.1112 34.6906 39.4843 32.4097Z" fill="#C17560"/>
<path d="M38.979 41.9271C37.7825 42.1558 36.5455 42.036 35.415 41.582C35.415 41.582 36.5312 43.3397 39.0552 42.6188L38.979 41.9271Z" fill="#7C4236"/>
<path d="M39.2537 34.8784C39.2731 34.9741 39.2542 35.0736 39.2013 35.1556C39.1483 35.2376 39.0654 35.2957 38.9702 35.3174C38.9241 35.3301 38.876 35.3334 38.8286 35.3271C38.7813 35.3209 38.7356 35.3052 38.6944 35.281C38.6532 35.2569 38.6173 35.2247 38.5887 35.1865C38.5601 35.1482 38.5394 35.1046 38.5279 35.0582C38.5086 34.9625 38.5274 34.8631 38.5804 34.781C38.6333 34.699 38.7162 34.6409 38.8114 34.6192C38.8575 34.6066 38.9056 34.6033 38.953 34.6095C39.0004 34.6158 39.046 34.6314 39.0872 34.6556C39.1284 34.6797 39.1644 34.7119 39.193 34.7502C39.2216 34.7884 39.2422 34.832 39.2537 34.8784Z" fill="#263238"/>
<path d="M39.1694 33.7753C39.1338 33.8304 38.8163 33.6781 38.421 33.7542C38.0257 33.8304 37.773 34.0782 37.7211 34.0442C37.6952 34.0264 37.7211 33.9308 37.8345 33.8142C37.9833 33.6631 38.1751 33.5618 38.3837 33.5242C38.5891 33.4834 38.8022 33.5102 38.9912 33.6003C39.1305 33.67 39.1889 33.7494 39.1694 33.7753Z" fill="#263238"/>
<path d="M35.6677 35.6399C35.6866 35.7356 35.6673 35.8348 35.6141 35.9165C35.5608 35.9982 35.4778 36.0559 35.3826 36.0773C35.3366 36.0899 35.2886 36.0932 35.2414 36.0869C35.1941 36.0807 35.1486 36.065 35.1075 36.0408C35.0664 36.0166 35.0306 35.9845 35.0022 35.9462C34.9737 35.908 34.9533 35.8644 34.942 35.8181C34.9227 35.7226 34.9415 35.6233 34.9945 35.5416C35.0475 35.4598 35.1304 35.402 35.2255 35.3807C35.2715 35.368 35.3197 35.3647 35.367 35.371C35.4144 35.3772 35.46 35.3929 35.5012 35.4171C35.5424 35.4412 35.5784 35.4734 35.607 35.5116C35.6356 35.5499 35.6562 35.5935 35.6677 35.6399Z" fill="#263238"/>
<path d="M35.2967 34.5886C35.261 34.6453 34.9435 34.4914 34.5482 34.5676C34.153 34.6437 33.9002 34.8916 33.8484 34.8575C33.8241 34.8397 33.8484 34.7441 33.9618 34.6291C34.11 34.4809 34.2999 34.3814 34.5061 34.344C34.7116 34.3044 34.9243 34.3311 35.1136 34.4201C35.2578 34.4833 35.3161 34.5627 35.2967 34.5886Z" fill="#263238"/>
<path d="M37.2903 37.2487C37.2903 37.226 37.522 37.1369 37.9108 37.0089C38.0096 36.9797 38.1019 36.9425 38.1052 36.8696C38.0936 36.7636 38.0501 36.6636 37.9804 36.5828L37.5365 35.8717C36.9128 34.8559 36.4414 34.0119 36.4819 33.9876C36.5224 33.9633 37.0619 34.7668 37.6856 35.7826L38.1181 36.5002C38.2047 36.6104 38.25 36.7473 38.2461 36.8874C38.2381 36.9258 38.2216 36.9619 38.1978 36.993C38.1739 37.0242 38.1434 37.0495 38.1084 37.0672C38.0568 37.092 38.0024 37.1105 37.9464 37.1223C37.5446 37.2211 37.2968 37.2697 37.2903 37.2487Z" fill="#263238"/>
<path d="M35.1535 33.2196C35.1211 33.3297 34.7614 33.286 34.3435 33.3508C33.9255 33.4156 33.5853 33.5533 33.5335 33.4561C33.5076 33.4091 33.5643 33.3054 33.6955 33.1969C33.8707 33.0625 34.0778 32.976 34.2965 32.9458C34.5117 32.9124 34.7319 32.9364 34.9348 33.0154C35.0952 33.0835 35.1745 33.1677 35.1535 33.2196Z" fill="#263238"/>
<path d="M38.9515 32.366C38.8851 32.4713 38.5417 32.4405 38.1415 32.5102C37.7414 32.5798 37.4287 32.7094 37.3315 32.6301C37.2894 32.5896 37.3234 32.4907 37.453 32.3773C37.6332 32.2333 37.8485 32.1399 38.0767 32.1068C38.3025 32.0645 38.5355 32.0846 38.7507 32.1651C38.9175 32.238 38.9807 32.3142 38.9515 32.366Z" fill="#263238"/>
<path d="M31.6854 37.2987C31.6643 37.2048 31.6244 37.1161 31.568 37.0381C31.5116 36.9601 31.44 36.8943 31.3574 36.8448C31.2749 36.7952 31.1831 36.763 31.0877 36.7499C30.9924 36.7369 30.8953 36.7434 30.8025 36.769C30.3311 36.9067 29.8483 37.2809 30.0703 38.2659C30.4607 40.0138 32.1358 39.2605 32.1277 39.2103C32.1196 39.1601 31.8555 38.0293 31.6854 37.2987Z" fill="#C17560"/>
<path d="M31.5993 38.6369C31.5912 38.6369 31.5734 38.6661 31.528 38.7001C31.4627 38.7479 31.3813 38.7683 31.3012 38.7568C31.1003 38.7292 30.88 38.4717 30.8006 38.159C30.7623 38.0101 30.7584 37.8544 30.7893 37.7038C30.7932 37.6455 30.8113 37.589 30.8421 37.5393C30.8729 37.4896 30.9154 37.4482 30.9659 37.4187C30.9987 37.4023 31.0361 37.3975 31.072 37.4051C31.108 37.4128 31.1402 37.4324 31.1635 37.4608C31.1975 37.5045 31.1943 37.5418 31.2056 37.5434C31.217 37.545 31.2364 37.5061 31.2056 37.4365C31.1859 37.3954 31.1527 37.3623 31.1117 37.3425C31.0834 37.3308 31.0531 37.3247 31.0226 37.3247C30.992 37.3247 30.9617 37.3308 30.9335 37.3425C30.8648 37.3727 30.8051 37.4199 30.76 37.4798C30.7149 37.5396 30.6859 37.6101 30.6759 37.6843C30.6354 37.852 30.6354 38.027 30.6759 38.1946C30.7666 38.5446 31.0209 38.8426 31.2899 38.8507C31.3399 38.8539 31.3901 38.8458 31.4367 38.8271C31.4832 38.8083 31.5249 38.7793 31.5588 38.7422C31.6058 38.6806 31.6058 38.6401 31.5993 38.6369Z" fill="#7C4236"/>
<path d="M37.325 29.0287C37.3006 28.9879 37.2718 28.9499 37.2391 28.9153C37.114 28.7883 36.961 28.6922 36.7923 28.6346C36.6236 28.5769 36.4438 28.5593 36.2671 28.5832C36.0492 28.5185 35.8266 28.4709 35.6013 28.4407C35.4302 28.2379 35.2102 28.0821 34.962 27.9882C34.7139 27.8942 34.4459 27.8652 34.1834 27.9038C33.9209 27.9424 33.6726 28.0474 33.462 28.2088C33.2515 28.3702 33.0856 28.5828 32.9801 28.8262C32.9089 28.8505 32.8392 28.8764 32.7695 28.904C32.5501 28.7987 32.3094 28.7452 32.066 28.7476C31.8226 28.75 31.583 28.8082 31.3656 28.9177C31.1483 29.0273 30.9589 29.1852 30.8122 29.3795C30.6655 29.5737 30.5653 29.799 30.5194 30.038C30.2925 30.0206 30.0655 30.0706 29.867 30.1817C29.6685 30.2929 29.5072 30.4601 29.4033 30.6626C29.2995 30.8651 29.2578 31.0937 29.2834 31.3197C29.309 31.5458 29.4009 31.7593 29.5474 31.9334C29.2655 32.1748 29.0614 32.5409 29.1164 32.9054C29.1715 33.2699 29.5538 33.5258 29.8762 33.4222C29.975 34.2775 30.2537 35.2528 30.4643 36.1195C30.6133 36.7302 31.4671 36.9473 31.5983 37.3555C32.2787 39.4372 32.7517 38.125 32.1782 33.6554C32.2155 33.6117 32.2544 33.5663 32.2916 33.5177C32.346 33.4131 32.3931 33.3048 32.4326 33.1937C32.5071 33.0625 32.6918 33.0641 32.8424 33.0512C33.1032 33.0219 33.3459 32.9039 33.53 32.7169C33.714 32.5299 33.8282 32.2853 33.8533 32.0241C34.0153 32.1861 34.3247 32.1278 34.5013 31.9625C34.6562 31.7808 34.7844 31.5778 34.882 31.3599C35.0035 31.1525 35.1898 30.9533 35.428 30.9419C35.5605 30.961 35.6947 30.9648 35.8281 30.9533C36.0549 30.8901 36.1165 30.5969 36.1067 30.362C36.0778 30.1634 36.1036 29.9606 36.1813 29.7755C36.308 29.6795 36.4513 29.6075 36.6041 29.5633C36.6932 29.5633 36.7855 29.5633 36.873 29.5536C36.9149 29.5513 36.9566 29.5459 36.9977 29.5374C37.0556 29.5453 37.1129 29.5567 37.1695 29.5714C38.0183 29.7998 39.0033 31.2821 39.0033 31.2821C38.8802 30.2453 38.1544 29.5001 37.325 29.0287Z" fill="#263238"/>
<path d="M29.3447 32.0614C29.3447 32.0614 29.3447 32.0516 29.3561 32.0322C29.3674 32.0128 29.3771 31.9868 29.3982 31.9528C29.462 31.8561 29.542 31.7712 29.6347 31.7017C29.7822 31.592 29.9539 31.5193 30.1353 31.4895C30.3754 31.4476 30.6226 31.49 30.8351 31.6094L30.7898 31.6337C30.8055 31.4338 30.8637 31.2395 30.9603 31.0638C31.0569 30.8881 31.1899 30.735 31.3503 30.6147C31.5273 30.4743 31.7289 30.3683 31.9448 30.302C32.173 30.236 32.4106 30.2081 32.6479 30.2194C33.0926 30.2464 33.5283 30.3563 33.9326 30.5434L33.884 30.5693C33.9634 30.1729 34.1904 29.8215 34.519 29.586C34.7319 29.4364 34.9791 29.3432 35.2377 29.3148C35.4963 29.2865 35.7579 29.3241 35.9981 29.424C36.0482 29.4445 36.0969 29.4683 36.1439 29.4953C36.1746 29.5147 36.1908 29.5261 36.1892 29.5277C36.1876 29.5293 36.1212 29.4937 35.99 29.4451C35.8016 29.3768 35.6022 29.3444 35.4019 29.3495C35.0965 29.3557 34.8003 29.4552 34.553 29.6346C34.241 29.864 34.0265 30.2022 33.952 30.5823L33.9439 30.626L33.9034 30.6082C33.5071 30.4244 33.0805 30.3145 32.6447 30.2842C32.4156 30.2741 32.1864 30.3009 31.9659 30.3636C31.758 30.4256 31.5639 30.5268 31.394 30.6617C31.2396 30.776 31.111 30.9217 31.017 31.0892C30.9229 31.2567 30.8653 31.4423 30.8481 31.6337V31.6823L30.806 31.658C30.606 31.5414 30.372 31.4974 30.1434 31.5332C29.9684 31.5581 29.8018 31.6242 29.6574 31.726C29.532 31.816 29.4258 31.93 29.3447 32.0614Z" fill="#455A64"/>
<path d="M36.1838 29.6541C36.1799 29.6793 36.174 29.7043 36.166 29.7286C36.1513 29.7996 36.1421 29.8716 36.1384 29.944C36.1384 30.0396 36.1384 30.1563 36.1271 30.294C36.1311 30.4535 36.1007 30.6121 36.038 30.7589C36.0148 30.8021 35.9832 30.8403 35.9451 30.8711C35.907 30.902 35.8631 30.925 35.8161 30.9387C35.7168 30.9626 35.6152 30.9751 35.5131 30.976C35.4098 30.9762 35.3083 31.003 35.2183 31.0537C35.1291 31.1204 35.0547 31.2048 34.9996 31.3016C34.938 31.4004 34.8829 31.509 34.823 31.6256C34.7694 31.7435 34.6984 31.8527 34.6124 31.9496C34.5107 32.0462 34.3866 32.1158 34.2511 32.1521C34.1813 32.173 34.1085 32.1818 34.0357 32.178C33.9558 32.1768 33.8796 32.1442 33.8235 32.0873L33.885 32.0646C33.8802 32.2869 33.8002 32.501 33.6582 32.6721C33.5077 32.8479 33.3115 32.9786 33.0912 33.0496C32.9998 33.0786 32.906 33.0998 32.811 33.1128C32.7231 33.1099 32.6357 33.1265 32.555 33.1614C32.4814 33.2025 32.4242 33.2677 32.393 33.346C32.3524 33.4275 32.3053 33.5055 32.2521 33.5793C32.0627 33.8767 31.7683 34.0918 31.4275 34.182C31.1158 34.2267 30.7985 34.1564 30.5349 33.9843C30.3082 33.8415 30.1298 33.6338 30.0229 33.3882L30.057 33.4011C29.9614 33.4408 29.8583 33.4589 29.755 33.4541C29.6517 33.4494 29.5507 33.4219 29.4592 33.3736C29.3219 33.3001 29.2147 33.1809 29.1562 33.0366C29.1192 32.948 29.1021 32.8523 29.106 32.7564C29.1062 32.7318 29.1089 32.7074 29.1141 32.6835C29.1141 32.6673 29.1141 32.6592 29.1141 32.6592C29.1042 32.7849 29.1254 32.9112 29.1757 33.0269C29.2349 33.1616 29.3392 33.2715 29.4705 33.3379C29.5568 33.3811 29.6515 33.4051 29.748 33.4082C29.8445 33.4113 29.9405 33.3934 30.0294 33.3558L30.0537 33.346L30.0634 33.3687C30.1696 33.6022 30.3427 33.799 30.5608 33.9341C30.8121 34.0947 31.113 34.1591 31.408 34.1155C31.7299 34.0285 32.0077 33.8246 32.1873 33.5437C32.2388 33.4731 32.2844 33.3983 32.3233 33.3201C32.3615 33.2287 32.4286 33.1524 32.5145 33.103C32.5587 33.079 32.6071 33.0636 32.6571 33.0577L32.7948 33.0463C32.885 33.0341 32.974 33.0135 33.0604 32.9848C33.2681 32.9192 33.4532 32.7969 33.595 32.6316C33.7278 32.4733 33.8027 32.2744 33.8073 32.0679V31.9836L33.8656 32.0452C33.9159 32.083 33.9752 32.1072 34.0376 32.1154C34.1 32.1236 34.1635 32.1156 34.222 32.0922C34.3464 32.0593 34.4605 31.9958 34.5541 31.9075C34.6408 31.8136 34.7119 31.7064 34.7647 31.59C34.8262 31.4798 34.8829 31.3713 34.9477 31.266C35.008 31.1624 35.0891 31.0725 35.1859 31.0019C35.2848 30.9465 35.3965 30.918 35.5099 30.9193C35.608 30.919 35.7057 30.9082 35.8015 30.8869C35.8426 30.8756 35.881 30.8564 35.9147 30.8302C35.9483 30.8041 35.9764 30.7716 35.9975 30.7346C36.0605 30.5946 36.0926 30.4426 36.0915 30.2891C36.0996 30.153 36.1044 30.0348 36.1141 29.9392C36.1209 29.8657 36.1344 29.793 36.1546 29.7221C36.1616 29.6983 36.1714 29.6755 36.1838 29.6541Z" fill="#455A64"/>
<path d="M36.189 38.1736C36.1161 38.6596 36.3251 39.1245 36.7819 39.2914C36.8709 39.3189 36.9643 39.3287 37.057 39.32C37.1497 39.3114 37.2398 39.2846 37.3221 39.2411C37.4044 39.1976 37.4773 39.1383 37.5367 39.0666C37.5961 38.9949 37.6407 38.9122 37.6681 38.8232C37.7203 38.6245 37.7242 38.4162 37.6794 38.2157C37.2598 38.1914 36.6118 38.1979 36.189 38.1736Z" fill="#7C4236"/>
<path d="M37.5836 39.0191C37.5836 39.0191 37.5836 39.0321 37.5658 39.0531C37.5456 39.0841 37.5217 39.1124 37.4945 39.1374C37.3949 39.2323 37.269 39.295 37.1332 39.3172C36.9287 39.3485 36.7196 39.306 36.5435 39.1973C36.4384 39.1274 36.3488 39.0364 36.2805 38.9302C36.2122 38.824 36.1666 38.7048 36.1466 38.5801C36.137 38.5147 36.1337 38.4485 36.1369 38.3825C36.1372 38.3133 36.1551 38.2453 36.1888 38.1848C36.2098 38.1523 36.2412 38.1278 36.2779 38.1152C36.3103 38.1048 36.3443 38.1004 36.3783 38.1022H36.55C36.772 38.1135 36.9712 38.1346 37.1381 38.1524C37.4702 38.1881 37.6775 38.1978 37.6775 38.2107C37.4967 38.2319 37.314 38.2319 37.1332 38.2107C36.9712 38.201 36.7671 38.1848 36.5468 38.1783H36.3848C36.3281 38.1783 36.2876 38.1864 36.2633 38.2253C36.2394 38.276 36.2273 38.3313 36.2276 38.3873C36.2202 38.5322 36.2497 38.6767 36.3135 38.8071C36.3773 38.9374 36.4732 39.0494 36.5921 39.1325C36.752 39.234 36.9417 39.278 37.13 39.2573C37.2581 39.243 37.3795 39.1924 37.4799 39.1115C37.5479 39.0564 37.5836 39.0126 37.5836 39.0191Z" fill="#263238"/>
<path d="M47.3682 33.4285C47.3682 33.4285 49.4207 33.1726 52.5052 30.7183C55.5897 28.264 57.2615 24.7761 57.6049 24.828C57.9484 24.8798 59.5279 24.3177 61.8169 30.8446C64.106 37.3716 62.8327 38.7178 62.2624 38.6514C61.6922 38.585 57.9079 37.1367 55.4584 37.1853C53.009 37.2339 49.7674 38.2027 49.7674 38.2027L47.3682 33.4285Z" fill="#C8AE7D"/>
<path d="M43.6764 38.3015L44.7731 38.0682L44.1786 36.6248L43.252 37.0881L43.6764 38.3015Z" fill="#455A64"/>
<path d="M43.8045 36.586L44.2095 37.8042L44.4622 38.4166C44.6269 38.8234 44.9419 39.1513 45.3418 39.3323C45.7417 39.5133 46.196 39.5334 46.6103 39.3886L51.0605 38.1363L49.1489 32.502L44.7263 34.3666C44.3114 34.5407 43.982 34.8714 43.8094 35.2869C43.6369 35.7024 43.6351 36.1692 43.8045 36.586Z" fill="#263238"/>
<path d="M45.4004 38.4586L46.8908 41.1008L47.5712 40.8821L52.2255 44.3554L53.3805 41.8412C53.3805 41.8412 50.6719 40.806 50.1405 39.8777C49.6092 38.9495 50.1697 38.7113 50.1697 38.7113L48.8591 37.3408L45.4004 38.4586Z" fill="#263238"/>
<path d="M61.5723 30.9419C62.7825 34.4751 63.1356 37.5548 62.3597 37.8204C61.5837 38.0861 59.9718 35.439 58.76 31.9058C57.5483 28.3726 57.1967 25.293 57.9727 25.0257C58.7487 24.7584 60.3606 27.4038 61.5723 30.9419Z" fill="#263238"/>
<path d="M58.5225 29.8888C58.5225 29.8888 60.3725 28.9703 61.1064 31.4213C61.8402 33.8724 59.9643 34.0878 59.9643 34.0878C59.2889 32.7628 58.8036 31.3492 58.5225 29.8888Z" fill="#FAFAFA"/>
<path d="M56.9295 26.8999C56.9237 27.0532 56.9323 27.2067 56.9554 27.3584C56.983 27.6516 57.0218 28.0776 57.085 28.6025C57.1358 28.8628 57.1898 29.1458 57.247 29.4514C57.2778 29.6037 57.3086 29.7624 57.3394 29.9244C57.3556 30.0054 57.3718 30.0881 57.388 30.1723C57.4074 30.2549 57.4333 30.3343 57.456 30.4218L57.7557 31.4764L57.8335 31.7518C57.8594 31.8458 57.8999 31.9349 57.9323 32.0272C58.0003 32.2119 58.07 32.3982 58.1413 32.5877L58.3519 33.1482C58.3875 33.239 58.4167 33.3329 58.4588 33.4204L58.5803 33.6812L59.0485 34.6743C59.0873 34.752 59.1214 34.8363 59.1619 34.9059L59.2882 35.1246L59.5296 35.5442L59.9638 36.291C60.2602 36.7284 60.5097 37.0735 60.6814 37.3133C60.764 37.4427 60.8583 37.5642 60.9633 37.6761C60.897 37.538 60.8189 37.4057 60.73 37.2809L60.0529 36.2327L59.6381 35.4778L59.4065 35.0615C59.366 34.9886 59.3255 34.9157 59.2834 34.8428C59.2412 34.7699 59.2121 34.6889 59.1748 34.6095C59.029 34.2936 58.8751 33.9615 58.718 33.6197L58.5965 33.3605C58.556 33.273 58.5268 33.1806 58.4912 33.0899L58.2838 32.5343C58.2142 32.3463 58.1445 32.16 58.0748 31.977C58.0424 31.8863 58.0019 31.7972 57.9776 31.7048C57.9533 31.6125 57.9242 31.5201 57.8966 31.4294L57.5921 30.3829C57.5694 30.3003 57.5419 30.2209 57.5224 30.1367C57.503 30.0524 57.4868 29.9747 57.4706 29.892C57.4366 29.73 57.4025 29.568 57.3718 29.4222C57.307 29.1209 57.2454 28.839 57.1903 28.5815C57.1174 28.0663 57.0559 27.6467 57.0137 27.3486C56.9973 27.1971 56.9691 27.0471 56.9295 26.8999Z" fill="#263238"/>
<path d="M51.0604 38.1282C50.9964 38.1576 50.9289 38.1788 50.8596 38.1914L50.3088 38.3372C49.8422 38.457 49.1991 38.6271 48.4895 38.8232C47.7799 39.0192 47.14 39.1974 46.6719 39.3092C46.437 39.3675 46.2474 39.4112 46.1146 39.4388C46.0466 39.456 45.9772 39.4674 45.9072 39.4728C45.9717 39.4437 46.039 39.4215 46.1081 39.4064L46.6557 39.2444L48.4684 38.7308C49.1764 38.5348 49.8244 38.3728 50.2942 38.2675C50.5291 38.214 50.7202 38.1735 50.8531 38.1492C50.9214 38.1358 50.9908 38.1287 51.0604 38.1282Z" fill="#455A64"/>
<path d="M48.4377 37.208C48.3 37.2854 48.1545 37.3479 48.0035 37.3943C47.7297 37.4964 47.3555 37.626 46.923 37.7539C46.4904 37.8819 46.1049 37.9807 45.8214 38.0455C45.6696 38.0889 45.5138 38.1166 45.3564 38.1282C45.5026 38.0693 45.6532 38.0222 45.8068 37.9872C46.0871 37.9078 46.4726 37.7993 46.8987 37.6729C47.3247 37.5466 47.7087 37.4251 47.9841 37.3376C48.1316 37.2824 48.2833 37.239 48.4377 37.208Z" fill="#455A64"/>
<path d="M47.738 35.9219C47.2901 36.1018 46.8319 36.2549 46.3658 36.3803C45.9076 36.5338 45.4408 36.6603 44.9678 36.7594C45.4162 36.5792 45.875 36.4255 46.3415 36.2993C46.7994 36.1468 47.2656 36.0207 47.738 35.9219Z" fill="#455A64"/>
<path d="M47.0475 34.6824C46.6701 34.8933 46.2794 35.0794 45.8778 35.2397C45.488 35.4274 45.0865 35.5897 44.6758 35.7257C45.0521 35.5132 45.4423 35.3265 45.8438 35.1668C46.2337 34.9784 46.6358 34.8166 47.0475 34.6824Z" fill="#455A64"/>
<path d="M42.0406 48.6243L39.3384 44.064L32.3514 43.7756V44.4107C32.3514 44.4107 30.4333 46.3417 29.8145 48.971C29.3463 50.962 31.3162 58.5598 31.8702 61.1939C32.5506 64.4339 33.4902 68.5292 33.4902 68.5292C33.3493 69.255 32.4178 69.8431 32.4826 70.8118L48.0119 70.6417L47.2133 67.4941L42.0406 48.6243Z" fill="#C8AE7D"/>
<path d="M47.429 68.7008C47.429 68.7251 44.3381 68.7429 40.5262 68.7429C36.7143 68.7429 33.625 68.7251 33.625 68.7008C33.625 68.6765 36.7143 68.6587 40.5262 68.6587C44.3381 68.6587 47.429 68.6781 47.429 68.7008Z" fill="white"/>
<path d="M46.3544 64.7999C46.3544 64.8242 43.2926 64.8437 39.5164 64.8437C35.7402 64.8437 32.6768 64.8242 32.6768 64.7999C32.6768 64.7756 35.7386 64.7578 39.5164 64.7578C43.2942 64.7578 46.3544 64.7821 46.3544 64.7999Z" fill="white"/>
<path d="M45.3017 60.5702C45.3017 60.5929 42.3047 60.6123 38.6079 60.6123C34.9111 60.6123 31.9141 60.588 31.9141 60.5702C31.9141 60.5524 34.9094 60.5281 38.6063 60.5281C42.3031 60.5281 45.3017 60.5459 45.3017 60.5702Z" fill="white"/>
<path d="M44.5642 56.3077C44.5642 56.3304 41.4765 56.3499 37.6695 56.3499C33.8625 56.3499 30.7764 56.3304 30.7764 56.3077C30.7764 56.2851 33.8625 56.2656 37.6695 56.2656C41.4765 56.2656 44.5642 56.2834 44.5642 56.3077Z" fill="white"/>
<path d="M42.9303 51.0203C42.9303 51.043 40.0143 51.0624 36.4065 51.0624C32.7988 51.0624 29.8828 51.043 29.8828 51.0203C29.8828 50.9976 32.7988 50.9766 36.4065 50.9766C40.0143 50.9766 42.9303 50.996 42.9303 51.0203Z" fill="white"/>
<path d="M40.709 46.1698C40.709 46.1925 38.5528 46.2119 35.8911 46.2119C33.2295 46.2119 31.0732 46.1925 31.0732 46.1698C31.0732 46.1471 33.2295 46.1277 35.8911 46.1277C38.5528 46.1277 40.709 46.1536 40.709 46.1698Z" fill="white"/>
<path opacity="0.3" d="M31.8018 51.4365C32.4817 52.578 33.3398 53.6035 34.3435 54.474C35.9036 55.77 40.6502 58.0931 40.6502 58.0931L41.0471 57.2734L44.5884 58.1012L43.9404 55.9207L31.8018 51.4365Z" fill="black"/>
<path d="M48.4619 45.6838L47.2258 52.3971L36.6375 47.3637L34.9316 53.3351C39.0934 55.3698 47.5174 58.7572 48.6012 58.66C50.1434 58.5207 51.2094 57.5989 51.6889 55.3406C51.987 53.9426 51.8509 44.5676 51.8509 44.5676L48.4619 45.6838Z" fill="#C17560"/>
<path d="M37.3293 46.4616C37.3293 46.4616 33.37 44.0154 31.6431 47.0982C30.4086 50.1049 31.7743 52.5058 34.8232 53.9962C36.2925 54.7155 38.2948 55.6032 40.3166 56.4472L43.2633 49.9073L37.3293 46.4616Z" fill="#C8AE7D"/>
<path d="M37.3299 46.4614C37.3299 46.4614 37.3688 46.4793 37.44 46.5198L37.7543 46.6963L38.9499 47.38L43.2818 49.878L43.3077 49.8942L43.2947 49.9218L40.356 56.4633L40.3398 56.5006L40.3026 56.4844C39.2658 56.0535 38.1966 55.5934 37.1079 55.1074C36.6273 54.8914 36.1527 54.6754 35.684 54.4594C35.2174 54.2407 34.7573 54.022 34.3151 53.7806C34.0991 53.6564 33.8858 53.5263 33.6752 53.3902C33.4743 53.2444 33.2669 53.1115 33.0839 52.9495C32.7098 52.6491 32.3731 52.3048 32.0811 51.9241L31.8802 51.6357C31.8152 51.5401 31.7562 51.4406 31.7036 51.3376C31.5931 51.1384 31.4968 50.9316 31.4153 50.7188C31.378 50.6135 31.3505 50.5033 31.3181 50.3948L31.2711 50.2328C31.2581 50.1777 31.2516 50.1243 31.2403 50.0708C31.2225 49.9639 31.203 49.8553 31.1852 49.7468C31.1674 49.6383 31.1723 49.533 31.1658 49.4228C31.1541 49.2128 31.1579 49.0021 31.1771 48.7926C31.1933 48.5869 31.2371 48.386 31.2662 48.1884C31.2954 47.9907 31.365 47.8028 31.4185 47.6165C31.472 47.4302 31.5497 47.2552 31.6129 47.0803C31.843 46.6619 32.1628 46.2996 32.5493 46.0192C32.9029 45.7798 33.3051 45.6216 33.727 45.5559C34.405 45.4736 35.0928 45.5405 35.7423 45.7519C36.1539 45.8796 36.5539 46.0422 36.9378 46.2379C37.0691 46.3059 37.1663 46.361 37.2327 46.3999C37.2991 46.4388 37.3283 46.4614 37.3283 46.4614L37.2278 46.408C37.1614 46.3723 37.0658 46.3205 36.9281 46.2557C36.5426 46.0676 36.1422 45.9115 35.7309 45.7891C35.0867 45.5845 34.4055 45.5231 33.7351 45.6093C33.3217 45.6751 32.9282 45.8322 32.5833 46.0694C32.2055 46.3461 31.8935 46.7029 31.6696 47.1143C31.608 47.2893 31.5432 47.4658 31.4784 47.6473C31.4136 47.8287 31.3796 48.0199 31.331 48.211C31.2824 48.4022 31.2614 48.6047 31.2452 48.8088C31.2273 49.0152 31.2241 49.2225 31.2354 49.4293C31.2354 49.533 31.2468 49.6399 31.2565 49.7533C31.2662 49.8667 31.2921 49.9639 31.3116 50.0692C31.3213 50.1226 31.3278 50.1761 31.3408 50.2312L31.3877 50.3932C31.4201 50.4985 31.4461 50.6054 31.4849 50.7091C31.5648 50.9181 31.6595 51.1211 31.7684 51.3166C31.8209 51.4174 31.8788 51.5152 31.9418 51.6098L32.141 51.8917C32.4298 52.2672 32.7626 52.6066 33.1325 52.9026C33.3199 53.0576 33.5151 53.203 33.7173 53.3383C33.9225 53.4733 34.1342 53.6019 34.3523 53.7239C34.7897 53.962 35.2498 54.1824 35.7164 54.3994C36.1829 54.6165 36.6592 54.8352 37.1403 55.0474C38.2257 55.5334 39.2949 55.9935 40.3301 56.4261L40.2767 56.4471C41.3766 54.0171 42.3827 51.7783 43.2299 49.912L43.2445 49.9542L38.9272 47.4302L37.7462 46.7125L37.4384 46.5279C37.3655 46.4938 37.3299 46.4614 37.3299 46.4614Z" fill="#263238"/>
<path d="M48.303 46.8342L48.5411 44.3329C48.5411 44.3329 47.5853 42.4083 47.6048 42.2155C47.6242 42.0228 47.6793 40.9617 47.6793 40.9617L50.0688 38.8103C50.0688 38.8103 50.8432 38.8103 50.8626 39.5766C50.8626 39.5766 51.6062 39.4146 51.6175 40.312C51.6175 40.312 52.4275 40.3412 52.4437 40.9941C52.4437 40.9941 52.9297 40.9293 52.9135 41.6113C52.9006 42.0973 52.6867 43.9781 52.6867 43.9781L51.6872 45.7164L51.6046 47.4546L48.303 46.8342Z" fill="#C17560"/>
<path d="M48.5515 54.8499C48.524 54.8596 48.3474 54.2521 47.9861 53.5717C47.6249 52.8913 47.2053 52.415 47.2263 52.3972C47.3333 52.4851 47.4286 52.5864 47.5098 52.6985C47.7188 52.9585 47.9032 53.2372 48.0607 53.5312C48.2166 53.8256 48.3467 54.1329 48.4495 54.4498C48.4989 54.5787 48.5331 54.713 48.5515 54.8499Z" fill="#7C4236"/>
<path d="M34.9323 45.6304C34.9041 45.7095 34.8688 45.786 34.827 45.8588C34.7541 46.003 34.6455 46.2087 34.503 46.4614C34.2292 46.9685 33.8388 47.6618 33.403 48.4232L32.2803 50.3672L31.9401 50.9569C31.9007 51.031 31.8558 51.1019 31.8057 51.1691C31.8339 51.09 31.8691 51.0136 31.911 50.9407C31.9839 50.7982 32.0924 50.5908 32.235 50.3381C32.5087 49.831 32.8975 49.1377 33.3349 48.3763C33.7723 47.6149 34.1628 46.9393 34.456 46.4323C34.5953 46.1941 34.7103 45.9949 34.7978 45.8426C34.8364 45.7681 34.8814 45.6971 34.9323 45.6304Z" fill="white"/>
<path d="M38.1605 47.0447C38.155 47.07 38.1463 47.0945 38.1346 47.1176L38.0455 47.3201C37.9661 47.4967 37.8494 47.7478 37.6988 48.0572C37.4007 48.676 36.9746 49.5233 36.4757 50.4451C35.9767 51.3668 35.5037 52.1882 35.1473 52.7762C34.9691 53.0695 34.8233 53.306 34.7196 53.468L34.5997 53.6543C34.586 53.6762 34.5703 53.6968 34.5527 53.7158C34.5527 53.7158 34.5608 53.6899 34.5851 53.6446L34.6921 53.4518L35.0954 52.7455C35.4373 52.1509 35.9054 51.3247 36.4012 50.4046C36.8969 49.4844 37.3343 48.642 37.6453 48.0296L38.0163 47.3071L38.1184 47.1111C38.1293 47.0871 38.1435 47.0648 38.1605 47.0447Z" fill="white"/>
<path d="M41.7732 49.0664C41.7466 49.1582 41.7136 49.2481 41.6744 49.3353C41.6079 49.4973 41.5043 49.75 41.3714 50.0497C41.1041 50.6475 40.7088 51.464 40.2212 52.3388C39.7336 53.2136 39.2492 53.9782 38.8782 54.5209C38.6936 54.7915 38.5397 55.0069 38.4295 55.1544C38.3769 55.2336 38.3178 55.3084 38.2529 55.3779C38.2966 55.2935 38.3469 55.2128 38.4036 55.1365L38.828 54.4885C39.1844 53.9394 39.6607 53.1715 40.1483 52.2999C40.6359 51.4284 41.0361 50.6167 41.3163 50.0319L41.6403 49.3288C41.6767 49.2376 41.7211 49.1497 41.7732 49.0664Z" fill="white"/>
<path d="M32.3594 73.8104L32.6963 70.8118L47.5112 70.6482L47.8887 73.8104H32.3594Z" fill="#263238"/>
<path d="M50.7054 73.548C50.7054 73.5707 46.1419 73.5901 40.5124 73.5901C34.8829 73.5901 30.3193 73.5707 30.3193 73.548C30.3193 73.5253 34.8829 73.5059 40.5124 73.5059C46.1419 73.5059 50.7054 73.5221 50.7054 73.548Z" fill="#455A64"/>
<path d="M42.4485 21.2236H36.9389C36.7564 21.2236 36.6084 21.3716 36.6084 21.5541V21.7923C36.6084 21.9748 36.7564 22.1227 36.9389 22.1227H42.4485C42.631 22.1227 42.779 21.9748 42.779 21.7923V21.5541C42.779 21.3716 42.631 21.2236 42.4485 21.2236Z" fill="#455A64"/>
<path d="M44.2757 21.674C44.2757 21.7631 44.2493 21.8501 44.1998 21.9242C44.1503 21.9983 44.08 22.056 43.9977 22.0901C43.9154 22.1242 43.8249 22.1331 43.7375 22.1157C43.6501 22.0983 43.5699 22.0554 43.5069 21.9924C43.4439 21.9295 43.401 21.8492 43.3837 21.7619C43.3663 21.6745 43.3752 21.5839 43.4093 21.5016C43.4434 21.4194 43.5011 21.349 43.5752 21.2995C43.6492 21.25 43.7363 21.2236 43.8254 21.2236C43.8845 21.2236 43.9431 21.2353 43.9977 21.2579C44.0523 21.2805 44.102 21.3137 44.1438 21.3555C44.1856 21.3974 44.2188 21.447 44.2414 21.5016C44.2641 21.5563 44.2757 21.6149 44.2757 21.674Z" fill="#455A64"/>
<path d="M25.6089 28.2024H25.9734V35.7192H25.6089C25.3425 35.7192 25.087 35.6134 24.8987 35.425C24.7103 35.2366 24.6045 34.9812 24.6045 34.7148V29.2068C24.6045 29.0749 24.6305 28.9443 24.6809 28.8224C24.7314 28.7006 24.8054 28.5898 24.8987 28.4966C24.9919 28.4033 25.1027 28.3293 25.2245 28.2788C25.3464 28.2284 25.477 28.2024 25.6089 28.2024Z" fill="#263238"/>
<path d="M25.5181 39.1245H25.8826V46.6413H25.5181C25.2517 46.6413 24.9962 46.5355 24.8079 46.3471C24.6195 46.1588 24.5137 45.9033 24.5137 45.6369V40.1289C24.5137 39.8625 24.6195 39.6071 24.8079 39.4187C24.9962 39.2303 25.2517 39.1245 25.5181 39.1245Z" fill="#263238"/>
<path d="M25.5441 50.2652C25.5198 50.2652 25.502 44.8091 25.502 38.0796C25.502 31.3501 25.5198 25.8923 25.5441 25.8923C25.5684 25.8923 25.5862 31.3485 25.5862 38.0796C25.5862 44.8107 25.5668 50.2652 25.5441 50.2652Z" fill="#455A64"/>
</svg>
